<svg width="36" height="47" viewBox="0 0 36 47" fill="none" xmlns="http://www.w3.org/2000/svg">
<path d="M22.3581 36.2342H20.9562L20.4593 35.8211C22.1984 34.0772 23.2454 31.813 23.2454 29.35C23.2454 23.858 18.0813 19.4062 11.7106 19.4062C5.33982 19.4062 0.175781 23.858 0.175781 29.35C0.175781 34.8421 5.33982 39.2938 11.7106 39.2938C14.5677 39.2938 17.194 38.3912 19.2171 36.892L19.6962 37.3204V38.5289L28.5691 46.1627L31.2133 43.8833L22.3581 36.2342ZM11.7106 36.2342C7.29186 36.2342 3.72495 33.1593 3.72495 29.35C3.72495 25.5408 7.29186 22.4659 11.7106 22.4659C16.1293 22.4659 19.6962 25.5408 19.6962 29.35C19.6962 33.1593 16.1293 36.2342 11.7106 36.2342Z" fill="white"/>
</svg>
