<svg width="728" height="708" viewBox="0 0 728 708" fill="none" xmlns="http://www.w3.org/2000/svg">
<path d="M374.325 707.741C563.319 707.741 716.529 672.053 716.529 628.03C716.529 584.006 563.319 548.318 374.325 548.318C185.33 548.318 32.1196 584.006 32.1196 628.03C32.1196 672.053 185.33 707.741 374.325 707.741Z" fill="#FF81AE"/>
<path opacity="0.5" d="M374.325 707.741C563.319 707.741 716.529 672.053 716.529 628.03C716.529 584.006 563.319 548.318 374.325 548.318C185.33 548.318 32.1196 584.006 32.1196 628.03C32.1196 672.053 185.33 707.741 374.325 707.741Z" fill="white"/>
<path d="M368.281 49.2979H160.79V311.316H368.281V49.2979Z" stroke="#263238" stroke-linecap="round" stroke-linejoin="round"/>
<path d="M355.09 65.9551H173.98V294.659H355.09V65.9551Z" stroke="#263238" stroke-linecap="round" stroke-linejoin="round"/>
<path d="M355.09 173.489H173.98V194.686H355.09V173.489Z" stroke="#263238" stroke-linecap="round" stroke-linejoin="round"/>
<path d="M174.594 203.858H354.999" stroke="#263238" stroke-linecap="round" stroke-linejoin="round"/>
<path d="M174.594 212.877H354.999" stroke="#263238" stroke-linecap="round" stroke-linejoin="round"/>
<path d="M174.594 221.896H354.999" stroke="#263238" stroke-linecap="round" stroke-linejoin="round"/>
<path d="M174.594 230.914H354.999" stroke="#263238" stroke-linecap="round" stroke-linejoin="round"/>
<path d="M174.594 239.934H354.999" stroke="#263238" stroke-linecap="round" stroke-linejoin="round"/>
<path d="M174.594 248.937H354.999" stroke="#263238" stroke-linecap="round" stroke-linejoin="round"/>
<path d="M174.594 257.955H354.999" stroke="#263238" stroke-linecap="round" stroke-linejoin="round"/>
<path d="M174.594 266.974H354.999" stroke="#263238" stroke-linecap="round" stroke-linejoin="round"/>
<path d="M174.594 275.993H354.999" stroke="#263238" stroke-linecap="round" stroke-linejoin="round"/>
<path d="M174.594 284.996H354.999" stroke="#263238" stroke-linecap="round" stroke-linejoin="round"/>
<path d="M611.897 115.083L521.282 108.174L511.687 234.025L602.301 240.933L611.897 115.083Z" stroke="#263238" stroke-linecap="round" stroke-linejoin="round"/>
<path d="M602.273 126.501L529.063 120.919L521.31 222.606L594.52 228.188L602.273 126.501Z" stroke="#263238" stroke-linecap="round" stroke-linejoin="round"/>
<path d="M485.034 180.13H415.369V271.007H485.034V180.13Z" stroke="#263238" stroke-linecap="round" stroke-linejoin="round"/>
<path d="M476.521 191.25H423.881V259.918H476.521V191.25Z" stroke="#263238" stroke-linecap="round" stroke-linejoin="round"/>
<path d="M231.682 315.165H221.282C219.156 315.165 217.433 316.889 217.433 319.015V341.148C217.433 343.274 219.156 344.997 221.282 344.997H231.682C233.808 344.997 235.531 343.274 235.531 341.148V319.015C235.531 316.889 233.808 315.165 231.682 315.165Z" fill="white" stroke="#263238" stroke-linecap="round" stroke-linejoin="round"/>
<path d="M232.541 331.056C232.544 332.255 232.191 333.428 231.527 334.426C230.863 335.424 229.918 336.203 228.811 336.664C227.705 337.125 226.486 337.247 225.31 337.015C224.134 336.783 223.053 336.207 222.204 335.361C221.355 334.514 220.776 333.434 220.541 332.259C220.306 331.083 220.425 329.864 220.884 328.756C221.342 327.648 222.118 326.701 223.115 326.035C224.111 325.368 225.283 325.013 226.482 325.013C228.08 325.032 229.608 325.675 230.739 326.804C231.871 327.932 232.517 329.458 232.541 331.056Z" fill="#FF81AE" stroke="#263238" stroke-linecap="round" stroke-linejoin="round"/>
<path d="M233.86 313.479H219.12V315.564H233.86V313.479Z" fill="white" stroke="#263238" stroke-linecap="round" stroke-linejoin="round"/>
<path d="M233.86 344.859H219.12V346.945H233.86V344.859Z" fill="white" stroke="#263238" stroke-linecap="round" stroke-linejoin="round"/>
<path d="M277.067 342.222V331.822C277.067 329.696 275.343 327.973 273.217 327.973H251.084C248.958 327.973 247.235 329.696 247.235 331.822V342.222C247.235 344.348 248.958 346.071 251.084 346.071H273.217C275.343 346.071 277.067 344.348 277.067 342.222Z" fill="white" stroke="#263238" stroke-linecap="round" stroke-linejoin="round"/>
<path d="M261.176 343.065C259.977 343.068 258.805 342.715 257.806 342.052C256.808 341.388 256.029 340.443 255.568 339.336C255.107 338.229 254.985 337.01 255.217 335.834C255.449 334.658 256.025 333.577 256.872 332.728C257.718 331.879 258.798 331.301 259.973 331.066C261.149 330.831 262.368 330.95 263.476 331.408C264.584 331.866 265.531 332.643 266.197 333.639C266.864 334.636 267.22 335.808 267.22 337.007C267.2 338.605 266.557 340.132 265.429 341.263C264.3 342.395 262.774 343.041 261.176 343.065Z" fill="#FF81AE" stroke="#263238" stroke-linecap="round" stroke-linejoin="round"/>
<path d="M278.739 344.384V329.645H276.653V344.384H278.739Z" fill="white" stroke="#263238" stroke-linecap="round" stroke-linejoin="round"/>
<path d="M247.373 344.384V329.645H245.287V344.384H247.373Z" fill="white" stroke="#263238" stroke-linecap="round" stroke-linejoin="round"/>
<path d="M311.117 316.699H290.702L293.77 346.562H308.065L311.117 316.699Z" fill="white" stroke="#263238" stroke-linecap="round" stroke-linejoin="round"/>
<path d="M294.123 330.688L295.396 343.157H306.439L307.712 330.688H294.123Z" fill="#FF81AE"/>
<path d="M160.636 328.893H140.712V345.979H160.636V328.893Z" fill="#263238" stroke="#263238" stroke-linecap="round" stroke-linejoin="round"/>
<path d="M208.69 250.608H92.6738V332.467H208.69V250.608Z" fill="#263238" stroke="#263238" stroke-linecap="round" stroke-linejoin="round"/>
<path d="M203.69 257.004H97.6436V326.04H203.69V257.004Z" fill="#4A4A4A" stroke="#263238" stroke-linecap="round" stroke-linejoin="round"/>
<path d="M209.917 343.848H122.276V346.578H209.917V343.848Z" fill="white" stroke="#263238" stroke-linecap="round" stroke-linejoin="round"/>
<path d="M354.431 330.626C354.431 330.626 330.888 294.72 334.492 286.483C338.096 278.247 350.382 292.358 350.382 292.358C350.382 292.358 332.145 244.089 344.508 233.506C356.87 222.923 360.981 277.066 360.981 277.066C360.981 277.066 372.162 245.869 380.997 257.633C389.831 269.397 367.453 294.122 367.453 294.122C367.453 294.122 382.791 294.72 378.65 304.72C374.509 314.721 363.312 325.319 363.312 325.319L354.431 330.626Z" fill="#FF81AE"/>
<path d="M347.959 322.389C347.959 322.389 333.833 302.327 340.857 298.247C347.882 294.167 351.456 306.484 351.456 306.484C351.456 306.484 352.054 252.341 363.235 256.451C374.417 260.562 370.291 293.538 370.291 293.538C370.291 293.538 384.417 284.121 383.834 297.664C383.251 311.208 364.417 322.972 364.417 322.972" stroke="#263238" stroke-linecap="round" stroke-linejoin="round"/>
<path d="M360.904 323.555L348.542 310.027" stroke="#263238" stroke-linecap="round" stroke-linejoin="round"/>
<path d="M361.502 330.027L360.904 296.483" stroke="#263238" stroke-linecap="round" stroke-linejoin="round"/>
<path d="M362.085 318.847L373.266 304.138" stroke="#263238" stroke-linecap="round" stroke-linejoin="round"/>
<path d="M372.085 320.027H340.903L344.017 347.697H368.972L372.085 320.027Z" fill="#263238" stroke="#263238" stroke-linecap="round" stroke-linejoin="round"/>
<path d="M376.794 347.237H80.5571V508.7H376.794V347.237Z" fill="white" stroke="#263238" stroke-linecap="round" stroke-linejoin="round"/>
<path d="M266.821 347.237H91.7539V508.7H266.821V347.237Z" fill="#ADADAD" stroke="#263238" stroke-linecap="round" stroke-linejoin="round"/>
<path d="M381.043 347.237H76.3237V358.158H381.043V347.237Z" fill="#263238" stroke="#263238" stroke-linecap="round" stroke-linejoin="round"/>
<path d="M369.156 430.69H276.008V476.321H369.156V430.69Z" fill="white" stroke="#263238" stroke-linecap="round" stroke-linejoin="round"/>
<path d="M369.156 369.431H276.008V415.061H369.156V369.431Z" fill="#ADADAD" stroke="#263238" stroke-linecap="round" stroke-linejoin="round"/>
<path d="M339.784 448.191H305.396V458.821H339.784V448.191Z" fill="#263238" stroke="#263238" stroke-linecap="round" stroke-linejoin="round"/>
<path d="M259.766 474.45H166.618V508.209H259.766V474.45Z" fill="white" stroke="#263238" stroke-linecap="round" stroke-linejoin="round"/>
<path d="M204.12 462.578H110.972V508.209H204.12V462.578Z" fill="white" stroke="#263238" stroke-linecap="round" stroke-linejoin="round"/>
<path d="M198.491 462.578H105.343V508.209H198.491V462.578Z" fill="white" stroke="#263238" stroke-linecap="round" stroke-linejoin="round"/>
<path d="M169.118 480.079H134.73V490.708H169.118V480.079Z" fill="#263238" stroke="#263238" stroke-linecap="round" stroke-linejoin="round"/>
<path d="M649.518 290.211H641.036V343.342H649.518V290.211Z" fill="white" stroke="#263238" stroke-linecap="round" stroke-linejoin="round"/>
<path d="M668.49 215.78L613.952 221.454L622.082 299.593L676.62 293.919L668.49 215.78Z" fill="#263238" stroke="#263238" stroke-linecap="round" stroke-linejoin="round"/>
<path d="M669.58 347.867H620.958C620.958 345.467 621.912 343.165 623.609 341.468C625.306 339.771 627.608 338.817 630.008 338.817H660.53C662.93 338.817 665.232 339.771 666.929 341.468C668.626 343.165 669.58 345.467 669.58 347.867Z" fill="white" stroke="#263238" stroke-linecap="round" stroke-linejoin="round"/>
<path d="M614.885 317.513H532.965V346.44H614.885V317.513Z" fill="white" stroke="#263238" stroke-linecap="round" stroke-linejoin="round"/>
<path d="M603.423 308.013L521.58 311.558L522.02 321.717L603.863 318.172L603.423 308.013Z" fill="#FF81AE" stroke="#263238" stroke-linecap="round" stroke-linejoin="round"/>
<path d="M477.886 332.605H411.289V346.241H477.886V332.605Z" fill="white" stroke="#263238" stroke-linecap="round" stroke-linejoin="round"/>
<path d="M412.408 335.229H424.096" stroke="#263238" stroke-linecap="round" stroke-linejoin="round"/>
<path d="M427.992 338.955H429.587" stroke="#263238" stroke-linecap="round" stroke-linejoin="round"/>
<path d="M412.224 338.955H425.338" stroke="#263238" stroke-linecap="round" stroke-linejoin="round"/>
<path d="M412.5 342.805H417.899" stroke="#263238" stroke-linecap="round" stroke-linejoin="round"/>
<path d="M464.634 333.081C463.502 337.286 463.502 341.714 464.634 345.919H491.046C491.046 345.919 488.224 337.774 491.046 333.081H464.634Z" fill="white"/>
<mask id="mask0_304_5155" style="mask-type:luminance" maskUnits="userSpaceOnUse" x="463" y="333" width="29" height="13">
<path d="M464.634 333.081C463.502 337.286 463.502 341.714 464.634 345.919H491.046C491.046 345.919 488.224 337.774 491.046 333.081H464.634Z" fill="white"/>
</mask>
<g mask="url(#mask0_304_5155)">
<path opacity="0.24" d="M464.634 333.081C463.502 337.286 463.502 341.714 464.634 345.919H491.046C491.046 345.919 488.224 337.774 491.046 333.081H464.634Z" fill="black" stroke="#263238" stroke-linecap="round" stroke-linejoin="round"/>
</g>
<path d="M464.634 333.081C463.502 337.286 463.502 341.714 464.634 345.919H491.046C491.046 345.919 488.224 337.774 491.046 333.081H464.634Z" stroke="#263238" stroke-linecap="round" stroke-linejoin="round"/>
<path d="M412.071 343.74V334.43C412.071 334.317 412.093 334.206 412.136 334.102C412.179 333.997 412.243 333.903 412.322 333.823C412.402 333.743 412.497 333.68 412.601 333.637C412.705 333.594 412.817 333.571 412.93 333.571H492.104C492.19 333.573 492.276 333.558 492.355 333.527C492.435 333.495 492.508 333.448 492.57 333.388C492.631 333.328 492.68 333.256 492.713 333.177C492.747 333.098 492.764 333.013 492.764 332.927C492.764 332.752 492.694 332.584 492.571 332.461C492.447 332.337 492.279 332.268 492.104 332.268H410.813C410.585 332.268 410.367 332.358 410.206 332.519C410.045 332.68 409.954 332.899 409.954 333.126V345.044C409.952 345.228 409.987 345.41 410.056 345.581C410.126 345.751 410.228 345.906 410.358 346.036C410.488 346.166 410.643 346.268 410.813 346.338C410.984 346.407 411.166 346.442 411.35 346.44H492.12C492.205 346.442 492.291 346.427 492.371 346.395C492.451 346.364 492.524 346.317 492.585 346.257C492.646 346.197 492.695 346.125 492.729 346.046C492.762 345.967 492.779 345.882 492.779 345.796C492.779 345.621 492.71 345.453 492.586 345.329C492.462 345.206 492.294 345.136 492.12 345.136H413.467C413.096 345.136 412.741 344.989 412.48 344.727C412.218 344.466 412.071 344.111 412.071 343.74Z" fill="#263238" stroke="#263238" stroke-linecap="round" stroke-linejoin="round"/>
<path d="M412.132 330.672C412.608 329.139 414.326 322.635 412.132 318.494H488.822V330.672H412.132Z" fill="white" stroke="#263238" stroke-linecap="round" stroke-linejoin="round"/>
<path d="M458.054 321.209H446.367" stroke="#263238" stroke-linecap="round" stroke-linejoin="round"/>
<path d="M442.471 324.937H440.875" stroke="#263238" stroke-linecap="round" stroke-linejoin="round"/>
<path d="M458.238 324.937H445.124" stroke="#263238" stroke-linecap="round" stroke-linejoin="round"/>
<path d="M457.962 328.786H452.563" stroke="#263238" stroke-linecap="round" stroke-linejoin="round"/>
<path d="M458.33 329.431V320.136C458.337 320.014 458.318 319.892 458.275 319.778C458.232 319.663 458.166 319.559 458.081 319.471C457.996 319.383 457.894 319.314 457.781 319.267C457.669 319.221 457.547 319.198 457.425 319.2H410.583C410.412 319.2 410.248 319.132 410.128 319.012C410.007 318.891 409.939 318.727 409.939 318.556C409.937 318.47 409.952 318.385 409.984 318.305C410.015 318.225 410.062 318.152 410.122 318.091C410.182 318.029 410.254 317.98 410.333 317.947C410.412 317.914 410.497 317.896 410.583 317.896H491.874C492.103 317.901 492.322 317.994 492.483 318.158C492.643 318.321 492.733 318.542 492.733 318.771V330.673C492.733 331.043 492.586 331.398 492.324 331.66C492.063 331.922 491.708 332.069 491.337 332.069H410.583C410.497 332.077 410.411 332.068 410.328 332.043C410.246 332.017 410.17 331.975 410.104 331.919C410.038 331.863 409.984 331.795 409.945 331.718C409.906 331.641 409.883 331.557 409.878 331.471C409.876 331.385 409.891 331.299 409.922 331.219C409.954 331.139 410.001 331.067 410.061 331.005C410.121 330.944 410.193 330.895 410.272 330.862C410.351 330.828 410.436 330.811 410.522 330.811H456.873C457.06 330.819 457.247 330.79 457.422 330.724C457.598 330.659 457.758 330.559 457.894 330.43C458.03 330.301 458.139 330.146 458.214 329.975C458.289 329.803 458.328 329.618 458.33 329.431Z" fill="#FF81AE" stroke="#263238" stroke-linecap="round" stroke-linejoin="round"/>
<path d="M720.103 347.237H423.866V508.7H720.103V347.237Z" fill="white" stroke="#263238" stroke-linecap="round" stroke-linejoin="round"/>
<path d="M714.029 366.671H580.896V420.016H714.029V366.671Z" fill="white" stroke="#263238" stroke-linecap="round" stroke-linejoin="round"/>
<path d="M659.272 391.104H635.637V394.602H659.272V391.104Z" fill="#263238"/>
<path d="M565.481 366.671H432.348V420.016H565.481V366.671Z" fill="white" stroke="#263238" stroke-linecap="round" stroke-linejoin="round"/>
<path d="M510.725 391.104H487.089V394.602H510.725V391.104Z" fill="#263238"/>
<path d="M565.481 434.955H432.348V488.3H565.481V434.955Z" fill="white" stroke="#263238" stroke-linecap="round" stroke-linejoin="round"/>
<path d="M510.725 459.389H487.089V462.886H510.725V459.389Z" fill="#263238"/>
<path d="M714.029 434.971H580.896V488.316H714.029V434.971Z" fill="#ADADAD" stroke="#263238" stroke-linecap="round" stroke-linejoin="round"/>
<path d="M707.725 434.971H587.169V488.316H707.725V434.971Z" fill="#737373" stroke="#263238" stroke-linecap="round" stroke-linejoin="round"/>
<path d="M714.029 456.413H580.896V509.758H714.029V456.413Z" fill="white" stroke="#263238" stroke-linecap="round" stroke-linejoin="round"/>
<path d="M714.029 461.889H580.896V515.234H714.029V461.889Z" fill="white" stroke="#263238" stroke-linecap="round" stroke-linejoin="round"/>
<path d="M659.272 486.812H635.637V490.31H659.272V486.812Z" fill="#263238"/>
<path d="M584.331 434.971C580.855 435.801 577.708 437.655 575.297 440.293C571.371 444.664 574.423 457.778 574.423 467.395C574.423 477.012 569.177 497.55 569.177 497.55C569.177 497.55 580.113 503.225 581.862 503.225H583.61L584.331 456.413C585.664 456.241 587.006 456.154 588.35 456.152C590.528 456.152 598.028 456.03 598.028 456.03C598.028 456.03 596.724 447.287 591.893 441.597C587.061 435.906 584.331 434.971 584.331 434.971Z" fill="#FF81AE" stroke="#263238" stroke-linecap="round" stroke-linejoin="round"/>
<path d="M598.028 456.03C598.028 456.03 589.286 442.471 584.485 441.168C579.684 439.864 578.35 449.036 578.35 450.37" stroke="#263238" stroke-linecap="round" stroke-linejoin="round"/>
<path d="M577.92 465.202C577.92 465.202 578.365 449.864 584.055 449.036C587.753 448.637 591.472 449.566 594.546 451.659" stroke="#263238" stroke-linecap="round" stroke-linejoin="round"/>
<path d="M724.336 347.237H419.617V358.158H724.336V347.237Z" fill="#263238" stroke="#263238" stroke-linecap="round" stroke-linejoin="round"/>
<path d="M678.153 454.695C678.153 454.695 674.273 482.304 678.644 488.147C683.016 493.991 700.93 509.467 708.2 505.587C715.471 501.706 713.047 495.418 707.234 489.114C701.421 482.81 695.117 476.506 694.642 472.15C694.166 467.794 693.108 455.186 693.108 455.186C693.108 455.186 683 454.695 678.153 454.695Z" fill="white" stroke="#263238" stroke-linecap="round" stroke-linejoin="round"/>
<path d="M678.644 488.147C681.012 491.033 683.658 493.679 686.543 496.046C686.031 492.368 685.168 488.747 683.967 485.233C683.408 483.409 682.457 481.728 681.18 480.311C679.903 478.893 678.33 477.772 676.574 477.027C676.666 481.92 677.203 486.23 678.644 488.147Z" fill="#FF81AE" stroke="#263238" stroke-linecap="round" stroke-linejoin="round"/>
<path d="M708.201 505.586C713.446 502.795 713.63 498.73 711.161 494.328C707.215 497.365 703.875 501.116 701.314 505.387C704.013 506.322 706.421 506.537 708.201 505.586Z" fill="#FF81AE" stroke="#263238" stroke-linecap="round" stroke-linejoin="round"/>
<path d="M634.532 454.696C633.917 457.655 633.107 460.57 632.109 463.423C630.652 467.303 629.686 475.54 632.109 479.42C634.532 483.301 644.701 485.233 647.125 477.472C649.548 469.711 651.972 456.628 651.972 456.628C651.972 456.628 643.735 451.306 634.532 454.696Z" fill="white" stroke="#263238" stroke-linecap="round" stroke-linejoin="round"/>
<path d="M647.125 477.472C647.309 476.889 647.493 476.275 647.677 475.631C642.661 473.039 635.008 472.809 630.636 472.932C630.58 475.191 631.108 477.426 632.17 479.42C634.532 483.316 644.701 485.233 647.125 477.472Z" fill="#FF81AE" stroke="#263238" stroke-linecap="round" stroke-linejoin="round"/>
<path d="M185.193 534.269L190.346 553.533H181.864L185.193 534.269Z" fill="#FF81AE" stroke="#263238" stroke-linecap="round" stroke-linejoin="round"/>
<path d="M175.867 547.827H65.311V637.186H175.867V547.827Z" fill="#FF81AE" stroke="#263238" stroke-linecap="round" stroke-linejoin="round"/>
<path d="M185.192 534.269L175.882 547.827V637.186L185.192 623.627V534.269Z" fill="#FF81AE" stroke="#263238" stroke-linecap="round" stroke-linejoin="round"/>
<path d="M74.6365 534.269L65.311 547.827H175.882L185.192 534.269H74.6365Z" fill="#FF81AE" stroke="#263238" stroke-linecap="round" stroke-linejoin="round"/>
<path d="M74.6364 547.597V534.269L65.4644 547.597H74.6364Z" fill="#FF81AE" stroke="#263238" stroke-linecap="round" stroke-linejoin="round"/>
<path d="M65.3111 547.827L60.6177 571.34H172.539L175.882 547.827H65.3111Z" fill="#FF81AE" stroke="#263238" stroke-linecap="round" stroke-linejoin="round"/>
<path d="M81.9527 636.297L37.1353 645.806L71.0781 664.135L117.261 653.951L81.9527 636.297Z" fill="white" stroke="#263238" stroke-linecap="round" stroke-linejoin="round"/>
<path d="M125.374 635.284L80.5415 644.794L114.5 663.138L160.682 652.938L125.374 635.284Z" fill="white" stroke="#263238" stroke-linecap="round" stroke-linejoin="round"/>
<path d="M88.0113 655.484L43.1938 664.994L77.1367 683.323L123.319 673.138L88.0113 655.484Z" fill="white" stroke="#263238" stroke-linecap="round" stroke-linejoin="round"/>
<path d="M548.947 494.559C548.947 494.559 546.278 391.165 509.728 379.524C472.441 367.698 432.609 368.695 394.003 370.444C357.591 372.1 320.887 371.103 284.567 373.512C244.581 376.165 229.764 394.524 220.945 431.489C216.12 452.166 213.437 473.286 212.939 494.513L204.027 521.247H557.858L548.947 494.559Z" fill="#ADADAD" stroke="#263238" stroke-linecap="round" stroke-linejoin="round"/>
<path d="M243.247 507.029V483.868C243.247 483.868 242.357 466.997 222.755 465.141C203.153 463.285 149.67 505.249 150.559 514.222C151.449 523.195 161.296 586.418 167.431 589.087C173.566 591.755 189.717 604.241 203.966 597.108C218.215 589.976 243.247 507.029 243.247 507.029Z" fill="#C9C9C9" stroke="#263238" stroke-linecap="round" stroke-linejoin="round"/>
<path d="M511.507 507.029V483.868C511.507 483.868 512.397 466.997 532.014 465.141C551.631 463.285 605.099 505.249 604.21 514.222C603.32 523.195 593.473 586.418 587.261 589.087C581.05 591.755 564.991 604.241 550.726 597.108C536.462 589.976 511.507 507.029 511.507 507.029Z" fill="#C9C9C9" stroke="#263238" stroke-linecap="round" stroke-linejoin="round"/>
<path d="M243.247 507.028C241.791 508.541 240.222 509.941 238.553 511.215C226.574 521.093 196.006 544.468 196.006 544.468H560.527L511.446 504.359L243.247 507.028Z" fill="#ADADAD" stroke="#263238" stroke-linecap="round" stroke-linejoin="round"/>
<path d="M196.006 544.469V581.311H560.282L560.527 544.469H196.006Z" fill="#4A4A4A" stroke="#263238" stroke-linecap="round" stroke-linejoin="round"/>
<path d="M184.41 617.554L172.999 653.291C172.778 653.997 172.726 654.746 172.847 655.476C172.968 656.206 173.259 656.897 173.696 657.494C174.134 658.091 174.705 658.577 175.364 658.912C176.024 659.248 176.753 659.424 177.493 659.426C178.253 659.427 179.002 659.243 179.675 658.89C180.348 658.538 180.926 658.027 181.358 657.402L208.491 618.443L184.41 617.554Z" fill="#263238" stroke="#263238" stroke-linecap="round" stroke-linejoin="round"/>
<path d="M572.077 617.554L583.473 653.291C583.697 653.996 583.752 654.744 583.633 655.474C583.514 656.204 583.225 656.896 582.789 657.494C582.353 658.091 581.782 658.578 581.122 658.914C580.463 659.249 579.734 659.425 578.994 659.426C578.232 659.427 577.481 659.243 576.806 658.891C576.13 658.538 575.549 658.027 575.114 657.402L548.012 618.443L572.077 617.554Z" fill="#263238" stroke="#263238" stroke-linecap="round" stroke-linejoin="round"/>
<path d="M595.145 503.701C589.24 500.802 582.568 500.357 574.546 504.36C558.503 512.382 560.282 544.469 560.282 544.469V567.077C560.278 570.533 558.903 573.847 556.459 576.291C554.015 578.735 550.701 580.11 547.245 580.114H209.058C205.599 580.114 202.281 578.741 199.834 576.297C197.387 573.852 196.01 570.536 196.006 567.077V544.469C196.006 544.469 197.8 512.382 181.757 504.36C173.735 500.357 167.048 500.802 161.142 503.701C156.192 506.245 152.163 510.277 149.622 515.228C147.08 520.18 146.153 525.803 146.97 531.309C149.47 549.852 154.24 582.261 158.581 595.283C164.824 613.996 164.824 617.569 178.183 622.017C189.778 625.883 338.817 623.045 378.144 622.232C417.47 623.045 566.509 625.883 578.105 622.017C591.479 617.569 591.479 613.996 597.706 595.283C602.047 582.261 606.817 549.837 609.333 531.309C610.151 525.801 609.223 520.176 606.678 515.223C604.133 510.271 600.1 506.241 595.145 503.701Z" fill="#4A4A4A" stroke="#263238" stroke-linecap="round" stroke-linejoin="round"/>
<path opacity="0.3" d="M256.729 519.376C256.729 519.376 267.956 516.999 272.189 517.474C275.405 517.738 278.475 518.931 281.024 520.91C283.846 522.781 310.902 520.91 313.724 525.112C316.547 529.315 295.764 529.33 288.233 529.33C280.702 529.33 288.233 530.741 295.288 531.217C302.344 531.692 304.23 534.975 304.23 538.272C304.23 541.57 277.972 542.889 265.701 539.607C253.431 536.324 266.161 532.076 269.459 530.665C272.757 529.254 264.29 526.431 255.824 526.431C247.357 526.431 249.244 523.149 260.532 520.787" fill="black"/>
<path d="M264.045 514.667C265.824 522.842 263.17 530.373 258.109 531.538C253.047 532.704 247.495 526.937 245.7 518.731C243.906 510.525 246.575 503.025 251.636 501.859C256.698 500.694 262.25 506.476 264.045 514.667Z" fill="white" stroke="#263238" stroke-linecap="round" stroke-linejoin="round"/>
<path d="M253.792 532.403C258.857 531.297 261.515 523.772 259.729 515.595C257.943 507.418 252.39 501.687 247.325 502.793C242.26 503.899 239.602 511.424 241.388 519.601C243.173 527.777 248.727 533.509 253.792 532.403Z" fill="white" stroke="#263238" stroke-linecap="round" stroke-linejoin="round"/>
<path d="M247.449 504.191L220.147 511.507L225.454 535.833L253.323 531.093C257.925 530.081 260.333 523.256 258.722 515.832C257.112 508.409 252.05 503.255 247.449 504.191Z" fill="#FF81AE" stroke="#263238" stroke-linecap="round" stroke-linejoin="round"/>
<path d="M230.332 522.029C231.866 528.747 229.626 534.928 225.454 535.833C221.282 536.738 216.742 532.029 215.27 525.311C213.798 518.593 215.991 512.412 220.147 511.507C224.304 510.602 228.89 515.311 230.332 522.029Z" fill="white" stroke="#263238" stroke-linecap="round" stroke-linejoin="round"/>
<path d="M300.442 523.931L295.518 525.833L329.17 541.324C335.011 540.354 340.719 538.707 346.179 536.416C356.762 532.259 369.999 526.262 369.999 526.262C369.999 526.262 382.852 533.456 388.895 533.456C394.939 533.456 405.154 533.072 405.154 533.072C405.154 533.072 393.006 526.968 389.647 524.728C386.288 522.489 379.064 516.4 365.843 516.783C352.621 517.167 352.989 515.648 342.391 517.918C331.792 520.188 300.442 523.931 300.442 523.931Z" fill="white" stroke="#263238" stroke-linecap="round" stroke-linejoin="round"/>
<path d="M344.676 509.498C344.676 509.498 341.609 511.829 330.749 515.633C319.89 519.437 295.181 521.768 295.181 521.768L326.117 537.244C326.117 537.244 331.532 541.846 346.992 532.643C362.453 523.44 367.883 521.048 367.883 521.048C372.774 523.907 377.957 526.237 383.343 527.996C391.089 530.327 404.233 530.327 404.233 530.327C404.233 530.327 389.54 524.192 382.576 518.716C375.613 513.24 373.373 511.768 373.373 511.768C373.373 511.768 356.272 518.778 344.676 509.498Z" fill="#FF81AE" stroke="#263238" stroke-linecap="round" stroke-linejoin="round"/>
<path d="M344.676 509.498C350.888 515.866 359.062 519.956 367.883 521.109" stroke="#263238" stroke-linecap="round" stroke-linejoin="round"/>
<path opacity="0.3" d="M650.684 615.514C650.684 615.514 661.911 613.136 666.144 613.612C669.359 613.881 672.427 615.075 674.979 617.047C677.801 618.919 704.857 617.047 707.68 621.25C710.502 625.453 689.719 625.391 682.188 625.391C674.657 625.391 682.188 626.802 689.243 627.278C696.299 627.753 698.17 631.036 698.17 634.333C698.17 637.631 671.85 639.027 659.626 635.744C647.401 632.462 660.086 628.213 663.384 626.802C666.681 625.391 658.215 622.569 649.748 622.569C641.282 622.569 643.168 619.287 654.442 616.925" fill="black"/>
<path d="M628.318 611.974C631.113 604.086 629.418 596.287 624.531 594.556C619.645 592.824 613.418 597.816 610.622 605.704C607.827 613.593 609.523 621.392 614.409 623.123C619.296 624.855 625.523 619.863 628.318 611.974Z" fill="white" stroke="#263238" stroke-linecap="round" stroke-linejoin="round"/>
<path d="M632.48 613.458C635.275 605.569 633.579 597.77 628.693 596.039C623.806 594.308 617.579 599.299 614.784 607.188C611.989 615.077 613.684 622.875 618.571 624.607C623.458 626.338 629.685 621.346 632.48 613.458Z" fill="white" stroke="#263238" stroke-linecap="round" stroke-linejoin="round"/>
<path d="M619.164 623.306L646.22 631.512L654.533 608.029L628.367 597.369C623.919 595.836 618.274 600.33 615.728 607.492C613.182 614.655 614.731 621.741 619.164 623.306Z" fill="#FF81AE" stroke="#263238" stroke-linecap="round" stroke-linejoin="round"/>
<path d="M643.107 617.185C645.407 610.713 650.53 606.602 654.534 607.983C658.537 609.363 659.948 615.805 657.601 622.293C655.254 628.781 650.193 632.876 646.174 631.496C642.156 630.115 640.821 623.673 643.107 617.185Z" fill="white" stroke="#263238" stroke-linecap="round" stroke-linejoin="round"/>
<path d="M270.962 376.119C270.962 376.119 270.471 402.792 269.428 408.712C268.385 414.632 267.895 424.05 267.895 424.05C267.895 424.05 284.183 427.501 289.122 427.501C294.061 427.501 299 427.01 299 427.01V392.423C299.17 387.282 299.682 382.158 300.534 377.085L302.067 371.656C302.067 371.656 289.72 369.186 280.334 370.122C270.947 371.057 270.962 376.119 270.962 376.119Z" fill="#FF81AE" stroke="#263238" stroke-linecap="round" stroke-linejoin="round"/>
<path d="M307.988 372.668C307.988 372.668 308.479 390.935 308.479 407.715C308.479 424.495 307.497 443.269 307.497 445.738C307.497 448.207 311.439 449.695 324.277 449.695C337.115 449.695 338.081 446.229 338.081 446.229V371.686C338.081 371.686 319.323 366.747 305.979 373.22" fill="#FF81AE"/>
<path d="M307.988 372.668C307.988 372.668 308.479 390.935 308.479 407.715C308.479 424.495 307.497 443.269 307.497 445.738C307.497 448.207 311.439 449.695 324.277 449.695C337.115 449.695 338.081 446.229 338.081 446.229V371.686C338.081 371.686 319.323 366.747 305.979 373.22" stroke="#263238" stroke-linecap="round" stroke-linejoin="round"/>
<path d="M307.497 438.33C307.497 438.33 326.255 443.759 338.602 436.796" stroke="#263238" stroke-linecap="round" stroke-linejoin="round"/>
<path d="M268.493 416.611C268.493 416.611 279.843 418.59 287.251 419.081C291.346 419.402 295.465 419.237 299.521 418.59" stroke="#263238" stroke-linecap="round" stroke-linejoin="round"/>
<path d="M666.558 671.835C666.558 684.105 641.189 694.152 609.9 694.152C578.61 694.152 553.257 684.151 553.257 671.835C553.257 659.519 578.61 634.533 609.9 634.533C641.189 634.533 666.558 659.503 666.558 671.835Z" fill="#FF81AE" stroke="#263238" stroke-linecap="round" stroke-linejoin="round"/>
<path d="M609.9 662.279C627.316 662.279 641.435 656.717 641.435 649.855C641.435 642.994 627.316 637.432 609.9 637.432C592.484 637.432 578.365 642.994 578.365 649.855C578.365 656.717 592.484 662.279 609.9 662.279Z" fill="#FF81AE" stroke="#263238" stroke-linecap="round" stroke-linejoin="round"/>
<path d="M609.9 659.825C627.316 659.825 641.435 654.263 641.435 647.401C641.435 640.54 627.316 634.978 609.9 634.978C592.484 634.978 578.365 640.54 578.365 647.401C578.365 654.263 592.484 659.825 609.9 659.825Z" fill="#FF81AE" stroke="#263238" stroke-linecap="round" stroke-linejoin="round"/>
<path d="M543.64 683.706C543.665 683.994 543.63 684.284 543.537 684.557C543.443 684.831 543.294 685.082 543.099 685.295C542.904 685.508 542.666 685.678 542.401 685.794C542.137 685.911 541.851 685.971 541.562 685.971C541.273 685.971 540.987 685.911 540.723 685.794C540.458 685.678 540.221 685.508 540.025 685.295C539.83 685.082 539.681 684.831 539.588 684.557C539.494 684.284 539.459 683.994 539.484 683.706C539.528 683.186 539.767 682.701 540.152 682.348C540.536 681.995 541.04 681.799 541.562 681.799C542.084 681.799 542.588 681.995 542.972 682.348C543.357 682.701 543.596 683.186 543.64 683.706Z" fill="#FF81AE" stroke="#263238" stroke-linecap="round" stroke-linejoin="round"/>
<path d="M536.447 680.025C535.527 680.025 534.646 680.39 533.996 681.04C533.346 681.69 532.98 682.572 532.98 683.492C532.98 684.153 533.166 684.802 533.517 685.363C533.022 685.48 532.581 685.759 532.264 686.157C531.947 686.555 531.772 687.047 531.769 687.556C531.731 687.88 531.763 688.209 531.861 688.521C531.96 688.832 532.123 689.119 532.34 689.363C532.558 689.607 532.824 689.802 533.122 689.935C533.42 690.069 533.743 690.138 534.069 690.138C534.396 690.138 534.719 690.069 535.017 689.935C535.315 689.802 535.581 689.607 535.799 689.363C536.016 689.119 536.179 688.832 536.278 688.521C536.376 688.209 536.408 687.88 536.37 687.556C536.353 687.348 536.312 687.142 536.247 686.943H536.416C537.335 686.943 538.217 686.577 538.867 685.927C539.517 685.277 539.883 684.395 539.883 683.476C539.883 682.557 539.517 681.675 538.867 681.025C538.217 680.375 537.335 680.01 536.416 680.01L536.447 680.025Z" fill="white" stroke="#263238" stroke-linecap="round" stroke-linejoin="round"/>
<path d="M539.591 690.869C540.802 690.869 541.784 689.887 541.784 688.676C541.784 687.464 540.802 686.482 539.591 686.482C538.379 686.482 537.397 687.464 537.397 688.676C537.397 689.887 538.379 690.869 539.591 690.869Z" fill="#FF81AE" stroke="#263238" stroke-linecap="round" stroke-linejoin="round"/>
<path d="M459.91 696.682C459.91 697.095 459.787 697.499 459.558 697.842C459.328 698.186 459.001 698.453 458.619 698.61C458.237 698.768 457.817 698.808 457.412 698.726C457.007 698.645 456.635 698.444 456.344 698.151C456.053 697.858 455.855 697.485 455.777 697.079C455.698 696.674 455.741 696.254 455.901 695.873C456.062 695.492 456.331 695.167 456.677 694.94C457.022 694.712 457.426 694.593 457.84 694.596C458.113 694.596 458.383 694.65 458.636 694.755C458.888 694.86 459.117 695.014 459.309 695.208C459.502 695.402 459.654 695.632 459.757 695.885C459.86 696.138 459.912 696.408 459.91 696.682Z" fill="#FF81AE" stroke="#263238" stroke-linecap="round" stroke-linejoin="round"/>
<path d="M452.717 693.001C451.797 693.001 450.916 693.366 450.266 694.016C449.616 694.666 449.25 695.548 449.25 696.467C449.247 697.127 449.44 697.772 449.803 698.323C449.39 698.432 449.016 698.654 448.723 698.965C448.43 699.276 448.23 699.662 448.145 700.081C448.061 700.499 448.095 700.933 448.245 701.333C448.394 701.733 448.653 702.083 448.991 702.343C449.329 702.604 449.734 702.764 450.159 702.807C450.584 702.849 451.012 702.772 451.395 702.583C451.778 702.394 452.101 702.102 452.326 701.74C452.552 701.377 452.671 700.959 452.671 700.532C452.663 700.322 452.621 700.115 452.548 699.918H452.717C453.636 699.918 454.518 699.553 455.168 698.903C455.818 698.253 456.183 697.371 456.183 696.452C456.183 695.532 455.818 694.651 455.168 694.001C454.518 693.351 453.636 692.985 452.717 692.985V693.001Z" fill="white" stroke="#263238" stroke-linecap="round" stroke-linejoin="round"/>
<path d="M458.07 701.651C458.073 702.089 457.945 702.519 457.704 702.884C457.462 703.25 457.117 703.535 456.713 703.704C456.309 703.873 455.864 703.918 455.434 703.834C455.004 703.749 454.609 703.538 454.299 703.228C453.989 702.919 453.779 702.524 453.694 702.094C453.609 701.664 453.654 701.219 453.823 700.814C453.992 700.41 454.278 700.065 454.643 699.824C455.009 699.582 455.438 699.455 455.876 699.458C456.458 699.458 457.016 699.689 457.427 700.1C457.839 700.512 458.07 701.07 458.07 701.651Z" fill="#FF81AE" stroke="#263238" stroke-linecap="round" stroke-linejoin="round"/>
<path d="M498.669 695.624C498.385 695.742 498.068 695.754 497.775 695.661C497.482 695.567 497.231 695.372 497.068 695.111C496.904 694.851 496.838 694.54 496.882 694.236C496.925 693.931 497.075 693.651 497.304 693.446C497.604 693.278 497.958 693.233 498.291 693.322C498.623 693.411 498.908 693.626 499.084 693.922C499.242 694.205 499.287 694.539 499.21 694.854C499.134 695.17 498.94 695.445 498.669 695.624Z" fill="#FF81AE" stroke="#263238" stroke-linecap="round" stroke-linejoin="round"/>
<path d="M498.409 690.562C498.215 690.224 497.934 689.944 497.594 689.752C497.254 689.561 496.869 689.465 496.479 689.474C496.09 689.484 495.71 689.598 495.38 689.806C495.05 690.014 494.782 690.307 494.605 690.654C494.36 690.404 494.033 690.252 493.684 690.225C493.335 690.199 492.988 690.3 492.709 690.511C492.429 690.721 492.235 691.026 492.164 691.368C492.092 691.711 492.148 692.067 492.32 692.372C492.525 692.694 492.844 692.927 493.213 693.026C493.581 693.126 493.974 693.084 494.314 692.909C494.418 692.83 494.515 692.743 494.605 692.648V692.74C494.894 693.24 495.37 693.606 495.928 693.755C496.486 693.905 497.08 693.827 497.581 693.538C498.081 693.249 498.446 692.773 498.596 692.215C498.745 691.657 498.667 691.062 498.378 690.562H498.409Z" fill="white" stroke="#263238" stroke-linecap="round" stroke-linejoin="round"/>
<path d="M495.387 696.192C495.231 696.282 495.059 696.341 494.88 696.364C494.702 696.388 494.52 696.375 494.346 696.328C494.172 696.281 494.009 696.2 493.867 696.09C493.724 695.98 493.605 695.842 493.516 695.686C493.378 695.449 493.313 695.177 493.33 694.904C493.347 694.63 493.445 694.368 493.612 694.151C493.778 693.933 494.006 693.77 494.265 693.682C494.525 693.594 494.804 693.586 495.068 693.657C495.333 693.729 495.57 693.877 495.75 694.084C495.929 694.291 496.044 694.546 496.078 694.818C496.112 695.089 496.064 695.365 495.941 695.61C495.818 695.854 495.625 696.057 495.387 696.192Z" fill="#FF81AE" stroke="#263238" stroke-linecap="round" stroke-linejoin="round"/>
<path d="M548.64 702.081C548.417 702.21 548.161 702.271 547.903 702.254C547.646 702.238 547.399 702.145 547.194 701.988C546.989 701.832 546.835 701.618 546.752 701.373C546.669 701.129 546.66 700.866 546.727 700.617C546.793 700.367 546.932 700.143 547.126 699.973C547.32 699.803 547.56 699.694 547.816 699.661C548.072 699.627 548.332 699.67 548.563 699.784C548.795 699.898 548.987 700.078 549.116 700.302C549.203 700.449 549.26 700.613 549.284 700.783C549.307 700.953 549.296 701.126 549.252 701.291C549.208 701.457 549.131 701.612 549.026 701.748C548.921 701.884 548.79 701.997 548.64 702.081Z" fill="#FF81AE" stroke="#263238" stroke-linecap="round" stroke-linejoin="round"/>
<path d="M548.38 697.02C548.19 696.677 547.909 696.393 547.569 696.198C547.229 696.003 546.842 695.905 546.45 695.915C546.058 695.924 545.676 696.041 545.346 696.252C545.016 696.463 544.749 696.76 544.576 697.112C544.386 696.92 544.146 696.785 543.883 696.723C543.62 696.66 543.345 696.673 543.089 696.76C542.834 696.846 542.607 697.002 542.436 697.211C542.265 697.42 542.155 697.673 542.121 697.941C542.086 698.209 542.127 698.481 542.24 698.726C542.353 698.972 542.532 699.181 542.757 699.329C542.983 699.478 543.246 699.56 543.516 699.567C543.786 699.573 544.052 699.504 544.285 699.367C544.389 699.288 544.486 699.201 544.576 699.106V699.198C544.706 699.468 544.891 699.709 545.118 699.904C545.346 700.1 545.611 700.246 545.898 700.334C546.185 700.422 546.487 700.45 546.785 700.416C547.083 700.382 547.371 700.287 547.63 700.137C547.89 699.986 548.115 699.784 548.293 699.542C548.471 699.3 548.596 699.025 548.662 698.732C548.729 698.439 548.733 698.136 548.677 697.842C548.62 697.547 548.503 697.267 548.334 697.02H548.38Z" fill="white" stroke="#263238" stroke-linecap="round" stroke-linejoin="round"/>
<path d="M545.358 702.648C545.203 702.739 545.032 702.799 544.854 702.823C544.676 702.848 544.494 702.837 544.321 702.792C544.147 702.746 543.984 702.666 543.84 702.558C543.697 702.449 543.577 702.313 543.487 702.157C543.396 702 543.337 701.827 543.314 701.647C543.29 701.467 543.302 701.284 543.349 701.109C543.396 700.934 543.477 700.77 543.588 700.626C543.698 700.482 543.836 700.361 543.993 700.271C544.308 700.09 544.683 700.041 545.033 700.136C545.384 700.231 545.683 700.462 545.864 700.777C546.045 701.092 546.094 701.467 545.999 701.817C545.904 702.168 545.673 702.467 545.358 702.648Z" fill="#FF81AE" stroke="#263238" stroke-linecap="round" stroke-linejoin="round"/>
<path d="M608.014 647.432C608.017 647.845 607.897 648.25 607.67 648.595C607.442 648.94 607.118 649.21 606.737 649.37C606.356 649.53 605.936 649.574 605.53 649.495C605.125 649.416 604.751 649.219 604.458 648.928C604.165 648.637 603.965 648.265 603.883 647.86C603.801 647.455 603.842 647.035 603.999 646.653C604.157 646.271 604.424 645.944 604.767 645.714C605.111 645.484 605.515 645.361 605.928 645.361C606.478 645.361 607.007 645.579 607.397 645.967C607.788 646.355 608.01 646.881 608.014 647.432Z" fill="#FF81AE" stroke="#263238" stroke-linecap="round" stroke-linejoin="round"/>
<path d="M600.82 643.689C599.901 643.689 599.019 644.054 598.369 644.704C597.719 645.355 597.354 646.236 597.354 647.156C597.35 647.82 597.542 648.471 597.906 649.027C597.411 649.144 596.969 649.423 596.652 649.821C596.335 650.219 596.161 650.711 596.157 651.22C596.12 651.545 596.151 651.873 596.25 652.185C596.348 652.496 596.512 652.783 596.729 653.027C596.946 653.271 597.213 653.466 597.511 653.6C597.809 653.733 598.132 653.802 598.458 653.802C598.785 653.802 599.108 653.733 599.406 653.6C599.704 653.466 599.97 653.271 600.187 653.027C600.405 652.783 600.568 652.496 600.666 652.185C600.765 651.873 600.796 651.545 600.759 651.22C600.749 651.011 600.708 650.804 600.636 650.607H600.805C601.724 650.607 602.606 650.241 603.256 649.591C603.906 648.941 604.271 648.06 604.271 647.14C604.271 646.221 603.906 645.339 603.256 644.689C602.606 644.039 601.724 643.674 600.805 643.674L600.82 643.689Z" fill="white" stroke="#263238" stroke-linecap="round" stroke-linejoin="round"/>
<path d="M603.964 654.533C605.176 654.533 606.158 653.551 606.158 652.34C606.158 651.129 605.176 650.146 603.964 650.146C602.753 650.146 601.771 651.129 601.771 652.34C601.771 653.551 602.753 654.533 603.964 654.533Z" fill="#FF81AE" stroke="#263238" stroke-linecap="round" stroke-linejoin="round"/>
<path d="M584.378 692.955C584.381 693.369 584.261 693.775 584.033 694.12C583.805 694.465 583.479 694.735 583.097 694.895C582.716 695.055 582.295 695.097 581.889 695.017C581.483 694.937 581.11 694.738 580.817 694.446C580.524 694.153 580.325 693.78 580.245 693.374C580.165 692.968 580.208 692.547 580.368 692.165C580.528 691.784 580.797 691.458 581.143 691.23C581.488 691.002 581.893 690.882 582.307 690.885C582.579 690.885 582.848 690.938 583.1 691.042C583.351 691.147 583.579 691.299 583.771 691.491C583.964 691.684 584.116 691.912 584.22 692.163C584.324 692.414 584.378 692.684 584.378 692.955Z" fill="#FF81AE" stroke="#263238" stroke-linecap="round" stroke-linejoin="round"/>
<path d="M577.184 689.274C576.265 689.274 575.383 689.639 574.733 690.289C574.083 690.939 573.718 691.821 573.718 692.741C573.715 693.405 573.907 694.056 574.27 694.612C573.775 694.729 573.334 695.008 573.017 695.406C572.7 695.804 572.525 696.296 572.522 696.805C572.484 697.13 572.516 697.458 572.614 697.77C572.713 698.081 572.876 698.368 573.093 698.612C573.31 698.856 573.577 699.051 573.875 699.185C574.173 699.318 574.496 699.387 574.822 699.387C575.149 699.387 575.472 699.318 575.77 699.185C576.068 699.051 576.334 698.856 576.552 698.612C576.769 698.368 576.932 698.081 577.031 697.77C577.129 697.458 577.161 697.13 577.123 696.805C577.113 696.596 577.072 696.389 577 696.192H577.169C578.088 696.192 578.97 695.826 579.62 695.176C580.27 694.526 580.635 693.645 580.635 692.725C580.635 691.806 580.27 690.924 579.62 690.274C578.97 689.624 578.088 689.259 577.169 689.259L577.184 689.274Z" fill="white" stroke="#263238" stroke-linecap="round" stroke-linejoin="round"/>
<path d="M580.344 700.118C581.555 700.118 582.537 699.136 582.537 697.925C582.537 696.713 581.555 695.731 580.344 695.731C579.132 695.731 578.15 696.713 578.15 697.925C578.15 699.136 579.132 700.118 580.344 700.118Z" fill="#FF81AE" stroke="#263238" stroke-linecap="round" stroke-linejoin="round"/>
<path d="M522.014 694.106C522.014 694.518 521.891 694.921 521.662 695.264C521.433 695.607 521.107 695.875 520.726 696.033C520.345 696.191 519.925 696.232 519.521 696.151C519.116 696.071 518.744 695.872 518.453 695.581C518.161 695.289 517.962 694.917 517.882 694.512C517.801 694.108 517.843 693.688 518.001 693.307C518.158 692.926 518.426 692.6 518.769 692.371C519.112 692.142 519.515 692.02 519.928 692.02C520.202 692.018 520.474 692.07 520.728 692.174C520.982 692.278 521.213 692.432 521.407 692.626C521.601 692.82 521.755 693.051 521.859 693.305C521.963 693.559 522.016 693.831 522.014 694.106Z" fill="#FF81AE" stroke="#263238" stroke-linecap="round" stroke-linejoin="round"/>
<path d="M514.805 690.379C514.183 690.376 513.573 690.541 513.037 690.857C512.502 691.173 512.062 691.627 511.763 692.172C511.465 692.717 511.319 693.333 511.341 693.954C511.364 694.575 511.554 695.179 511.891 695.701C511.394 695.821 510.952 696.103 510.636 696.504C510.319 696.904 510.145 697.399 510.142 697.91C510.207 698.474 510.478 698.995 510.902 699.373C511.326 699.751 511.875 699.96 512.443 699.96C513.011 699.96 513.559 699.751 513.984 699.373C514.408 698.995 514.678 698.474 514.743 697.91C514.734 697.7 514.693 697.493 514.621 697.296H514.789C515.709 697.296 516.59 696.931 517.241 696.281C517.891 695.631 518.256 694.749 518.256 693.83C518.256 692.91 517.891 692.029 517.241 691.379C516.59 690.729 515.709 690.363 514.789 690.363L514.805 690.379Z" fill="white" stroke="#263238" stroke-linecap="round" stroke-linejoin="round"/>
<path d="M517.964 701.269C519.176 701.269 520.158 700.287 520.158 699.075C520.158 697.864 519.176 696.882 517.964 696.882C516.753 696.882 515.771 697.864 515.771 699.075C515.771 700.287 516.753 701.269 517.964 701.269Z" fill="#FF81AE" stroke="#263238" stroke-linecap="round" stroke-linejoin="round"/>
<path d="M517.397 687.448C517.096 687.731 516.719 687.919 516.312 687.987C515.905 688.055 515.486 688.001 515.11 687.832C514.734 687.662 514.416 687.385 514.197 687.034C513.979 686.684 513.869 686.277 513.882 685.865C513.895 685.452 514.03 685.052 514.27 684.717C514.51 684.381 514.844 684.124 515.23 683.978C515.617 683.832 516.037 683.804 516.439 683.898C516.841 683.991 517.207 684.202 517.489 684.503C517.867 684.906 518.069 685.443 518.052 685.995C518.035 686.547 517.799 687.07 517.397 687.448Z" fill="#FF81AE" stroke="#263238" stroke-linecap="round" stroke-linejoin="round"/>
<path d="M515.158 679.641C514.846 679.308 514.472 679.04 514.056 678.852C513.64 678.664 513.192 678.56 512.736 678.546C512.28 678.531 511.825 678.607 511.399 678.769C510.972 678.931 510.582 679.175 510.25 679.488C509.778 679.947 509.439 680.524 509.268 681.16C508.844 680.88 508.339 680.751 507.833 680.793C507.326 680.835 506.849 681.045 506.477 681.39C506.073 681.819 505.848 682.385 505.848 682.974C505.847 683.563 506.071 684.13 506.473 684.559C506.876 684.989 507.427 685.25 508.014 685.288C508.602 685.326 509.182 685.138 509.636 684.764C509.772 684.609 509.891 684.44 509.989 684.258C509.989 684.258 509.989 684.35 510.096 684.381C510.407 684.713 510.781 684.981 511.196 685.169C511.61 685.357 512.058 685.461 512.513 685.476C512.968 685.491 513.422 685.416 513.848 685.256C514.274 685.096 514.664 684.853 514.997 684.542C515.329 684.231 515.597 683.857 515.785 683.442C515.973 683.028 516.077 682.58 516.092 682.125C516.107 681.67 516.032 681.216 515.872 680.79C515.712 680.364 515.469 679.974 515.158 679.641Z" fill="white" stroke="#263238" stroke-linecap="round" stroke-linejoin="round"/>
<path d="M512.504 689.489C512.19 689.791 511.793 689.993 511.364 690.068C510.935 690.144 510.493 690.09 510.095 689.913C509.696 689.736 509.36 689.445 509.127 689.076C508.895 688.708 508.778 688.278 508.792 687.842C508.805 687.407 508.947 686.985 509.201 686.631C509.455 686.277 509.808 686.006 510.216 685.853C510.625 685.701 511.069 685.674 511.493 685.775C511.917 685.876 512.301 686.101 512.596 686.421C512.989 686.841 513.2 687.399 513.182 687.974C513.165 688.549 512.921 689.093 512.504 689.489Z" fill="#FF81AE" stroke="#263238" stroke-linecap="round" stroke-linejoin="round"/>
<path d="M565.221 696.391C564.939 696.645 564.573 696.786 564.193 696.786C563.813 696.786 563.447 696.645 563.165 696.391C562.954 696.273 562.773 696.108 562.638 695.907C562.503 695.707 562.417 695.477 562.387 695.237C562.357 694.997 562.385 694.754 562.467 694.526C562.55 694.299 562.685 694.094 562.862 693.929C563.038 693.764 563.251 693.643 563.484 693.576C563.716 693.509 563.961 693.498 564.198 693.543C564.436 693.589 564.659 693.69 564.85 693.838C565.041 693.987 565.194 694.178 565.297 694.397C565.544 694.675 565.674 695.038 565.66 695.409C565.645 695.781 565.488 696.132 565.221 696.391Z" fill="#FF81AE" stroke="#263238" stroke-linecap="round" stroke-linejoin="round"/>
<path d="M563.656 690.931C563.437 690.697 563.174 690.509 562.881 690.376C562.589 690.244 562.274 690.171 561.953 690.161C561.633 690.151 561.313 690.205 561.013 690.318C560.713 690.432 560.439 690.604 560.205 690.824C559.874 691.148 559.635 691.556 559.515 692.005C559.27 691.874 558.993 691.812 558.715 691.826C558.437 691.84 558.169 691.929 557.938 692.085C557.707 692.24 557.522 692.455 557.404 692.707C557.286 692.959 557.239 693.238 557.267 693.515C557.296 693.792 557.399 694.056 557.566 694.278C557.733 694.501 557.957 694.674 558.215 694.778C558.473 694.883 558.754 694.916 559.029 694.873C559.304 694.83 559.562 694.714 559.776 694.535C559.88 694.426 559.968 694.302 560.037 694.167C560.032 694.203 560.032 694.239 560.037 694.275C560.48 694.746 561.093 695.023 561.74 695.043C562.387 695.063 563.016 694.825 563.488 694.382C563.96 693.938 564.236 693.326 564.256 692.679C564.276 692.031 564.038 691.403 563.595 690.931H563.656Z" fill="white" stroke="#263238" stroke-linecap="round" stroke-linejoin="round"/>
<path d="M561.724 697.833C561.509 698.046 561.235 698.191 560.938 698.249C560.641 698.307 560.333 698.276 560.054 698.16C559.774 698.043 559.535 697.847 559.367 697.595C559.199 697.343 559.11 697.047 559.11 696.744C559.11 696.441 559.199 696.145 559.367 695.893C559.535 695.641 559.774 695.444 560.054 695.328C560.333 695.211 560.641 695.18 560.938 695.239C561.235 695.297 561.509 695.442 561.724 695.655C561.868 695.797 561.982 695.967 562.059 696.154C562.137 696.341 562.177 696.541 562.177 696.744C562.177 696.946 562.137 697.147 562.059 697.334C561.982 697.521 561.868 697.69 561.724 697.833Z" fill="#FF81AE" stroke="#263238" stroke-linecap="round" stroke-linejoin="round"/>
<path d="M556.846 687.725C556.564 687.979 556.198 688.12 555.818 688.12C555.439 688.12 555.073 687.979 554.791 687.725C554.561 687.517 554.399 687.245 554.327 686.943C554.255 686.642 554.276 686.325 554.387 686.036C554.498 685.747 554.694 685.498 554.95 685.322C555.206 685.147 555.508 685.053 555.818 685.053C556.128 685.053 556.431 685.147 556.687 685.322C556.942 685.498 557.139 685.747 557.25 686.036C557.361 686.325 557.382 686.642 557.31 686.943C557.238 687.245 557.076 687.517 556.846 687.725Z" fill="#FF81AE" stroke="#263238" stroke-linecap="round" stroke-linejoin="round"/>
<path d="M555.282 682.265C555.062 682.031 554.799 681.842 554.507 681.71C554.215 681.578 553.899 681.505 553.579 681.495C553.258 681.485 552.939 681.539 552.639 681.652C552.339 681.766 552.064 681.938 551.831 682.158C551.496 682.48 551.257 682.889 551.141 683.339C550.847 683.13 550.49 683.03 550.131 683.059C549.772 683.087 549.435 683.24 549.177 683.492C548.862 683.787 548.677 684.195 548.663 684.626C548.648 685.058 548.806 685.477 549.101 685.793C549.396 686.108 549.804 686.293 550.235 686.307C550.667 686.322 551.086 686.164 551.401 685.869C551.506 685.76 551.594 685.636 551.662 685.501C551.657 685.537 551.657 685.573 551.662 685.609C551.882 685.842 552.145 686.03 552.437 686.162C552.73 686.294 553.045 686.367 553.365 686.377C553.686 686.387 554.005 686.334 554.305 686.22C554.605 686.107 554.879 685.935 555.113 685.716C555.347 685.496 555.535 685.233 555.667 684.941C555.799 684.648 555.872 684.333 555.882 684.013C555.892 683.692 555.838 683.373 555.725 683.073C555.611 682.773 555.44 682.498 555.221 682.265H555.282Z" fill="white" stroke="#263238" stroke-linecap="round" stroke-linejoin="round"/>
<path d="M553.411 689.167C553.188 689.372 552.91 689.507 552.611 689.554C552.312 689.602 552.006 689.56 551.73 689.434C551.455 689.307 551.224 689.102 551.065 688.845C550.906 688.587 550.827 688.288 550.837 687.986C550.848 687.683 550.948 687.391 551.125 687.145C551.301 686.899 551.547 686.711 551.83 686.604C552.113 686.497 552.422 686.477 552.717 686.546C553.012 686.614 553.28 686.768 553.487 686.989C553.626 687.136 553.734 687.31 553.806 687.5C553.877 687.689 553.91 687.891 553.903 688.094C553.896 688.296 553.849 688.495 553.764 688.679C553.68 688.864 553.56 689.029 553.411 689.167Z" fill="#FF81AE" stroke="#263238" stroke-linecap="round" stroke-linejoin="round"/>
<path d="M451.091 663.092C451.094 663.505 450.974 663.91 450.747 664.255C450.519 664.6 450.195 664.87 449.814 665.03C449.433 665.19 449.013 665.234 448.607 665.155C448.202 665.076 447.829 664.879 447.535 664.588C447.242 664.297 447.042 663.925 446.96 663.52C446.878 663.115 446.919 662.695 447.076 662.313C447.234 661.931 447.501 661.604 447.844 661.374C448.188 661.144 448.592 661.021 449.005 661.021C449.555 661.021 450.084 661.239 450.474 661.627C450.865 662.015 451.087 662.542 451.091 663.092Z" fill="#FF81AE" stroke="#263238" stroke-linecap="round" stroke-linejoin="round"/>
<path d="M443.897 659.411C442.978 659.411 442.096 659.776 441.446 660.426C440.796 661.076 440.431 661.958 440.431 662.877C440.428 663.542 440.62 664.192 440.983 664.748C440.488 664.865 440.047 665.145 439.73 665.543C439.412 665.94 439.238 666.433 439.235 666.942C439.197 667.266 439.229 667.595 439.327 667.906C439.426 668.218 439.589 668.505 439.806 668.749C440.023 668.992 440.29 669.188 440.588 669.321C440.886 669.455 441.209 669.524 441.535 669.524C441.862 669.524 442.185 669.455 442.483 669.321C442.781 669.188 443.047 668.992 443.264 668.749C443.482 668.505 443.645 668.218 443.743 667.906C443.842 667.595 443.873 667.266 443.836 666.942C443.826 666.732 443.785 666.525 443.713 666.328H443.882C444.801 666.328 445.683 665.963 446.333 665.313C446.983 664.663 447.348 663.781 447.348 662.862C447.348 661.943 446.983 661.061 446.333 660.411C445.683 659.761 444.801 659.396 443.882 659.396L443.897 659.411Z" fill="white" stroke="#263238" stroke-linecap="round" stroke-linejoin="round"/>
<path d="M447.042 670.255C448.253 670.255 449.235 669.273 449.235 668.062C449.235 666.85 448.253 665.868 447.042 665.868C445.831 665.868 444.849 666.85 444.849 668.062C444.849 669.273 445.831 670.255 447.042 670.255Z" fill="#FF81AE" stroke="#263238" stroke-linecap="round" stroke-linejoin="round"/>
<path d="M456.107 681.467C455.883 681.596 455.627 681.656 455.369 681.64C455.112 681.623 454.865 681.531 454.66 681.374C454.455 681.217 454.302 681.003 454.219 680.759C454.135 680.515 454.127 680.252 454.193 680.002C454.26 679.753 454.399 679.529 454.593 679.359C454.787 679.189 455.027 679.08 455.282 679.046C455.538 679.013 455.798 679.056 456.03 679.17C456.261 679.284 456.453 679.464 456.582 679.688C456.755 679.987 456.801 680.342 456.712 680.675C456.623 681.009 456.405 681.294 456.107 681.467Z" fill="#FF81AE" stroke="#263238" stroke-linecap="round" stroke-linejoin="round"/>
<path d="M455.892 676.406C455.75 676.159 455.561 675.942 455.336 675.768C455.11 675.594 454.852 675.466 454.577 675.392C454.302 675.318 454.015 675.299 453.733 675.336C453.45 675.373 453.178 675.466 452.931 675.608C452.569 675.816 452.276 676.125 452.088 676.498C451.899 676.303 451.659 676.166 451.396 676.101C451.132 676.037 450.856 676.048 450.599 676.133C450.342 676.219 450.114 676.375 449.941 676.584C449.769 676.793 449.658 677.047 449.623 677.316C449.588 677.585 449.63 677.858 449.743 678.104C449.857 678.351 450.037 678.56 450.264 678.708C450.491 678.857 450.755 678.938 451.026 678.943C451.297 678.948 451.564 678.877 451.796 678.737C451.907 678.672 452.005 678.589 452.088 678.492V678.584C452.218 678.854 452.403 679.094 452.63 679.29C452.858 679.485 453.123 679.632 453.41 679.72C453.697 679.808 453.999 679.836 454.297 679.802C454.595 679.768 454.883 679.673 455.142 679.523C455.402 679.372 455.627 679.17 455.805 678.928C455.983 678.686 456.108 678.41 456.174 678.118C456.24 677.825 456.245 677.522 456.189 677.227C456.132 676.933 456.015 676.653 455.846 676.406H455.892Z" fill="white" stroke="#263238" stroke-linecap="round" stroke-linejoin="round"/>
<path d="M452.824 682.019C452.668 682.13 452.49 682.208 452.302 682.246C452.114 682.285 451.92 682.284 451.732 682.243C451.544 682.203 451.367 682.123 451.212 682.01C451.057 681.897 450.927 681.753 450.83 681.587C450.734 681.421 450.673 681.237 450.652 681.046C450.631 680.855 450.65 680.662 450.707 680.479C450.765 680.296 450.86 680.127 450.987 679.983C451.114 679.838 451.27 679.722 451.444 679.642C451.756 679.497 452.111 679.474 452.439 679.578C452.767 679.681 453.045 679.903 453.218 680.201C453.39 680.499 453.446 680.85 453.373 681.186C453.3 681.523 453.105 681.819 452.824 682.019Z" fill="#FF81AE" stroke="#263238" stroke-linecap="round" stroke-linejoin="round"/>
<path d="M491.844 672.341C491.847 672.754 491.727 673.159 491.5 673.504C491.272 673.849 490.948 674.119 490.567 674.279C490.186 674.439 489.766 674.483 489.36 674.404C488.955 674.325 488.582 674.128 488.288 673.837C487.995 673.546 487.795 673.174 487.713 672.769C487.631 672.364 487.672 671.944 487.829 671.562C487.987 671.18 488.254 670.853 488.597 670.623C488.941 670.393 489.345 670.271 489.758 670.271C490.308 670.27 490.837 670.488 491.227 670.876C491.618 671.264 491.84 671.791 491.844 672.341Z" fill="#FF81AE" stroke="#263238" stroke-linecap="round" stroke-linejoin="round"/>
<path d="M484.635 668.66C483.716 668.66 482.834 669.025 482.184 669.675C481.534 670.325 481.169 671.207 481.169 672.126C481.173 672.79 481.365 673.438 481.721 673.998C481.226 674.114 480.784 674.394 480.467 674.792C480.15 675.19 479.976 675.682 479.972 676.191C479.935 676.515 479.966 676.844 480.065 677.155C480.163 677.467 480.327 677.754 480.544 677.998C480.761 678.241 481.028 678.437 481.326 678.57C481.624 678.704 481.946 678.773 482.273 678.773C482.6 678.773 482.923 678.704 483.221 678.57C483.519 678.437 483.785 678.241 484.002 677.998C484.22 677.754 484.383 677.467 484.481 677.155C484.58 676.844 484.611 676.515 484.574 676.191C484.564 675.981 484.523 675.774 484.451 675.577H484.62C485.539 675.577 486.421 675.212 487.071 674.562C487.721 673.912 488.086 673.03 488.086 672.111C488.086 671.192 487.721 670.31 487.071 669.66C486.421 669.01 485.539 668.645 484.62 668.645L484.635 668.66Z" fill="white" stroke="#263238" stroke-linecap="round" stroke-linejoin="round"/>
<path d="M489.988 677.311C489.988 677.744 489.86 678.168 489.619 678.529C489.378 678.89 489.035 679.171 488.634 679.337C488.233 679.503 487.792 679.546 487.367 679.462C486.942 679.377 486.551 679.168 486.244 678.861C485.937 678.555 485.728 678.164 485.644 677.738C485.559 677.313 485.602 676.872 485.769 676.471C485.935 676.07 486.216 675.728 486.576 675.487C486.937 675.246 487.361 675.117 487.795 675.117C488.377 675.117 488.934 675.348 489.346 675.76C489.757 676.171 489.988 676.729 489.988 677.311Z" fill="#FF81AE" stroke="#263238" stroke-linecap="round" stroke-linejoin="round"/>
<path d="M429.464 673.507C429.464 673.919 429.342 674.323 429.113 674.666C428.884 675.009 428.558 675.276 428.177 675.434C427.796 675.592 427.376 675.633 426.971 675.553C426.567 675.472 426.195 675.274 425.903 674.982C425.612 674.69 425.413 674.318 425.333 673.914C425.252 673.509 425.293 673.09 425.451 672.709C425.609 672.327 425.876 672.002 426.22 671.772C426.563 671.543 426.966 671.421 427.378 671.421C427.653 671.419 427.925 671.471 428.179 671.576C428.433 671.68 428.664 671.833 428.858 672.027C429.052 672.221 429.206 672.452 429.31 672.706C429.414 672.96 429.466 673.232 429.464 673.507Z" fill="#FF81AE" stroke="#263238" stroke-linecap="round" stroke-linejoin="round"/>
<path d="M422.271 669.81C421.352 669.81 420.47 670.176 419.82 670.826C419.17 671.476 418.805 672.357 418.805 673.277C418.802 673.936 418.994 674.582 419.357 675.133C418.849 675.24 418.393 675.518 418.064 675.919C417.735 676.321 417.553 676.822 417.547 677.341C417.612 677.906 417.883 678.426 418.307 678.804C418.731 679.182 419.279 679.391 419.848 679.391C420.416 679.391 420.964 679.182 421.388 678.804C421.812 678.426 422.083 677.906 422.148 677.341C422.133 677.132 422.091 676.926 422.026 676.728H422.194C423.114 676.728 423.995 676.362 424.645 675.712C425.295 675.062 425.661 674.181 425.661 673.261C425.661 672.342 425.295 671.46 424.645 670.81C423.995 670.16 423.114 669.795 422.194 669.795L422.271 669.81Z" fill="white" stroke="#263238" stroke-linecap="round" stroke-linejoin="round"/>
<path d="M425.415 680.654C426.627 680.654 427.609 679.672 427.609 678.461C427.609 677.25 426.627 676.268 425.415 676.268C424.204 676.268 423.222 677.25 423.222 678.461C423.222 679.672 424.204 680.654 425.415 680.654Z" fill="#FF81AE" stroke="#263238" stroke-linecap="round" stroke-linejoin="round"/>
<path d="M395.368 677.801C395.068 678.084 394.69 678.271 394.283 678.34C393.876 678.408 393.458 678.354 393.081 678.184C392.705 678.014 392.387 677.737 392.169 677.387C391.95 677.037 391.84 676.63 391.853 676.217C391.866 675.805 392.001 675.405 392.241 675.069C392.481 674.733 392.815 674.476 393.202 674.331C393.588 674.185 394.009 674.157 394.411 674.251C394.813 674.344 395.178 674.555 395.46 674.856C395.838 675.259 396.04 675.795 396.023 676.347C396.006 676.899 395.77 677.422 395.368 677.801Z" fill="#FF81AE" stroke="#263238" stroke-linecap="round" stroke-linejoin="round"/>
<path d="M393.129 670.025C392.817 669.692 392.443 669.424 392.027 669.236C391.611 669.048 391.163 668.944 390.707 668.929C390.251 668.915 389.796 668.991 389.37 669.153C388.943 669.314 388.553 669.559 388.221 669.872C387.746 670.328 387.407 670.907 387.239 671.544C386.815 671.264 386.31 671.135 385.804 671.177C385.298 671.218 384.82 671.429 384.448 671.774C384.044 672.203 383.819 672.769 383.819 673.358C383.818 673.947 384.042 674.513 384.444 674.943C384.847 675.373 385.398 675.633 385.985 675.671C386.573 675.709 387.153 675.522 387.607 675.148C387.744 674.993 387.862 674.823 387.96 674.642C388 674.679 388.036 674.72 388.067 674.765C388.379 675.097 388.752 675.365 389.167 675.553C389.582 675.741 390.029 675.845 390.484 675.86C390.939 675.875 391.393 675.8 391.819 675.64C392.245 675.479 392.636 675.237 392.968 674.926C393.3 674.614 393.568 674.241 393.756 673.826C393.944 673.411 394.048 672.964 394.063 672.509C394.078 672.054 394.004 671.6 393.843 671.174C393.683 670.748 393.44 670.357 393.129 670.025Z" fill="white" stroke="#263238" stroke-linecap="round" stroke-linejoin="round"/>
<path d="M390.475 679.842C390.161 680.144 389.764 680.345 389.335 680.421C388.906 680.496 388.464 680.442 388.066 680.266C387.667 680.089 387.331 679.798 387.099 679.429C386.867 679.06 386.75 678.631 386.763 678.195C386.776 677.759 386.918 677.338 387.172 676.983C387.426 676.629 387.779 676.358 388.188 676.206C388.596 676.054 389.04 676.026 389.464 676.127C389.888 676.228 390.272 676.454 390.568 676.774C390.96 677.194 391.171 677.752 391.154 678.327C391.136 678.901 390.893 679.446 390.475 679.842Z" fill="#FF81AE" stroke="#263238" stroke-linecap="round" stroke-linejoin="round"/>
<path d="M472.764 675.776C472.555 676.004 472.282 676.164 471.981 676.234C471.68 676.305 471.365 676.282 471.077 676.171C470.788 676.059 470.541 675.862 470.366 675.607C470.192 675.352 470.098 675.05 470.098 674.741C470.098 674.432 470.192 674.13 470.366 673.875C470.541 673.619 470.788 673.423 471.077 673.311C471.365 673.199 471.68 673.177 471.981 673.247C472.282 673.318 472.555 673.477 472.764 673.706C473.022 673.988 473.166 674.358 473.166 674.741C473.166 675.124 473.022 675.493 472.764 675.776Z" fill="#FF81AE" stroke="#263238" stroke-linecap="round" stroke-linejoin="round"/>
<path d="M471.107 670.316C470.889 670.083 470.627 669.895 470.336 669.763C470.045 669.631 469.731 669.558 469.411 669.548C469.092 669.538 468.774 669.591 468.475 669.705C468.177 669.818 467.903 669.99 467.671 670.209C467.331 670.527 467.091 670.937 466.981 671.39C466.686 671.177 466.326 671.075 465.964 671.104C465.601 671.132 465.261 671.287 465.002 671.543C464.701 671.85 464.532 672.263 464.532 672.694C464.532 673.124 464.701 673.537 465.002 673.844C465.146 674.005 465.322 674.133 465.519 674.221C465.716 674.309 465.929 674.355 466.145 674.355C466.361 674.355 466.574 674.309 466.771 674.221C466.968 674.133 467.144 674.005 467.288 673.844C467.388 673.731 467.476 673.608 467.548 673.476V673.583C467.992 674.055 468.605 674.332 469.252 674.352C469.899 674.372 470.528 674.134 471 673.691C471.471 673.247 471.748 672.635 471.768 671.987C471.788 671.34 471.55 670.711 471.107 670.24V670.316Z" fill="white" stroke="#263238" stroke-linecap="round" stroke-linejoin="round"/>
<path d="M469.251 677.219C469.036 677.432 468.763 677.577 468.466 677.635C468.168 677.693 467.861 677.662 467.581 677.545C467.302 677.429 467.063 677.232 466.895 676.98C466.727 676.728 466.637 676.432 466.637 676.13C466.637 675.827 466.727 675.531 466.895 675.279C467.063 675.027 467.302 674.83 467.581 674.714C467.861 674.597 468.168 674.566 468.466 674.624C468.763 674.682 469.036 674.827 469.251 675.041C469.395 675.183 469.509 675.353 469.587 675.54C469.665 675.727 469.705 675.927 469.705 676.13C469.705 676.332 469.665 676.532 469.587 676.719C469.509 676.906 469.395 677.076 469.251 677.219Z" fill="#FF81AE" stroke="#263238" stroke-linecap="round" stroke-linejoin="round"/>
<path d="M464.312 667.11C464.104 667.338 463.831 667.498 463.53 667.568C463.229 667.639 462.914 667.616 462.625 667.505C462.337 667.393 462.09 667.196 461.915 666.941C461.74 666.686 461.647 666.384 461.647 666.075C461.647 665.766 461.74 665.464 461.915 665.209C462.09 664.953 462.337 664.757 462.625 664.645C462.914 664.533 463.229 664.511 463.53 664.581C463.831 664.652 464.104 664.811 464.312 665.04C464.571 665.322 464.715 665.692 464.715 666.075C464.715 666.458 464.571 666.827 464.312 667.11Z" fill="#FF81AE" stroke="#263238" stroke-linecap="round" stroke-linejoin="round"/>
<path d="M462.732 661.65C462.514 661.417 462.252 661.229 461.961 661.097C461.67 660.965 461.356 660.892 461.037 660.882C460.718 660.872 460.399 660.925 460.101 661.039C459.802 661.152 459.529 661.324 459.297 661.543C458.954 661.859 458.713 662.27 458.606 662.724C458.312 662.511 457.951 662.409 457.589 662.438C457.227 662.466 456.886 662.621 456.628 662.877C456.326 663.184 456.157 663.597 456.157 664.028C456.157 664.458 456.326 664.871 456.628 665.178C456.922 665.489 457.327 665.672 457.755 665.686C458.183 665.7 458.599 665.545 458.913 665.255C459.014 665.142 459.101 665.019 459.174 664.887C459.174 664.887 459.174 664.963 459.174 664.979C459.393 665.211 459.655 665.399 459.946 665.53C460.237 665.661 460.551 665.734 460.87 665.744C461.189 665.754 461.506 665.701 461.805 665.588C462.104 665.475 462.377 665.305 462.61 665.086C462.842 664.867 463.03 664.605 463.161 664.314C463.292 664.023 463.365 663.709 463.375 663.39C463.385 663.071 463.332 662.753 463.219 662.455C463.106 662.156 462.936 661.883 462.717 661.65H462.732Z" fill="white" stroke="#263238" stroke-linecap="round" stroke-linejoin="round"/>
<path d="M460.877 668.552C460.662 668.766 460.388 668.911 460.091 668.969C459.794 669.027 459.486 668.996 459.207 668.879C458.927 668.763 458.688 668.566 458.52 668.314C458.352 668.062 458.263 667.766 458.263 667.463C458.263 667.161 458.352 666.865 458.52 666.613C458.688 666.361 458.927 666.164 459.207 666.048C459.486 665.931 459.794 665.9 460.091 665.958C460.388 666.016 460.662 666.161 460.877 666.375C461.02 666.517 461.134 666.687 461.212 666.874C461.29 667.061 461.33 667.261 461.33 667.463C461.33 667.666 461.29 667.866 461.212 668.053C461.134 668.24 461.02 668.41 460.877 668.552Z" fill="#FF81AE" stroke="#263238" stroke-linecap="round" stroke-linejoin="round"/>
<path d="M309.154 505.725C309.154 506.08 309.048 506.427 308.851 506.722C308.654 507.017 308.374 507.247 308.046 507.383C307.718 507.519 307.357 507.554 307.009 507.485C306.661 507.416 306.341 507.245 306.09 506.994C305.839 506.743 305.668 506.423 305.599 506.075C305.53 505.727 305.565 505.366 305.701 505.038C305.837 504.711 306.067 504.43 306.362 504.233C306.657 504.036 307.004 503.931 307.359 503.931C307.835 503.931 308.291 504.12 308.628 504.456C308.964 504.793 309.154 505.249 309.154 505.725Z" fill="#FF81AE" stroke="#263238" stroke-linecap="round" stroke-linejoin="round"/>
<path d="M302.942 502.55C302.406 502.55 301.88 502.695 301.419 502.969C300.958 503.243 300.579 503.635 300.322 504.106C300.065 504.576 299.939 505.107 299.957 505.643C299.976 506.178 300.138 506.699 300.426 507.151C299.993 507.248 299.606 507.489 299.328 507.834C299.049 508.18 298.896 508.609 298.893 509.053C298.893 509.582 299.103 510.089 299.477 510.463C299.851 510.837 300.358 511.047 300.887 511.047C301.415 511.047 301.922 510.837 302.296 510.463C302.67 510.089 302.88 509.582 302.88 509.053C302.87 508.87 302.834 508.689 302.773 508.516H302.911C303.704 508.516 304.465 508.201 305.026 507.64C305.587 507.079 305.902 506.318 305.902 505.525C305.902 504.732 305.587 503.971 305.026 503.41C304.465 502.849 303.704 502.534 302.911 502.534L302.942 502.55Z" fill="white" stroke="#263238" stroke-linecap="round" stroke-linejoin="round"/>
<path d="M307.559 510.019C307.559 510.396 307.447 510.764 307.237 511.077C307.027 511.39 306.729 511.634 306.381 511.778C306.033 511.921 305.649 511.958 305.28 511.883C304.911 511.809 304.572 511.626 304.306 511.358C304.041 511.091 303.861 510.751 303.79 510.381C303.718 510.011 303.758 509.628 303.904 509.281C304.05 508.933 304.297 508.637 304.611 508.43C304.926 508.223 305.295 508.114 305.672 508.117C305.921 508.117 306.168 508.167 306.398 508.262C306.628 508.358 306.836 508.498 307.012 508.675C307.187 508.852 307.326 509.062 307.42 509.292C307.513 509.523 307.561 509.77 307.559 510.019Z" fill="#FF81AE" stroke="#263238" stroke-linecap="round" stroke-linejoin="round"/>
<path d="M270.303 516.016C270.045 516.165 269.738 516.205 269.45 516.127C269.163 516.049 268.918 515.86 268.769 515.602C268.621 515.344 268.581 515.037 268.658 514.75C268.736 514.462 268.925 514.217 269.183 514.068C269.311 513.995 269.452 513.947 269.599 513.928C269.745 513.909 269.893 513.919 270.036 513.958C270.178 513.996 270.312 514.062 270.429 514.152C270.545 514.242 270.643 514.355 270.717 514.483C270.791 514.61 270.838 514.752 270.857 514.898C270.876 515.044 270.866 515.193 270.828 515.335C270.789 515.478 270.723 515.611 270.633 515.728C270.543 515.845 270.431 515.943 270.303 516.016Z" fill="#FF81AE" stroke="#263238" stroke-linecap="round" stroke-linejoin="round"/>
<path d="M270.134 511.645C270.011 511.431 269.848 511.243 269.653 511.093C269.458 510.942 269.235 510.832 268.997 510.768C268.759 510.703 268.51 510.687 268.266 510.719C268.021 510.751 267.786 510.831 267.572 510.955C267.261 511.138 267.006 511.403 266.836 511.722C266.646 511.513 266.39 511.376 266.11 511.334C265.831 511.292 265.546 511.347 265.302 511.492C265.02 511.661 264.815 511.936 264.732 512.255C264.65 512.574 264.696 512.913 264.861 513.199C265.026 513.484 265.296 513.694 265.614 513.782C265.932 513.87 266.272 513.83 266.56 513.67C266.653 513.605 266.735 513.528 266.806 513.44V513.516C267.054 513.947 267.463 514.262 267.943 514.392C268.424 514.521 268.936 514.455 269.367 514.206C269.798 513.958 270.113 513.549 270.243 513.069C270.372 512.588 270.305 512.076 270.057 511.645H270.134Z" fill="white" stroke="#263238" stroke-linecap="round" stroke-linejoin="round"/>
<path d="M267.527 516.492C267.322 516.613 267.087 516.67 266.85 516.656C266.613 516.643 266.386 516.559 266.197 516.416C266.007 516.273 265.865 516.077 265.788 515.852C265.71 515.628 265.701 515.386 265.762 515.156C265.822 514.927 265.95 514.721 266.128 514.564C266.306 514.407 266.527 514.307 266.762 514.276C266.997 514.245 267.236 514.284 267.449 514.39C267.661 514.495 267.838 514.661 267.956 514.866C268.036 515.001 268.088 515.15 268.109 515.305C268.131 515.46 268.121 515.618 268.081 515.769C268.041 515.92 267.972 516.062 267.877 516.186C267.781 516.311 267.662 516.415 267.527 516.492Z" fill="#FF81AE" stroke="#263238" stroke-linecap="round" stroke-linejoin="round"/>
<path d="M313.479 521.661C313.219 521.802 312.915 521.838 312.629 521.761C312.344 521.684 312.099 521.5 311.945 521.247C311.831 521.052 311.777 520.828 311.791 520.603C311.804 520.378 311.884 520.162 312.021 519.983C312.158 519.804 312.345 519.669 312.558 519.597C312.772 519.524 313.002 519.517 313.219 519.575C313.437 519.634 313.632 519.756 313.78 519.927C313.928 520.097 314.022 520.307 314.05 520.531C314.078 520.755 314.038 520.982 313.937 521.183C313.835 521.384 313.676 521.551 313.479 521.661Z" fill="#FF81AE" stroke="#263238" stroke-linecap="round" stroke-linejoin="round"/>
<path d="M313.249 517.213C313.126 516.999 312.963 516.812 312.768 516.661C312.573 516.511 312.35 516.4 312.112 516.336C311.874 516.272 311.625 516.255 311.381 516.287C311.136 516.32 310.901 516.4 310.687 516.523C310.377 516.702 310.126 516.969 309.967 517.29C309.776 517.081 309.52 516.944 309.241 516.902C308.961 516.86 308.676 516.916 308.433 517.06C308.171 517.238 307.987 517.508 307.916 517.816C307.844 518.124 307.892 518.448 308.049 518.722C308.205 518.997 308.46 519.203 308.761 519.298C309.062 519.394 309.389 519.372 309.675 519.238C309.772 519.174 309.86 519.096 309.936 519.008C309.936 519.008 309.936 519.008 309.936 519.085C310.059 519.302 310.223 519.493 310.42 519.647C310.617 519.801 310.842 519.915 311.083 519.982C311.323 520.049 311.575 520.068 311.823 520.037C312.071 520.007 312.31 519.928 312.528 519.805C312.745 519.683 312.937 519.518 313.091 519.321C313.245 519.125 313.358 518.899 313.425 518.659C313.492 518.418 313.511 518.166 313.481 517.918C313.451 517.67 313.372 517.431 313.249 517.213Z" fill="white" stroke="#263238" stroke-linecap="round" stroke-linejoin="round"/>
<path d="M310.642 522.06C310.507 522.14 310.358 522.192 310.203 522.213C310.048 522.235 309.89 522.225 309.739 522.185C309.588 522.145 309.446 522.076 309.322 521.981C309.197 521.885 309.093 521.766 309.016 521.631C308.895 521.426 308.838 521.191 308.852 520.954C308.865 520.717 308.949 520.49 309.092 520.3C309.235 520.111 309.431 519.969 309.656 519.892C309.88 519.814 310.122 519.805 310.352 519.866C310.581 519.926 310.787 520.054 310.944 520.232C311.101 520.41 311.201 520.631 311.232 520.866C311.263 521.101 311.224 521.34 311.118 521.553C311.013 521.765 310.847 521.942 310.642 522.06Z" fill="#FF81AE" stroke="#263238" stroke-linecap="round" stroke-linejoin="round"/>
<path d="M290.488 514.698C290.488 515.053 290.382 515.4 290.185 515.695C289.988 515.99 289.708 516.22 289.38 516.356C289.052 516.492 288.691 516.527 288.343 516.458C287.995 516.389 287.675 516.218 287.424 515.967C287.173 515.716 287.002 515.396 286.933 515.048C286.864 514.7 286.899 514.339 287.035 514.011C287.171 513.683 287.401 513.403 287.696 513.206C287.991 513.009 288.338 512.903 288.693 512.903C289.169 512.903 289.625 513.092 289.962 513.429C290.298 513.765 290.488 514.222 290.488 514.698Z" fill="#FF81AE" stroke="#263238" stroke-linecap="round" stroke-linejoin="round"/>
<path d="M284.276 511.522C283.475 511.522 282.706 511.835 282.133 512.393C281.56 512.952 281.228 513.713 281.208 514.513C281.214 515.084 281.378 515.641 281.684 516.124C281.252 516.217 280.865 516.455 280.586 516.798C280.307 517.141 280.154 517.568 280.15 518.01C280.133 518.304 280.181 518.597 280.291 518.87C280.401 519.142 280.57 519.387 280.785 519.587C281.001 519.787 281.258 519.936 281.538 520.025C281.818 520.114 282.115 520.14 282.406 520.101C282.697 520.061 282.976 519.958 283.223 519.799C283.47 519.639 283.678 519.427 283.834 519.177C283.989 518.928 284.087 518.647 284.121 518.355C284.155 518.063 284.124 517.767 284.03 517.489H284.168C284.962 517.489 285.722 517.174 286.283 516.613C286.844 516.052 287.159 515.291 287.159 514.498C287.159 513.704 286.844 512.944 286.283 512.383C285.722 511.822 284.962 511.507 284.168 511.507L284.276 511.522Z" fill="white" stroke="#263238" stroke-linecap="round" stroke-linejoin="round"/>
<path d="M288.892 518.976C288.895 519.354 288.786 519.724 288.578 520.039C288.37 520.354 288.073 520.6 287.725 520.746C287.377 520.892 286.993 520.931 286.623 520.858C286.253 520.785 285.912 520.604 285.645 520.337C285.379 520.07 285.197 519.729 285.124 519.359C285.051 518.989 285.09 518.605 285.236 518.257C285.382 517.909 285.628 517.612 285.943 517.404C286.258 517.196 286.628 517.087 287.006 517.09C287.506 517.09 287.986 517.289 288.34 517.642C288.693 517.996 288.892 518.476 288.892 518.976Z" fill="#FF81AE" stroke="#263238" stroke-linecap="round" stroke-linejoin="round"/>
<path d="M294.337 510.618C294.207 510.748 294.053 510.851 293.884 510.922C293.714 510.992 293.532 511.029 293.348 511.029C293.164 511.029 292.982 510.992 292.812 510.922C292.642 510.851 292.488 510.748 292.359 510.618C292.164 510.422 292.032 510.173 291.978 509.903C291.925 509.632 291.953 509.352 292.059 509.097C292.165 508.843 292.344 508.625 292.573 508.472C292.803 508.319 293.072 508.237 293.348 508.237C293.624 508.237 293.893 508.319 294.123 508.472C294.352 508.625 294.531 508.843 294.637 509.097C294.743 509.352 294.771 509.632 294.717 509.903C294.664 510.173 294.532 510.422 294.337 510.618Z" fill="#FF81AE" stroke="#263238" stroke-linecap="round" stroke-linejoin="round"/>
<path d="M292.834 505.403C292.625 505.179 292.373 504.999 292.094 504.872C291.815 504.746 291.514 504.675 291.207 504.665C290.901 504.655 290.596 504.706 290.309 504.814C290.022 504.922 289.76 505.086 289.536 505.295C289.212 505.596 288.983 505.985 288.877 506.415C288.633 506.265 288.352 506.186 288.066 506.187C287.78 506.188 287.5 506.269 287.258 506.421C287.015 506.573 286.82 506.789 286.694 507.046C286.568 507.303 286.517 507.59 286.546 507.875C286.575 508.16 286.683 508.431 286.857 508.657C287.032 508.884 287.267 509.057 287.535 509.157C287.803 509.257 288.093 509.281 288.374 509.224C288.654 509.168 288.914 509.034 289.122 508.838C289.221 508.739 289.304 508.625 289.368 508.501V508.593C289.791 509.044 290.376 509.309 290.994 509.33C291.613 509.35 292.214 509.123 292.665 508.7C293.117 508.277 293.382 507.692 293.402 507.074C293.422 506.455 293.196 505.854 292.773 505.403H292.834Z" fill="white" stroke="#263238" stroke-linecap="round" stroke-linejoin="round"/>
<path d="M291.055 511.998C290.771 512.261 290.399 512.407 290.012 512.407C289.625 512.407 289.253 512.261 288.969 511.998C288.815 511.701 288.762 511.363 288.817 511.034C288.873 510.705 289.035 510.403 289.277 510.174C289.52 509.945 289.831 509.801 290.163 509.765C290.495 509.729 290.83 509.802 291.116 509.973C291.354 510.26 291.479 510.624 291.467 510.997C291.456 511.369 291.31 511.725 291.055 511.998Z" fill="#FF81AE" stroke="#263238" stroke-linecap="round" stroke-linejoin="round"/>
<path d="M320.565 509.191C320.389 509.367 320.165 509.487 319.921 509.535C319.677 509.584 319.424 509.559 319.195 509.464C318.965 509.368 318.769 509.207 318.63 509C318.492 508.794 318.418 508.55 318.418 508.302C318.418 508.053 318.492 507.81 318.63 507.603C318.769 507.396 318.965 507.235 319.195 507.14C319.424 507.045 319.677 507.02 319.921 507.068C320.165 507.117 320.389 507.236 320.565 507.412C320.682 507.529 320.775 507.668 320.838 507.82C320.901 507.973 320.934 508.136 320.934 508.302C320.934 508.467 320.901 508.63 320.838 508.783C320.775 508.936 320.682 509.074 320.565 509.191Z" fill="#FF81AE" stroke="#263238" stroke-linecap="round" stroke-linejoin="round"/>
<path d="M319.2 504.483C318.944 504.206 318.618 504.004 318.256 503.897C317.895 503.791 317.511 503.785 317.146 503.879C316.781 503.973 316.448 504.165 316.183 504.433C315.918 504.702 315.731 505.037 315.642 505.403C315.421 505.261 315.165 505.184 314.903 505.182C314.64 505.179 314.383 505.25 314.159 505.386C313.935 505.523 313.754 505.72 313.637 505.955C313.521 506.19 313.472 506.453 313.498 506.714C313.524 506.975 313.622 507.224 313.783 507.431C313.943 507.639 314.159 507.797 314.405 507.887C314.652 507.978 314.918 507.997 315.175 507.943C315.432 507.889 315.668 507.763 315.857 507.581C315.945 507.492 316.018 507.388 316.071 507.274C316.076 507.305 316.076 507.336 316.071 507.366C316.261 507.568 316.488 507.73 316.74 507.844C316.992 507.957 317.264 508.02 317.54 508.029C317.816 508.037 318.092 507.991 318.35 507.893C318.609 507.796 318.845 507.648 319.047 507.458C319.248 507.269 319.41 507.042 319.524 506.79C319.638 506.538 319.701 506.266 319.709 505.99C319.718 505.713 319.672 505.438 319.574 505.18C319.476 504.921 319.328 504.684 319.139 504.483H319.2Z" fill="white" stroke="#263238" stroke-linecap="round" stroke-linejoin="round"/>
<path d="M317.59 510.433C317.405 510.617 317.17 510.742 316.914 510.792C316.659 510.842 316.394 510.816 316.153 510.716C315.913 510.616 315.707 510.447 315.563 510.23C315.418 510.013 315.341 509.758 315.341 509.498C315.341 509.237 315.418 508.983 315.563 508.766C315.707 508.549 315.913 508.38 316.153 508.28C316.394 508.18 316.659 508.153 316.914 508.203C317.17 508.254 317.405 508.378 317.59 508.562C317.713 508.685 317.811 508.831 317.878 508.991C317.945 509.152 317.979 509.324 317.979 509.498C317.979 509.672 317.945 509.844 317.878 510.004C317.811 510.165 317.713 510.311 317.59 510.433Z" fill="#FF81AE" stroke="#263238" stroke-linecap="round" stroke-linejoin="round"/>
<path d="M491.89 509.068L447.072 518.578L481.03 536.922L527.213 526.738L491.89 509.068Z" fill="white" stroke="#263238" stroke-linecap="round" stroke-linejoin="round"/>
<path d="M437.563 509.068L415.829 532.167L457.257 533.517L474.236 511.108L437.563 509.068Z" fill="white" stroke="#263238" stroke-linecap="round" stroke-linejoin="round"/>
<path d="M522.459 492.089C521.774 495.204 520.446 498.142 518.56 500.714C516.674 503.287 514.272 505.437 511.507 507.028C502.075 512.473 497.32 515.188 497.32 515.188L511.584 532.167C511.584 532.167 534.683 527.412 543.502 504.313L522.459 492.089Z" fill="white" stroke="#263238" stroke-linecap="round" stroke-linejoin="round"/>
<path d="M390.123 357.345L400.23 377.484L436.581 490.571C436.581 490.571 436.581 512.443 441.627 515.817C450.707 521.876 467.871 521.876 478.991 508.746C490.111 495.617 484.037 483.515 484.037 483.515L443.621 361.379C443.621 361.379 438.575 347.238 427.47 345.228C412.255 342.452 393.159 344.216 390.123 357.345Z" fill="#FF81AE" stroke="#263238" stroke-linecap="round" stroke-linejoin="round"/>
<path d="M466.153 432.471C464.895 431.29 463.423 429.94 461.766 428.268C455.554 422.041 451.106 408.666 451.106 408.666V421.136C451.106 423.82 456.444 429.158 459.987 437.195C463.53 445.232 457.318 451.444 457.318 451.444C457.318 451.444 456.444 445.216 454.665 437.195C452.885 429.173 449.327 433.621 444.894 428.268C442.089 424.631 440.258 420.339 439.572 415.798V425.599C439.572 430.952 442.226 432.731 444.894 437.195C447.563 441.658 444.894 454.066 444.894 454.066C443.317 450.393 441.541 446.809 439.572 443.33C436.903 438.882 435.124 443.33 434.066 439.649C433.007 435.968 428.023 421.949 428.023 421.949C427.352 426.971 427.054 432.036 427.133 437.103C427.133 446.904 428.023 442.44 430.691 448.683C433.36 454.925 434.234 457.594 432.455 466.505C432.03 468.796 431.865 471.126 431.964 473.454L437.486 490.647C437.486 490.647 437.486 511.752 442.348 515.004C451.076 520.863 467.579 520.863 478.254 508.194C488.93 495.525 483.116 483.822 483.116 483.822L466.153 432.471Z" fill="white"/>
<path d="M428.559 365.413L418.528 369.079L425.614 389.11L436.136 384.969L428.559 365.413Z" fill="#737373" stroke="#263238" stroke-linecap="round" stroke-linejoin="round"/>
<path d="M448.407 369.815C447.302 365.352 444.664 362.146 442.517 362.683L435.676 365.213L439.725 381.426L446.566 378.972C448.714 378.373 449.526 374.309 448.407 369.815Z" fill="#263238" stroke="#263238" stroke-linecap="round" stroke-linejoin="round"/>
<path d="M441.566 372.285C442.686 376.748 441.857 380.813 439.725 381.35C437.593 381.886 434.955 378.681 433.836 374.202C432.716 369.723 433.544 365.674 435.676 365.153C437.808 364.631 440.446 367.806 441.566 372.285Z" fill="#263238" stroke="#263238" stroke-linecap="round" stroke-linejoin="round"/>
<path d="M439.281 373.143C439.787 375.153 439.496 376.963 438.637 377.177C437.778 377.392 436.658 375.935 436.167 373.91C435.676 371.886 435.953 370.091 436.811 369.876C437.67 369.662 438.775 371.119 439.281 373.143Z" fill="white" stroke="#263238" stroke-linecap="round" stroke-linejoin="round"/>
<path d="M420.001 382.255C419.426 382.252 418.871 382.046 418.434 381.671C417.997 381.297 417.708 380.78 417.618 380.212C417.527 379.644 417.642 379.063 417.941 378.571C418.24 378.08 418.704 377.711 419.249 377.531L434.587 372.546C435.198 372.346 435.862 372.395 436.436 372.682C437.011 372.969 437.449 373.471 437.655 374.079C437.758 374.382 437.8 374.701 437.779 375.019C437.757 375.338 437.673 375.649 437.53 375.934C437.387 376.22 437.189 376.474 436.947 376.682C436.706 376.89 436.425 377.048 436.121 377.147L420.783 382.117C420.533 382.211 420.268 382.258 420.001 382.255Z" fill="#737373" stroke="#263238" stroke-linecap="round" stroke-linejoin="round"/>
<path d="M421.872 379.723C420.752 375.245 418.114 372.054 415.982 372.591L409.142 375.03L413.191 391.288L420.032 388.849C422.148 388.221 422.992 384.187 421.872 379.723Z" fill="#263238" stroke="#263238" stroke-linecap="round" stroke-linejoin="round"/>
<path d="M415.031 382.162C416.136 386.64 415.323 390.69 413.191 391.227C411.059 391.763 408.421 388.573 407.301 384.094C406.181 379.616 407.01 375.566 409.141 375.03C411.273 374.493 413.912 377.683 415.031 382.162Z" fill="#263238" stroke="#263238" stroke-linecap="round" stroke-linejoin="round"/>
<path d="M412.731 383.022C413.237 385.046 412.945 386.856 412.086 387.071C411.227 387.286 410.123 385.813 409.617 383.804C409.111 381.795 409.402 379.985 410.261 379.77C411.12 379.555 412.24 381.012 412.731 383.022Z" fill="white" stroke="#263238" stroke-linecap="round" stroke-linejoin="round"/>
<path d="M463.868 464.327L453.852 467.993L460.938 488.024L471.445 483.868L463.868 464.327Z" fill="#737373" stroke="#263238" stroke-linecap="round" stroke-linejoin="round"/>
<path d="M483.73 468.745C482.61 464.266 479.972 461.076 477.84 461.613L471 464.051L475.049 480.248L481.889 477.81C484.021 477.273 484.85 473.223 483.73 468.745Z" fill="#263238" stroke="#263238" stroke-linecap="round" stroke-linejoin="round"/>
<path d="M476.889 471.184C478.009 475.663 477.181 479.727 475.049 480.249C472.917 480.77 470.279 477.595 469.159 473.117C468.039 468.638 468.867 464.589 470.999 464.052C473.131 463.515 475.831 466.721 476.889 471.184Z" fill="#263238" stroke="#263238" stroke-linecap="round" stroke-linejoin="round"/>
<path d="M474.588 472.042C475.095 474.067 474.803 475.877 473.944 476.091C473.085 476.306 471.981 474.849 471.475 472.824C470.969 470.8 471.26 469.005 472.119 468.791C472.978 468.576 474.098 470.033 474.588 472.042Z" fill="white" stroke="#263238" stroke-linecap="round" stroke-linejoin="round"/>
<path d="M455.309 481.168C454.727 481.174 454.162 480.97 453.718 480.593C453.274 480.216 452.98 479.692 452.891 479.117C452.802 478.542 452.922 477.953 453.231 477.46C453.54 476.966 454.016 476.6 454.573 476.429L469.911 471.459C470.213 471.359 470.532 471.318 470.849 471.341C471.167 471.364 471.477 471.449 471.762 471.591C472.047 471.733 472.301 471.931 472.51 472.171C472.718 472.412 472.878 472.691 472.978 472.993C473.079 473.295 473.119 473.614 473.097 473.932C473.074 474.25 472.989 474.56 472.847 474.845C472.704 475.13 472.507 475.384 472.267 475.592C472.026 475.801 471.747 475.96 471.444 476.061L456.107 481.03C455.85 481.12 455.581 481.166 455.309 481.168Z" fill="#737373" stroke="#263238" stroke-linecap="round" stroke-linejoin="round"/>
<path d="M457.18 478.622C456.061 474.159 453.422 470.954 451.29 471.49L444.45 473.944L448.499 490.141L455.34 487.687C457.426 487.166 458.3 483.101 457.18 478.622Z" fill="#263238" stroke="#263238" stroke-linecap="round" stroke-linejoin="round"/>
<path d="M450.339 481.077C451.459 485.54 450.631 489.605 448.499 490.142C446.367 490.678 443.729 487.473 442.609 483.009C441.489 478.546 442.318 474.466 444.45 473.945C446.582 473.423 449.22 476.598 450.339 481.077Z" fill="#263238" stroke="#263238" stroke-linecap="round" stroke-linejoin="round"/>
<path d="M448.054 481.935C448.56 483.945 448.269 485.755 447.394 485.969C446.52 486.184 445.431 484.727 444.925 482.718C444.419 480.708 444.71 478.883 445.585 478.668C446.459 478.454 447.548 479.911 448.054 481.935Z" fill="white" stroke="#263238" stroke-linecap="round" stroke-linejoin="round"/>
</svg>
