<svg width="238" height="238" viewBox="0 0 238 238" fill="none" xmlns="http://www.w3.org/2000/svg">
<path d="M126.083 17.0034C67.0594 11.7674 66.9404 45.054 40.3368 76.0892C13.7332 107.124 8.04497 121.19 18.0886 156.966C28.1322 192.743 61.8806 220.784 103.702 204.895C145.523 189.006 169.457 204.262 195.822 190.139C222.188 176.016 231.998 148.77 212.682 116.64C193.366 84.5097 198.883 23.4865 126.083 17.0034Z" fill="#C53F3F"/>
<path opacity="0.7" d="M126.083 17.0034C67.0594 11.7674 66.9404 45.054 40.3368 76.0892C13.7332 107.124 8.04497 121.19 18.0886 156.966C28.1322 192.743 61.8806 220.784 103.702 204.895C145.523 189.006 169.457 204.262 195.822 190.139C222.188 176.016 231.998 148.77 212.682 116.64C193.366 84.5097 198.883 23.4865 126.083 17.0034Z" fill="white"/>
<path d="M86.7783 31.2478L179.554 41.5723L165.201 170.543L72.4259 160.219L86.7783 31.2478Z" fill="white" stroke="#263238" stroke-width="0.476" stroke-linecap="round" stroke-linejoin="round"/>
<path d="M86.7783 31.2488L179.554 41.5732L177.568 59.4178L84.7925 49.0933L86.7783 31.2488Z" fill="#BFBFBF" stroke="#263238" stroke-width="0.476" stroke-linecap="round" stroke-linejoin="round"/>
<path d="M112.555 39.4714L152.606 43.9268C152.792 43.936 152.974 43.9832 153.142 44.0652C153.309 44.1473 153.458 44.2627 153.579 44.4042C153.7 44.5457 153.791 44.7105 153.847 44.8884C153.902 45.0663 153.92 45.2536 153.901 45.439C153.882 45.6243 153.825 45.8037 153.733 45.9662C153.642 46.1288 153.519 46.271 153.371 46.3843C153.223 46.4976 153.054 46.5796 152.873 46.6252C152.692 46.6708 152.504 46.679 152.32 46.6495L112.27 42.1941C111.919 42.1411 111.603 41.9545 111.387 41.6733C111.171 41.3922 111.073 41.0384 111.112 40.6862C111.152 40.334 111.326 40.0108 111.599 39.7843C111.871 39.5578 112.221 39.4456 112.574 39.4714H112.555Z" fill="white"/>
<path d="M121.947 46.1737L141.967 48.4014C142.057 48.4102 142.143 48.4368 142.222 48.4796C142.301 48.5224 142.371 48.5805 142.427 48.6505C142.484 48.7206 142.525 48.8011 142.55 48.8874C142.575 48.9738 142.582 49.0642 142.572 49.1535C142.553 49.3339 142.463 49.4993 142.322 49.6135C142.181 49.7277 142 49.7814 141.82 49.7627L121.794 47.535C121.619 47.5086 121.461 47.4152 121.353 47.2747C121.245 47.1341 121.196 46.9572 121.216 46.7811C121.235 46.605 121.323 46.4434 121.459 46.3301C121.595 46.2169 121.77 46.1608 121.947 46.1737Z" fill="white"/>
<path opacity="0.3" d="M106.981 61.6048L159.46 67.4405C159.595 67.4557 159.718 67.5236 159.802 67.6294C159.886 67.7352 159.925 67.8701 159.91 68.0046C159.895 68.139 159.827 68.262 159.721 68.3463C159.616 68.4307 159.481 68.4696 159.346 68.4544L106.881 62.6187C106.747 62.6035 106.624 62.5356 106.54 62.4298C106.455 62.324 106.416 62.189 106.432 62.0546C106.447 61.9201 106.515 61.7972 106.62 61.7129C106.726 61.6285 106.861 61.5896 106.996 61.6048H106.981Z" fill="black"/>
<path opacity="0.3" d="M106.577 65.2464L166.915 71.958C167.049 71.9731 167.172 72.0411 167.256 72.1468C167.341 72.2526 167.38 72.3876 167.364 72.522C167.349 72.6565 167.281 72.7794 167.176 72.8638C167.07 72.9481 166.935 72.987 166.8 72.9718L106.463 66.2602C106.394 66.2561 106.327 66.2381 106.265 66.2073C106.204 66.1766 106.149 66.1336 106.105 66.0811C106.06 66.0286 106.027 65.9677 106.006 65.9019C105.986 65.8362 105.979 65.767 105.987 65.6986C105.994 65.6295 106.016 65.5626 106.05 65.5021C106.084 65.4415 106.13 65.3885 106.185 65.3462C106.24 65.304 106.303 65.2733 106.371 65.2562C106.438 65.239 106.508 65.2357 106.577 65.2464Z" fill="black"/>
<path opacity="0.3" d="M121.918 70.6392L166.51 75.5991C166.645 75.6143 166.768 75.6822 166.852 75.788C166.936 75.8938 166.975 76.0288 166.96 76.1632C166.945 76.2976 166.877 76.4206 166.771 76.5049C166.665 76.5893 166.53 76.6282 166.396 76.613L121.809 71.6531C121.74 71.649 121.673 71.631 121.612 71.6002C121.55 71.5694 121.495 71.5265 121.451 71.474C121.406 71.4215 121.373 71.3605 121.353 71.2948C121.333 71.229 121.326 71.1599 121.333 71.0914C121.341 71.0228 121.362 70.9564 121.396 70.8962C121.43 70.836 121.475 70.7832 121.53 70.741C121.584 70.6988 121.647 70.668 121.714 70.6506C121.781 70.6331 121.85 70.6292 121.918 70.6392Z" fill="black"/>
<path opacity="0.3" d="M93.676 59.6707L98.9981 60.263C99.714 60.3426 100.23 60.9876 100.15 61.7035L99.5579 67.0256C99.4782 67.7415 98.8333 68.2573 98.1174 68.1776L92.7952 67.5853C92.0793 67.5057 91.5636 66.8607 91.6432 66.1448L92.2355 60.8227C92.3152 60.1068 92.9601 59.591 93.676 59.6707Z" stroke="#263238" stroke-width="0.476" stroke-linecap="round" stroke-linejoin="round"/>
<path d="M98.052 63.7612L96.3003 65.4129L93.9965 61.8857" stroke="#C53F3F" stroke-width="1.428" stroke-linecap="round" stroke-linejoin="round"/>
<path opacity="0.3" d="M105.063 78.8557L157.528 84.6915C157.662 84.7067 157.785 84.7746 157.869 84.8804C157.954 84.9862 157.992 85.1211 157.977 85.2556C157.962 85.39 157.894 85.5129 157.788 85.5973C157.683 85.6817 157.548 85.7205 157.413 85.7054L104.949 79.8696C104.882 79.8621 104.818 79.8416 104.759 79.8092C104.7 79.7768 104.649 79.7331 104.607 79.6808C104.565 79.6284 104.534 79.5683 104.515 79.5039C104.497 79.4395 104.491 79.3721 104.499 79.3056C104.506 79.239 104.527 79.1745 104.559 79.1159C104.592 79.0573 104.635 79.0056 104.688 78.9638C104.74 78.9221 104.8 78.891 104.864 78.8725C104.929 78.8539 104.996 78.8482 105.063 78.8557Z" fill="black"/>
<path opacity="0.3" d="M104.659 82.4974L164.997 89.209C165.063 89.2165 165.128 89.237 165.186 89.2694C165.245 89.3018 165.297 89.3454 165.338 89.3978C165.38 89.4502 165.411 89.5103 165.43 89.5747C165.448 89.639 165.454 89.7064 165.446 89.773C165.439 89.8396 165.418 89.904 165.386 89.9627C165.354 90.0213 165.31 90.073 165.258 90.1147C165.205 90.1565 165.145 90.1876 165.081 90.2061C165.016 90.2246 164.949 90.2303 164.882 90.2228L104.545 83.5112C104.41 83.4961 104.287 83.4281 104.203 83.3224C104.119 83.2166 104.08 83.0816 104.095 82.9472C104.11 82.8127 104.178 82.6898 104.284 82.6054C104.389 82.5211 104.524 82.4822 104.659 82.4974Z" fill="black"/>
<path opacity="0.3" d="M120 87.8892L164.591 92.8491C164.726 92.8643 164.849 92.9322 164.933 93.038C165.017 93.1438 165.056 93.2787 165.041 93.4132C165.026 93.5476 164.958 93.6706 164.852 93.7549C164.746 93.8393 164.611 93.8782 164.477 93.863L119.89 88.9031C119.821 88.899 119.754 88.881 119.693 88.8502C119.631 88.8194 119.577 88.7765 119.532 88.724C119.488 88.6715 119.454 88.6105 119.434 88.5448C119.414 88.479 119.407 88.4098 119.414 88.3414C119.422 88.2728 119.443 88.2064 119.477 88.1462C119.511 88.086 119.556 88.0332 119.611 87.991C119.665 87.9488 119.728 87.918 119.795 87.9006C119.862 87.8831 119.931 87.8792 120 87.8892Z" fill="black"/>
<path opacity="0.3" d="M91.7553 76.9168L97.0774 77.5091C97.7933 77.5887 98.3091 78.2337 98.2294 78.9496L97.6371 84.2717C97.5575 84.9876 96.9125 85.5034 96.1966 85.4237L90.8745 84.8314C90.1586 84.7518 89.6429 84.1068 89.7225 83.3909L90.3148 78.0688C90.3945 77.3529 91.0394 76.8371 91.7553 76.9168Z" stroke="#263238" stroke-width="0.476" stroke-linecap="round" stroke-linejoin="round"/>
<path d="M96.1284 81.0112L94.3815 82.6629L92.0777 79.1357" stroke="#C53F3F" stroke-width="1.428" stroke-linecap="round" stroke-linejoin="round"/>
<path opacity="0.3" d="M103.145 96.1054L155.61 101.941C155.736 101.965 155.848 102.036 155.924 102.14C156 102.243 156.034 102.371 156.019 102.499C156.005 102.626 155.943 102.743 155.846 102.827C155.749 102.911 155.624 102.955 155.495 102.95L103.031 97.105C102.964 97.0975 102.9 97.0769 102.841 97.0445C102.782 97.0121 102.731 96.9685 102.689 96.9161C102.647 96.8637 102.616 96.8036 102.598 96.7393C102.579 96.6749 102.573 96.6075 102.581 96.5409C102.588 96.4743 102.609 96.4099 102.641 96.3513C102.674 96.2926 102.717 96.241 102.77 96.1992C102.822 96.1574 102.882 96.1264 102.947 96.1078C103.011 96.0893 103.078 96.0836 103.145 96.0911V96.1054Z" fill="black"/>
<path opacity="0.3" d="M102.736 99.7464L163.078 106.458C163.145 106.464 163.21 106.484 163.269 106.516C163.327 106.548 163.379 106.592 163.421 106.644C163.463 106.696 163.493 106.757 163.511 106.821C163.529 106.886 163.534 106.953 163.526 107.02C163.519 107.086 163.498 107.151 163.466 107.21C163.434 107.268 163.391 107.32 163.339 107.362C163.286 107.404 163.227 107.436 163.162 107.454C163.098 107.473 163.031 107.479 162.964 107.472L102.626 100.76C102.557 100.756 102.49 100.737 102.429 100.706C102.367 100.674 102.312 100.631 102.268 100.578C102.224 100.525 102.19 100.464 102.17 100.398C102.15 100.332 102.143 100.263 102.15 100.194C102.158 100.125 102.179 100.059 102.213 99.9992C102.247 99.9392 102.293 99.8867 102.347 99.8449C102.402 99.8031 102.465 99.7728 102.531 99.7558C102.598 99.7389 102.668 99.7357 102.736 99.7464Z" fill="black"/>
<path opacity="0.3" d="M118.082 105.141L162.673 110.1C162.808 110.116 162.931 110.184 163.015 110.289C163.099 110.395 163.138 110.53 163.123 110.665C163.108 110.799 163.04 110.922 162.934 111.006C162.829 111.091 162.694 111.129 162.559 111.114L117.972 106.15C117.838 106.135 117.715 106.068 117.63 105.962C117.545 105.857 117.505 105.722 117.52 105.588C117.535 105.454 117.602 105.33 117.707 105.246C117.813 105.161 117.947 105.121 118.082 105.136V105.141Z" fill="black"/>
<path opacity="0.3" d="M89.8364 94.1639L95.1585 94.7561C95.8744 94.8358 96.3902 95.4807 96.3105 96.1966L95.7183 101.519C95.6386 102.235 94.9937 102.75 94.2778 102.671L88.9556 102.078C88.2397 101.999 87.724 101.354 87.8036 100.638L88.3959 95.3159C88.4756 94.6 89.1205 94.0842 89.8364 94.1639Z" stroke="#263238" stroke-width="0.476" stroke-linecap="round" stroke-linejoin="round"/>
<path d="M94.2105 98.2611L92.4636 99.9128L90.155 96.3809" stroke="#C53F3F" stroke-width="1.428" stroke-linecap="round" stroke-linejoin="round"/>
<path opacity="0.3" d="M101.226 113.356L153.691 119.192C153.817 119.216 153.929 119.287 154.005 119.39C154.081 119.493 154.115 119.622 154.101 119.749C154.086 119.876 154.024 119.994 153.927 120.078C153.83 120.161 153.705 120.205 153.577 120.201L101.112 114.365C101.042 114.363 100.973 114.346 100.909 114.315C100.846 114.285 100.79 114.242 100.744 114.189C100.698 114.135 100.664 114.073 100.643 114.006C100.622 113.939 100.616 113.868 100.624 113.799C100.632 113.729 100.654 113.662 100.689 113.601C100.724 113.54 100.772 113.487 100.828 113.446C100.885 113.404 100.949 113.375 101.018 113.359C101.086 113.344 101.157 113.343 101.226 113.356Z" fill="black"/>
<path opacity="0.3" d="M100.817 116.997L161.159 123.709C161.226 123.715 161.291 123.735 161.35 123.767C161.409 123.799 161.46 123.842 161.502 123.895C161.544 123.947 161.575 124.008 161.593 124.072C161.611 124.137 161.615 124.204 161.607 124.27C161.6 124.337 161.58 124.402 161.547 124.46C161.515 124.519 161.472 124.571 161.42 124.613C161.368 124.655 161.308 124.686 161.243 124.705C161.179 124.724 161.112 124.73 161.045 124.723L100.707 118.011C100.572 117.996 100.449 117.927 100.364 117.821C100.28 117.715 100.24 117.58 100.255 117.445C100.271 117.311 100.339 117.189 100.444 117.105C100.549 117.021 100.683 116.982 100.817 116.997Z" fill="black"/>
<path opacity="0.3" d="M116.145 122.39L160.736 127.35C160.803 127.357 160.868 127.376 160.927 127.408C160.986 127.44 161.037 127.484 161.079 127.536C161.121 127.589 161.152 127.649 161.17 127.713C161.188 127.778 161.192 127.845 161.184 127.912C161.177 127.978 161.157 128.043 161.124 128.102C161.092 128.161 161.049 128.212 160.997 128.254C160.945 128.296 160.885 128.328 160.82 128.347C160.756 128.365 160.689 128.371 160.622 128.364L116.035 123.404C115.969 123.397 115.904 123.377 115.845 123.345C115.787 123.313 115.735 123.269 115.693 123.217C115.651 123.165 115.619 123.105 115.601 123.041C115.582 122.976 115.576 122.909 115.583 122.842C115.59 122.776 115.609 122.711 115.641 122.652C115.673 122.593 115.717 122.54 115.769 122.498C115.821 122.456 115.881 122.425 115.946 122.406C116.01 122.388 116.078 122.382 116.145 122.39Z" fill="black"/>
<path opacity="0.3" d="M87.9166 111.415L93.2387 112.007C93.9546 112.087 94.4704 112.732 94.3907 113.448L93.7984 118.77C93.7188 119.486 93.0739 120.001 92.358 119.922L87.0358 119.329C86.3199 119.25 85.8042 118.605 85.8838 117.889L86.4761 112.567C86.5558 111.851 87.2007 111.335 87.9166 111.415Z" stroke="#263238" stroke-width="0.476" stroke-linecap="round" stroke-linejoin="round"/>
<path d="M92.2916 115.507L90.5447 117.159L88.2361 113.632" stroke="#C53F3F" stroke-width="1.428" stroke-linecap="round" stroke-linejoin="round"/>
<path opacity="0.3" d="M99.3032 130.601L151.768 136.437C151.834 136.444 151.899 136.464 151.958 136.496C152.016 136.529 152.068 136.572 152.11 136.624C152.152 136.676 152.184 136.736 152.202 136.8C152.221 136.865 152.227 136.932 152.22 136.999C152.213 137.065 152.193 137.13 152.161 137.188C152.128 137.247 152.085 137.299 152.033 137.341C151.981 137.383 151.921 137.414 151.857 137.433C151.792 137.452 151.725 137.458 151.658 137.451L99.1937 131.615C99.1271 131.608 99.0625 131.588 99.0037 131.556C98.9449 131.524 98.8931 131.48 98.8511 131.428C98.8091 131.376 98.7778 131.316 98.759 131.252C98.7402 131.187 98.7342 131.12 98.7415 131.053C98.7571 130.919 98.8247 130.797 98.9297 130.712C99.0348 130.628 99.1689 130.588 99.3032 130.601Z" fill="black"/>
<path opacity="0.3" d="M98.899 134.233L159.242 140.945C159.312 140.947 159.381 140.964 159.444 140.994C159.507 141.025 159.564 141.068 159.609 141.121C159.655 141.174 159.69 141.236 159.71 141.303C159.731 141.37 159.738 141.441 159.73 141.511C159.722 141.581 159.7 141.648 159.664 141.709C159.629 141.77 159.582 141.822 159.525 141.864C159.469 141.906 159.404 141.935 159.336 141.95C159.267 141.966 159.196 141.967 159.127 141.954L98.7895 135.242C98.7191 135.24 98.6497 135.224 98.5859 135.194C98.522 135.164 98.4651 135.122 98.4186 135.069C98.3722 135.016 98.3373 134.953 98.316 134.886C98.2948 134.819 98.2878 134.748 98.2954 134.678C98.303 134.608 98.3251 134.54 98.3602 134.479C98.3954 134.418 98.4428 134.365 98.4995 134.323C98.5563 134.281 98.6211 134.252 98.6898 134.236C98.7586 134.221 98.8298 134.22 98.899 134.233Z" fill="black"/>
<path opacity="0.3" d="M114.24 139.64L158.832 144.6C158.966 144.615 159.089 144.683 159.174 144.789C159.258 144.895 159.297 145.03 159.282 145.164C159.267 145.299 159.199 145.422 159.093 145.506C158.987 145.59 158.852 145.629 158.718 145.614L114.126 140.654C113.992 140.637 113.87 140.569 113.786 140.463C113.702 140.357 113.664 140.222 113.679 140.088C113.686 140.021 113.706 139.957 113.738 139.898C113.77 139.84 113.814 139.788 113.866 139.747C113.918 139.705 113.978 139.674 114.042 139.656C114.107 139.638 114.174 139.632 114.24 139.64Z" fill="black"/>
<path opacity="0.3" d="M85.9968 128.667L91.3189 129.259C92.0348 129.339 92.5506 129.984 92.4709 130.7L91.8787 136.022C91.799 136.738 91.1541 137.253 90.4382 137.174L85.116 136.581C84.4001 136.502 83.8844 135.857 83.964 135.141L84.5563 129.819C84.636 129.103 85.2809 128.587 85.9968 128.667Z" stroke="#263238" stroke-width="0.476" stroke-linecap="round" stroke-linejoin="round"/>
<path d="M90.3737 132.757L88.6267 134.409L86.3181 130.882" stroke="#C53F3F" stroke-width="1.428" stroke-linecap="round" stroke-linejoin="round"/>
<path opacity="0.3" d="M97.8419 143.753L150.307 149.598C150.441 149.613 150.564 149.681 150.648 149.787C150.733 149.893 150.772 150.028 150.756 150.162C150.741 150.297 150.673 150.42 150.568 150.504C150.462 150.588 150.327 150.627 150.192 150.612L97.7277 144.776C97.661 144.77 97.5963 144.75 97.5374 144.718C97.4785 144.686 97.4267 144.643 97.3849 144.59C97.3432 144.538 97.3124 144.478 97.2944 144.413C97.2764 144.349 97.2716 144.281 97.2802 144.215C97.2862 144.147 97.3055 144.082 97.3371 144.022C97.3687 143.962 97.4119 143.909 97.4641 143.866C97.5164 143.823 97.5768 143.791 97.6416 143.771C97.7065 143.752 97.7746 143.746 97.8419 143.753Z" fill="black"/>
<path opacity="0.3" d="M97.4376 147.409L157.775 154.12C157.846 154.122 157.915 154.138 157.979 154.168C158.043 154.198 158.1 154.241 158.146 154.294C158.193 154.347 158.228 154.409 158.249 154.476C158.27 154.543 158.277 154.614 158.269 154.684C158.262 154.754 158.24 154.822 158.205 154.883C158.17 154.944 158.122 154.997 158.065 155.039C158.009 155.081 157.944 155.111 157.875 155.126C157.806 155.142 157.735 155.143 157.666 155.129L97.3234 148.418C97.1974 148.393 97.0853 148.322 97.0094 148.219C96.9334 148.116 96.8993 147.988 96.9137 147.86C96.9281 147.733 96.9901 147.616 97.0872 147.532C97.1843 147.448 97.3094 147.404 97.4376 147.409Z" fill="black"/>
<path opacity="0.3" d="M112.784 152.797L157.371 157.757C157.438 157.764 157.502 157.784 157.561 157.816C157.62 157.849 157.672 157.892 157.714 157.944C157.756 157.996 157.787 158.056 157.806 158.121C157.825 158.185 157.83 158.252 157.823 158.319C157.808 158.454 157.739 158.577 157.633 158.662C157.527 158.746 157.392 158.786 157.257 158.771L112.67 153.811C112.603 153.804 112.539 153.783 112.48 153.751C112.422 153.718 112.37 153.675 112.328 153.622C112.286 153.57 112.255 153.51 112.237 153.445C112.218 153.381 112.213 153.314 112.22 153.247C112.228 153.18 112.248 153.116 112.28 153.057C112.313 152.999 112.357 152.947 112.409 152.905C112.461 152.863 112.521 152.832 112.586 152.814C112.65 152.795 112.718 152.79 112.784 152.797Z" fill="black"/>
<path opacity="0.3" d="M84.5307 141.822L89.8528 142.414C90.5687 142.494 91.0845 143.139 91.0048 143.855L90.4125 149.177C90.3329 149.893 89.6879 150.409 88.972 150.329L83.6499 149.737C82.934 149.657 82.4182 149.012 82.4979 148.296L83.0902 142.974C83.1698 142.258 83.8148 141.742 84.5307 141.822Z" stroke="#263238" stroke-width="0.476" stroke-linecap="round" stroke-linejoin="round"/>
<path d="M88.9122 145.919L87.1653 147.571L84.8567 144.044" stroke="#C53F3F" stroke-width="1.428" stroke-linecap="round" stroke-linejoin="round"/>
<path opacity="0.3" d="M161.611 98.4297C158.707 100.562 156.28 110.806 156.061 120.197C155.842 129.589 151.301 145.425 150.758 148.019C150.216 150.614 150.415 154.355 147.045 149.147C143.675 143.94 133.817 134.901 129.709 137.904C125.602 140.908 132.518 151.004 136.264 156.44C140.01 161.876 140.391 171.448 144.88 177.441C149.368 183.434 153.424 192.483 157.822 192.344C162.22 192.206 191.351 213.817 191.351 213.817L190.78 184.238L164.6 141.398L161.611 98.4297Z" fill="black" fill-opacity="0.7"/>
<path d="M127.32 139.356C127.467 140.284 132.594 147.077 135.607 152.16C138.62 157.244 141.443 166.093 142.2 167.392C142.956 168.692 152.196 176.808 154.728 180.202C157.26 183.595 161.782 185.095 166.299 188.294C169.203 190.35 178.252 200.96 184.349 208.286C187.738 212.355 190.218 215.426 190.218 215.426L229.198 205.263C229.198 205.263 225.971 202.602 221.725 199.013H221.696L221.653 198.98C214.675 193.054 204.951 184.69 202.266 181.534C197.939 176.451 191.913 170.41 191.913 170.41C192.279 163.351 191.532 156.663 192.194 154.122C192.537 152.794 193.146 145.239 193.622 142.917C194.778 136.981 199.81 130.831 200.376 128.408C200.943 125.985 207.583 115.67 204.341 113.766C203.752 113.395 203.052 113.242 202.361 113.333C197.982 113.938 194.374 124.514 191.889 127.209C190.824 128.484 189.86 129.84 189.005 131.264C187.043 134.372 185.12 137.866 185.12 137.866C184.368 134.853 189.828 124.119 191.337 113.952C192.846 103.785 197.173 98.3249 191.337 97.6965C190.858 97.6428 190.372 97.6848 189.909 97.8203C185.801 99.0198 184.021 107.554 181.565 115.837C181.336 116.598 179.466 122.068 178.009 126.285C177.057 129.046 176.295 131.269 176.295 131.269C176.11 126.09 177.723 121.273 177.99 116.579C178.104 114.699 177.514 107.164 178.257 99.6338C178.894 93.2792 178.604 90.7041 176.119 90.2043C175.587 90.1085 175.045 90.0829 174.506 90.1281C170.198 90.3994 168.67 101.847 168.67 106.312C168.67 108.906 168.227 113.971 167.856 117.769C167.585 120.516 167.351 122.601 167.351 122.601C167.351 122.601 166.599 116.294 167.161 102.69C167.289 99.71 167.094 97.5775 165.923 96.716C165.281 96.24 164.353 96.1591 163.02 96.5208C159.255 97.5395 158.031 111.491 158.031 116.765C158.031 122.039 155.018 131.074 154.452 138.185C153.885 145.297 151.42 154.036 151.42 154.036C151.42 154.036 150.025 154.602 149.087 154.417C148.15 154.231 141.647 144.625 141.647 144.625C138.62 138.052 132.727 136.057 129.519 136.795C128.043 137.133 127.091 138.042 127.32 139.356Z" fill="white"/>
<path opacity="0.4" d="M127.319 139.356C127.467 140.284 132.594 147.077 135.607 152.16C138.62 157.244 141.442 166.093 142.199 167.392C142.956 168.692 152.195 176.807 154.728 180.201C157.26 183.595 161.782 185.095 166.299 188.293C169.203 190.35 178.251 200.96 184.349 208.285C183.678 205.629 182.174 202.235 178.242 198.975C171.416 193.306 171.007 188.86 167.337 185.095C163.667 181.329 157.203 182.458 154.88 177.955C152.557 173.452 144.455 169.291 142.761 165.336C141.066 161.38 144.455 160.543 141.442 155.783C138.429 151.023 135.507 149.866 135.935 148C136.363 146.134 137.63 143.307 135.016 140.95C133.384 139.484 131.465 137.642 129.504 136.795C128.043 137.133 127.091 138.042 127.319 139.356Z" fill="#C53F3F"/>
<path opacity="0.4" d="M176.158 161.7C177.409 161.071 176.405 159.82 177.286 158.777C178.166 157.735 180.175 164.465 180.618 164.489C181.06 164.513 182.407 161.067 182.941 160.724C183.474 160.381 183.788 161.823 184.545 164.489C185.302 167.155 188.081 168.507 189.695 170.411C191.309 172.315 201.014 182.668 203.399 186.556C205.784 190.445 220.511 198.142 221.654 198.971C214.675 193.054 204.951 184.691 202.266 181.535C197.939 176.451 191.913 170.411 191.913 170.411C192.28 163.351 191.532 156.664 192.194 154.122C192.537 152.794 193.146 145.24 193.622 142.917C194.779 136.981 199.81 130.831 200.376 128.408C200.943 125.985 207.583 115.671 204.342 113.767C203.752 113.396 203.052 113.242 202.361 113.333C203.099 113.857 203.818 114.609 203.147 115.713C201.952 117.646 200.638 119.678 200.638 121.816C200.638 123.953 196.997 126.961 195.583 128.956C194.169 130.95 195.488 130.246 194.545 132.978C193.603 135.71 192.475 135.139 191.913 137.9C191.351 140.661 188.21 142.422 188.71 145.863C189.209 149.305 187.206 154.093 187.206 154.093C187.206 154.093 185.573 149.452 186.168 146.953C186.763 144.454 186.073 141.303 186.644 140.456C187.12 139.694 188.424 134.525 189.024 131.312C187.063 134.42 185.14 137.914 185.14 137.914C184.388 134.901 189.847 124.167 191.356 114C192.865 103.832 197.192 98.3727 191.356 97.7444C190.877 97.6906 190.391 97.7327 189.928 97.8681C187.439 102.519 189.171 105.96 189.724 107.978C190.328 110.177 186.73 115.823 186.196 119.712C185.72 123.344 184.74 122.968 184.611 122.901C184.721 123.001 185.649 123.948 185.087 126.642C184.502 129.498 180.327 136.281 180.327 138.176C180.327 140.07 180.67 143.188 180.67 144.112C180.67 145.035 177.338 151.213 176.938 152.832C176.538 154.45 177.095 149.714 176.186 148.072C175.277 146.43 174.796 140.699 174.677 141.008C173.111 144.987 174.901 162.319 176.158 161.7Z" fill="#C53F3F"/>
<path opacity="0.4" d="M173.459 119.164C174.525 120.777 174.496 133.372 176.315 133.415C177.195 133.415 177.624 130.25 177.981 126.275C177.029 129.036 176.267 131.259 176.267 131.259C176.081 126.08 177.695 121.263 177.962 116.569C178.076 114.689 177.486 107.154 178.228 99.6239C178.866 93.2693 178.576 90.6941 176.091 90.1943C175.567 91.8889 174.282 93.8881 173.954 95.7445C173.506 98.3054 174.382 100.424 175.134 100.742C175.886 101.061 176.015 102.713 175.072 102.956C174.13 103.199 175.072 115.218 174.634 116.76C174.196 118.302 172.388 117.574 173.459 119.164Z" fill="#C53F3F"/>
<path opacity="0.4" d="M163.677 105.065C165.633 105.926 165.738 107.469 166.323 109.682C166.909 111.895 165.485 115.127 166.323 120.206C167.161 125.285 164.105 128.56 166.323 134.244C168.541 139.927 167.499 129.484 167.87 124.724C167.998 122.405 167.989 120.082 167.842 117.764C167.57 120.511 167.337 122.596 167.337 122.596C167.337 122.596 166.585 116.289 167.147 102.685C167.275 99.705 167.08 97.5725 165.909 96.7109C163.9 98.534 162.011 104.332 163.677 105.065Z" fill="#C53F3F"/>
<path d="M190.219 215.43C190.219 215.43 170.822 191.516 166.3 188.298C161.778 185.081 157.256 183.591 154.728 180.206C152.201 176.822 142.952 168.716 142.2 167.397C141.448 166.079 138.62 157.23 135.607 152.165C132.594 147.101 127.468 140.265 127.32 139.361C126.663 135.215 137.207 135.029 141.633 144.635C141.633 144.635 148.131 154.236 149.073 154.426C150.016 154.617 151.406 154.045 151.406 154.045C151.406 154.045 153.871 145.311 154.438 138.195C155.004 131.078 158.017 122.034 158.017 116.775C158.017 111.515 159.241 97.5489 163.006 96.5303C166.771 95.5116 167.342 98.0915 167.147 102.718C166.585 116.322 167.337 122.629 167.337 122.629C167.337 122.629 168.656 110.81 168.656 106.341C168.656 101.871 170.184 90.4232 174.492 90.1566C178.447 89.9043 178.999 92.1273 178.243 99.6766C177.486 107.226 178.09 114.742 177.976 116.622C177.695 121.33 176.072 126.142 176.281 131.312C176.281 131.312 181.179 117.132 181.555 115.87C184.283 106.626 186.173 97.1062 191.352 97.6774C197.187 98.3057 192.856 103.765 191.352 113.933C189.847 124.1 184.383 134.834 185.135 137.847C185.135 137.847 189.652 129.646 191.904 127.189C194.76 124.1 199.072 110.639 204.346 113.747C207.588 115.651 200.929 125.999 200.367 128.422C199.805 130.845 194.769 136.99 193.613 142.931C193.137 145.254 192.542 152.808 192.185 154.136C191.523 156.678 192.27 163.365 191.904 170.424C191.904 170.424 197.93 176.451 202.257 181.534C206.584 186.618 229.189 205.263 229.189 205.263" stroke="#263238" stroke-width="0.476" stroke-linecap="round" stroke-linejoin="round"/>
<path d="M151.406 154.041C150.537 156.186 150.537 158.584 151.406 160.729" stroke="#263238" stroke-width="0.476" stroke-linecap="round" stroke-linejoin="round"/>
<path d="M149.82 154.44C149.28 154.837 148.88 155.395 148.677 156.034C148.474 156.673 148.48 157.36 148.692 157.996" stroke="#263238" stroke-width="0.476" stroke-linecap="round" stroke-linejoin="round"/>
<path d="M167.337 122.597C167.337 122.597 165.828 133.235 166.489 135.211" stroke="#263238" stroke-width="0.476" stroke-linecap="round" stroke-linejoin="round"/>
<path d="M176.281 131.259C176.12 132.287 176.12 133.334 176.281 134.362" stroke="#263238" stroke-width="0.476" stroke-linecap="round" stroke-linejoin="round"/>
<path d="M185.13 137.847C185.13 137.847 184.849 139.451 185.13 139.827" stroke="#263238" stroke-width="0.476" stroke-linecap="round" stroke-linejoin="round"/>
<path d="M137.397 146.886C137.397 146.886 135.693 147.809 135.136 149.147" stroke="#263238" stroke-width="0.476" stroke-linecap="round" stroke-linejoin="round"/>
<path d="M176.219 102.685C175.667 102.818 175.09 102.809 174.541 102.66C173.993 102.511 173.491 102.227 173.082 101.833" stroke="#263238" stroke-width="0.476" stroke-linecap="round" stroke-linejoin="round"/>
<path d="M175.643 117.984C175.643 117.984 172.254 119.112 171.026 117.984" stroke="#263238" stroke-width="0.476" stroke-linecap="round" stroke-linejoin="round"/>
<path d="M164.605 121.277C164.605 121.277 162.349 120.43 160.84 120.901" stroke="#263238" stroke-width="0.476" stroke-linecap="round" stroke-linejoin="round"/>
<path d="M186.167 124.291C186.167 124.291 184.378 121.935 182.964 122.597" stroke="#263238" stroke-width="0.476" stroke-linecap="round" stroke-linejoin="round"/>
<path d="M193.513 131.259C193.513 131.259 195.112 132.011 195.583 132.811" stroke="#263238" stroke-width="0.476" stroke-linecap="round" stroke-linejoin="round"/>
<path d="M191.913 170.41C191.521 169.969 191.173 169.491 190.875 168.982C190.594 168.415 190.97 162.389 190.875 158.51" stroke="#263238" stroke-width="0.476" stroke-linecap="round" stroke-linejoin="round"/>
<path d="M172.159 194.134C174.377 196.619 181.179 201.121 183.906 203.849" stroke="#263238" stroke-width="0.476" stroke-linecap="round" stroke-linejoin="round"/>
<path d="M163.196 137.847C164.324 141.05 163.1 145.096 163.196 146.891C163.291 148.685 163.672 156.887 163.672 156.887" stroke="#263238" stroke-width="0.476" stroke-linecap="round" stroke-linejoin="round"/>
<path d="M173.458 137.847C174.963 140.389 174.491 143.778 174.02 145.463C173.549 147.148 173.968 154.031 173.968 154.031" stroke="#263238" stroke-width="0.476" stroke-linecap="round" stroke-linejoin="round"/>
<path d="M189.652 145.943C189.777 147.601 189.448 149.261 188.7 150.746" stroke="#263238" stroke-width="0.476" stroke-linecap="round" stroke-linejoin="round"/>
<path d="M180.332 140.956C181.179 144.064 180.046 145.473 179.951 145.945" stroke="#263238" stroke-width="0.476" stroke-linecap="round" stroke-linejoin="round"/>
<path opacity="0.3" d="M103.855 120.429L105.459 111.119C105.53 110.705 105.516 110.282 105.419 109.873C105.322 109.465 105.143 109.081 104.894 108.743C104.645 108.406 104.329 108.122 103.968 107.91C103.606 107.697 103.205 107.56 102.789 107.506L99.1948 107.03C99.1948 107.03 100.394 104.598 96.534 97.5101C92.6736 90.4224 74.1144 71.5966 60.0438 103.222C45.9732 134.848 33.1165 199.293 33.1165 199.293C33.1165 199.293 71.0965 155.063 72.3056 152.797C73.5146 150.532 85.0766 151.888 87.747 145.81C90.4174 139.731 96.0246 122.386 96.0246 122.386L100.366 122.981C101.164 123.089 101.974 122.884 102.624 122.408C103.275 121.932 103.716 121.223 103.855 120.429Z" fill="black" fill-opacity="0.7"/>
<path d="M70.3821 99.0663L77.6697 100.39L87.799 102.232L101.065 104.645C101.32 104.692 101.581 104.688 101.834 104.633C102.087 104.579 102.326 104.475 102.539 104.328C102.752 104.18 102.933 103.993 103.073 103.775C103.213 103.558 103.309 103.315 103.355 103.06L106.268 87.0425C106.359 86.5289 106.244 85.9999 105.947 85.571C105.65 85.142 105.196 84.8479 104.683 84.753L96.9667 83.325L85.7427 81.2877L73.9997 79.1505C73.7453 79.1038 73.4841 79.1077 73.2312 79.1622C72.9783 79.2166 72.7386 79.3205 72.5259 79.4677C72.3132 79.615 72.1317 79.8028 71.9917 80.0203C71.8517 80.2379 71.756 80.4809 71.7102 80.7355L68.797 96.7529C68.7469 97.0091 68.7482 97.2727 68.801 97.5284C68.8538 97.784 68.957 98.0266 69.1046 98.2419C69.2521 98.4573 69.4411 98.6411 69.6604 98.7826C69.8798 98.9242 70.1251 99.0206 70.3821 99.0663Z" fill="#C53F3F"/>
<mask id="mask0_304_3056" style="mask-type:luminance" maskUnits="userSpaceOnUse" x="68" y="79" width="39" height="26">
<path d="M70.3837 99.0643L77.6713 100.388L87.8006 102.23L101.067 104.643C101.321 104.69 101.582 104.686 101.835 104.631C102.088 104.577 102.328 104.473 102.54 104.326C102.753 104.179 102.935 103.991 103.075 103.773C103.215 103.556 103.31 103.313 103.356 103.058L106.269 87.0406C106.361 86.527 106.246 85.998 105.949 85.569C105.652 85.14 105.197 84.846 104.684 84.751L96.9683 83.323L85.7442 81.2857L74.0013 79.1485C73.7469 79.1018 73.4857 79.1058 73.2328 79.1602C72.9799 79.2147 72.7402 79.3185 72.5275 79.4658C72.3148 79.613 72.1332 79.8008 71.9933 80.0184C71.8533 80.2359 71.7576 80.479 71.7118 80.7336L68.7986 96.751C68.7485 97.0072 68.7498 97.2708 68.8026 97.5264C68.8554 97.7821 68.9586 98.0246 69.1061 98.24C69.2537 98.4553 69.4427 98.6391 69.662 98.7807C69.8814 98.9222 70.1267 99.0186 70.3837 99.0643Z" fill="white"/>
</mask>
<g mask="url(#mask0_304_3056)">
<path opacity="0.3" d="M75.5386 88.4309L77.6711 100.388L87.8004 102.23C90.7326 100.94 95.5687 98.6935 96.535 97.4701C97.6869 96.0421 97.5251 87.6265 96.9682 83.3234L85.7441 81.2861C81.7885 84.0136 75.5386 88.4309 75.5386 88.4309Z" fill="black" fill-opacity="0.7"/>
<path opacity="0.3" d="M99.0532 104.277L101.067 104.643C101.321 104.69 101.582 104.686 101.835 104.632C102.088 104.577 102.328 104.473 102.54 104.326C102.753 104.179 102.935 103.991 103.075 103.773C103.215 103.556 103.31 103.313 103.356 103.058L106.269 87.0408C106.361 86.5272 106.246 85.9982 105.949 85.5693C105.652 85.1403 105.197 84.8463 104.684 84.7513L102.676 84.3848C103.188 84.4797 103.643 84.7739 103.939 85.2031C104.235 85.6322 104.349 86.1613 104.256 86.6743L101.343 102.692C101.297 102.946 101.201 103.189 101.061 103.407C100.921 103.624 100.74 103.812 100.527 103.96C100.314 104.107 100.075 104.211 99.8217 104.265C99.5688 104.32 99.3076 104.324 99.0532 104.277Z" fill="black" fill-opacity="0.7"/>
</g>
<path d="M70.3821 99.0663L77.6697 100.39L87.799 102.232L101.065 104.645C101.32 104.692 101.581 104.688 101.834 104.633C102.087 104.579 102.326 104.475 102.539 104.328C102.752 104.18 102.933 103.993 103.073 103.775C103.213 103.558 103.309 103.315 103.355 103.06L106.268 87.0425C106.359 86.5289 106.244 85.9999 105.947 85.571C105.65 85.142 105.196 84.8479 104.683 84.753L96.9667 83.325L85.7427 81.2877L73.9997 79.1505C73.7453 79.1038 73.4841 79.1077 73.2312 79.1622C72.9783 79.2166 72.7386 79.3205 72.5259 79.4677C72.3132 79.615 72.1317 79.8028 71.9917 80.0203C71.8517 80.2379 71.756 80.4809 71.7102 80.7355L68.797 96.7529C68.7469 97.0091 68.7482 97.2727 68.801 97.5284C68.8538 97.784 68.957 98.0266 69.1046 98.2419C69.2521 98.4573 69.4411 98.6411 69.6604 98.7826C69.8798 98.9242 70.1251 99.0206 70.3821 99.0663Z" stroke="#263238" stroke-width="0.476" stroke-linecap="round" stroke-linejoin="round"/>
<path d="M72.5466 78.3048L103.106 83.9177C104.172 84.1137 104.878 85.1371 104.682 86.2037L101.753 102.153C101.557 103.219 100.533 103.925 99.4669 103.729L68.9078 98.1163C67.8412 97.9204 67.1353 96.8969 67.3312 95.8303L70.2606 79.8814C70.4565 78.8148 71.48 78.1089 72.5466 78.3048Z" stroke="#263238" stroke-width="0.474283" stroke-linecap="round" stroke-linejoin="round"/>
<path d="M73.4014 80.2302L102.199 85.4636C102.716 85.5576 103.059 86.0531 102.965 86.5704L100.097 102.353C100.003 102.87 99.5077 103.214 98.9904 103.12L70.1928 97.8862C69.6755 97.7922 69.3324 97.2966 69.4264 96.7793L72.2946 80.9966C72.3886 80.4793 72.8841 80.1362 73.4014 80.2302Z" stroke="#263238" stroke-width="0.476" stroke-linecap="round" stroke-linejoin="round"/>
<path d="M68.3682 98.6992L70.3674 99.0609C69.8568 98.9649 69.4049 98.6707 69.1106 98.2426C68.8163 97.8145 68.7034 97.2872 68.7966 96.7761L71.7097 80.7587C71.7556 80.5041 71.8512 80.2611 71.9912 80.0435C72.1312 79.826 72.3127 79.6382 72.5255 79.4909C72.7382 79.3436 72.9778 79.2398 73.2307 79.1854C73.4836 79.1309 73.7448 79.1269 73.9993 79.1736L71.9858 78.8071C71.4722 78.7154 70.9432 78.8306 70.5142 79.1276C70.0853 79.4246 69.7912 79.8792 69.6962 80.3922L66.7831 96.4096C66.6914 96.9232 66.8066 97.4522 67.1036 97.8812C67.4006 98.3101 67.8552 98.6042 68.3682 98.6992Z" stroke="#263238" stroke-width="0.476" stroke-linecap="round" stroke-linejoin="round"/>
<path d="M10.4724 150.008L30.1836 202.882C30.1836 202.882 38.4279 187.174 46.0439 172.637C52.1272 161.013 57.8106 150.113 58.577 148.509C60.2953 144.896 66.1644 137.328 66.1644 137.328C66.1644 137.328 72.1858 133.881 74.9418 127.879C77.6979 121.877 80.73 100.404 80.73 100.404C80.73 100.404 88.6459 97.4244 90.5356 96.1202C92.4253 94.816 94.1484 82.7636 94.1484 81.388C94.1484 80.0124 92.2444 77.2563 92.2444 77.2563C92.2444 77.2563 92.6681 75.2381 90.25 73.2008C89.4596 72.552 88.5834 72.0154 87.6463 71.6062H87.5987C87.5987 71.6062 87.9128 67.0509 85.5423 65.7228C85.4292 65.6588 85.3114 65.6031 85.1901 65.5562C83.0767 64.7423 76.1461 63.6903 76.1461 63.6903C75.1663 62.8294 74.0258 62.171 72.7903 61.753C71.5622 61.415 64.8221 62.9811 61.0569 63.9093C59.5432 64.2806 58.5103 64.5471 58.5103 64.5471C58.5103 64.5471 52.1414 64.8375 50.9372 65.5562C50.0971 66.107 49.3295 66.7611 48.6524 67.5031L48.5334 67.6411C48.5334 67.6411 42.8547 68.8216 41.6504 70.9017C40.4461 72.9818 39.932 83.3015 40.7888 90.0084C41.6456 96.7152 40.1082 108.096 40.1082 108.096C40.1082 108.096 38.3327 116.888 36.957 120.225C35.5814 123.562 10.4724 150.008 10.4724 150.008Z" fill="white"/>
<path opacity="0.4" d="M46.0439 172.637C52.1272 161.013 57.8106 150.113 58.577 148.509C60.2953 144.896 66.1644 137.327 66.1644 137.327C66.1644 137.327 72.1858 133.881 74.9418 127.879C77.6979 121.876 80.73 100.404 80.73 100.404C80.73 100.404 88.6459 97.4243 90.5356 96.12C92.4253 94.8158 94.1484 82.7635 94.1484 81.3878C94.1484 80.0122 92.2444 77.2561 92.2444 77.2561C92.2444 77.2561 92.6681 75.2379 90.25 73.2006C90.25 73.7433 90.25 74.6572 90.25 76.0947C90.3071 78.8222 87.0941 95.268 86.2992 94.7682C85.5043 94.2684 84.2762 93.0641 84.5999 92.0026C84.5999 92.0026 86.1564 85.6194 87.6272 71.606H87.5796C87.5796 71.606 87.8938 67.0507 85.5233 65.7227C85.9312 66.7091 86.1925 67.7498 86.2992 68.8119C86.3515 71.0301 83.7145 90.0367 82.6816 90.5175C81.6487 90.9983 79.0307 88.4659 79.0307 88.4659C79.0307 88.4659 79.9255 83.0729 79.6066 80.7738C79.6066 80.7738 71.6432 85.629 71.4052 91.1411C71.3814 91.7456 69.8534 100.385 69.8534 100.385C69.8534 100.385 76.703 113.427 69.7106 125.327C69.7106 125.327 73.2663 123.195 74.1136 119.806C74.1136 119.806 75.1465 129.773 67.8018 135.038C67.8018 135.038 62.5325 129.864 57.3298 129.207C57.3298 129.207 57.2346 129.549 60.719 132.296C64.2033 135.043 64.6745 136.266 64.6745 136.266C64.6745 136.266 60.9046 132.458 57.8915 132.296C57.8915 132.296 60.9998 135.89 60.9046 136.642C60.8094 137.394 52.0177 152.426 48.819 162.912C47.5147 167.292 46.6246 170.452 46.0439 172.637Z" fill="#C53F3F"/>
<path opacity="0.4" d="M70.7296 72.8773C70.7296 72.8773 68.1925 74.7813 67.4405 72.8773C67.0086 71.8584 66.7342 70.7799 66.6265 69.6785C66.6265 69.6785 65.6507 69.2311 64.7225 71.5825C63.7943 73.934 54.4885 74.5337 52.3084 75.738C50.1283 76.9423 49.262 75.738 49.262 75.738C48.7542 76.1553 48.4059 76.735 48.2758 77.3793C48.1457 78.0236 48.2419 78.693 48.548 79.2747C49.6047 81.4595 46.6107 81.6547 45.4493 80.0458C44.2878 78.4369 45.1875 84.6487 48.0577 85.2818C48.0577 85.2818 47.9768 87.995 49.8237 89.8562H48.2577C48.2577 89.8562 52.4274 93.1644 53.5365 93.3453C54.6456 93.5261 49.4096 95.3778 50.3806 95.7681C51.3517 96.1584 54.1029 96.1251 54.1029 96.1251C54.1029 96.1251 52.3227 97.3579 52.3084 98.1719C52.2941 98.9859 53.1509 99.5999 53.5365 98.9192C53.9221 98.2385 56.997 88.49 58.5297 84.8867C60.0625 81.2834 66.3933 78.4322 70.7296 72.8773Z" fill="#C53F3F"/>
<path opacity="0.4" d="M48.6576 67.4698C53.9983 66.0085 61.1621 63.9283 61.1621 63.9283L61.0622 63.876C59.5485 64.2473 58.5156 64.5138 58.5156 64.5138C58.5156 64.5138 52.1467 64.8042 50.9424 65.5229C50.1023 66.0737 49.3347 66.7278 48.6576 67.4698Z" fill="#C53F3F"/>
<path d="M56.1691 75.8711C60.8148 74.9191 64.1326 78.8889 64.1326 78.8889C64.1326 78.8889 59.5154 83.0682 58.492 84.8627C57.4686 86.6572 55.7692 92.7072 55.7692 92.7072C53.8224 93.0213 50.2334 91.0126 49.3718 85.6814C48.5102 80.3502 51.5471 76.8183 56.1691 75.8711Z" fill="#C53F3F"/>
<path d="M30.1836 202.882C30.1836 202.882 56.8396 152.121 58.577 148.509C60.3144 144.896 66.1644 137.327 66.1644 137.327C66.1644 137.327 72.1858 133.881 74.9418 127.879C77.6979 121.876 80.73 100.404 80.73 100.404C80.73 100.404 88.6459 97.4242 90.5356 96.12C92.4253 94.8157 94.1484 82.7634 94.1484 81.3878C94.1484 80.0121 92.2444 77.2561 92.2444 77.2561C92.2444 77.2561 92.9299 73.9955 87.5987 71.5822C87.5987 71.5822 87.9414 66.5889 85.1901 65.5322C83.0767 64.7183 76.1461 63.6663 76.1461 63.6663C75.1663 62.8054 74.0258 62.147 72.7903 61.729C71.072 61.253 58.5103 64.5231 58.5103 64.5231C58.5103 64.5231 52.1414 64.8135 50.9372 65.5322C50.0564 66.1132 49.2548 66.806 48.5524 67.5933C48.5524 67.5933 42.8737 68.7738 41.6694 70.8539C40.4652 72.934 39.9511 83.2537 40.8079 89.9605C41.6647 96.6674 40.1272 108.049 40.1272 108.049C40.1272 108.049 38.3517 116.84 36.9761 120.177C35.6004 123.514 10.4724 150.008 10.4724 150.008" stroke="#263238" stroke-width="0.476" stroke-linecap="round" stroke-linejoin="round"/>
<path d="M52.7506 99.7044C52.7506 99.7044 53.9549 99.4474 55.5019 93.7687C57.0489 88.09 57.4583 85.4339 60.6665 82.0686C62.9418 79.6886 68.1492 75.7997 70.7291 72.877C73.3091 69.9544 76.1603 67.5934 78.388 69.4022C80.1682 70.8302 81.3297 74.5383 79.7636 80.2598C77.7501 87.6092 71.4003 91.1078 71.4003 91.1078L69.8485 100.352C69.8485 100.352 76.5839 113.842 68.9917 126.575" stroke="#263238" stroke-width="0.476" stroke-linecap="round" stroke-linejoin="round"/>
<path d="M64.1558 78.8887C64.1558 78.8887 60.8238 74.9236 56.1923 75.8708C51.5608 76.8181 48.5525 80.3452 49.395 85.6812C50.2375 91.0171 53.8456 93.0211 55.7924 92.7069" stroke="#263238" stroke-width="0.476" stroke-linecap="round" stroke-linejoin="round"/>
<path d="M76.1605 63.6572C76.8561 65.406 77.3914 67.2143 77.7599 69.0598" stroke="#263238" stroke-width="0.476" stroke-linecap="round" stroke-linejoin="round"/>
<path d="M78.9787 82.2969C78.9787 82.2969 78.5789 88.1755 77.7506 89.9795C76.9224 91.7836 75.5467 93.2496 74.947 95.5725C74.3472 97.8954 74.2568 101.508 74.0854 102.027C73.9141 102.546 72.9192 102.679 72.9192 102.679C71.4912 102.713 70.9153 101.97 70.0918 100.837" stroke="#263238" stroke-width="0.476" stroke-linecap="round" stroke-linejoin="round"/>
<path d="M87.5848 71.5723C87.5848 71.5723 86.2949 84.1291 85.262 89.4651C84.229 94.8011 82.406 95.5722 79.4119 97.2953C76.4179 99.0184 74.7662 102.531 74.5044 103.06C74.2426 103.588 73.262 103.645 73.262 103.645C72.6858 103.597 72.1307 103.406 71.6469 103.09C71.1632 102.773 70.7661 102.34 70.4917 101.832" stroke="#263238" stroke-width="0.476" stroke-linecap="round" stroke-linejoin="round"/>
<path d="M92.2397 77.2461C92.5633 77.7459 89.8025 90.4979 88.365 94.1965C86.9275 97.895 86.7657 98.4805 82.9624 99.5277C79.1592 100.575 76.2699 102.317 75.2417 101.703" stroke="#263238" stroke-width="0.476" stroke-linecap="round" stroke-linejoin="round"/>
<path d="M65.8264 70.1924C65.8264 70.1924 63.851 74.9238 65.1553 78.0369" stroke="#263238" stroke-width="0.476" stroke-linecap="round" stroke-linejoin="round"/>
<path d="M58.5154 64.5137C55.2781 65.7935 51.9475 66.8231 48.5527 67.5934" stroke="#263238" stroke-width="0.476" stroke-linecap="round" stroke-linejoin="round"/>
<path d="M45.4347 80.8643C45.4347 80.8643 46.9484 83.6298 49.2427 84.2248" stroke="#263238" stroke-width="0.476" stroke-linecap="round" stroke-linejoin="round"/>
<path d="M49.2481 77.8506C49.2481 77.8506 49.7907 79.2786 50.3667 79.6737" stroke="#263238" stroke-width="0.476" stroke-linecap="round" stroke-linejoin="round"/>
<path d="M47.3432 89.209C47.3432 89.209 50.7847 91.8127 54.0881 92.4886" stroke="#263238" stroke-width="0.476" stroke-linecap="round" stroke-linejoin="round"/>
<path d="M55.5022 93.7734C55.5022 93.7734 54.0742 95.5775 50.3662 95.7488" stroke="#263238" stroke-width="0.476" stroke-linecap="round" stroke-linejoin="round"/>
<path d="M66.6409 85.8767C66.6409 85.8767 63.2708 82.6399 61.3478 83.0874" stroke="#263238" stroke-width="0.476" stroke-linecap="round" stroke-linejoin="round"/>
<path d="M60.0437 86.5332C60.0437 86.5332 62.595 88.4372 63.0615 88.4372" stroke="#263238" stroke-width="0.476" stroke-linecap="round" stroke-linejoin="round"/>
<path d="M86.314 96.629C86.314 96.629 85.4667 96.7861 84.8051 95.7627" stroke="#263238" stroke-width="0.476" stroke-linecap="round" stroke-linejoin="round"/>
<path d="M83.3008 91.9933C83.3008 91.9933 81.254 90.7271 79.9165 90.4844" stroke="#263238" stroke-width="0.476" stroke-linecap="round" stroke-linejoin="round"/>
<path d="M65.2695 134.928C64.8459 134.552 60.8903 131.354 58.4437 130.221" stroke="#263238" stroke-width="0.476" stroke-linecap="round" stroke-linejoin="round"/>
<path d="M60.139 133.415C60.4198 133.33 62.6666 135.681 63.8518 136.624" stroke="#263238" stroke-width="0.476" stroke-linecap="round" stroke-linejoin="round"/>
<path d="M59.0248 140.388C59.0248 140.388 51.4897 154.668 49.7951 160.38" stroke="#263238" stroke-width="0.476" stroke-linecap="round" stroke-linejoin="round"/>
<path d="M36.9578 120.196C36.3199 123.704 34.2493 126.289 33.1164 127.689" stroke="#263238" stroke-width="0.476" stroke-linecap="round" stroke-linejoin="round"/>
<path opacity="0.4" d="M60.71 77.2474C61.8048 77.9233 60.6529 80.1319 60.0436 81.2601C59.4344 82.3882 56.7116 84.1827 56.1452 85.8773C55.5788 87.5718 51.9992 87.5242 50.9092 85.8773C49.8192 84.2303 49.9572 80.9411 52.9274 78.4374C55.8977 75.9336 59.1535 76.2954 60.71 77.2474Z" fill="white"/>
</svg>
