<svg width="315" height="210" viewBox="0 0 315 210" fill="none" xmlns="http://www.w3.org/2000/svg">
<path d="M52.753 140.961H41.6314V145.661H52.753V140.961Z" fill="#EBEBEB"/>
<path d="M46.5449 146.888H35.4233V151.587H46.5449V146.888Z" fill="#EBEBEB"/>
<path d="M293.522 91.0615H282.401V95.7613H293.522V91.0615Z" fill="#EBEBEB"/>
<path d="M287.319 96.9873H276.197V101.687H287.319V96.9873Z" fill="#EBEBEB"/>
<path d="M171.146 63.6191H160.025V68.3189H171.146V63.6191Z" fill="#EBEBEB"/>
<path d="M164.943 69.5449H153.821V74.2447H164.943V69.5449Z" fill="#EBEBEB"/>
<path d="M158.765 63.6191H147.644V68.3189H158.765V63.6191Z" fill="#EBEBEB"/>
<path d="M44.983 73.6562H33.8614V78.3561H44.983V73.6562Z" fill="#EBEBEB"/>
<path d="M38.7798 79.583H27.6582V84.2828H38.7798V79.583Z" fill="#EBEBEB"/>
<path d="M32.6012 73.6562H21.4796V78.3561H32.6012V73.6562Z" fill="#EBEBEB"/>
<path d="M248.414 146.888H237.292V151.587H248.414V146.888Z" fill="#EBEBEB"/>
<path d="M242.211 14.4199H231.089V19.1197H242.211V14.4199Z" fill="#EBEBEB"/>
<path d="M248.414 20.3457H237.292V25.0455H248.414V20.3457Z" fill="#EBEBEB"/>
<path d="M120.163 14.4199H109.041V19.1197H120.163V14.4199Z" fill="#EBEBEB"/>
<path d="M49.9221 21.043H24.6591V51.6862H49.9221V21.043Z" fill="#DBDBDB"/>
<path d="M47.0364 23.8408H27.5442V48.8938H47.0364V23.8408Z" fill="white"/>
<path d="M28.3044 23.8408H27.5442V48.8938H28.3044V23.8408Z" fill="#C7C7C7"/>
<path d="M50.6825 21.043H49.9223V51.6862H50.6825V21.043Z" fill="#C7C7C7"/>
<path d="M37.7248 43.3242H42.3196V29.6322H37.7248V43.3242Z" fill="#DBDBDB"/>
<path d="M44.5211 34.2103H31.8623V27.0703H44.5211V34.2103ZM32.2655 33.7903H44.1011V27.4903H32.2823L32.2655 33.7903Z" fill="#EBEBEB"/>
<path d="M87.2685 35.5459H62.0055V66.1891H87.2685V35.5459Z" fill="#DBDBDB"/>
<path d="M84.3828 38.3438H64.8906V63.3968H84.3828V38.3438Z" fill="white"/>
<path d="M65.6508 38.3438H64.8906V63.3968H65.6508V38.3438Z" fill="#C7C7C7"/>
<path d="M88.0289 35.5459H87.2687V66.1891H88.0289V35.5459Z" fill="#C7C7C7"/>
<path d="M76.6845 44.8203H72.7491V54.7743H76.6845V44.8203Z" fill="#EBEBEB"/>
<path d="M81.0612 57.9607H70.0446V50.6611H81.0612V57.9607ZM70.4856 57.5407H80.6412V51.0811H70.4646L70.4856 57.5407Z" fill="#DBDBDB"/>
<path d="M291.72 174.318H270.266V176.759H291.72V174.318Z" fill="#DBDBDB"/>
<path d="M282.266 63.5518H279.725V174.314H282.266V63.5518Z" fill="#DBDBDB"/>
<path d="M282.266 63.5518H279.725V73.6318H282.266V63.5518Z" fill="#A6A6A6"/>
<path d="M294.45 71.01H267.536L269.489 64.5798L269.561 64.353L275.252 45.6504H286.735L292.426 64.3572V64.3614L292.489 64.5714L294.45 71.01Z" fill="#EBEBEB"/>
<path d="M276.205 49.9817C276.205 50.0174 276.195 50.0524 276.175 50.0821C276.155 50.1118 276.127 50.1349 276.094 50.1486C276.061 50.1622 276.024 50.1658 275.989 50.1589C275.954 50.1519 275.922 50.1347 275.897 50.1094C275.872 50.0842 275.854 50.052 275.847 50.017C275.84 49.9819 275.844 49.9456 275.858 49.9126C275.871 49.8796 275.895 49.8514 275.924 49.8316C275.954 49.8117 275.989 49.8011 276.025 49.8011C276.072 49.8011 276.118 49.8201 276.152 49.854C276.186 49.8879 276.205 49.9338 276.205 49.9817ZM279.338 49.8011C279.303 49.8011 279.268 49.8117 279.238 49.8316C279.208 49.8514 279.185 49.8796 279.172 49.9126C279.158 49.9456 279.154 49.9819 279.161 50.017C279.168 50.052 279.185 50.0842 279.211 50.1094C279.236 50.1347 279.268 50.1519 279.303 50.1589C279.338 50.1658 279.374 50.1622 279.407 50.1486C279.44 50.1349 279.469 50.1118 279.489 50.0821C279.508 50.0524 279.519 50.0174 279.519 49.9817C279.52 49.9573 279.516 49.9329 279.508 49.91C279.499 49.8871 279.486 49.8662 279.469 49.8486C279.452 49.8309 279.432 49.8168 279.409 49.8072C279.387 49.7976 279.363 49.7927 279.338 49.7927V49.8011ZM282.652 49.8011C282.616 49.8011 282.582 49.8117 282.552 49.8316C282.522 49.8514 282.499 49.8796 282.485 49.9126C282.472 49.9456 282.468 49.9819 282.475 50.017C282.482 50.052 282.499 50.0842 282.524 50.1094C282.55 50.1347 282.582 50.1519 282.617 50.1589C282.652 50.1658 282.688 50.1622 282.721 50.1486C282.754 50.1349 282.782 50.1118 282.802 50.0821C282.822 50.0524 282.833 50.0174 282.833 49.9817C282.834 49.958 282.83 49.9343 282.822 49.9119C282.814 49.8896 282.802 49.8691 282.786 49.8515C282.77 49.8339 282.751 49.8197 282.729 49.8096C282.708 49.7995 282.684 49.7938 282.661 49.7927L282.652 49.8011ZM285.966 49.8011C285.93 49.8011 285.895 49.8117 285.866 49.8316C285.836 49.8514 285.813 49.8796 285.799 49.9126C285.785 49.9456 285.782 49.9819 285.789 50.017C285.796 50.052 285.813 50.0842 285.838 50.1094C285.863 50.1347 285.896 50.1519 285.931 50.1589C285.966 50.1658 286.002 50.1622 286.035 50.1486C286.068 50.1349 286.096 50.1118 286.116 50.0821C286.136 50.0524 286.147 50.0174 286.147 49.9817C286.148 49.9573 286.144 49.9329 286.135 49.91C286.127 49.8871 286.114 49.8662 286.097 49.8486C286.08 49.8309 286.06 49.8168 286.037 49.8072C286.015 49.7976 285.99 49.7927 285.966 49.7927V49.8011ZM277.679 47.4617C277.631 47.4617 277.586 47.4807 277.552 47.5146C277.518 47.5485 277.499 47.5944 277.499 47.6423C277.505 47.686 277.527 47.7259 277.561 47.7547C277.595 47.7835 277.637 47.7993 277.681 47.7993C277.726 47.7993 277.768 47.7835 277.802 47.7547C277.835 47.7259 277.858 47.686 277.864 47.6423C277.863 47.594 277.843 47.5481 277.809 47.5144C277.774 47.4806 277.728 47.4617 277.679 47.4617ZM280.997 47.4617C280.949 47.4617 280.903 47.4806 280.868 47.5144C280.834 47.5481 280.814 47.594 280.813 47.6423C280.819 47.686 280.841 47.7259 280.875 47.7547C280.908 47.7835 280.951 47.7993 280.995 47.7993C281.039 47.7993 281.082 47.7835 281.116 47.7547C281.149 47.7259 281.171 47.686 281.178 47.6423C281.178 47.6171 281.173 47.5922 281.163 47.5691C281.153 47.546 281.138 47.5253 281.119 47.5083C281.101 47.4913 281.079 47.4783 281.055 47.4703C281.031 47.4623 281.006 47.4594 280.981 47.4617H280.997ZM284.311 47.4617C284.263 47.4617 284.216 47.4806 284.182 47.5144C284.147 47.5481 284.127 47.594 284.126 47.6423C284.133 47.686 284.155 47.7259 284.189 47.7547C284.222 47.7835 284.265 47.7993 284.309 47.7993C284.353 47.7993 284.396 47.7835 284.43 47.7547C284.463 47.7259 284.485 47.686 284.492 47.6423C284.492 47.5944 284.473 47.5485 284.439 47.5146C284.405 47.4807 284.359 47.4617 284.311 47.4617ZM272.711 54.6017C272.674 54.6009 272.638 54.611 272.607 54.6308C272.576 54.6506 272.552 54.6792 272.537 54.7128C272.522 54.7465 272.518 54.7838 272.525 54.8199C272.531 54.8561 272.549 54.8894 272.574 54.9156C272.6 54.9419 272.633 54.9599 272.669 54.9674C272.705 54.9749 272.742 54.9715 272.776 54.9576C272.81 54.9438 272.839 54.9201 272.86 54.8896C272.88 54.8591 272.891 54.8232 272.891 54.7865C272.891 54.7382 272.872 54.6918 272.839 54.6573C272.805 54.6228 272.759 54.6028 272.711 54.6017ZM276.025 54.6017C275.988 54.6009 275.952 54.611 275.921 54.6308C275.89 54.6506 275.865 54.6792 275.851 54.7128C275.836 54.7465 275.832 54.7838 275.839 54.8199C275.845 54.8561 275.863 54.8894 275.888 54.9156C275.914 54.9419 275.947 54.9599 275.983 54.9674C276.019 54.9749 276.056 54.9715 276.09 54.9576C276.124 54.9438 276.153 54.9201 276.174 54.8896C276.194 54.8591 276.205 54.8232 276.205 54.7865C276.205 54.7382 276.186 54.6918 276.153 54.6573C276.119 54.6228 276.073 54.6028 276.025 54.6017ZM279.338 54.6017C279.302 54.6009 279.266 54.611 279.235 54.6308C279.204 54.6506 279.179 54.6792 279.165 54.7128C279.15 54.7465 279.146 54.7838 279.152 54.8199C279.159 54.8561 279.176 54.8894 279.202 54.9156C279.228 54.9419 279.261 54.9599 279.297 54.9674C279.332 54.9749 279.37 54.9715 279.404 54.9576C279.438 54.9438 279.467 54.9201 279.487 54.8896C279.508 54.8591 279.519 54.8232 279.519 54.7865C279.519 54.7382 279.5 54.6918 279.466 54.6573C279.433 54.6228 279.387 54.6028 279.338 54.6017ZM282.652 54.6017C282.615 54.6009 282.579 54.611 282.548 54.6308C282.517 54.6506 282.493 54.6792 282.478 54.7128C282.464 54.7465 282.46 54.7838 282.466 54.8199C282.473 54.8561 282.49 54.8894 282.516 54.9156C282.541 54.9419 282.574 54.9599 282.61 54.9674C282.646 54.9749 282.684 54.9715 282.718 54.9576C282.752 54.9438 282.781 54.9201 282.801 54.8896C282.822 54.8591 282.833 54.8232 282.833 54.7865C282.833 54.7396 282.815 54.6944 282.783 54.6601C282.751 54.6258 282.707 54.6049 282.661 54.6017H282.652ZM285.966 54.6017C285.929 54.6009 285.893 54.611 285.862 54.6308C285.831 54.6506 285.807 54.6792 285.792 54.7128C285.778 54.7465 285.773 54.7838 285.78 54.8199C285.787 54.8561 285.804 54.8894 285.83 54.9156C285.855 54.9419 285.888 54.9599 285.924 54.9674C285.96 54.9749 285.997 54.9715 286.031 54.9576C286.065 54.9438 286.095 54.9201 286.115 54.8896C286.136 54.8591 286.147 54.8232 286.147 54.7865C286.147 54.7382 286.128 54.6918 286.094 54.6573C286.06 54.6228 286.014 54.6028 285.966 54.6017ZM289.28 54.6017C289.243 54.6009 289.207 54.611 289.176 54.6308C289.145 54.6506 289.121 54.6792 289.106 54.7128C289.091 54.7465 289.087 54.7838 289.094 54.8199C289.1 54.8561 289.118 54.8894 289.143 54.9156C289.169 54.9419 289.202 54.9599 289.238 54.9674C289.274 54.9749 289.311 54.9715 289.345 54.9576C289.379 54.9438 289.408 54.9201 289.429 54.8896C289.449 54.8591 289.46 54.8232 289.46 54.7865C289.46 54.7382 289.441 54.6918 289.408 54.6573C289.374 54.6228 289.328 54.6028 289.28 54.6017ZM274.366 52.2833C274.33 52.2841 274.296 52.2954 274.266 52.3158C274.237 52.3361 274.215 52.3646 274.202 52.3977C274.189 52.4307 274.186 52.4669 274.193 52.5017C274.201 52.5364 274.218 52.5682 274.244 52.593C274.269 52.6179 274.301 52.6347 274.336 52.6413C274.371 52.6479 274.407 52.6441 274.44 52.6303C274.473 52.6165 274.501 52.5934 274.52 52.5638C274.54 52.5342 274.55 52.4995 274.55 52.4639C274.548 52.4168 274.528 52.3723 274.493 52.3401C274.459 52.308 274.413 52.2906 274.366 52.2917V52.2833ZM277.679 52.2833C277.644 52.2841 277.609 52.2954 277.58 52.3158C277.551 52.3361 277.529 52.3646 277.516 52.3977C277.502 52.4307 277.5 52.4669 277.507 52.5017C277.514 52.5364 277.532 52.5682 277.557 52.593C277.583 52.6179 277.615 52.6347 277.65 52.6413C277.685 52.6479 277.721 52.6441 277.754 52.6303C277.786 52.6165 277.814 52.5934 277.834 52.5638C277.854 52.5342 277.864 52.4995 277.864 52.4639C277.862 52.4168 277.841 52.3723 277.807 52.3401C277.772 52.308 277.727 52.2906 277.679 52.2917V52.2833ZM280.997 52.2833C280.962 52.2833 280.927 52.2939 280.897 52.3138C280.867 52.3336 280.844 52.3618 280.831 52.3948C280.817 52.4278 280.813 52.4641 280.82 52.4992C280.827 52.5342 280.844 52.5664 280.87 52.5916C280.895 52.6169 280.927 52.6341 280.962 52.6411C280.997 52.648 281.033 52.6444 281.066 52.6308C281.099 52.6171 281.128 52.594 281.148 52.5643C281.167 52.5346 281.178 52.4996 281.178 52.4639C281.176 52.4396 281.17 52.4159 281.159 52.3941C281.148 52.3723 281.133 52.3528 281.115 52.3368C281.097 52.3208 281.075 52.3086 281.052 52.3008C281.029 52.2931 281.005 52.29 280.981 52.2917L280.997 52.2833ZM284.311 52.2833C284.275 52.2833 284.241 52.2939 284.211 52.3138C284.181 52.3336 284.158 52.3618 284.144 52.3948C284.131 52.4278 284.127 52.4641 284.134 52.4992C284.141 52.5342 284.158 52.5664 284.183 52.5916C284.209 52.6169 284.241 52.6341 284.276 52.6411C284.311 52.648 284.347 52.6444 284.38 52.6308C284.413 52.6171 284.441 52.594 284.461 52.5643C284.481 52.5346 284.492 52.4996 284.492 52.4639C284.489 52.4178 284.468 52.3746 284.435 52.3427C284.401 52.3109 284.357 52.2927 284.311 52.2917V52.2833ZM287.625 52.2833C287.577 52.2833 287.531 52.3023 287.497 52.3362C287.463 52.3701 287.444 52.416 287.444 52.4639C287.444 52.5118 287.463 52.5578 287.497 52.5916C287.531 52.6255 287.577 52.6445 287.625 52.6445C287.673 52.6445 287.719 52.6255 287.753 52.5916C287.787 52.5578 287.806 52.5118 287.806 52.4639C287.806 52.416 287.787 52.3701 287.753 52.3362C287.719 52.3023 287.673 52.2833 287.625 52.2833ZM272.711 59.4233C272.675 59.4233 272.64 59.4339 272.61 59.4538C272.581 59.4736 272.558 59.5018 272.544 59.5348C272.53 59.5678 272.527 59.6041 272.534 59.6392C272.541 59.6742 272.558 59.7064 272.583 59.7316C272.608 59.7569 272.64 59.7741 272.676 59.7811C272.711 59.788 272.747 59.7844 272.78 59.7708C272.813 59.7571 272.841 59.734 272.861 59.7043C272.881 59.6746 272.891 59.6396 272.891 59.6039C272.889 59.5575 272.869 59.5137 272.836 59.4816C272.802 59.4495 272.757 59.4317 272.711 59.4317V59.4233ZM276.025 59.4233C275.989 59.4233 275.954 59.4339 275.924 59.4538C275.895 59.4736 275.871 59.5018 275.858 59.5348C275.844 59.5678 275.84 59.6041 275.847 59.6392C275.854 59.6742 275.872 59.7064 275.897 59.7316C275.922 59.7569 275.954 59.7741 275.989 59.7811C276.024 59.788 276.061 59.7844 276.094 59.7708C276.127 59.7571 276.155 59.734 276.175 59.7043C276.195 59.6746 276.205 59.6396 276.205 59.6039C276.203 59.5575 276.183 59.5137 276.149 59.4816C276.116 59.4495 276.071 59.4317 276.025 59.4317V59.4233ZM279.338 59.4233C279.303 59.4233 279.268 59.4339 279.238 59.4538C279.208 59.4736 279.185 59.5018 279.172 59.5348C279.158 59.5678 279.154 59.6041 279.161 59.6392C279.168 59.6742 279.185 59.7064 279.211 59.7316C279.236 59.7569 279.268 59.7741 279.303 59.7811C279.338 59.788 279.374 59.7844 279.407 59.7708C279.44 59.7571 279.469 59.734 279.489 59.7043C279.508 59.6746 279.519 59.6396 279.519 59.6039C279.517 59.5575 279.497 59.5137 279.463 59.4816C279.43 59.4495 279.385 59.4317 279.338 59.4317V59.4233ZM282.652 59.4233C282.616 59.4233 282.582 59.4339 282.552 59.4538C282.522 59.4736 282.499 59.5018 282.485 59.5348C282.472 59.5678 282.468 59.6041 282.475 59.6392C282.482 59.6742 282.499 59.7064 282.524 59.7316C282.55 59.7569 282.582 59.7741 282.617 59.7811C282.652 59.788 282.688 59.7844 282.721 59.7708C282.754 59.7571 282.782 59.734 282.802 59.7043C282.822 59.6746 282.833 59.6396 282.833 59.6039C282.831 59.5589 282.812 59.5163 282.78 59.4844C282.748 59.4526 282.706 59.4338 282.661 59.4317L282.652 59.4233ZM285.966 59.4233C285.93 59.4233 285.895 59.4339 285.866 59.4538C285.836 59.4736 285.813 59.5018 285.799 59.5348C285.785 59.5678 285.782 59.6041 285.789 59.6392C285.796 59.6742 285.813 59.7064 285.838 59.7316C285.863 59.7569 285.896 59.7741 285.931 59.7811C285.966 59.788 286.002 59.7844 286.035 59.7708C286.068 59.7571 286.096 59.734 286.116 59.7043C286.136 59.6746 286.147 59.6396 286.147 59.6039C286.144 59.5575 286.124 59.5137 286.091 59.4816C286.057 59.4495 286.012 59.4317 285.966 59.4317V59.4233ZM289.28 59.4233C289.244 59.4233 289.209 59.4339 289.179 59.4538C289.15 59.4736 289.127 59.5018 289.113 59.5348C289.099 59.5678 289.096 59.6041 289.103 59.6392C289.11 59.6742 289.127 59.7064 289.152 59.7316C289.177 59.7569 289.209 59.7741 289.245 59.7811C289.28 59.788 289.316 59.7844 289.349 59.7708C289.382 59.7571 289.41 59.734 289.43 59.7043C289.45 59.6746 289.46 59.6396 289.46 59.6039C289.458 59.5575 289.438 59.5137 289.405 59.4816C289.371 59.4495 289.326 59.4317 289.28 59.4317V59.4233ZM274.366 57.1217C274.318 57.1228 274.273 57.1422 274.239 57.1758C274.205 57.2094 274.186 57.2548 274.185 57.3023C274.192 57.346 274.214 57.3859 274.247 57.4147C274.281 57.4435 274.323 57.4593 274.368 57.4593C274.412 57.4593 274.455 57.4435 274.488 57.4147C274.522 57.3859 274.544 57.346 274.55 57.3023C274.549 57.254 274.529 57.2081 274.495 57.1744C274.46 57.1406 274.414 57.1217 274.366 57.1217ZM277.679 57.1217C277.632 57.1228 277.586 57.1422 277.553 57.1758C277.519 57.2094 277.5 57.2548 277.499 57.3023C277.505 57.346 277.527 57.3859 277.561 57.4147C277.595 57.4435 277.637 57.4593 277.681 57.4593C277.726 57.4593 277.768 57.4435 277.802 57.4147C277.835 57.3859 277.858 57.346 277.864 57.3023C277.863 57.254 277.843 57.2081 277.809 57.1744C277.774 57.1406 277.728 57.1217 277.679 57.1217ZM280.997 57.1217C280.949 57.1217 280.903 57.1406 280.868 57.1744C280.834 57.2081 280.814 57.254 280.813 57.3023C280.819 57.346 280.841 57.3859 280.875 57.4147C280.908 57.4435 280.951 57.4593 280.995 57.4593C281.039 57.4593 281.082 57.4435 281.116 57.4147C281.149 57.3859 281.171 57.346 281.178 57.3023C281.177 57.2773 281.172 57.2527 281.162 57.2299C281.151 57.2071 281.136 57.1866 281.118 57.1697C281.099 57.1529 281.078 57.1399 281.054 57.1316C281.031 57.1234 281.006 57.12 280.981 57.1217H280.997ZM284.311 57.1217C284.263 57.1217 284.216 57.1406 284.182 57.1744C284.147 57.2081 284.127 57.254 284.126 57.3023C284.133 57.346 284.155 57.3859 284.189 57.4147C284.222 57.4435 284.265 57.4593 284.309 57.4593C284.353 57.4593 284.396 57.4435 284.43 57.4147C284.463 57.3859 284.485 57.346 284.492 57.3023C284.491 57.2548 284.471 57.2094 284.438 57.1758C284.404 57.1422 284.359 57.1228 284.311 57.1217ZM287.625 57.1217C287.577 57.1217 287.531 57.1407 287.497 57.1746C287.463 57.2085 287.444 57.2544 287.444 57.3023C287.444 57.3502 287.463 57.3962 287.497 57.43C287.531 57.4639 287.577 57.4829 287.625 57.4829C287.673 57.4829 287.719 57.4639 287.753 57.43C287.787 57.3962 287.806 57.3502 287.806 57.3023C287.804 57.2548 287.785 57.2094 287.751 57.1758C287.718 57.1422 287.673 57.1228 287.625 57.1217ZM269.565 64.3667L269.494 64.5935C269.521 64.5789 269.543 64.557 269.559 64.5303C269.574 64.5036 269.582 64.4732 269.582 64.4423C269.583 64.4115 269.576 64.381 269.561 64.3541L269.565 64.3667ZM272.715 64.2617C272.679 64.2617 272.644 64.2723 272.615 64.2922C272.585 64.312 272.562 64.3402 272.548 64.3732C272.534 64.4062 272.531 64.4425 272.538 64.4776C272.545 64.5126 272.562 64.5448 272.587 64.57C272.612 64.5953 272.645 64.6125 272.68 64.6194C272.715 64.6264 272.751 64.6228 272.784 64.6092C272.817 64.5955 272.845 64.5724 272.865 64.5427C272.885 64.513 272.896 64.478 272.896 64.4423C272.896 64.4182 272.891 64.3944 272.881 64.3722C272.872 64.35 272.858 64.3299 272.841 64.3131C272.824 64.2963 272.804 64.2831 272.781 64.2742C272.759 64.2654 272.735 64.2612 272.711 64.2617H272.715ZM276.029 64.2617C275.993 64.2617 275.958 64.2723 275.928 64.2922C275.899 64.312 275.876 64.3402 275.862 64.3732C275.848 64.4062 275.845 64.4425 275.852 64.4776C275.859 64.5126 275.876 64.5448 275.901 64.57C275.926 64.5953 275.958 64.6125 275.994 64.6194C276.029 64.6264 276.065 64.6228 276.098 64.6092C276.131 64.5955 276.159 64.5724 276.179 64.5427C276.199 64.513 276.209 64.478 276.209 64.4423C276.209 64.4182 276.205 64.3944 276.195 64.3722C276.186 64.35 276.172 64.3299 276.155 64.3131C276.138 64.2963 276.117 64.2831 276.095 64.2742C276.073 64.2654 276.049 64.2612 276.025 64.2617H276.029ZM279.343 64.2617C279.307 64.2617 279.272 64.2723 279.242 64.2922C279.213 64.312 279.189 64.3402 279.176 64.3732C279.162 64.4062 279.158 64.4425 279.165 64.4776C279.172 64.5126 279.19 64.5448 279.215 64.57C279.24 64.5953 279.272 64.6125 279.307 64.6194C279.342 64.6264 279.379 64.6228 279.412 64.6092C279.445 64.5955 279.473 64.5724 279.493 64.5427C279.513 64.513 279.523 64.478 279.523 64.4423C279.523 64.4182 279.518 64.3944 279.509 64.3722C279.5 64.35 279.486 64.3299 279.469 64.3131C279.452 64.2963 279.431 64.2831 279.409 64.2742C279.386 64.2654 279.362 64.2612 279.338 64.2617H279.343ZM282.656 64.2617C282.621 64.2617 282.586 64.2723 282.556 64.2922C282.526 64.312 282.503 64.3402 282.489 64.3732C282.476 64.4062 282.472 64.4425 282.479 64.4776C282.486 64.5126 282.503 64.5448 282.529 64.57C282.554 64.5953 282.586 64.6125 282.621 64.6194C282.656 64.6264 282.692 64.6228 282.725 64.6092C282.758 64.5955 282.787 64.5724 282.807 64.5427C282.826 64.513 282.837 64.478 282.837 64.4423C282.837 64.3951 282.819 64.3498 282.786 64.3161C282.753 64.2823 282.708 64.2628 282.661 64.2617H282.656ZM285.97 64.2617C285.934 64.2617 285.9 64.2723 285.87 64.2922C285.84 64.312 285.817 64.3402 285.803 64.3732C285.79 64.4062 285.786 64.4425 285.793 64.4776C285.8 64.5126 285.817 64.5448 285.842 64.57C285.868 64.5953 285.9 64.6125 285.935 64.6194C285.97 64.6264 286.006 64.6228 286.039 64.6092C286.072 64.5955 286.1 64.5724 286.12 64.5427C286.14 64.513 286.151 64.478 286.151 64.4423C286.151 64.4182 286.146 64.3944 286.137 64.3722C286.127 64.35 286.114 64.3299 286.096 64.3131C286.079 64.2963 286.059 64.2831 286.036 64.2742C286.014 64.2654 285.99 64.2612 285.966 64.2617H285.97ZM289.284 64.2617C289.248 64.2617 289.213 64.2723 289.184 64.2922C289.154 64.312 289.131 64.3402 289.117 64.3732C289.103 64.4062 289.1 64.4425 289.107 64.4776C289.114 64.5126 289.131 64.5448 289.156 64.57C289.182 64.5953 289.214 64.6125 289.249 64.6194C289.284 64.6264 289.32 64.6228 289.353 64.6092C289.386 64.5955 289.414 64.5724 289.434 64.5427C289.454 64.513 289.465 64.478 289.465 64.4423C289.465 64.4182 289.46 64.3944 289.45 64.3722C289.441 64.35 289.427 64.3299 289.41 64.3131C289.393 64.2963 289.373 64.2831 289.35 64.2742C289.328 64.2654 289.304 64.2612 289.28 64.2617H289.284ZM292.43 64.3751C292.425 64.3973 292.425 64.4201 292.43 64.4423C292.429 64.4707 292.435 64.4989 292.448 64.524C292.461 64.5491 292.481 64.5702 292.505 64.5851L292.43 64.3751ZM271.056 61.9433C271.008 61.9433 270.962 61.9623 270.928 61.9962C270.894 62.0301 270.875 62.076 270.875 62.1239C270.876 62.1715 270.896 62.2168 270.929 62.2504C270.963 62.2841 271.008 62.3034 271.056 62.3045C271.08 62.3045 271.103 62.2998 271.125 62.2908C271.147 62.2817 271.167 62.2684 271.184 62.2516C271.2 62.2349 271.214 62.2149 271.223 62.193C271.232 62.1711 271.237 62.1476 271.237 62.1239C271.238 62.0988 271.235 62.0736 271.226 62.0499C271.218 62.0262 271.204 62.0046 271.187 61.9864C271.17 61.9682 271.148 61.9539 271.125 61.9443C271.102 61.9347 271.077 61.9301 271.052 61.9307L271.056 61.9433ZM274.37 61.9433C274.322 61.9433 274.276 61.9623 274.242 61.9962C274.208 62.0301 274.189 62.076 274.189 62.1239C274.196 62.1676 274.218 62.2075 274.251 62.2363C274.285 62.2651 274.328 62.2809 274.372 62.2809C274.416 62.2809 274.459 62.2651 274.492 62.2363C274.526 62.2075 274.548 62.1676 274.555 62.1239C274.556 62.0986 274.552 62.0733 274.543 62.0496C274.534 62.0259 274.52 62.0044 274.502 61.9862C274.484 61.9681 274.463 61.9538 274.44 61.9443C274.416 61.9347 274.391 61.9301 274.366 61.9307L274.37 61.9433ZM277.684 61.9433C277.636 61.9433 277.59 61.9623 277.556 61.9962C277.522 62.0301 277.503 62.076 277.503 62.1239C277.51 62.1676 277.532 62.2075 277.565 62.2363C277.599 62.2651 277.641 62.2809 277.686 62.2809C277.73 62.2809 277.773 62.2651 277.806 62.2363C277.84 62.2075 277.862 62.1676 277.868 62.1239C277.87 62.0986 277.865 62.0733 277.856 62.0496C277.847 62.0259 277.834 62.0044 277.816 61.9862C277.798 61.9681 277.777 61.9538 277.753 61.9443C277.73 61.9347 277.705 61.9301 277.679 61.9307L277.684 61.9433ZM281.002 61.9433C280.953 61.9433 280.907 61.9622 280.872 61.996C280.838 62.0297 280.818 62.0756 280.817 62.1239C280.823 62.1676 280.845 62.2075 280.879 62.2363C280.913 62.2651 280.955 62.2809 280.999 62.2809C281.044 62.2809 281.086 62.2651 281.12 62.2363C281.153 62.2075 281.175 62.1676 281.182 62.1239C281.184 62.0973 281.18 62.0705 281.171 62.0456C281.161 62.0206 281.146 61.9981 281.127 61.9796C281.108 61.9612 281.085 61.9472 281.059 61.9387C281.034 61.9303 281.007 61.9275 280.981 61.9307L281.002 61.9433ZM284.315 61.9433C284.267 61.9433 284.221 61.9622 284.186 61.996C284.152 62.0297 284.132 62.0756 284.131 62.1239C284.137 62.1676 284.159 62.2075 284.193 62.2363C284.226 62.2651 284.269 62.2809 284.313 62.2809C284.357 62.2809 284.4 62.2651 284.434 62.2363C284.467 62.2075 284.489 62.1676 284.496 62.1239C284.498 62.0988 284.494 62.0736 284.486 62.0499C284.477 62.0262 284.464 62.0046 284.446 61.9864C284.429 61.9682 284.408 61.9539 284.385 61.9443C284.361 61.9347 284.336 61.9301 284.311 61.9307L284.315 61.9433ZM287.629 61.9433C287.581 61.9433 287.535 61.9623 287.501 61.9962C287.468 62.0301 287.449 62.076 287.449 62.1239C287.449 62.1476 287.453 62.1711 287.462 62.193C287.471 62.2149 287.485 62.2349 287.501 62.2516C287.518 62.2684 287.538 62.2817 287.56 62.2908C287.582 62.2998 287.605 62.3045 287.629 62.3045C287.677 62.3034 287.722 62.2841 287.756 62.2504C287.789 62.2168 287.809 62.1715 287.81 62.1239C287.812 62.0988 287.808 62.0736 287.799 62.0499C287.791 62.0262 287.778 62.0046 287.76 61.9864C287.743 61.9682 287.722 61.9539 287.698 61.9443C287.675 61.9347 287.65 61.9301 287.625 61.9307L287.629 61.9433ZM290.943 61.9433C290.895 61.9433 290.849 61.9623 290.815 61.9962C290.781 62.0301 290.762 62.076 290.762 62.1239C290.762 62.1718 290.781 62.2178 290.815 62.2516C290.849 62.2855 290.895 62.3045 290.943 62.3045C290.99 62.3034 291.036 62.2841 291.069 62.2504C291.103 62.2168 291.122 62.1715 291.124 62.1239C291.125 62.0988 291.122 62.0736 291.113 62.0499C291.105 62.0262 291.091 62.0046 291.074 61.9864C291.057 61.9682 291.035 61.9539 291.012 61.9443C290.989 61.9347 290.964 61.9301 290.939 61.9307L290.943 61.9433ZM269.401 69.0833C269.353 69.0833 269.307 69.1023 269.273 69.1362C269.24 69.1701 269.221 69.216 269.221 69.2639C269.221 69.3118 269.24 69.3578 269.273 69.3916C269.307 69.4255 269.353 69.4445 269.401 69.4445C269.449 69.4445 269.495 69.4255 269.529 69.3916C269.563 69.3578 269.582 69.3118 269.582 69.2639C269.584 69.2388 269.58 69.2136 269.571 69.1899C269.563 69.1662 269.55 69.1446 269.532 69.1264C269.515 69.1082 269.494 69.0939 269.47 69.0843C269.447 69.0747 269.422 69.0701 269.397 69.0707L269.401 69.0833ZM272.715 69.0833C272.667 69.0833 272.621 69.1023 272.587 69.1362C272.553 69.1701 272.534 69.216 272.534 69.2639C272.534 69.3118 272.553 69.3578 272.587 69.3916C272.621 69.4255 272.667 69.4445 272.715 69.4445C272.763 69.4445 272.809 69.4255 272.843 69.3916C272.877 69.3578 272.896 69.3118 272.896 69.2639C272.897 69.2388 272.894 69.2136 272.885 69.1899C272.877 69.1662 272.863 69.1446 272.846 69.1264C272.828 69.1082 272.807 69.0939 272.784 69.0843C272.761 69.0747 272.736 69.0701 272.711 69.0707L272.715 69.0833ZM276.029 69.0833C275.981 69.0833 275.935 69.1023 275.901 69.1362C275.867 69.1701 275.848 69.216 275.848 69.2639C275.848 69.3118 275.867 69.3578 275.901 69.3916C275.935 69.4255 275.981 69.4445 276.029 69.4445C276.077 69.4445 276.123 69.4255 276.156 69.3916C276.19 69.3578 276.209 69.3118 276.209 69.2639C276.211 69.2388 276.208 69.2136 276.199 69.1899C276.191 69.1662 276.177 69.1446 276.16 69.1264C276.142 69.1082 276.121 69.0939 276.098 69.0843C276.075 69.0747 276.05 69.0701 276.025 69.0707L276.029 69.0833ZM279.343 69.0833C279.295 69.0833 279.249 69.1023 279.215 69.1362C279.181 69.1701 279.162 69.216 279.162 69.2639C279.162 69.3118 279.181 69.3578 279.215 69.3916C279.249 69.4255 279.295 69.4445 279.343 69.4445C279.39 69.4445 279.436 69.4255 279.47 69.3916C279.504 69.3578 279.523 69.3118 279.523 69.2639C279.525 69.2388 279.521 69.2136 279.513 69.1899C279.504 69.1662 279.491 69.1446 279.474 69.1264C279.456 69.1082 279.435 69.0939 279.412 69.0843C279.389 69.0747 279.364 69.0701 279.338 69.0707L279.343 69.0833ZM282.656 69.0833C282.608 69.0833 282.563 69.1023 282.529 69.1362C282.495 69.1701 282.476 69.216 282.476 69.2639C282.476 69.3118 282.495 69.3578 282.529 69.3916C282.563 69.4255 282.608 69.4445 282.656 69.4445C282.704 69.4445 282.75 69.4255 282.784 69.3916C282.818 69.3578 282.837 69.3118 282.837 69.2639C282.839 69.2395 282.835 69.215 282.827 69.1919C282.819 69.1688 282.807 69.1476 282.79 69.1295C282.774 69.1114 282.754 69.0969 282.731 69.0868C282.709 69.0767 282.685 69.0712 282.661 69.0707L282.656 69.0833ZM285.97 69.0833C285.922 69.0833 285.876 69.1023 285.842 69.1362C285.809 69.1701 285.79 69.216 285.79 69.2639C285.79 69.3118 285.809 69.3578 285.842 69.3916C285.876 69.4255 285.922 69.4445 285.97 69.4445C286.018 69.4445 286.064 69.4255 286.098 69.3916C286.132 69.3578 286.151 69.3118 286.151 69.2639C286.153 69.2388 286.149 69.2136 286.14 69.1899C286.132 69.1662 286.118 69.1446 286.101 69.1264C286.084 69.1082 286.063 69.0939 286.039 69.0843C286.016 69.0747 285.991 69.0701 285.966 69.0707L285.97 69.0833ZM289.284 69.0833C289.236 69.0833 289.19 69.1023 289.156 69.1362C289.122 69.1701 289.103 69.216 289.103 69.2639C289.103 69.3118 289.122 69.3578 289.156 69.3916C289.19 69.4255 289.236 69.4445 289.284 69.4445C289.332 69.4445 289.378 69.4255 289.412 69.3916C289.446 69.3578 289.465 69.3118 289.465 69.2639C289.466 69.2388 289.463 69.2136 289.454 69.1899C289.446 69.1662 289.432 69.1446 289.415 69.1264C289.397 69.1082 289.376 69.0939 289.353 69.0843C289.33 69.0747 289.305 69.0701 289.28 69.0707L289.284 69.0833ZM292.598 69.0833C292.55 69.0833 292.504 69.1023 292.47 69.1362C292.436 69.1701 292.417 69.216 292.417 69.2639C292.417 69.3118 292.436 69.3578 292.47 69.3916C292.504 69.4255 292.55 69.4445 292.598 69.4445C292.646 69.4445 292.692 69.4255 292.725 69.3916C292.759 69.3578 292.778 69.3118 292.778 69.2639C292.78 69.2388 292.777 69.2136 292.768 69.1899C292.76 69.1662 292.746 69.1446 292.729 69.1264C292.711 69.1082 292.69 69.0939 292.667 69.0843C292.644 69.0747 292.619 69.0701 292.594 69.0707L292.598 69.0833ZM271.056 66.7607C271.008 66.7607 270.962 66.7797 270.928 66.8136C270.894 66.8475 270.875 66.8934 270.875 66.9413C270.875 66.9892 270.894 67.0352 270.928 67.069C270.962 67.1029 271.008 67.1219 271.056 67.1219C271.104 67.1219 271.15 67.1029 271.184 67.069C271.218 67.0352 271.237 66.9892 271.237 66.9413C271.237 66.8934 271.218 66.8475 271.184 66.8136C271.15 66.7797 271.104 66.7607 271.056 66.7607ZM274.37 66.7607C274.334 66.7615 274.3 66.7728 274.271 66.7932C274.241 66.8135 274.219 66.842 274.206 66.8751C274.193 66.9081 274.19 66.9443 274.197 66.9791C274.205 67.0138 274.222 67.0456 274.248 67.0704C274.273 67.0953 274.305 67.1121 274.34 67.1187C274.375 67.1253 274.411 67.1215 274.444 67.1077C274.477 67.094 274.505 67.0708 274.524 67.0412C274.544 67.0116 274.555 66.9769 274.555 66.9413C274.556 66.9158 274.553 66.8903 274.544 66.8663C274.535 66.8423 274.521 66.8205 274.504 66.8022C274.486 66.784 274.464 66.7697 274.44 66.7604C274.417 66.751 274.391 66.7469 274.366 66.7481L274.37 66.7607ZM277.684 66.7607C277.648 66.7615 277.614 66.7728 277.584 66.7932C277.555 66.8135 277.533 66.842 277.52 66.8751C277.507 66.9081 277.504 66.9443 277.511 66.9791C277.519 67.0138 277.536 67.0456 277.562 67.0704C277.587 67.0953 277.619 67.1121 277.654 67.1187C277.689 67.1253 277.725 67.1215 277.758 67.1077C277.791 67.094 277.819 67.0708 277.838 67.0412C277.858 67.0116 277.868 66.9769 277.868 66.9413C277.87 66.9158 277.867 66.8903 277.858 66.8663C277.849 66.8423 277.835 66.8205 277.817 66.8022C277.799 66.784 277.778 66.7697 277.754 66.7604C277.73 66.751 277.705 66.7469 277.679 66.7481L277.684 66.7607ZM281.002 66.7607C280.966 66.7607 280.931 66.7713 280.901 66.7912C280.872 66.811 280.848 66.8392 280.835 66.8722C280.821 66.9052 280.817 66.9415 280.824 66.9766C280.831 67.0116 280.849 67.0438 280.874 67.069C280.899 67.0943 280.931 67.1115 280.966 67.1185C281.001 67.1254 281.038 67.1218 281.071 67.1082C281.104 67.0945 281.132 67.0714 281.152 67.0417C281.172 67.012 281.182 66.977 281.182 66.9413C281.183 66.9149 281.179 66.8885 281.169 66.8638C281.16 66.8392 281.145 66.817 281.125 66.7987C281.106 66.7804 281.084 66.7664 281.059 66.7577C281.034 66.7489 281.007 66.7457 280.981 66.7481L281.002 66.7607ZM284.315 66.7607C284.28 66.7607 284.245 66.7713 284.215 66.7912C284.185 66.811 284.162 66.8392 284.148 66.8722C284.135 66.9052 284.131 66.9415 284.138 66.9766C284.145 67.0116 284.162 67.0438 284.188 67.069C284.213 67.0943 284.245 67.1115 284.28 67.1185C284.315 67.1254 284.351 67.1218 284.384 67.1082C284.417 67.0945 284.446 67.0714 284.466 67.0417C284.485 67.012 284.496 66.977 284.496 66.9413C284.497 66.9164 284.493 66.8914 284.484 66.868C284.476 66.8446 284.462 66.8232 284.445 66.8052C284.428 66.7871 284.407 66.7728 284.384 66.7629C284.361 66.7531 284.336 66.7481 284.311 66.7481L284.315 66.7607ZM287.629 66.7607C287.581 66.7607 287.535 66.7797 287.501 66.8136C287.468 66.8475 287.449 66.8934 287.449 66.9413C287.449 66.9892 287.468 67.0352 287.501 67.069C287.535 67.1029 287.581 67.1219 287.629 67.1219C287.677 67.1219 287.723 67.1029 287.757 67.069C287.791 67.0352 287.81 66.9892 287.81 66.9413C287.81 66.8934 287.791 66.8475 287.757 66.8136C287.723 66.7797 287.677 66.7607 287.629 66.7607ZM290.943 66.7607C290.895 66.7607 290.849 66.7797 290.815 66.8136C290.781 66.8475 290.762 66.8934 290.762 66.9413C290.762 66.9892 290.781 67.0352 290.815 67.069C290.849 67.1029 290.895 67.1219 290.943 67.1219C290.991 67.1219 291.037 67.1029 291.071 67.069C291.105 67.0352 291.124 66.9892 291.124 66.9413C291.124 66.8934 291.105 66.8475 291.071 66.8136C291.037 66.7797 290.991 66.7607 290.943 66.7607Z" fill="white"/>
<path d="M274.827 16.7725H96.0245V176.759H274.827V16.7725Z" fill="#455A64"/>
<path d="M271.076 20.5225H99.775V173.003H271.076V20.5225Z" fill="#EBEBEB"/>
<path d="M271.076 51.5273H99.775V55.2779H271.076V51.5273Z" fill="#455A64"/>
<path d="M223.335 151.214H147.52V154.964H223.335V151.214Z" fill="#455A64"/>
<path d="M271.077 81.1338H227.086V84.8844H271.077V81.1338Z" fill="#455A64"/>
<path d="M271.077 109.454H227.086V113.205H271.077V109.454Z" fill="#455A64"/>
<path d="M271.077 139.622H227.086V143.373H271.077V139.622Z" fill="#455A64"/>
<path d="M227.081 173V55.2783H223.33V173H227.081Z" fill="#455A64"/>
<path d="M147.516 173V55.2783H143.766V173H147.516Z" fill="#455A64"/>
<path d="M223.335 63.5811H147.52V65.9961H223.335V63.5811Z" fill="#C7C7C7"/>
<path d="M271.077 113.204H227.086V139.622H271.077V113.204Z" fill="#263238"/>
<path d="M270.686 113.62H227.468V121.802H270.686V113.62Z" fill="#455A64"/>
<path d="M270.686 122.289H227.468V130.471H270.686V122.289Z" fill="#455A64"/>
<path d="M270.686 130.957H227.468V139.139H270.686V130.957Z" fill="#455A64"/>
<path d="M255.364 116.771H242.793V118.652H255.364V116.771Z" fill="#EBEBEB"/>
<path d="M255.364 125.439H242.793V127.321H255.364V125.439Z" fill="#EBEBEB"/>
<path d="M255.364 134.107H242.793V135.989H255.364V134.107Z" fill="#EBEBEB"/>
<path d="M143.766 81.1338H99.775V84.8844H143.766V81.1338Z" fill="#455A64"/>
<path d="M143.766 109.454H99.775V113.205H143.766V109.454Z" fill="#455A64"/>
<path d="M143.766 139.622H99.775V143.373H143.766V139.622Z" fill="#455A64"/>
<path d="M143.766 113.204H99.775V139.622H143.766V113.204Z" fill="#263238"/>
<path d="M143.379 113.62H100.161V121.802H143.379V113.62Z" fill="#455A64"/>
<path d="M143.379 122.289H100.161V130.471H143.379V122.289Z" fill="#455A64"/>
<path d="M143.379 130.957H100.161V139.139H143.379V130.957Z" fill="#455A64"/>
<path d="M128.058 116.771H115.487V118.652H128.058V116.771Z" fill="#EBEBEB"/>
<path d="M128.058 125.439H115.487V127.321H128.058V125.439Z" fill="#EBEBEB"/>
<path d="M128.058 134.107H115.487V135.989H128.058V134.107Z" fill="#EBEBEB"/>
<path d="M223.335 154.965H147.52V173.004H223.335V154.965Z" fill="#263238"/>
<path d="M185.136 155.582H148.142V163.764H185.136V155.582Z" fill="#455A64"/>
<path d="M170.663 158.732H162.62V160.614H170.663V158.732Z" fill="#EBEBEB"/>
<path d="M185.136 164.252H148.142V172.434H185.136V164.252Z" fill="#455A64"/>
<path d="M170.663 167.401H162.62V169.283H170.663V167.401Z" fill="#EBEBEB"/>
<path d="M222.709 164.252H185.716V172.434H222.709V164.252Z" fill="#455A64"/>
<path d="M208.232 167.401H200.189V169.283H208.232V167.401Z" fill="#EBEBEB"/>
<path d="M222.709 155.582H185.716V163.764H222.709V155.582Z" fill="#455A64"/>
<path d="M208.232 158.732H200.189V160.614H208.232V158.732Z" fill="#EBEBEB"/>
<path d="M134.879 109.441H105.097C104.48 109.441 103.889 109.197 103.453 108.761C103.017 108.326 102.771 107.735 102.77 107.119C102.77 106.502 103.015 105.91 103.451 105.473C103.888 105.037 104.48 104.792 105.097 104.792H134.879C135.495 104.793 136.086 105.039 136.522 105.475C136.957 105.911 137.202 106.502 137.202 107.119C137.2 107.734 136.955 108.325 136.52 108.76C136.085 109.195 135.495 109.44 134.879 109.441Z" fill="#263238"/>
<path d="M133.972 89.1133H109.717C108.183 89.1133 106.94 90.3562 106.94 91.8895V92.7295C106.94 94.2627 108.183 95.5057 109.717 95.5057H133.972C135.505 95.5057 136.748 94.2627 136.748 92.7295V91.8895C136.748 90.3562 135.505 89.1133 133.972 89.1133Z" fill="#263238"/>
<path d="M135.24 104.792H104.757C104.496 104.793 104.238 104.742 103.997 104.642C103.756 104.543 103.537 104.397 103.352 104.213C103.168 104.029 103.021 103.81 102.921 103.569C102.821 103.328 102.77 103.07 102.77 102.81C102.77 102.549 102.821 102.291 102.921 102.05C103.021 101.809 103.168 101.59 103.352 101.406C103.537 101.222 103.756 101.076 103.997 100.977C104.238 100.877 104.496 100.827 104.757 100.827H135.24C135.766 100.827 136.27 101.036 136.642 101.408C137.014 101.78 137.223 102.284 137.223 102.81C137.223 103.335 137.014 103.84 136.642 104.211C136.27 104.583 135.766 104.792 135.24 104.792Z" fill="#A6A6A6"/>
<path d="M133.262 89.1126H108.436C108.175 89.1126 107.917 89.0611 107.676 88.9613C107.435 88.8614 107.216 88.715 107.032 88.5304C106.848 88.3459 106.702 88.1269 106.603 87.8859C106.504 87.6449 106.453 87.3866 106.453 87.126C106.453 86.6002 106.662 86.096 107.034 85.7242C107.406 85.3524 107.91 85.1436 108.436 85.1436H133.262C133.788 85.1436 134.292 85.3524 134.664 85.7242C135.035 86.096 135.244 86.6002 135.244 87.126C135.245 87.3866 135.194 87.6449 135.094 87.8859C134.995 88.1269 134.849 88.3459 134.665 88.5304C134.481 88.715 134.262 88.8614 134.021 88.9613C133.781 89.0611 133.522 89.1126 133.262 89.1126Z" fill="white"/>
<path d="M134.324 100.827H105.651C105.298 100.827 104.959 100.687 104.709 100.437C104.46 100.187 104.32 99.8486 104.32 99.4955C104.32 99.1424 104.46 98.8037 104.709 98.554C104.959 98.3043 105.298 98.1641 105.651 98.1641H134.324C134.677 98.1641 135.016 98.3043 135.266 98.554C135.515 98.8037 135.656 99.1424 135.656 99.4955C135.656 99.8486 135.515 100.187 135.266 100.437C135.016 100.687 134.677 100.827 134.324 100.827Z" fill="#FF81AE"/>
<path d="M134.324 98.1638H105.651C105.298 98.1638 104.959 98.0235 104.709 97.7738C104.46 97.5241 104.32 97.1855 104.32 96.8324C104.32 96.4793 104.46 96.1406 104.709 95.8909C104.959 95.6412 105.298 95.501 105.651 95.501H134.324C134.677 95.501 135.016 95.6412 135.266 95.8909C135.515 96.1406 135.656 96.4793 135.656 96.8324C135.656 97.1855 135.515 97.5241 135.266 97.7738C135.016 98.0235 134.677 98.1638 134.324 98.1638Z" fill="#37474F"/>
<path d="M153.905 51.5273H106.025C105.719 51.5279 105.417 51.4682 105.134 51.3517C104.852 51.2353 104.596 51.0643 104.38 50.8485C104.163 50.6328 103.992 50.3766 103.875 50.0945C103.758 49.8125 103.698 49.5101 103.698 49.2047C103.698 48.5876 103.943 47.9958 104.379 47.5594C104.816 47.1231 105.407 46.8779 106.025 46.8779H153.905C154.522 46.8779 155.113 47.1231 155.55 47.5594C155.986 47.9958 156.231 48.5876 156.231 49.2047C156.231 49.5101 156.171 49.8125 156.054 50.0945C155.937 50.3766 155.766 50.6328 155.55 50.8485C155.333 51.0643 155.077 51.2353 154.795 51.3517C154.512 51.4682 154.21 51.5279 153.905 51.5273Z" fill="#A6A6A6"/>
<path d="M151.2 31.1992H108.835C107.302 31.1992 106.059 32.4422 106.059 33.9754V34.8154C106.059 36.3487 107.302 37.5916 108.835 37.5916H151.2C152.733 37.5916 153.976 36.3487 153.976 34.8154V33.9754C153.976 32.4422 152.733 31.1992 151.2 31.1992Z" fill="white"/>
<path d="M151.082 24.7646H108.717C107.183 24.7646 105.94 26.0076 105.94 27.5408V28.3808C105.94 29.9141 107.183 31.157 108.717 31.157H151.082C152.615 31.157 153.858 29.9141 153.858 28.3808V27.5408C153.858 26.0076 152.615 24.7646 151.082 24.7646Z" fill="white"/>
<path d="M114.601 31.1573C117.676 31.0691 120.75 31.0313 123.841 30.9977L133.06 30.9473L142.3 30.9935L146.92 31.0523L151.54 31.1573L146.92 31.2581L142.3 31.3169L133.06 31.3673L123.841 31.3169C120.75 31.2833 117.676 31.2455 114.601 31.1573Z" fill="#DBDBDB"/>
<path d="M154.249 46.8779H105.672C105.146 46.8779 104.642 46.669 104.27 46.2973C103.898 45.9255 103.69 45.4213 103.69 44.8955C103.69 44.3697 103.898 43.8655 104.27 43.4937C104.642 43.1219 105.146 42.9131 105.672 42.9131H154.249C154.775 42.9131 155.279 43.1219 155.651 43.4937C156.023 43.8655 156.232 44.3697 156.232 44.8955C156.232 45.4213 156.023 45.9255 155.651 46.2973C155.279 46.669 154.775 46.8779 154.249 46.8779Z" fill="#455A64"/>
<path d="M153.35 42.9138H106.571C106.396 42.9138 106.223 42.8793 106.061 42.8124C105.899 42.7455 105.753 42.6475 105.629 42.5238C105.505 42.4002 105.407 42.2534 105.34 42.0919C105.274 41.9303 105.239 41.7572 105.239 41.5824C105.239 41.2293 105.379 40.8906 105.629 40.6409C105.879 40.3912 106.217 40.251 106.571 40.251H153.35C153.703 40.251 154.042 40.3912 154.292 40.6409C154.541 40.8906 154.682 41.2293 154.682 41.5824C154.682 41.7572 154.647 41.9303 154.58 42.0919C154.513 42.2534 154.415 42.4002 154.292 42.5238C154.168 42.6475 154.021 42.7455 153.86 42.8124C153.698 42.8793 153.525 42.9138 153.35 42.9138Z" fill="#FF81AE"/>
<path d="M153.35 40.2507H106.571C106.217 40.2507 105.879 40.1104 105.629 39.8607C105.379 39.611 105.239 39.2724 105.239 38.9193C105.239 38.5662 105.379 38.2275 105.629 37.9778C105.879 37.7282 106.217 37.5879 106.571 37.5879H153.35C153.703 37.5879 154.042 37.7282 154.292 37.9778C154.541 38.2275 154.682 38.5662 154.682 38.9193C154.682 39.2724 154.541 39.611 154.292 39.8607C154.042 40.1104 153.703 40.2507 153.35 40.2507Z" fill="#37474F"/>
<path d="M264.558 103.237H235.108C233.751 103.237 232.651 104.337 232.651 105.694V106.992C232.651 108.349 233.751 109.449 235.108 109.449H264.558C265.915 109.449 267.015 108.349 267.015 106.992V105.694C267.015 104.337 265.915 103.237 264.558 103.237Z" fill="#263238"/>
<path d="M264.365 103.238H235.301C234.953 103.238 234.608 103.17 234.286 103.037C233.964 102.904 233.672 102.709 233.426 102.463C233.18 102.217 232.984 101.924 232.851 101.603C232.719 101.281 232.65 100.936 232.651 100.588C232.651 99.8848 232.93 99.2107 233.427 98.7137C233.924 98.2167 234.598 97.9375 235.301 97.9375H264.365C265.068 97.9375 265.742 98.2167 266.239 98.7137C266.736 99.2107 267.015 99.8848 267.015 100.588C267.016 100.936 266.948 101.281 266.815 101.603C266.682 101.924 266.487 102.217 266.24 102.463C265.994 102.709 265.702 102.904 265.38 103.037C265.058 103.17 264.713 103.238 264.365 103.238Z" fill="#FF81AE"/>
<path d="M262.143 90.8268H239.946C239.243 90.8257 238.57 90.5461 238.073 90.0493C237.576 89.5525 237.297 88.8791 237.295 88.1766C237.297 87.474 237.576 86.8006 238.073 86.3038C238.57 85.807 239.243 85.5275 239.946 85.5264H262.143C262.846 85.5264 263.52 85.8056 264.017 86.3026C264.514 86.7996 264.793 87.4737 264.793 88.1766C264.793 88.8794 264.514 89.5535 264.017 90.0505C263.52 90.5475 262.846 90.8268 262.143 90.8268Z" fill="#37474F"/>
<path d="M263.693 97.937H235.973C235.502 97.937 235.05 97.7498 234.717 97.4166C234.384 97.0835 234.196 96.6316 234.196 96.1604C234.196 95.6892 234.384 95.2373 234.717 94.9041C235.05 94.571 235.502 94.3838 235.973 94.3838H263.693C264.164 94.3838 264.616 94.571 264.949 94.9041C265.282 95.2373 265.47 95.6892 265.47 96.1604C265.47 96.6316 265.282 97.0835 264.949 97.4166C264.616 97.7498 264.164 97.937 263.693 97.937Z" fill="#455A64"/>
<path d="M263.693 94.3845H235.973C235.739 94.3845 235.508 94.3385 235.292 94.2489C235.076 94.1594 234.88 94.0281 234.715 93.8627C234.55 93.6973 234.419 93.5009 234.33 93.2849C234.241 93.0689 234.196 92.8374 234.196 92.6037C234.196 92.1326 234.384 91.6807 234.717 91.3475C235.05 91.0143 235.502 90.8271 235.973 90.8271H263.693C264.164 90.8271 264.616 91.0143 264.949 91.3475C265.282 91.6807 265.47 92.1326 265.47 92.6037C265.47 92.8374 265.425 93.0689 265.336 93.2849C265.247 93.5009 265.116 93.6973 264.951 93.8627C264.786 94.0281 264.59 94.1594 264.374 94.2489C264.158 94.3385 263.927 94.3845 263.693 94.3845Z" fill="white"/>
<path d="M227.64 28.2393H195.069V51.5325H227.64V28.2393Z" fill="#FF81AE"/>
<path opacity="0.1" d="M227.64 28.2393H195.069V34.3881H227.64V28.2393Z" fill="black"/>
<path d="M229.294 26.6211H193.41V31.3125H229.294V26.6211Z" fill="#FF81AE"/>
<path d="M215.414 33.707H207.295V35.9666H215.414V33.707Z" fill="#263238"/>
<path d="M264.466 28.2393H231.895V51.5325H264.466V28.2393Z" fill="#FF81AE"/>
<path opacity="0.1" d="M264.466 28.2393H231.895V34.3881H264.466V28.2393Z" fill="black"/>
<path d="M266.121 26.6211H230.236V31.3125H266.121V26.6211Z" fill="#FF81AE"/>
<path d="M252.239 33.707H244.12V35.9666H252.239V33.707Z" fill="#263238"/>
<path d="M268.8 172.622C267.763 172.979 238.035 173.26 236.88 172.555C236.46 172.29 235.864 167.96 235.658 162.718L255.108 162.487C255.108 162.487 266.541 167.469 267.708 168.367C268.876 169.266 269.85 172.248 268.8 172.622Z" fill="#FF81AE"/>
<path d="M268.38 171.421C263.399 171.346 243.285 171.514 238.354 171.82C238.312 171.82 238.312 171.85 238.354 171.85C243.293 172.03 263.403 171.699 268.384 171.501C268.485 171.497 268.481 171.421 268.38 171.421Z" fill="#263238"/>
<path d="M265.818 167.309C265.262 167.302 264.712 167.41 264.201 167.627C263.689 167.844 263.229 168.165 262.848 168.569C262.155 169.286 261.765 170.243 261.76 171.24C261.76 171.27 261.815 171.27 261.819 171.24C261.978 170.251 262.453 169.34 263.174 168.644C263.896 167.949 264.823 167.507 265.818 167.385C265.823 167.385 265.828 167.384 265.832 167.382C265.837 167.38 265.841 167.377 265.844 167.373C265.848 167.37 265.851 167.366 265.853 167.361C265.854 167.357 265.855 167.352 265.855 167.347C265.855 167.342 265.854 167.337 265.853 167.332C265.851 167.328 265.848 167.324 265.844 167.32C265.841 167.316 265.837 167.314 265.832 167.312C265.828 167.31 265.823 167.309 265.818 167.309Z" fill="#263238"/>
<path d="M257.082 162.962C255.087 162.962 252.781 163.676 251.554 165.322C251.508 165.385 251.601 165.453 251.659 165.419C253.396 164.489 255.226 163.747 257.119 163.206C257.146 163.195 257.169 163.176 257.184 163.151C257.198 163.126 257.204 163.097 257.199 163.068C257.195 163.04 257.181 163.014 257.159 162.994C257.138 162.975 257.11 162.964 257.082 162.962Z" fill="#263238"/>
<path d="M258.628 163.533C256.633 163.533 254.327 164.251 253.101 165.894C253.054 165.957 253.147 166.024 253.206 165.994C254.941 165.061 256.771 164.317 258.666 163.777C258.693 163.767 258.715 163.747 258.73 163.722C258.744 163.697 258.75 163.668 258.745 163.64C258.741 163.611 258.727 163.585 258.706 163.566C258.684 163.546 258.657 163.535 258.628 163.533Z" fill="#263238"/>
<path d="M260.173 164.117C258.178 164.117 255.873 164.836 254.646 166.478C254.6 166.545 254.692 166.608 254.751 166.579C256.487 165.648 258.317 164.906 260.211 164.365C260.241 164.357 260.267 164.339 260.285 164.313C260.302 164.286 260.309 164.255 260.304 164.224C260.299 164.193 260.283 164.165 260.259 164.146C260.235 164.126 260.204 164.116 260.173 164.117Z" fill="#263238"/>
<path d="M261.719 164.705C259.724 164.705 257.418 165.423 256.192 167.065C256.145 167.128 256.238 167.196 256.297 167.162C258.032 166.232 259.863 165.49 261.757 164.949C261.784 164.938 261.806 164.919 261.821 164.894C261.835 164.869 261.841 164.84 261.836 164.812C261.832 164.783 261.818 164.757 261.796 164.738C261.775 164.718 261.748 164.707 261.719 164.705Z" fill="#263238"/>
<path d="M239.572 167.073C237.338 167.099 237.376 170.576 239.619 170.551C241.861 170.526 241.815 167.044 239.572 167.073Z" fill="white"/>
<path d="M259.186 157.603C258.17 156.763 256.906 157.603 256.288 158.481C255.263 160.004 254.655 161.769 254.524 163.6C254.524 163.608 254.526 163.616 254.529 163.623C254.533 163.631 254.537 163.637 254.543 163.642C254.549 163.648 254.556 163.651 254.564 163.654C254.572 163.656 254.58 163.656 254.587 163.655C254.595 163.693 254.612 163.728 254.637 163.758C254.661 163.788 254.692 163.812 254.727 163.827C254.763 163.843 254.801 163.85 254.839 163.848C254.878 163.845 254.915 163.834 254.949 163.815C256.36 162.819 257.989 161.929 259.056 160.53C259.674 159.711 260.148 158.388 259.186 157.603ZM256.78 161.866C256.095 162.374 255.394 162.844 254.73 163.374C255.079 162.378 255.381 161.37 255.826 160.408C256.035 159.942 256.275 159.49 256.545 159.056C256.965 158.392 258.913 156.708 259.132 158.875C259.254 160.072 257.59 161.282 256.78 161.866Z" fill="#263238"/>
<path d="M249.576 164.386C251.315 164.638 253.104 164.126 254.805 163.844C254.842 163.835 254.877 163.817 254.906 163.791C254.935 163.766 254.957 163.734 254.972 163.699C254.986 163.663 254.992 163.625 254.988 163.586C254.985 163.548 254.973 163.511 254.952 163.479C254.959 163.474 254.965 163.468 254.969 163.461C254.973 163.453 254.975 163.445 254.975 163.437C254.975 163.428 254.973 163.42 254.969 163.413C254.965 163.406 254.959 163.399 254.952 163.395C253.577 162.18 251.905 161.35 250.105 160.988C249.051 160.795 247.585 161.093 247.426 162.395C247.296 163.63 248.56 164.222 249.576 164.386ZM248.362 163.265C246.997 161.564 249.564 161.404 250.332 161.585C250.829 161.702 251.316 161.857 251.79 162.047C252.766 162.444 253.723 162.892 254.654 163.386C253.814 163.475 252.974 163.634 252.134 163.752C251.134 163.882 249.114 164.222 248.362 163.265Z" fill="#263238"/>
<path opacity="0.2" d="M268.8 172.622C267.771 172.984 238.039 173.269 236.88 172.559C236.46 172.295 235.868 167.965 235.662 162.723L253.437 162.509L269.224 171.589C269.279 172.085 269.153 172.484 268.8 172.622Z" fill="black"/>
<path d="M263.424 172.622C262.391 172.979 232.663 173.26 231.504 172.555C231.084 172.29 230.488 167.96 230.282 162.718L249.736 162.487C249.736 162.487 261.164 167.469 262.336 168.367C263.508 169.266 264.457 172.248 263.424 172.622Z" fill="#FF81AE"/>
<path d="M262.987 171.421C258.002 171.346 237.892 171.514 232.957 171.82C232.92 171.82 232.92 171.85 232.957 171.85C237.897 172.03 258.006 171.699 262.987 171.501C263.092 171.497 263.092 171.421 262.987 171.421Z" fill="#263238"/>
<path d="M260.429 167.309C259.874 167.301 259.323 167.409 258.812 167.626C258.3 167.843 257.84 168.164 257.46 168.569C256.767 169.286 256.376 170.243 256.368 171.24C256.368 171.27 256.427 171.27 256.431 171.24C256.589 170.251 257.065 169.34 257.786 168.644C258.507 167.949 259.435 167.507 260.429 167.385C260.467 167.368 260.467 167.309 260.429 167.309Z" fill="#263238"/>
<path d="M251.689 162.962C249.694 162.962 247.388 163.676 246.166 165.322C246.116 165.385 246.208 165.453 246.267 165.419C248.003 164.489 249.833 163.747 251.727 163.206C251.754 163.195 251.777 163.176 251.791 163.151C251.806 163.126 251.811 163.097 251.807 163.068C251.802 163.04 251.788 163.014 251.767 162.994C251.745 162.975 251.718 162.964 251.689 162.962Z" fill="#263238"/>
<path d="M253.235 163.533C251.24 163.533 248.934 164.251 247.712 165.894C247.661 165.957 247.754 166.024 247.812 165.994C249.547 165.061 251.378 164.318 253.272 163.777C253.299 163.767 253.322 163.747 253.337 163.722C253.351 163.697 253.357 163.668 253.352 163.64C253.348 163.611 253.334 163.585 253.312 163.566C253.291 163.546 253.263 163.535 253.235 163.533Z" fill="#263238"/>
<path d="M254.78 164.117C252.785 164.117 250.479 164.836 249.257 166.478C249.207 166.545 249.299 166.608 249.358 166.579C251.094 165.648 252.924 164.906 254.818 164.365C254.848 164.357 254.874 164.339 254.891 164.313C254.909 164.286 254.915 164.255 254.911 164.224C254.906 164.193 254.89 164.165 254.866 164.146C254.842 164.126 254.811 164.116 254.78 164.117Z" fill="#263238"/>
<path d="M256.326 164.705C254.331 164.705 252.026 165.423 250.803 167.065C250.753 167.128 250.845 167.196 250.904 167.162C252.64 166.232 254.47 165.49 256.364 164.949C256.391 164.938 256.414 164.919 256.428 164.894C256.443 164.869 256.448 164.84 256.444 164.812C256.439 164.783 256.425 164.757 256.404 164.738C256.383 164.718 256.355 164.707 256.326 164.705Z" fill="#263238"/>
<path d="M234.183 167.073C231.945 167.099 231.983 170.576 234.225 170.551C236.468 170.526 236.422 167.044 234.183 167.073Z" fill="white"/>
<path d="M253.794 157.603C252.777 156.763 251.513 157.603 250.9 158.481C249.872 160.003 249.264 161.768 249.136 163.6C249.136 163.642 249.165 163.659 249.199 163.655C249.207 163.693 249.224 163.728 249.248 163.758C249.272 163.788 249.303 163.812 249.339 163.827C249.374 163.843 249.412 163.85 249.451 163.848C249.489 163.845 249.527 163.834 249.56 163.815C250.967 162.819 252.601 161.929 253.663 160.53C254.285 159.711 254.755 158.388 253.794 157.603ZM251.387 161.866C250.707 162.374 250.005 162.844 249.342 163.374C249.655 162.367 250.021 161.377 250.438 160.408C250.645 159.942 250.883 159.49 251.152 159.056C251.572 158.392 253.521 156.708 253.739 158.875C253.861 160.072 252.202 161.282 251.387 161.866Z" fill="#263238"/>
<path d="M244.188 164.386C245.926 164.638 247.711 164.126 249.417 163.844C249.454 163.835 249.489 163.817 249.518 163.792C249.547 163.766 249.569 163.734 249.583 163.699C249.597 163.663 249.602 163.624 249.598 163.586C249.594 163.548 249.581 163.511 249.559 163.479C249.565 163.474 249.57 163.467 249.574 163.46C249.577 163.453 249.579 163.445 249.579 163.437C249.579 163.429 249.577 163.421 249.574 163.414C249.57 163.406 249.565 163.4 249.559 163.395C248.182 162.181 246.509 161.351 244.708 160.988C243.658 160.795 242.188 161.093 242.029 162.395C241.92 163.63 243.18 164.222 244.188 164.386ZM242.97 163.265C241.605 161.564 244.171 161.404 244.939 161.585C245.437 161.703 245.926 161.857 246.401 162.047C247.376 162.444 248.331 162.892 249.261 163.386C248.421 163.475 247.581 163.634 246.741 163.752C245.742 163.882 243.726 164.222 242.97 163.265Z" fill="#263238"/>
<path d="M142.926 172.773C141.885 173.121 112.077 173.13 110.939 172.411C110.414 172.08 110.149 165.742 110.011 159.047L129.402 158.988L129.314 162.483C129.314 162.483 140.725 167.586 141.889 168.51C143.052 169.434 143.968 172.424 142.926 172.773Z" fill="#FF81AE"/>
<path opacity="0.2" d="M138.965 172.946C130.565 173.093 111.837 172.979 110.938 172.412C110.413 172.085 110.145 165.738 110.006 159.048L123.118 159.006L138.965 172.946Z" fill="black"/>
<path d="M142.497 171.58C137.504 171.459 117.335 171.442 112.388 171.702C112.346 171.702 112.346 171.732 112.388 171.732C117.339 171.963 137.504 171.816 142.497 171.664C142.607 171.66 142.602 171.585 142.497 171.58Z" fill="#263238"/>
<path d="M130.015 161.375C128.049 161.009 125.647 161.312 124.135 162.714C124.076 162.765 124.156 162.849 124.219 162.828C126.098 162.221 128.037 161.817 130.002 161.622C130.032 161.619 130.059 161.605 130.079 161.583C130.099 161.561 130.111 161.533 130.113 161.504C130.114 161.474 130.105 161.445 130.087 161.421C130.069 161.398 130.044 161.381 130.015 161.375Z" fill="#263238"/>
<path d="M131.435 162.231C129.469 161.862 127.067 162.164 125.555 163.567C125.496 163.622 125.576 163.706 125.639 163.685C127.518 163.076 129.457 162.671 131.422 162.479C131.452 162.476 131.479 162.462 131.499 162.44C131.519 162.418 131.531 162.39 131.533 162.361C131.534 162.331 131.525 162.302 131.507 162.278C131.489 162.255 131.464 162.238 131.435 162.231Z" fill="#263238"/>
<path d="M132.854 163.084C130.889 162.718 128.486 163.021 126.974 164.423C126.915 164.478 126.995 164.558 127.058 164.537C128.938 163.932 130.877 163.528 132.842 163.331C132.871 163.328 132.898 163.314 132.918 163.292C132.938 163.27 132.95 163.242 132.952 163.213C132.953 163.183 132.944 163.154 132.926 163.13C132.909 163.107 132.883 163.09 132.854 163.084Z" fill="#263238"/>
<path d="M134.274 163.941C132.308 163.576 129.906 163.878 128.394 165.277C128.335 165.331 128.394 165.415 128.478 165.394C130.356 164.788 132.293 164.383 134.257 164.189C134.287 164.186 134.314 164.172 134.335 164.151C134.356 164.13 134.368 164.102 134.37 164.072C134.372 164.042 134.364 164.013 134.346 163.989C134.328 163.965 134.303 163.948 134.274 163.941Z" fill="#263238"/>
<path d="M133.648 156.826C132.876 155.763 131.435 156.242 130.616 156.931C129.228 158.141 128.183 159.695 127.588 161.438C127.588 161.475 127.588 161.501 127.634 161.509C127.632 161.547 127.64 161.586 127.656 161.621C127.672 161.656 127.697 161.686 127.727 161.71C127.757 161.734 127.793 161.75 127.831 161.758C127.869 161.765 127.908 161.763 127.945 161.753C129.566 161.152 131.376 160.711 132.766 159.627C133.56 158.997 134.4 157.834 133.648 156.826ZM130.2 160.337C129.411 160.652 128.608 160.929 127.827 161.274C128.392 160.379 129.002 159.512 129.654 158.678C129.977 158.281 130.325 157.905 130.696 157.553C131.28 157.019 133.598 155.873 133.249 158.044C133.077 159.233 131.162 159.963 130.2 160.337Z" fill="#263238"/>
<path d="M122.589 160.924C124.21 161.613 126.075 161.58 127.797 161.764C127.974 161.764 128.066 161.596 128.032 161.449C128.04 161.447 128.048 161.443 128.054 161.437C128.059 161.431 128.064 161.424 128.066 161.416C128.069 161.408 128.069 161.4 128.068 161.392C128.066 161.384 128.063 161.376 128.058 161.37C127.035 159.84 125.629 158.604 123.979 157.787C123.009 157.333 121.497 157.237 121.039 158.463C120.573 159.601 121.644 160.521 122.589 160.924ZM121.703 159.522C120.817 157.527 123.345 158.026 124.047 158.392C124.497 158.642 124.929 158.922 125.34 159.232C126.183 159.871 126.994 160.552 127.768 161.273C126.928 161.139 126.088 161.08 125.248 160.975C124.227 160.836 122.19 160.622 121.703 159.522Z" fill="#263238"/>
<path d="M133.896 172.773C132.855 173.121 103.047 173.13 101.909 172.411C101.384 172.08 101.119 165.742 100.981 159.047L120.372 158.988L120.284 162.483C120.284 162.483 131.7 167.586 132.859 168.51C134.018 169.434 134.938 172.424 133.896 172.773Z" fill="#FF81AE"/>
<path d="M133.467 171.58C128.474 171.459 108.305 171.442 103.358 171.702C103.316 171.702 103.316 171.732 103.358 171.732C108.309 171.963 128.474 171.816 133.472 171.664C133.56 171.66 133.56 171.585 133.467 171.58Z" fill="#263238"/>
<path d="M120.985 161.375C119.019 161.009 116.617 161.312 115.105 162.714C115.046 162.765 115.126 162.849 115.189 162.828C117.068 162.221 119.007 161.817 120.972 161.622C121.002 161.619 121.029 161.605 121.049 161.583C121.069 161.561 121.081 161.533 121.083 161.504C121.084 161.474 121.075 161.445 121.057 161.421C121.039 161.398 121.014 161.381 120.985 161.375Z" fill="#263238"/>
<path d="M122.405 162.231C120.439 161.862 118.037 162.164 116.525 163.567C116.466 163.622 116.546 163.706 116.609 163.685C118.488 163.076 120.427 162.671 122.392 162.479C122.422 162.476 122.449 162.462 122.469 162.44C122.489 162.418 122.501 162.39 122.503 162.361C122.504 162.331 122.495 162.302 122.477 162.278C122.459 162.255 122.434 162.238 122.405 162.231Z" fill="#263238"/>
<path d="M123.824 163.084C121.859 162.718 119.456 163.021 117.944 164.423C117.885 164.478 117.965 164.558 118.028 164.537C119.908 163.932 121.847 163.528 123.812 163.331C123.841 163.328 123.868 163.314 123.888 163.292C123.908 163.27 123.92 163.242 123.922 163.213C123.923 163.183 123.914 163.154 123.896 163.13C123.879 163.107 123.853 163.09 123.824 163.084Z" fill="#263238"/>
<path d="M125.244 163.941C123.278 163.576 120.876 163.878 119.364 165.277C119.305 165.331 119.364 165.415 119.448 165.394C121.327 164.787 123.266 164.383 125.231 164.189C125.261 164.185 125.288 164.171 125.308 164.15C125.328 164.128 125.34 164.1 125.342 164.07C125.343 164.041 125.334 164.011 125.316 163.988C125.298 163.964 125.273 163.948 125.244 163.941Z" fill="#263238"/>
<path d="M124.618 156.826C123.845 155.763 122.405 156.242 121.586 156.931C120.199 158.142 119.155 159.696 118.558 161.438C118.558 161.475 118.558 161.501 118.604 161.509C118.604 161.656 118.747 161.816 118.915 161.753C120.536 161.152 122.346 160.711 123.736 159.627C124.551 158.997 125.349 157.834 124.618 156.826ZM121.187 160.337C120.397 160.652 119.595 160.929 118.814 161.274C119.41 160.396 119.96 159.497 120.641 158.678C120.964 158.281 121.312 157.905 121.682 157.553C122.266 157.019 124.585 155.873 124.236 158.044C124.047 159.233 122.132 159.963 121.187 160.337Z" fill="#263238"/>
<path d="M113.559 160.924C115.18 161.613 117.045 161.58 118.767 161.764C118.948 161.764 119.036 161.596 119.002 161.449C119.01 161.447 119.018 161.443 119.024 161.437C119.029 161.431 119.034 161.424 119.036 161.416C119.039 161.408 119.039 161.4 119.038 161.392C119.036 161.384 119.033 161.376 119.028 161.37C118.005 159.84 116.599 158.604 114.949 157.787C113.979 157.333 112.467 157.237 112.009 158.463C111.543 159.601 112.614 160.521 113.559 160.924ZM112.673 159.522C111.787 157.527 114.315 158.026 115.017 158.392C115.467 158.642 115.899 158.922 116.31 159.232C117.153 159.871 117.964 160.552 118.738 161.273C117.898 161.139 117.058 161.08 116.218 160.975C115.197 160.836 113.16 160.622 112.673 159.522Z" fill="#263238"/>
<path d="M152.292 63.1533H151.734V68.0715H152.292V63.1533Z" fill="#263238"/>
<path d="M153.653 69.4528H150.377L150.826 68.0752H153.199L153.653 69.4528Z" fill="#FF81AE"/>
<path d="M150.36 69.209H153.644C154.008 69.209 154.358 69.3537 154.615 69.6112C154.873 69.8688 155.017 70.2181 155.017 70.5824V137.127H148.995V70.5614C149 70.2022 149.146 69.8595 149.401 69.6067C149.656 69.3539 150 69.2111 150.36 69.209Z" fill="#455A64"/>
<path d="M149.78 81.0615L149.851 91.6119L149.881 102.167L149.931 123.272L149.78 123.12H154.249L154.093 123.272L154.144 102.167L154.173 91.6119L154.249 81.0615L154.32 91.6119L154.35 102.167L154.4 123.272V123.427H154.249H149.78H149.625V123.272L149.675 102.167L149.704 91.6119L149.78 81.0615Z" fill="#263238"/>
<path d="M159.369 63.1533H158.81V68.0715H159.369V63.1533Z" fill="#263238"/>
<path d="M160.726 69.4528H157.45L157.903 68.0752H160.272L160.726 69.4528Z" fill="#FF81AE"/>
<path d="M157.446 69.2091H160.73C161.094 69.2046 161.444 69.3444 161.705 69.598C161.965 69.8515 162.115 70.198 162.12 70.5615V123.523H156.072V70.5615C156.078 70.2009 156.225 69.8569 156.482 69.6039C156.739 69.3509 157.085 69.209 157.446 69.2091Z" fill="#A6A6A6"/>
<path d="M156.854 81.0615C156.904 85.8327 156.95 90.6039 156.967 95.3751L157.005 109.689L156.854 109.538H161.322L161.167 109.689L161.209 95.3751C161.209 90.6039 161.272 85.8327 161.322 81.0615C161.373 85.8327 161.419 90.6039 161.436 95.3751L161.478 109.689V109.844H156.698V109.689L156.736 95.3751C156.757 90.6039 156.803 85.8327 156.854 81.0615Z" fill="#263238"/>
<path d="M166.442 63.1533H165.883V68.0715H166.442V63.1533Z" fill="#263238"/>
<path d="M167.798 69.4528H164.522L164.976 68.0752H167.349L167.798 69.4528Z" fill="#FF81AE"/>
<path d="M164.518 69.209H167.803C168.167 69.209 168.516 69.3537 168.774 69.6112C169.031 69.8688 169.176 70.2181 169.176 70.5824V128.072H163.145V70.5614C163.15 70.2008 163.298 69.8568 163.555 69.6038C163.812 69.3508 164.158 69.2089 164.518 69.209Z" fill="#FF81AE"/>
<path opacity="0.2" d="M164.518 69.209H167.803C168.167 69.209 168.516 69.3537 168.774 69.6112C169.031 69.8688 169.176 70.2181 169.176 70.5824V128.072H163.145V70.5614C163.15 70.2008 163.298 69.8568 163.555 69.6038C163.812 69.3508 164.158 69.2089 164.518 69.209Z" fill="black"/>
<path opacity="0.2" d="M163.926 75.9844C163.968 76.8244 163.985 77.6644 164.014 78.5044C164.043 79.3444 164.048 80.1844 164.069 81.0244C164.09 81.8644 164.106 82.7044 164.106 83.5444V86.0644L163.909 85.867H166.143H168.378L168.185 86.0644V83.5444C168.185 82.7044 168.214 81.8644 168.227 81.0244C168.239 80.1844 168.252 79.3444 168.281 78.5044C168.311 77.6644 168.327 76.8244 168.365 75.9844C168.407 76.8244 168.424 77.6644 168.453 78.5044C168.483 79.3444 168.487 80.1844 168.508 81.0244C168.529 81.8644 168.546 82.7044 168.546 83.5444V86.0644V86.2576H168.348H166.114H163.88H163.682V86.0644V83.5444C163.682 82.7044 163.712 81.8644 163.724 81.0244C163.737 80.1844 163.749 79.3444 163.779 78.5044C163.808 77.6644 163.888 76.8328 163.926 75.9844Z" fill="black"/>
<path d="M173.515 63.1533H172.956V68.0715H173.515V63.1533Z" fill="#263238"/>
<path d="M174.875 69.4528H171.599L172.049 68.0752H174.422L174.875 69.4528Z" fill="#FF81AE"/>
<path d="M171.595 69.209H174.88C175.244 69.209 175.593 69.3537 175.851 69.6112C176.108 69.8688 176.253 70.2181 176.253 70.5824V132.6H170.222V70.5614C170.227 70.2008 170.374 69.8568 170.631 69.6038C170.888 69.3508 171.235 69.2089 171.595 69.209Z" fill="#455A64"/>
<path d="M176.253 70.6924V71.0158H170.222V70.6924C170.217 70.6505 170.217 70.6083 170.222 70.5664H176.232C176.245 70.6071 176.253 70.6496 176.253 70.6924Z" fill="#37474F"/>
<path d="M176.253 72.4482H170.222V72.9018H176.253V72.4482Z" fill="#37474F"/>
<path d="M176.253 74.3291H170.222V74.7827H176.253V74.3291Z" fill="#37474F"/>
<path d="M176.253 76.2109H170.222V76.6645H176.253V76.2109Z" fill="#37474F"/>
<path d="M176.253 78.0928H170.222V78.5464H176.253V78.0928Z" fill="#37474F"/>
<path d="M176.253 79.9785H170.222V80.4321H176.253V79.9785Z" fill="#37474F"/>
<path d="M176.253 81.8564H170.222V82.31H176.253V81.8564Z" fill="#37474F"/>
<path d="M176.253 83.7373H170.222V84.1909H176.253V83.7373Z" fill="#37474F"/>
<path d="M176.253 85.623H170.222V86.0766H176.253V85.623Z" fill="#37474F"/>
<path d="M176.253 87.501H170.222V87.9546H176.253V87.501Z" fill="#37474F"/>
<path d="M176.253 89.3867H170.222V89.8403H176.253V89.3867Z" fill="#37474F"/>
<path d="M176.253 91.2676H170.222V91.7212H176.253V91.2676Z" fill="#37474F"/>
<path d="M176.253 93.1455H170.222V93.5991H176.253V93.1455Z" fill="#37474F"/>
<path d="M176.253 95.0312H170.222V95.4849H176.253V95.0312Z" fill="#37474F"/>
<path d="M176.253 96.9131H170.222V97.3667H176.253V96.9131Z" fill="#37474F"/>
<path d="M176.253 98.7939H170.222V99.2475H176.253V98.7939Z" fill="#37474F"/>
<path d="M176.253 100.676H170.222V101.129H176.253V100.676Z" fill="#37474F"/>
<path d="M176.253 102.562H170.222V103.015H176.253V102.562Z" fill="#37474F"/>
<path d="M176.253 104.443H170.222V104.897H176.253V104.443Z" fill="#37474F"/>
<path d="M176.253 106.321H170.222V106.775H176.253V106.321Z" fill="#37474F"/>
<path d="M176.253 108.206H170.222V108.66H176.253V108.206Z" fill="#37474F"/>
<path d="M176.253 110.088H170.222V110.541H176.253V110.088Z" fill="#37474F"/>
<path d="M176.253 111.966H170.222V112.419H176.253V111.966Z" fill="#37474F"/>
<path d="M176.253 113.852H170.222V114.305H176.253V113.852Z" fill="#37474F"/>
<path d="M176.253 115.732H170.222V116.186H176.253V115.732Z" fill="#37474F"/>
<path d="M176.253 117.614H170.222V118.068H176.253V117.614Z" fill="#37474F"/>
<path d="M176.253 119.496H170.222V119.95H176.253V119.496Z" fill="#37474F"/>
<path d="M176.253 121.382H170.222V121.835H176.253V121.382Z" fill="#37474F"/>
<path d="M176.253 123.259H170.222V123.712H176.253V123.259Z" fill="#37474F"/>
<path d="M176.253 125.141H170.222V125.594H176.253V125.141Z" fill="#37474F"/>
<path d="M176.253 127.026H170.222V127.48H176.253V127.026Z" fill="#37474F"/>
<path d="M176.253 128.904H170.222V129.358H176.253V128.904Z" fill="#37474F"/>
<path d="M176.253 130.79H170.222V131.244H176.253V130.79Z" fill="#37474F"/>
<path d="M171.003 81.0615L171.074 90.4821L171.104 99.9027L171.154 118.744L171.003 118.593H175.472L175.321 118.744L175.371 99.9027L175.396 90.4821L175.472 81.0615L175.543 90.4821L175.573 99.9027L175.623 118.744V118.895H175.472H171.003H170.852V118.744L170.902 99.9027L170.932 90.4821L171.003 81.0615Z" fill="#263238"/>
<path d="M180.591 63.1533H180.033V68.0715H180.591V63.1533Z" fill="#263238"/>
<path d="M181.948 69.4528H178.672L179.125 68.0752H181.494L181.948 69.4528Z" fill="#FF81AE"/>
<path d="M178.668 69.209H181.952C182.317 69.209 182.666 69.3537 182.923 69.6112C183.181 69.8688 183.326 70.2181 183.326 70.5824V137.127H177.295V70.5614C177.3 70.2008 177.447 69.8568 177.704 69.6038C177.961 69.3508 178.307 69.2089 178.668 69.209Z" fill="#C7C7C7"/>
<path d="M178.076 77.6846L178.147 88.2392L178.177 98.7938L178.227 119.899L178.076 119.748H182.545L182.393 119.899L182.444 98.7938L182.473 88.2392L182.545 77.6846L182.62 88.2392L182.645 98.7938L182.696 119.899L182.7 120.05H182.545H178.076H177.925V119.899L177.975 98.7938L178.004 88.2392L178.076 77.6846Z" fill="#A6A6A6"/>
<path d="M191.377 63.1533H190.818V68.0715H191.377V63.1533Z" fill="#263238"/>
<path d="M192.738 69.4528H189.462L189.916 68.0752H192.285L192.738 69.4528Z" fill="#FF81AE"/>
<path d="M189.458 69.209H192.742C193.106 69.209 193.455 69.3537 193.713 69.6112C193.971 69.8688 194.115 70.2181 194.115 70.5824V118.807H188.084V70.5614C188.09 70.2008 188.237 69.8568 188.494 69.6038C188.751 69.3508 189.097 69.2089 189.458 69.209Z" fill="#263238"/>
<path d="M188.865 81.0615C188.916 85.0431 188.954 89.0247 188.979 93.0063C189.012 96.9879 189.004 100.986 189.017 104.951L188.865 104.8H193.334L193.179 104.951L193.221 93.0063C193.221 89.0247 193.284 85.0263 193.334 81.0615C193.385 85.0431 193.422 89.0247 193.448 93.0063L193.485 104.951V105.107H188.71V104.955C188.71 100.974 188.71 96.9753 188.752 93.0105C188.794 89.0457 188.815 85.0431 188.865 81.0615Z" fill="#A6A6A6"/>
<path d="M198.454 63.1533H197.896V68.0715H198.454V63.1533Z" fill="#263238"/>
<path d="M199.811 69.4528H196.535L196.989 68.0752H199.357L199.811 69.4528Z" fill="#FF81AE"/>
<path d="M196.53 69.209H199.815C200.174 69.2111 200.518 69.3539 200.773 69.6067C201.028 69.8595 201.174 70.2022 201.18 70.5614V128.727H195.157V70.5614C195.162 70.2008 195.309 69.8568 195.566 69.6038C195.823 69.3508 196.17 69.2089 196.53 69.209Z" fill="#FF81AE"/>
<path opacity="0.6" d="M196.53 69.209H199.815C200.174 69.2111 200.518 69.3539 200.773 69.6067C201.028 69.8595 201.174 70.2022 201.18 70.5614V128.727H195.157V70.5614C195.162 70.2008 195.309 69.8568 195.566 69.6038C195.823 69.3508 196.17 69.2089 196.53 69.209Z" fill="white"/>
<path d="M195.938 81.0615L196.009 89.5119L196.039 97.9665L196.089 114.876L195.938 114.725H200.407L200.256 114.876L200.306 97.9665L200.335 89.5119L200.407 81.0615L200.478 89.5119L200.508 97.9665L200.558 114.876V115.027H200.407H195.938H195.787V114.876L195.837 97.9665L195.867 89.5119L195.938 81.0615Z" fill="#FF81AE"/>
<path d="M205.527 63.1533H204.969V68.0715H205.527V63.1533Z" fill="#263238"/>
<path d="M206.888 69.4528H203.608L204.061 68.0752H206.434L206.888 69.4528Z" fill="#FF81AE"/>
<path d="M203.607 69.209H206.892C207.256 69.209 207.605 69.3537 207.863 69.6113C208.12 69.8688 208.265 70.2181 208.265 70.5824V130.47H202.23V70.5614C202.235 70.2001 202.383 69.8555 202.641 69.6023C202.899 69.3492 203.246 69.2078 203.607 69.209Z" fill="#A6A6A6"/>
<path d="M203.015 81.0615L203.086 89.9487L203.116 98.8401L203.162 116.619L203.015 116.468H207.48L207.328 116.619L207.379 98.8401L207.408 89.9487L207.48 81.0615L207.555 89.9487L207.585 98.8401L207.635 116.619V116.77H207.48H203.015H202.86L202.864 116.619L202.91 98.8401L202.939 89.9487L203.015 81.0615Z" fill="#DBDBDB"/>
<path d="M212.6 63.1533H212.041V68.0715H212.6V63.1533Z" fill="#263238"/>
<path d="M213.961 69.4528H210.685L211.138 68.0752H213.507L213.961 69.4528Z" fill="#FF81AE"/>
<path d="M210.681 69.209H213.965C214.145 69.209 214.324 69.2445 214.491 69.3135C214.657 69.3825 214.809 69.4837 214.936 69.6112C215.064 69.7388 215.165 69.8902 215.234 70.0568C215.303 70.2234 215.338 70.402 215.338 70.5824V121.801H209.307V70.5614C209.313 70.2008 209.46 69.8568 209.717 69.6038C209.974 69.3508 210.32 69.2089 210.681 69.209Z" fill="white"/>
<path d="M210.089 81.0615C210.139 85.5387 210.185 90.0201 210.202 94.5015L210.24 107.942L210.089 107.79H214.557L214.402 107.942L214.444 94.5015C214.444 90.0201 214.507 85.5387 214.557 81.0615C214.608 85.5387 214.654 90.0201 214.671 94.5015L214.709 107.942V108.097H209.933V107.942L209.975 94.5015C210 90.0201 210.038 85.5387 210.089 81.0615Z" fill="#DBDBDB"/>
<path d="M219.677 63.1533H219.118V68.0715H219.677V63.1533Z" fill="#263238"/>
<path d="M221.033 69.4528H217.757L218.211 68.0752H220.584L221.033 69.4528Z" fill="#FF81AE"/>
<path d="M217.753 69.2095H221.038C221.402 69.2095 221.751 69.3542 222.009 69.6117C222.266 69.8693 222.411 70.2186 222.411 70.5829V120.122H216.38V70.5619C216.38 70.1976 216.525 69.8483 216.782 69.5907C217.04 69.3332 217.389 69.1885 217.753 69.1885V69.2095Z" fill="#FF81AE"/>
<path opacity="0.2" d="M217.753 69.2095H221.038C221.402 69.2095 221.751 69.3542 222.009 69.6117C222.266 69.8693 222.411 70.2186 222.411 70.5829V120.122H216.38V70.5619C216.38 70.1976 216.525 69.8483 216.782 69.5907C217.04 69.3332 217.389 69.1885 217.753 69.1885V69.2095Z" fill="black"/>
<path opacity="0.2" d="M217.161 81.0615C217.24 85.2615 217.282 89.4615 217.312 93.6615C217.341 97.8615 217.345 102.062 217.366 106.262L217.161 106.056H221.63L221.428 106.262C221.428 102.062 221.428 97.8615 221.478 93.6615C221.529 89.4615 221.55 85.2615 221.63 81.0615C221.709 85.2615 221.751 89.4615 221.781 93.6615C221.81 97.8615 221.814 102.062 221.835 106.262V106.463H216.959V106.262C216.959 102.062 216.959 97.8615 217.01 93.6615C217.06 89.4615 217.085 85.2615 217.161 81.0615Z" fill="black"/>
<path d="M222.411 113.516H216.38V114.935H222.411V113.516Z" fill="#FF81AE"/>
<path d="M222.411 115.683H216.38V117.102H222.411V115.683Z" fill="#FF81AE"/>
<path d="M21.0681 176.754L55.1763 176.653L89.2845 176.615L157.501 176.544L225.717 176.615L259.826 176.653L293.934 176.754L259.826 176.859L225.717 176.897L157.501 176.964L89.2845 176.893L55.1763 176.855L21.0681 176.754Z" fill="#263238"/>
</svg>
