<svg width="278" height="278" viewBox="0 0 278 278" fill="none" xmlns="http://www.w3.org/2000/svg">
<path d="M184.758 30.4124C184.758 30.4124 141.946 15.1947 99.9351 39.4252C57.9237 63.6557 36.6957 111.755 18.5089 150.297C0.322133 188.839 10.7805 228.026 42.8561 245.896C74.9318 263.766 96.7437 237.411 141.741 236.138C186.738 234.865 198.836 241.303 236.177 215.872C273.518 190.44 280.263 130.42 250.811 86.0013C221.36 41.5825 184.758 30.4124 184.758 30.4124Z" fill="#92E3A9"/>
<path opacity="0.7" d="M184.758 30.4124C184.758 30.4124 141.946 15.1947 99.9351 39.4252C57.9237 63.6557 36.6957 111.755 18.5089 150.297C0.322133 188.839 10.7805 228.026 42.8561 245.896C74.9318 263.766 96.7437 237.411 141.741 236.138C186.738 234.865 198.836 241.303 236.177 215.872C273.518 190.44 280.263 130.42 250.811 86.0013C221.36 41.5825 184.758 30.4124 184.758 30.4124Z" fill="white"/>
<path d="M71.7348 33.583H17.2357V106.769H71.7348V33.583Z" stroke="#676F74" stroke-width="0.556" stroke-linecap="round" stroke-linejoin="round"/>
<path d="M66.5155 40.5869H22.4525V99.7564H66.5155V40.5869Z" stroke="#676F74" stroke-width="0.556" stroke-linecap="round" stroke-linejoin="round"/>
<path d="M116.204 77.3789H78.5846V127.897H116.204V77.3789Z" stroke="#676F74" stroke-width="0.556" stroke-linecap="round" stroke-linejoin="round"/>
<path d="M112.601 82.2178H82.1877V123.062H112.601V82.2178Z" stroke="#676F74" stroke-width="0.556" stroke-linecap="round" stroke-linejoin="round"/>
<path d="M232.007 22.2686H234.076C243.218 22.2686 251.986 25.9004 258.451 32.3652C264.916 38.8299 268.548 47.598 268.548 56.7406V185.443H197.535V56.7406C197.535 47.598 201.167 38.8299 207.632 32.3652C214.097 25.9004 222.865 22.2686 232.007 22.2686Z" stroke="#676F74" stroke-width="0.556" stroke-linecap="round" stroke-linejoin="round"/>
<path d="M205.554 185.059V58.9362C205.554 51.6472 208.45 44.6568 213.604 39.5027C218.758 34.3487 225.748 31.4531 233.037 31.4531C236.646 31.4531 240.219 32.164 243.554 33.5453C246.888 34.9265 249.917 36.951 252.469 39.5031C255.02 42.0552 257.044 45.0849 258.425 48.4193C259.805 51.7537 260.515 55.3273 260.515 58.9362V185.059" stroke="#676F74" stroke-width="0.556" stroke-linecap="round" stroke-linejoin="round"/>
<path d="M233.037 22.2686V185.249" stroke="#676F74" stroke-width="0.556" stroke-linecap="round" stroke-linejoin="round"/>
<path d="M197.918 53.667H268.052" stroke="#676F74" stroke-width="0.556" stroke-linecap="round" stroke-linejoin="round"/>
<path d="M240.204 70.3174L238.736 71.4294" stroke="#676F74" stroke-width="0.556" stroke-linecap="round" stroke-linejoin="round"/>
<path d="M258.607 56.3301L243.145 68.0839" stroke="#676F74" stroke-width="0.556" stroke-linecap="round" stroke-linejoin="round"/>
<path d="M251.851 65.4697L243.505 71.8304" stroke="#676F74" stroke-width="0.556" stroke-linecap="round" stroke-linejoin="round"/>
<path d="M225.053 126.797L211.314 138.195" stroke="#676F74" stroke-width="0.556" stroke-linecap="round" stroke-linejoin="round"/>
<path d="M229.994 122.698L227.603 124.678" stroke="#676F74" stroke-width="0.556" stroke-linecap="round" stroke-linejoin="round"/>
<path d="M217.674 129.053L208.534 136.208" stroke="#676F74" stroke-width="0.556" stroke-linecap="round" stroke-linejoin="round"/>
<path d="M242.161 157.787L240.326 159.255" stroke="#676F74" stroke-width="0.556" stroke-linecap="round" stroke-linejoin="round"/>
<path d="M256.22 146.541L245.078 155.454" stroke="#676F74" stroke-width="0.556" stroke-linecap="round" stroke-linejoin="round"/>
<path d="M249.861 155.681L244.696 159.656" stroke="#676F74" stroke-width="0.556" stroke-linecap="round" stroke-linejoin="round"/>
<path d="M197.918 75.7988H268.052" stroke="#676F74" stroke-width="0.556" stroke-linecap="round" stroke-linejoin="round"/>
<path d="M197.918 97.9385H268.052" stroke="#676F74" stroke-width="0.556" stroke-linecap="round" stroke-linejoin="round"/>
<path d="M197.918 120.079H268.052" stroke="#676F74" stroke-width="0.556" stroke-linecap="round" stroke-linejoin="round"/>
<path d="M197.918 142.215H268.052" stroke="#676F74" stroke-width="0.556" stroke-linecap="round" stroke-linejoin="round"/>
<path d="M197.918 164.354H268.052" stroke="#676F74" stroke-width="0.556" stroke-linecap="round" stroke-linejoin="round"/>
<path d="M207.298 33.3496L213.659 39.1431" stroke="#676F74" stroke-width="0.556" stroke-linecap="round" stroke-linejoin="round"/>
<path d="M258.506 33.3496L252.145 39.1431" stroke="#676F74" stroke-width="0.556" stroke-linecap="round" stroke-linejoin="round"/>
<path d="M9.16223 143.031H197.541" stroke="#676F74" stroke-width="0.556" stroke-linecap="round" stroke-linejoin="round"/>
<path d="M9.16223 146.35H197.541" stroke="#676F74" stroke-width="0.556" stroke-linecap="round" stroke-linejoin="round"/>
<path d="M9.16223 248.098H273.551" stroke="#676F74" stroke-width="0.556" stroke-linecap="round" stroke-linejoin="round"/>
<path d="M63.9391 146.229V247.977" stroke="#676F74" stroke-width="0.556" stroke-linecap="round" stroke-linejoin="round"/>
<path d="M123.431 146.229V247.977" stroke="#676F74" stroke-width="0.556" stroke-linecap="round" stroke-linejoin="round"/>
<path d="M182.923 146.229V247.977" stroke="#676F74" stroke-width="0.556" stroke-linecap="round" stroke-linejoin="round"/>
<path d="M242.415 190.152V247.976" stroke="#676F74" stroke-width="0.556" stroke-linecap="round" stroke-linejoin="round"/>
<path d="M270.771 185.521H195.711V190.153H270.771V185.521Z" stroke="#676F74" stroke-width="0.556" stroke-linecap="round" stroke-linejoin="round"/>
<path d="M9.16223 265.211H274.107" stroke="#263238" stroke-width="0.556" stroke-linecap="round" stroke-linejoin="round"/>
<path d="M128.452 102.049H109.07V109.171H128.452V102.049Z" fill="#545454"/>
<path d="M128.459 102.049H110.189V109.171H128.459V102.049Z" fill="#263238"/>
<path d="M128.459 102.049H110.189V103.7H128.459V102.049Z" fill="#545454"/>
<path d="M119.688 108.478H112.382L168.955 265.214H176.261L119.688 108.478Z" fill="#545454"/>
<path d="M121.013 108.478H113.707L170.28 265.214H177.586L121.013 108.478Z" fill="#263238"/>
<path d="M178.498 245.458H164.887V248.355H178.498V245.458Z" fill="white" stroke="#263238" stroke-width="0.556" stroke-miterlimit="10"/>
<path d="M167.385 214.817H153.774V217.714H167.385V214.817Z" fill="white" stroke="#263238" stroke-width="0.556" stroke-miterlimit="10"/>
<path d="M156.269 184.181H142.658V187.077H156.269V184.181Z" fill="white" stroke="#263238" stroke-width="0.556" stroke-miterlimit="10"/>
<path d="M145.153 153.54H131.542V156.437H145.153V153.54Z" fill="white" stroke="#263238" stroke-width="0.556" stroke-miterlimit="10"/>
<path d="M134.04 122.898H120.429V125.795H134.04V122.898Z" fill="white" stroke="#263238" stroke-width="0.556" stroke-miterlimit="10"/>
<path d="M134.622 134.959L144.135 128.253L147.438 103.667C147.438 103.667 137.53 124.545 136.218 127.063C134.906 129.582 134.622 134.959 134.622 134.959Z" fill="#263238" stroke="#263238" stroke-width="0.556" stroke-miterlimit="10"/>
<path d="M156.185 203.309C156.185 203.309 154.028 206.7 148.59 206.973C145.943 207.106 145.02 207.768 144.887 209.352C144.753 210.937 146.077 211.865 148.851 212.788C151.626 213.711 156.518 214.373 158.898 214.506C161.278 214.64 164.708 215.435 165.109 213.717C165.509 211.999 166.298 207.768 166.298 207.373C166.298 206.978 156.185 203.309 156.185 203.309Z" fill="#263238" stroke="#263238" stroke-width="0.556" stroke-miterlimit="10"/>
<path d="M144.042 122.838C143.347 131.445 142.552 142.72 142.552 149.265C142.552 160.896 146.783 171.338 148.367 175.169C149.952 178.999 152.688 187.017 152.815 187.545C152.943 188.073 154.272 195.474 154.8 197.325C155.329 199.177 155.59 200.5 155.59 200.5C155.59 200.5 154.139 203.28 154.139 204.464C154.139 205.649 155.768 203.947 155.768 203.947C157.973 204.746 160.225 205.407 162.512 205.927C166.076 206.722 166.96 209.012 166.96 209.012C166.96 209.012 167.199 206.444 167.466 195.212C167.733 183.981 161.055 161.797 161.055 158.383C161.055 154.969 163.563 125.212 163.563 125.212C163.563 125.212 149.691 125.345 145.46 123.366L144.042 122.838Z" fill="#5C5C5C" stroke="#263238" stroke-width="0.556" stroke-miterlimit="10"/>
<path d="M164.313 205.915C164.313 205.915 160.877 208.139 159.82 208.695C158.764 209.251 154.26 210.152 153.871 211.208C153.482 212.265 154.138 214.116 154.138 214.116C154.138 214.116 162.989 215.834 167.087 216.095C171.185 216.357 176.734 216.757 177.395 216.095C178.057 215.434 177.924 208.434 177.924 208.434C177.924 208.434 166.426 204.992 164.313 205.915Z" fill="#263238" stroke="#263238" stroke-width="0.556" stroke-miterlimit="10"/>
<path d="M155.125 139.222C155.125 139.222 156.843 160.501 157.905 164.198C158.967 167.895 164.866 187.945 165.133 190.452C165.389 192.601 165.476 194.767 165.394 196.93C165.266 197.719 164.604 198.648 164.471 200.627C164.338 202.606 164.338 205.915 164.338 205.915C165.919 206.176 167.415 206.81 168.702 207.766C170.815 209.351 174.262 209.746 175.969 209.484C177.676 209.223 177.948 209.351 177.948 208.428V204.992C177.948 202.479 177.687 200.232 177.948 195.606C178.21 190.981 176.542 176.619 175.724 172.393C174.907 168.168 172.422 162.48 172.288 160.762C172.155 159.044 175.068 145.3 175.068 140.807C175.068 136.315 174.279 125.745 174.279 125.745L157.232 125.345" fill="#5C5C5C"/>
<path d="M155.125 139.222C155.125 139.222 156.843 160.501 157.905 164.198C158.967 167.895 164.866 187.945 165.133 190.452C165.389 192.601 165.476 194.767 165.394 196.93C165.266 197.719 164.604 198.648 164.471 200.627C164.338 202.606 164.338 205.915 164.338 205.915C165.919 206.176 167.415 206.81 168.702 207.766C170.815 209.351 174.262 209.746 175.969 209.484C177.676 209.223 177.948 209.351 177.948 208.428V204.992C177.948 202.479 177.687 200.232 177.948 195.606C178.21 190.981 176.542 176.619 175.724 172.393C174.907 168.168 172.422 162.48 172.288 160.762C172.155 159.044 175.068 145.3 175.068 140.807C175.068 136.315 174.279 125.745 174.279 125.745L157.232 125.345" stroke="#263238" stroke-width="0.556" stroke-miterlimit="10"/>
<path d="M159.645 76.9248L155.986 77.0916C155.986 77.0916 148.675 88.7231 147.34 96.7017C146.006 104.68 143.688 125.313 143.688 125.313C143.688 125.313 148.013 126.809 156.82 126.981C165.627 127.154 174.106 126.648 174.106 126.648C174.106 126.648 178.421 104.019 179.917 94.5444C181.412 85.0702 178.754 82.9129 176.091 80.5833C174.408 79.1528 172.418 78.1293 170.275 77.592L159.645 76.9248Z" fill="#263238" stroke="#263238" stroke-width="0.556" stroke-miterlimit="10"/>
<path d="M144.005 121.32C147.81 122.625 151.788 123.354 155.809 123.483C162.286 123.65 174.59 123.15 174.59 123.15V127.636L167.918 127.97C167.918 127.97 167.918 141.103 167.752 141.598C167.585 142.092 168.58 142.598 162.103 142.598C155.625 142.598 149.47 141.436 149.137 140.102C148.803 138.768 150.249 127.503 150.249 127.503L143.627 125.312L144.005 121.32Z" fill="white" stroke="#263238" stroke-width="0.556" stroke-miterlimit="10"/>
<path d="M155.717 126.386L152.809 126.336L152.91 120.454C152.918 120.068 153.079 119.701 153.357 119.433C153.635 119.165 154.008 119.019 154.394 119.025C154.779 119.033 155.145 119.194 155.412 119.47C155.68 119.747 155.827 120.119 155.823 120.504L155.717 126.386Z" fill="white" stroke="#263238" stroke-width="0.556" stroke-miterlimit="10"/>
<path d="M154.328 126.235L154.156 135.849" stroke="#263238" stroke-width="0.556" stroke-miterlimit="10"/>
<path d="M156.1 126.142L152.303 126.074L152.281 127.342L156.078 127.409L156.1 126.142Z" fill="white" stroke="#263238" stroke-width="0.556" stroke-miterlimit="10"/>
<path d="M154.193 125.429C154.115 125.433 154.038 125.421 153.965 125.393C153.892 125.365 153.827 125.322 153.771 125.267C153.716 125.212 153.674 125.146 153.646 125.074C153.618 125.001 153.605 124.923 153.609 124.846V120.653C153.609 120.578 153.625 120.503 153.654 120.434C153.684 120.365 153.727 120.302 153.782 120.25C153.837 120.198 153.901 120.158 153.972 120.131C154.043 120.105 154.118 120.094 154.193 120.097C154.268 120.094 154.344 120.105 154.414 120.131C154.485 120.158 154.55 120.198 154.604 120.25C154.659 120.302 154.702 120.365 154.732 120.434C154.762 120.503 154.777 120.578 154.777 120.653V124.823C154.784 124.903 154.774 124.983 154.748 125.058C154.721 125.134 154.679 125.202 154.624 125.26C154.568 125.317 154.501 125.362 154.427 125.392C154.353 125.421 154.273 125.434 154.193 125.429Z" fill="white" stroke="#263238" stroke-width="0.556" stroke-miterlimit="10"/>
<path d="M161.856 127.747L158.943 127.692L159.048 121.815C159.051 121.624 159.092 121.435 159.168 121.26C159.244 121.085 159.354 120.926 159.491 120.793C159.629 120.661 159.791 120.556 159.969 120.486C160.146 120.416 160.336 120.382 160.527 120.386C160.719 120.388 160.908 120.428 161.083 120.504C161.259 120.58 161.418 120.689 161.551 120.827C161.684 120.965 161.788 121.127 161.858 121.305C161.927 121.484 161.961 121.674 161.956 121.865L161.856 127.747Z" fill="white" stroke="#263238" stroke-width="0.556" stroke-miterlimit="10"/>
<path d="M160.466 127.599L160.294 137.212" stroke="#263238" stroke-width="0.556" stroke-miterlimit="10"/>
<path d="M161.987 127.875L158.189 127.799L158.164 129.067L161.961 129.142L161.987 127.875Z" fill="white" stroke="#263238" stroke-width="0.556111" stroke-miterlimit="10"/>
<path d="M160.334 126.77C160.177 126.77 160.027 126.708 159.917 126.597C159.806 126.487 159.744 126.337 159.744 126.181V122.016C159.744 121.939 159.759 121.862 159.789 121.791C159.819 121.719 159.862 121.654 159.917 121.599C159.972 121.545 160.037 121.501 160.108 121.472C160.18 121.442 160.256 121.427 160.334 121.427C160.489 121.428 160.637 121.491 160.747 121.601C160.856 121.712 160.917 121.861 160.917 122.016V126.214C160.909 126.363 160.844 126.504 160.735 126.607C160.627 126.711 160.483 126.769 160.334 126.77Z" fill="white" stroke="#263238" stroke-width="0.556" stroke-miterlimit="10"/>
<path d="M150.809 128.493C152.757 129.016 154.783 129.185 156.791 128.994L156.274 141.782C156.274 141.782 151.976 142.693 149.63 139.824L150.809 128.493Z" fill="white" stroke="#263238" stroke-width="0.556" stroke-miterlimit="10"/>
<path d="M156.793 128.993C156.793 128.993 159.4 130.3 164.61 129.516L165.261 142.148C165.261 142.148 160.051 143.972 156.276 141.759L156.793 128.993Z" fill="white" stroke="#263238" stroke-width="0.556" stroke-miterlimit="10"/>
<path d="M145.528 94.8383C145.528 94.8383 134.903 95.0885 133.507 94.5825C132.112 94.0766 132.751 91.4189 133.763 85.4752C134.775 79.5316 141.097 58.904 141.097 58.904C141.097 58.904 138.95 56.63 138.822 55.3623C138.695 54.0946 139.834 49.4186 139.834 49.4186C139.834 49.4186 137.555 50.4306 136.927 49.7967C136.298 49.1629 138.822 46.761 138.822 46.761C138.822 46.761 141.224 45.9992 142.87 47.139C144.516 48.2788 146.162 50.1748 146.412 52.5823C146.662 54.9898 145.906 60.1717 145.272 63.9692C144.638 67.7666 143.504 81.2997 143.504 81.2997C143.504 81.2997 149.197 77.6301 150.966 76.8517C153.436 75.7897 156.166 75.4821 158.811 75.9676C158.811 75.9676 156.659 85.4586 155.525 88.7556C154.39 92.0527 147.274 107.371 144.366 114.076C141.458 120.781 134.625 134.954 134.625 134.954C134.625 134.954 133.613 129.394 136.649 121.415C139.684 113.436 145.528 94.8383 145.528 94.8383Z" fill="#B2B2B2" stroke="#263238" stroke-width="0.556" stroke-miterlimit="10"/>
<path d="M139.906 60.7158L146.383 61.6388L145.46 65.4696L139.244 64.2798L139.906 60.7158Z" fill="white" stroke="#263238" stroke-width="0.556" stroke-miterlimit="10"/>
<path d="M138.85 63.0967L146.634 64.5478L144.41 79.8768C144.41 79.8768 149.414 77.0968 151.81 76.3072C154.207 75.5177 158.026 76.3072 158.026 76.3072C158.026 76.3072 158.994 77.3803 157.848 80.1992C156.703 83.0182 153.4 93.9992 151.81 97.9912C150.22 101.983 134.107 136.717 134.107 136.717C134.107 136.717 133.445 131.034 134.902 126.542C136.359 122.049 144.677 94.8165 144.677 94.8165C144.677 94.8165 134.502 95.4781 133.312 95.0834C132.122 94.6886 132.256 90.4574 132.384 89.401C132.511 88.3446 138.85 63.0967 138.85 63.0967Z" fill="#92E3A9" stroke="#263238" stroke-width="0.556" stroke-miterlimit="10"/>
<path d="M144.737 108.777L158.015 76.3065L155.301 75.9951L142.558 107.921L141.046 107.42C140.79 108.215 140.334 109.511 140.067 110.339L141.435 111.301L144.365 114.081C144.993 112.775 146.094 110.573 146.678 109.361L144.737 108.777Z" fill="white" stroke="#263238" stroke-width="0.556" stroke-miterlimit="10"/>
<path d="M157.063 52.6052C157.063 52.6052 159.632 47.0841 162.457 45.6719C165.281 44.2597 170.418 46.3113 170.418 46.3113C170.418 46.3113 177.224 49.2636 179.031 53.8896C180.838 58.5155 177.619 66.9889 177.619 66.9889L156.68 53.5059L157.063 52.6052Z" fill="white" stroke="#263238" stroke-width="0.556" stroke-miterlimit="10"/>
<path d="M163.869 51.948C164.407 51.0157 164.874 50.0436 165.264 49.0401C165.538 48.0377 165.494 46.9747 165.136 45.9988C166.382 45.885 167.637 46.0581 168.806 46.5048" stroke="#263238" stroke-width="0.556" stroke-miterlimit="10"/>
<path d="M155.396 59.1537C155.396 59.1537 151.159 55.3007 151.159 53.8884C151.159 52.4762 162.457 51.3197 165.153 52.2204C167.85 53.1211 171.825 58.8924 173.493 60.5604C175.161 62.2284 180.165 65.5644 179.142 67.8774C178.119 70.1903 174.778 71.9918 170.802 69.5454C166.827 67.099 155.679 59.6653 155.679 59.6653C157.091 58.3809 157.992 59.5374 157.992 59.5374" fill="white"/>
<path d="M155.396 59.1537C155.396 59.1537 151.159 55.3007 151.159 53.8884C151.159 52.4762 162.457 51.3197 165.153 52.2204C167.85 53.1211 171.825 58.8924 173.493 60.5604C175.161 62.2284 180.165 65.5644 179.142 67.8774C178.119 70.1903 174.778 71.9918 170.802 69.5454C166.827 67.099 155.679 59.6653 155.679 59.6653C157.091 58.3809 157.992 59.5374 157.992 59.5374" stroke="#263238" stroke-width="0.556" stroke-miterlimit="10"/>
<path d="M174.916 63.5188C174.916 63.5188 170.034 57.742 166.053 56.074C162.072 54.406 157.446 55.5569 156.295 56.8413C155.144 58.1256 152.826 64.2917 152.698 66.2154C152.57 68.1392 152.342 74.0495 153.454 74.6944C154.566 75.3394 158.208 75.7175 158.208 75.7175C157.783 78.4772 157.57 81.2653 157.569 84.0575C157.696 87.3935 160.043 87.2878 161.839 86.515C163.635 85.7421 171.052 78.5364 171.052 77.619C170.986 76.6697 170.856 75.726 170.662 74.7945L172.208 70.5522C172.208 70.5522 177.095 67.6277 174.916 63.5188Z" fill="#B2B2B2" stroke="#263238" stroke-width="0.556" stroke-miterlimit="10"/>
<path d="M168.851 57.7363C169.258 58.453 169.53 59.2392 169.651 60.0549C169.651 61.0779 168.495 66.9882 168.495 66.9882C168.495 66.9882 169.907 67.7554 170.291 66.599C170.674 65.4425 171.191 62.4901 174.917 63.5187C173.09 61.3962 171.058 59.4594 168.851 57.7363Z" fill="#263238" stroke="#263238" stroke-width="0.556" stroke-miterlimit="10"/>
<path d="M158.349 66.2148C157.965 66.0869 155.013 65.0583 154.885 64.291C154.757 63.5237 158.476 60.5658 158.476 60.5658V59.2815C158.476 59.2815 157.364 58.2417 155.652 59.6651" stroke="#263238" stroke-width="0.556" stroke-miterlimit="10"/>
<path d="M156.792 65.9599C156.792 65.9599 152.555 65.0592 153.194 67.7558C153.395 68.5953 157.692 69.3015 159.105 69.4238C160.517 69.5461 163.981 69.6795 163.341 68.1394C162.702 66.5993 158.46 65.5763 156.792 65.9599Z" fill="#263238" stroke="#263238" stroke-width="0.556" stroke-miterlimit="10"/>
<path d="M161.69 59.7924C161.69 59.7924 164.643 58.2522 165.927 60.9488" stroke="#263238" stroke-width="0.556" stroke-miterlimit="10"/>
<path d="M164.119 62.334C164.019 62.9678 163.652 63.446 163.302 63.3737C162.952 63.3014 162.746 62.7621 162.852 62.1338C162.957 61.5055 163.319 61.0218 163.669 61.0941C164.019 61.1664 164.219 61.7168 164.119 62.334Z" fill="#263238"/>
<path d="M156.791 61.3323C156.707 61.8549 156.407 62.2385 156.118 62.1885C155.829 62.1385 155.662 61.6881 155.746 61.1655C155.829 60.6428 156.129 60.2647 156.418 60.3092C156.707 60.3537 156.891 60.8152 156.791 61.3323Z" fill="#263238"/>
<path d="M161.797 63.2637C161.797 63.2637 162.436 64.9317 164.877 64.8038" stroke="#263238" stroke-width="0.556" stroke-miterlimit="10"/>
<path d="M158.219 75.7168L163.1 76.106L157.835 80.2148L158.219 75.7168Z" fill="#263238" stroke="#263238" stroke-width="0.556" stroke-miterlimit="10"/>
<path d="M171.063 77.6455C171.063 77.6455 163.869 93.1857 162.584 97.3001C161.3 101.415 162.957 119.74 162.957 123.338C162.957 126.935 165.181 143.971 165.181 143.971C165.181 143.971 173.015 143.07 177.641 141.018C180.166 139.938 182.574 138.604 184.83 137.037L177.474 114.091C177.474 114.091 185.325 93.5749 186.37 88.6932C187.415 83.8116 184.702 81.115 181.366 79.8306C178.03 78.5462 171.063 77.6455 171.063 77.6455Z" fill="#92E3A9" stroke="#263238" stroke-width="0.556" stroke-miterlimit="10"/>
<path d="M177.473 114.108L169.066 112.111C169.066 112.111 167.621 102.187 170.779 92.2845C173.937 82.3821 177.734 79.0072 177.734 79.0072L173.097 78.1621C173.097 78.1621 168.649 87.6475 166.564 93.3353C164.479 99.0232 165.063 112.957 165.063 112.957L162.422 113.707C162.583 115.464 162.695 116.565 162.845 118.077C165.541 117.349 169.934 116.604 170.968 116.749C171.896 116.882 175.911 117.599 178.752 118.111L177.473 114.108Z" fill="white" stroke="#263238" stroke-width="0.556" stroke-miterlimit="10"/>
<path d="M137.838 66.4812L135.747 60.4375H130.993L129.092 66.6035C128.656 67.3651 128.427 68.228 128.43 69.1055C128.43 69.888 128.61 70.6599 128.958 71.361C129.305 72.062 129.81 72.6731 130.433 73.1465C131.056 73.6198 131.78 73.9425 132.549 74.0894C133.318 74.2363 134.11 74.2033 134.863 73.9931C135.617 73.7828 136.312 73.401 136.893 72.8775C137.475 72.354 137.927 71.7031 138.215 70.9756C138.504 70.2481 138.619 69.4638 138.554 68.6841C138.488 67.9044 138.243 67.1504 137.838 66.4812Z" fill="white" stroke="#263238" stroke-width="0.556" stroke-miterlimit="10"/>
<path d="M135.875 56.585H130.993V60.438H135.875V56.585Z" fill="#263238" stroke="#263238" stroke-width="0.556" stroke-miterlimit="10"/>
<path d="M133.177 42.2012H130.737V44.7699H133.177V42.2012Z" fill="#263238" stroke="#263238" stroke-width="0.556" stroke-miterlimit="10"/>
<path d="M131.509 44.3857C130.651 46.1422 129.571 47.781 128.295 49.2619C126.499 51.1912 127.528 52.5979 128.94 52.8592C130.353 53.1205 132.793 53.1149 132.793 54.0157V56.4565" stroke="#263238" stroke-width="0.556" stroke-miterlimit="10"/>
<path d="M132.41 44.8984C132.41 44.8984 128.429 50.1638 128.557 50.9366C128.685 51.7094 133.049 52.4767 133.95 52.8604C134.851 53.244 134.59 56.4577 134.59 56.4577" stroke="#263238" stroke-width="0.556" stroke-miterlimit="10"/>
<path d="M131.51 42.3295V7.91309" stroke="#263238" stroke-width="0.556" stroke-miterlimit="10"/>
<path d="M132.793 7.78516V42.9744" stroke="#263238" stroke-width="0.556" stroke-miterlimit="10"/>
<path d="M142.681 79.4421L140.757 75.8448C140.757 75.8448 139.473 69.8122 139.473 69.3006C139.473 68.7891 137.805 65.3197 137.16 64.1632C136.515 63.0067 135.875 63.1346 135.875 64.419C135.875 65.7033 137.032 67.8828 137.032 68.272C136.955 68.7551 136.826 69.2286 136.648 69.6843C136.648 69.6843 131.255 65.8312 130.61 65.1862C129.965 64.5413 128.814 65.4476 128.814 66.2148C128.841 66.8739 128.971 67.5248 129.198 68.1442C129.326 68.5278 128.558 71.2244 128.558 72.1251C128.672 73.2737 129.07 74.3761 129.715 75.3332C130.354 76.3618 134.975 77.902 134.975 77.902L139.089 83.6788L142.681 79.4421Z" fill="#B2B2B2" stroke="#263238" stroke-width="0.556" stroke-miterlimit="10"/>
<path d="M145.636 80.342L142.039 77.3896L136.568 82.7106C136.568 82.7106 140.46 86.7805 140.833 86.7805C141.205 86.7805 145.636 80.342 145.636 80.342Z" fill="white" stroke="#263238" stroke-width="0.556" stroke-miterlimit="10"/>
<path d="M176.073 82.9108L164.642 91.7734L144.865 79.3135L138.699 87.4033C138.699 87.4033 150.514 96.7774 154.495 100.631C158.476 104.484 164.77 108.081 167.839 106.413C170.908 104.745 183.251 95.3652 183.635 94.9816" fill="#92E3A9"/>
<path d="M176.073 82.9108L164.642 91.7734L144.865 79.3135L138.699 87.4033C138.699 87.4033 150.514 96.7774 154.495 100.631C158.476 104.484 164.77 108.081 167.839 106.413C170.908 104.745 183.251 95.3652 183.635 94.9816" stroke="#263238" stroke-width="0.556" stroke-miterlimit="10"/>
<path d="M167.596 89.4627C167.596 89.4627 174.918 89.3349 176.202 100.633L181.468 96.7797C181.468 96.7797 180.311 87.7948 171.96 86.377L167.596 89.4627Z" fill="white" stroke="#263238" stroke-width="0.556" stroke-miterlimit="10"/>
<path d="M147.688 39.7611H116.869L127.222 27.4346H137.336L147.688 39.7611Z" fill="white" stroke="#263238" stroke-width="0.556" stroke-miterlimit="10"/>
<path d="M137.033 22.2979H127.225V27.4353H137.033V22.2979Z" fill="white" stroke="#263238" stroke-width="0.556" stroke-miterlimit="10"/>
<path d="M122.163 36.8799L120.879 38.5368" stroke="#263238" stroke-width="0.556" stroke-miterlimit="10"/>
<path d="M123.38 35.3006L129.269 27.7001V23.8525" stroke="#263238" stroke-width="0.556" stroke-miterlimit="10"/>
<path d="M142.953 45.2392C142.953 45.2392 141.696 44.1828 140.773 44.1606C139.85 44.1383 137.07 44.989 137.521 45.6618C137.971 46.3345 142.953 45.2392 142.953 45.2392Z" fill="#B2B2B2" stroke="#263238" stroke-width="0.556" stroke-miterlimit="10"/>
<path d="M144.821 46.483C144.311 45.9197 143.669 45.4918 142.953 45.2376C141.841 44.8984 138.766 45.9159 138.855 46.4719C138.944 47.0279 141.307 47.1113 141.868 47.0279C142.43 46.9445 144.821 46.483 144.821 46.483Z" fill="#B2B2B2" stroke="#263238" stroke-width="0.556" stroke-miterlimit="10"/>
<path d="M147.401 50.9312C147.401 50.9312 146.6 46.65 145.966 46.0829C145.332 45.5158 141.818 46.3943 141.318 46.7835C140.818 47.1727 141.629 48.0512 141.996 48.1512C142.864 48.2121 143.734 48.2288 144.604 48.2013L145.004 51.0647L147.401 50.9312Z" fill="#B2B2B2" stroke="#263238" stroke-width="0.556" stroke-miterlimit="10"/>
<path d="M137.832 48.6952L139.661 46.4268L144.243 50.1186C144.542 50.3615 144.734 50.7132 144.774 51.0968C144.815 51.4804 144.702 51.8644 144.46 52.1647C144.217 52.4643 143.865 52.6555 143.481 52.6961C143.098 52.7368 142.714 52.6236 142.414 52.3815L137.832 48.6952Z" fill="white" stroke="#263238" stroke-width="0.556" stroke-miterlimit="10"/>
<path d="M138.806 47.6908L131.317 41.6582" stroke="#263238" stroke-width="0.556" stroke-miterlimit="10"/>
<path d="M137.787 49.1455L140.169 46.1885L139.182 45.3931L136.799 48.3501L137.787 49.1455Z" fill="white" stroke="#263238" stroke-width="0.556" stroke-miterlimit="10"/>
<path d="M143.503 57.1358C142.997 55.2343 144.893 52.3264 144.893 52.3264C144.123 51.9494 143.401 51.4829 142.741 50.9364C142.113 50.3026 142.113 48.7847 142.997 49.0405C143.881 49.2962 147.295 50.7085 147.295 50.7085C147.682 50.9336 147.989 51.2749 148.171 51.6841C148.354 52.0932 148.403 52.5494 148.312 52.9881C148.056 54.6561 145.905 59.4377 145.905 59.4377" fill="#B2B2B2"/>
<path d="M143.503 57.1358C142.997 55.2343 144.893 52.3264 144.893 52.3264C144.123 51.9494 143.401 51.4829 142.741 50.9364C142.113 50.3026 142.113 48.7847 142.997 49.0405C143.881 49.2962 147.295 50.7085 147.295 50.7085C147.682 50.9336 147.989 51.2749 148.171 51.6841C148.354 52.0932 148.403 52.5494 148.312 52.9881C148.056 54.6561 145.905 59.4377 145.905 59.4377" stroke="#263238" stroke-width="0.556" stroke-miterlimit="10"/>
<path d="M158.982 197.021H98.189V199.928H158.982V197.021Z" fill="#545454"/>
<path d="M121.852 132.079L73.7966 265.213H78.4615L124.432 137.85L122.43 132.079H121.852Z" fill="#545454"/>
<path d="M120.529 132.079L72.4739 265.213H74.4978L122.486 132.251L122.431 132.079H120.529Z" fill="#263238"/>
<path d="M131.588 108.478H124.282L180.855 265.214H188.161L131.588 108.478Z" fill="#545454"/>
<path d="M132.906 108.478H125.6L182.173 265.214H189.479L132.906 108.478Z" fill="#263238"/>
<path d="M134.012 132.079L85.9569 265.213H90.6162L136.592 137.85L134.585 132.079H134.012Z" fill="#545454"/>
<path d="M132.689 132.079L84.6343 265.213H86.6526L134.646 132.251L134.585 132.079H132.689Z" fill="#263238"/>
<path d="M137.287 102.049H117.905V109.171H137.287V102.049Z" fill="#545454"/>
<path d="M137.294 102.049H119.024V109.171H137.294V102.049Z" fill="#454545"/>
</svg>
