<svg width="640" height="957" viewBox="0 0 640 957" fill="none" xmlns="http://www.w3.org/2000/svg">
<path d="M578.841 734.427H617.516V750.77H578.841V734.427Z" fill="#EBEBEB"/>
<path d="M600.413 755.034H639.088V771.378H600.413V755.034Z" fill="#EBEBEB"/>
<path d="M230.121 630.333H268.796V646.676H230.121V630.333Z" fill="#EBEBEB"/>
<path d="M251.693 650.941H290.368V667.285H251.693V650.941Z" fill="#EBEBEB"/>
<path d="M0.36412 755.034H39.0393V771.378H0.36412V755.034Z" fill="#EBEBEB"/>
<path d="M21.9363 435.949H60.6115V452.293H21.9363V435.949Z" fill="#EBEBEB"/>
<path d="M0.36412 456.559H39.0393V472.902H0.36412V456.559Z" fill="#EBEBEB"/>
<path d="M273.267 630.333H311.943V646.676H273.267V630.333Z" fill="#EBEBEB"/>
<path d="M578.841 435.949H617.516V452.293H578.841V435.949Z" fill="#EBEBEB"/>
<path d="M60.9313 422.804H253.27V337.713H60.9313V422.804ZM247.428 416.962H66.7734V343.555H247.428V416.962Z" fill="#EBEBEB"/>
<path d="M156.45 342.855H162.292V417.65H156.45V342.855Z" fill="#EBEBEB"/>
<path d="M301.836 956.397C160.941 956.397 46.7229 945.392 46.7229 931.816C46.7229 918.241 160.941 907.235 301.836 907.235C442.731 907.235 556.949 918.241 556.949 931.816C556.949 945.392 442.731 956.397 301.836 956.397Z" fill="#EBEBEB"/>
<path d="M616.244 898.223L542.106 897.858L467.984 897.741L319.724 897.493L171.465 897.741L97.342 897.858L23.2194 898.223L97.342 898.574L171.465 898.705L319.724 898.954L467.984 898.705L542.106 898.574L616.244 898.223Z" fill="#263238"/>
<path d="M488 -0.000976562H503V269.999H488V-0.000976562Z" fill="#263238"/>
<path d="M474 269.999H469L469 -0.000976562H474L474 269.999Z" fill="#263238"/>
<path d="M462 269.999H457L457 -0.000976562H462L462 269.999Z" fill="#263238"/>
<path d="M532.746 374.136H579.279V629.38H532.746V374.136Z" fill="#A6A6A6"/>
<path d="M412.705 374.136H532.732V629.38H412.705V374.136Z" fill="#DBDBDB"/>
<path d="M416.472 378.242H528.963V625.366H416.472V378.242Z" fill="#C7C7C7"/>
<path d="M416.471 378.242H452.254V625.366H416.471V378.242Z" fill="#A6A6A6"/>
<path d="M347.711 636.744L412.705 629.383V374.138L347.711 366.777V636.744Z" fill="#C7C7C7"/>
<path d="M449.977 453.986H510.064V524.589H449.977V453.986Z" fill="#DBDBDB"/>
<path d="M503.2 453.986H510.064V524.589H503.2V453.986Z" fill="#A6A6A6"/>
<path d="M495.152 459.872C495.149 460.288 495.27 460.696 495.5 461.044C495.729 461.392 496.056 461.664 496.44 461.825C496.824 461.987 497.248 462.03 497.657 461.951C498.066 461.871 498.442 461.672 498.737 461.379C499.033 461.085 499.235 460.711 499.317 460.302C499.399 459.894 499.359 459.47 499.2 459.085C499.041 458.7 498.772 458.37 498.425 458.139C498.079 457.907 497.672 457.783 497.255 457.783C496.98 457.781 496.707 457.834 496.452 457.938C496.197 458.042 495.965 458.196 495.769 458.39C495.574 458.584 495.418 458.815 495.313 459.069C495.207 459.324 495.152 459.596 495.152 459.872Z" fill="#C7C7C7"/>
<path d="M497.255 520.848C496.094 520.848 495.152 519.906 495.152 518.745C495.152 517.583 496.094 516.642 497.255 516.642C498.417 516.642 499.359 517.583 499.359 518.745C499.359 519.906 498.417 520.848 497.255 520.848Z" fill="#C7C7C7"/>
<path d="M453.57 459.872C453.568 460.288 453.688 460.696 453.918 461.044C454.147 461.392 454.475 461.664 454.859 461.825C455.243 461.987 455.666 462.03 456.075 461.951C456.484 461.871 456.86 461.672 457.156 461.379C457.451 461.085 457.653 460.711 457.735 460.302C457.818 459.894 457.777 459.47 457.618 459.085C457.459 458.7 457.19 458.37 456.844 458.139C456.497 457.907 456.09 457.783 455.674 457.783C455.398 457.781 455.125 457.834 454.87 457.938C454.615 458.042 454.383 458.196 454.187 458.39C453.992 458.584 453.837 458.815 453.731 459.069C453.625 459.324 453.57 459.596 453.57 459.872Z" fill="#C7C7C7"/>
<path d="M453.57 518.745C453.57 519.161 453.694 519.567 453.925 519.913C454.156 520.259 454.484 520.529 454.869 520.688C455.253 520.847 455.676 520.889 456.084 520.808C456.492 520.726 456.867 520.526 457.161 520.232C457.455 519.938 457.655 519.563 457.736 519.155C457.817 518.747 457.776 518.324 457.617 517.94C457.457 517.556 457.188 517.227 456.842 516.996C456.496 516.765 456.09 516.642 455.674 516.642C455.397 516.64 455.122 516.693 454.866 516.798C454.61 516.903 454.378 517.058 454.182 517.253C453.986 517.449 453.832 517.682 453.727 517.938C453.622 518.194 453.568 518.468 453.57 518.745Z" fill="#C7C7C7"/>
<path d="M492.494 471.134C492.494 471.814 492.696 472.478 493.073 473.043C493.451 473.608 493.988 474.048 494.616 474.307C495.244 474.566 495.935 474.633 496.601 474.5C497.267 474.366 497.879 474.038 498.358 473.556C498.838 473.075 499.164 472.462 499.294 471.795C499.425 471.128 499.355 470.438 499.093 469.811C498.831 469.184 498.389 468.649 497.822 468.274C497.256 467.898 496.591 467.699 495.912 467.702C495.004 467.706 494.135 468.069 493.494 468.713C492.854 469.356 492.494 470.227 492.494 471.134Z" fill="#263238"/>
<path d="M492.494 482.976C492.494 483.656 492.696 484.32 493.073 484.885C493.451 485.449 493.988 485.889 494.616 486.149C495.244 486.408 495.935 486.475 496.601 486.341C497.267 486.208 497.879 485.879 498.358 485.398C498.838 484.917 499.164 484.304 499.294 483.637C499.425 482.97 499.355 482.28 499.093 481.653C498.831 481.026 498.389 480.491 497.822 480.115C497.256 479.74 496.591 479.541 495.912 479.544C495.462 479.544 495.016 479.633 494.6 479.806C494.185 479.978 493.807 480.231 493.49 480.55C493.172 480.869 492.921 481.248 492.75 481.664C492.579 482.08 492.492 482.526 492.494 482.976Z" fill="#263238"/>
<path d="M502.38 619.318C503.549 597.76 496.976 554.163 492.624 525.317C490.638 512.085 489.06 501.627 488.914 497.859C488.476 486.964 496.027 484.466 496.348 484.364L495.501 481.574C495.399 481.574 485.467 484.744 485.993 497.976C486.154 501.905 487.731 512.435 489.747 525.726C494.128 554.47 500.613 597.877 499.459 619.201L502.38 619.318Z" fill="#DD6A57"/>
<path d="M496.612 619.378C498.19 603.196 494.057 576.614 490.084 550.908C485.819 523.465 481.423 495.086 484.928 483.387C487.849 473.675 495.751 472.623 496.087 472.579L495.765 469.658C495.342 469.658 485.615 470.9 482.139 482.526C478.443 494.853 482.694 522.282 487.192 551.317C491.15 576.847 495.24 603.239 493.706 619.072L496.612 619.378Z" fill="#455A64"/>
<path d="M458.682 524.587H465.313V625.364H458.682V524.587Z" fill="#92E3A9"/>
<path d="M466.057 378.242H472.688V453.986H466.057V378.242Z" fill="white"/>
<path d="M478.66 619.247H512.457V625.367H478.66V619.247Z" fill="#DBDBDB"/>
<path d="M488.183 269.999H502.919V374.136H488.183V269.999Z" fill="#263238"/>
<path d="M473.522 374.136H468.644V269.999H473.522V374.136Z" fill="#263238"/>
<path d="M461.997 374.136H457.119V269.999H461.997V374.136Z" fill="#263238"/>
<path d="M481.655 745.67C481.655 748.08 483.116 750.051 484.839 750.051C486.563 750.051 488.023 748.094 488.023 745.67C488.023 743.245 486.563 741.288 484.839 741.288C483.116 741.288 481.655 743.216 481.655 745.67Z" fill="#A6A6A6"/>
<path d="M473.522 733.519H468.643V629.382H473.522V733.519Z" fill="#263238"/>
<path d="M473.506 733.519H468.628L485.41 747.627V743.669L473.506 733.519Z" fill="#263238"/>
<path d="M491.881 629.383H499.242V748.256H491.881V629.383Z" fill="#C7C7C7"/>
<path d="M509.64 762.934C507.882 762.934 506.456 760.979 506.456 758.567C506.456 756.155 507.882 754.2 509.64 754.2C511.399 754.2 512.824 756.155 512.824 758.567C512.824 760.979 511.399 762.934 509.64 762.934Z" fill="#A6A6A6"/>
<path d="M499.242 748.254H491.881L510.225 761.399V756.024L499.242 748.254Z" fill="#C7C7C7"/>
<path d="M470.715 745.67C470.715 748.08 472.175 750.051 473.899 750.051C475.622 750.051 477.083 748.094 477.083 745.67C477.083 743.245 475.622 741.288 473.899 741.288C472.175 741.288 470.715 743.216 470.715 745.67Z" fill="#A6A6A6"/>
<path d="M461.998 733.519H457.12V629.382H461.998V733.519Z" fill="#263238"/>
<path d="M461.997 733.519H457.119L473.901 747.627V743.669L461.997 733.519Z" fill="#263238"/>
<path d="M275.281 741.448C280.232 736.584 286.644 730.713 294.268 732.816C301.41 734.788 304.141 742.573 305.412 749.057C307.062 757.412 308.333 765.854 309.662 774.281C310.991 782.708 312.262 791.296 313.489 799.811C314.17 804.621 314.852 809.427 315.533 814.227L316.541 821.442C316.863 823.808 317.257 826.16 317.388 828.54C317.388 829.3 316.249 829.417 316.074 828.686C315.154 824.684 314.774 820.507 314.19 816.432C313.606 812.357 313.007 808.253 312.408 804.149C311.21 796.029 309.993 787.903 308.756 779.773C307.52 771.642 306.259 763.517 304.974 755.396C303.864 748.517 303.352 739.958 297.247 735.416C295.593 734.279 293.675 733.583 291.677 733.394C289.678 733.205 287.665 733.529 285.826 734.335C281.81 735.869 278.611 738.717 275.456 741.638C275.325 741.755 275.179 741.536 275.281 741.448Z" fill="#263238"/>
<path d="M282.06 736.483C282.06 736.483 292.283 732.831 297.205 740.236C302.127 747.641 296.227 766.526 250.074 777.071C251.422 762.64 255.173 748.537 261.174 735.343C271.076 713.757 288.705 721.936 282.06 736.483Z" fill="#92E3A9"/>
<path d="M252.719 773.988C253.42 772.694 254.195 771.44 255.041 770.235C255.815 769.052 256.589 767.869 257.392 766.686C257.977 765.795 258.59 764.919 259.189 764.042C259.189 763.838 259.189 763.604 259.101 763.385C259.013 763.166 258.999 762.582 258.955 762.187C258.838 761.326 258.707 760.464 258.575 759.587C258.444 758.711 258.312 757.879 258.152 757.017C258.037 756.093 257.832 755.183 257.538 754.3C257.538 754.169 257.728 754.096 257.743 754.3C257.843 754.82 257.98 755.333 258.152 755.834C258.269 756.214 258.371 756.608 258.458 756.988C258.692 757.864 258.897 758.755 259.101 759.631C259.306 760.508 259.437 761.267 259.568 762.085C259.642 762.479 259.7 762.874 259.758 763.268C260.576 762.085 261.409 760.931 262.285 759.792C264.739 756.564 267.324 753.453 270.011 750.415C269.763 745.566 269.88 740.761 268.814 735.985C268.814 735.854 268.974 735.781 269.004 735.912C270.223 740.409 270.803 745.055 270.727 749.714L273.648 746.516C275.897 744.101 278.19 741.725 280.527 739.388C280.63 739.301 280.776 739.388 280.673 739.534C276.788 743.726 273.093 748.078 269.5 752.518C272.318 752.472 275.136 752.579 277.942 752.84C281.068 753.059 284.179 753.468 287.29 753.891C287.421 753.891 287.377 754.125 287.29 754.096C284.195 753.658 281.08 753.38 277.957 753.263C274.948 753.132 271.954 753.263 268.945 753.263C266.998 755.668 265.075 758.103 263.176 760.566H265.688C267.149 760.566 268.492 760.683 269.895 760.8C272.758 761.033 275.603 761.457 278.409 762.07C278.541 762.07 278.512 762.304 278.409 762.275C275.576 761.968 272.743 761.691 269.88 761.588C268.522 761.588 267.163 761.588 265.805 761.588H263.673C263.284 761.633 262.89 761.594 262.519 761.472L258.794 766.321C257.821 767.606 256.847 768.906 255.873 770.22C254.909 771.564 254.033 773.024 252.952 774.281C252.913 774.312 252.864 774.326 252.815 774.32C252.765 774.315 252.72 774.29 252.689 774.251C252.658 774.213 252.644 774.163 252.649 774.114C252.655 774.065 252.68 774.019 252.719 773.988Z" fill="#263238"/>
<path d="M277.649 746.969C279.286 746.755 280.937 746.672 282.586 746.721C284.236 746.721 285.887 746.721 287.523 746.837C287.55 746.837 287.576 746.848 287.595 746.867C287.614 746.887 287.625 746.913 287.625 746.94C287.625 746.967 287.614 746.993 287.595 747.012C287.576 747.031 287.55 747.042 287.523 747.042C285.843 746.91 284.178 746.881 282.498 746.91C280.819 746.94 279.271 747.086 277.649 747.042C277.606 747.042 277.591 746.969 277.649 746.969Z" fill="#263238"/>
<path d="M263.162 750.679C262.972 749.116 262.782 747.524 262.446 745.976C262.44 745.961 262.438 745.944 262.439 745.927C262.441 745.911 262.447 745.895 262.456 745.881C262.466 745.867 262.478 745.856 262.493 745.848C262.508 745.84 262.524 745.836 262.541 745.836C262.558 745.836 262.574 745.84 262.589 745.848C262.604 745.856 262.616 745.867 262.626 745.881C262.635 745.895 262.641 745.911 262.643 745.927C262.644 745.944 262.642 745.961 262.636 745.976C262.884 747.524 263.176 749.073 263.41 750.621C263.527 751.395 263.629 752.169 263.731 752.958C263.868 753.685 263.931 754.423 263.921 755.163C263.912 755.192 263.893 755.218 263.868 755.236C263.843 755.254 263.813 755.263 263.782 755.263C263.752 755.263 263.722 755.254 263.697 755.236C263.672 755.218 263.653 755.192 263.644 755.163C263.499 754.436 263.421 753.698 263.41 752.958C263.337 752.183 263.249 751.439 263.162 750.679Z" fill="#263238"/>
<path d="M266.198 733.209C266.607 734.758 267.001 736.306 267.279 737.869C267.425 738.657 267.556 739.461 267.659 740.249C267.8 741.02 267.854 741.804 267.819 742.586C267.819 742.586 267.717 742.586 267.688 742.586C267.506 741.857 267.384 741.115 267.323 740.366C267.22 739.607 267.104 738.832 266.972 738.073C266.695 736.466 266.402 734.874 266.008 733.282C265.964 733.151 266.169 733.093 266.198 733.209Z" fill="#263238"/>
<path d="M326.314 826.847C326.567 823.926 326.845 821.005 327.147 818.084C327.76 812.329 328.456 806.589 329.235 800.864C329.995 795.153 330.696 789.428 331.645 783.732C331.989 781.092 332.581 778.491 333.412 775.962C333.706 774.873 334.248 773.868 334.996 773.024C335.743 772.181 336.676 771.521 337.721 771.098C343.154 769.214 346.82 774.852 349.011 778.839C349.011 778.956 348.894 779.043 348.821 778.941C347.506 777.042 343.884 771.755 339.766 772.004C336.991 772.164 334.771 774.121 333.441 781.044C330.126 798.264 327.132 833.215 326.796 835.508C326.606 836.72 325.744 836.662 325.744 835.362C325.73 832.543 326.051 829.68 326.314 826.847Z" fill="#263238"/>
<path d="M347.478 776.808C347.478 776.808 342.731 760.041 353.218 768.425C370.745 782.387 371.314 812.723 371.314 812.723C371.314 812.723 340.249 794.685 336.393 782.796C330.711 765.007 347.478 776.808 347.478 776.808Z" fill="#92E3A9"/>
<path d="M341.634 784.956C344.073 785.452 346.541 785.774 348.937 786.139L352.427 786.621C353.216 786.738 354.005 786.811 354.808 786.913C352.486 783.714 350.163 780.545 347.943 777.288C347.856 777.171 348.046 777.04 348.148 777.142C349.984 779.042 351.715 781.041 353.333 783.13C353.786 781.83 354.253 780.53 354.706 779.245C355.246 777.784 355.801 776.251 356.166 774.703C356.16 774.687 356.158 774.67 356.16 774.654C356.161 774.637 356.167 774.621 356.177 774.607C356.186 774.594 356.198 774.582 356.213 774.574C356.228 774.567 356.244 774.562 356.261 774.562C356.278 774.562 356.294 774.567 356.309 774.574C356.324 774.582 356.336 774.594 356.346 774.607C356.355 774.621 356.361 774.637 356.363 774.654C356.365 774.67 356.362 774.687 356.356 774.703C355.933 776.163 355.64 777.799 355.231 779.347C354.823 780.895 354.37 782.268 353.771 783.729C354.91 785.189 356.006 786.65 357.057 788.257C357.598 786.796 358.255 785.335 358.737 783.729C358.737 783.612 358.97 783.729 358.927 783.729C358.372 785.438 358.08 787.205 357.554 788.914C358.269 789.951 359.014 791.002 359.657 792.054C360.913 793.982 362.096 795.954 363.25 797.896C363.338 797.937 363.411 798.004 363.461 798.087C363.51 798.17 363.533 798.267 363.527 798.363C365.484 801.752 367.354 805.199 369.194 808.675C369.208 808.7 369.211 808.73 369.203 808.757C369.194 808.784 369.176 808.807 369.15 808.821C369.125 808.835 369.096 808.838 369.068 808.829C369.041 808.821 369.018 808.802 369.004 808.777C367.164 805.345 365.119 802 362.987 798.714C362.686 798.682 362.382 798.682 362.081 798.714L361.001 798.495C360.197 798.32 359.409 798.101 358.605 797.911C357.028 797.516 355.48 797.151 353.873 796.874C353.742 796.874 353.8 796.64 353.873 796.669C355.757 797.034 357.641 797.239 359.54 797.458C360.431 797.56 361.337 797.677 362.227 797.823H362.359C361.234 796.129 360.11 794.449 358.956 792.784C357.802 791.119 356.677 789.527 355.509 787.921C354.428 787.76 353.362 787.482 352.296 787.278L348.688 786.577C346.278 786.095 343.898 785.569 341.473 785.116C341.473 785.146 341.532 784.941 341.634 784.956Z" fill="#263238"/>
<path d="M360.329 786.624L360.752 785.28C361.037 784.359 361.271 783.423 361.453 782.476C361.453 782.344 361.687 782.403 361.658 782.476C361.453 783.425 361.234 784.36 361.015 785.309C360.819 786.258 360.55 787.191 360.212 788.099C360.196 788.147 360.162 788.187 360.117 788.211C360.072 788.234 360.019 788.238 359.971 788.223C359.922 788.207 359.882 788.173 359.859 788.128C359.836 788.083 359.831 788.03 359.847 787.982C359.978 787.558 360.168 787.033 360.329 786.624Z" fill="#263238"/>
<path d="M338.497 781.087C339.958 781.291 341.33 781.393 342.762 781.525C344.193 781.656 345.61 781.846 347.027 782.051C347.114 782.051 347.114 782.182 347.027 782.182C345.566 782.08 344.179 781.978 342.762 781.788C341.345 781.598 339.841 781.393 338.482 781.291C338.351 781.277 338.366 781.057 338.497 781.087Z" fill="#263238"/>
<path d="M303.457 805.624C304.012 793.282 304.786 780.955 306.027 768.658C306.641 762.538 307.342 756.418 308.203 750.328C308.971 744.343 310.152 738.419 311.738 732.597C312.81 728.069 314.798 723.809 317.58 720.08C318.964 718.271 320.785 716.843 322.872 715.931C324.96 715.019 327.245 714.652 329.513 714.866C334.917 715.538 339.269 718.941 343.023 722.636C347.244 726.784 351.114 731.312 355.028 735.781L357.949 739.169C358.037 739.272 357.949 739.418 357.803 739.315C353.977 734.934 350.004 730.654 345.856 726.579C342.015 722.811 338.057 718.692 332.711 717.13C330.239 716.343 327.593 716.282 325.087 716.954C323.098 717.588 321.307 718.725 319.888 720.255C317.063 723.54 315.06 727.45 314.045 731.662C310.73 743.01 309.532 754.899 308.306 766.613C307.079 778.326 306.202 790.449 305.604 802.411C305.005 814.373 304.537 826.451 303.384 838.428C303.237 839.888 303.048 841.349 302.858 842.809C302.741 843.803 301.193 843.803 301.28 842.809C302.332 830.409 302.902 818.024 303.457 805.624Z" fill="#263238"/>
<path d="M343.767 723.982C343.767 723.982 336.713 710.94 345.053 706.748C353.392 702.556 381.245 733.68 389.38 779.176C389.38 779.176 344.366 759.254 329.089 739.406C313.812 719.557 331.134 715.19 343.767 723.982Z" fill="#92E3A9"/>
<path d="M337.149 734.584C342.203 734.584 347.256 734.204 352.31 734.233L349.462 730.976C348.045 729.534 346.723 728.002 345.503 726.39C345.43 726.288 345.591 726.127 345.693 726.215C347.063 727.403 348.342 728.692 349.52 730.07C350.791 731.414 352.047 732.758 353.303 734.116C355.25 736.219 357.154 738.337 359.013 740.47C359.013 740.265 359.013 740.061 359.013 739.856C359.013 738.965 359.013 738.089 359.013 737.198C359.013 735.489 359.013 733.766 359.013 732.057C359.013 728.581 359.013 725.075 358.751 721.614C358.751 721.468 358.94 721.482 358.955 721.614C359.203 725.105 359.554 728.581 359.729 732.071C359.817 733.78 359.861 735.504 359.875 737.227C359.875 738.103 359.875 738.994 359.875 739.871C359.875 740.353 359.875 740.864 359.875 741.331L360.766 742.31C364.797 746.925 368.638 751.701 372.45 756.565C372.435 756.292 372.435 756.019 372.45 755.747C372.45 755.221 372.567 754.681 372.626 754.14C372.757 752.986 372.918 751.833 373.079 750.679C373.239 749.525 373.414 748.503 373.604 747.422C373.794 746.341 374.101 744.983 374.203 743.741C374.203 743.595 374.437 743.624 374.393 743.741C374.183 744.964 374.046 746.198 373.984 747.436C373.867 748.546 373.765 749.671 373.663 750.781C373.56 751.891 373.473 753.001 373.356 754.126C373.356 754.651 373.254 755.192 373.195 755.732C373.195 755.995 373.195 756.258 373.093 756.535C373.073 756.76 372.997 756.975 372.874 757.164L374.802 759.676C377.358 763.064 379.855 766.467 382.368 769.899C382.368 770.002 382.295 770.148 382.221 770.046C379.841 766.949 377.402 763.911 374.919 760.902C373.078 760.976 371.18 760.902 369.325 760.815C367.47 760.727 365.425 760.815 363.483 760.815C363.351 760.815 363.366 760.61 363.483 760.61H369.325C371.107 760.61 372.918 760.523 374.7 760.61C372.523 757.967 370.318 755.338 368.113 752.709L365.703 749.788C364.951 749.875 364.191 749.875 363.439 749.788H360.781C359.116 749.788 357.451 749.788 355.786 749.788C352.353 749.788 348.921 749.627 345.474 749.613C345.343 749.613 345.357 749.408 345.474 749.408C348.907 749.408 352.353 749.218 355.786 749.131C357.451 749.131 359.116 749.028 360.781 749.014H363.439C363.95 749.014 364.476 749.014 364.987 749.014L359.306 742.295C359.261 742.267 359.226 742.226 359.203 742.178C357.363 740.002 355.523 737.797 353.653 735.664L352.879 734.788C347.636 734.949 342.392 734.598 337.149 734.7C337.003 734.803 337.018 734.584 337.149 734.584Z" fill="#263238"/>
<path d="M339.736 743.521H340.963C340.982 743.529 340.998 743.542 341.01 743.559C341.021 743.576 341.027 743.596 341.027 743.616C341.027 743.637 341.021 743.657 341.01 743.674C340.998 743.691 340.982 743.704 340.963 743.711H339.736C339.59 743.741 339.605 743.521 339.736 743.521Z" fill="#263238"/>
<path d="M342.452 743.536C344.074 743.536 345.695 743.536 347.316 743.433H349.755C350.507 743.339 351.267 743.339 352.019 743.433C352.019 743.433 352.019 743.565 352.019 743.58C351.275 743.736 350.514 743.79 349.755 743.74H347.331H342.467C342.321 743.755 342.321 743.55 342.452 743.536Z" fill="#263238"/>
<path d="M356.605 758.74C359.898 758.192 363.228 757.889 366.566 757.835V757.908C363.25 758.229 359.95 758.405 356.663 758.93C356.532 758.96 356.473 758.755 356.605 758.74Z" fill="#263238"/>
<path d="M370.146 744.252C370.146 743.96 370.146 743.668 370.249 743.39C370.336 742.733 370.438 742.091 370.541 741.433C370.731 740.207 370.95 738.965 371.183 737.738C371.183 737.621 371.402 737.651 371.388 737.738C371.227 739.009 371.096 740.28 370.979 741.565C370.979 742.193 370.877 742.821 370.818 743.449C370.833 744.054 370.745 744.656 370.555 745.231C370.468 745.421 370.176 745.348 370.132 745.231C370.065 744.907 370.07 744.573 370.146 744.252Z" fill="#263238"/>
<path d="M303.894 707.229C305.515 704.235 307.56 700.262 311.577 700.525C314.907 700.73 316.397 704.118 317.112 706.922C319.303 715.583 319.449 724.712 319.887 733.592C320.778 752.36 321.596 771.142 321.713 789.925C321.713 795.124 321.713 800.334 321.713 805.553C321.713 810.854 321.713 816.2 321.333 821.502C321.316 821.592 321.267 821.673 321.197 821.731C321.126 821.789 321.038 821.821 320.946 821.821C320.855 821.821 320.766 821.789 320.695 821.731C320.625 821.673 320.577 821.592 320.559 821.502C320.559 816.974 320.691 812.417 320.705 807.875C320.72 803.333 320.705 799.01 320.617 794.584C320.471 785.607 320.233 776.629 319.902 767.652C319.566 758.728 319.172 749.818 318.806 740.895C318.621 736.435 318.427 731.98 318.222 727.531C318.032 723.149 317.842 718.884 317.346 714.59C317.068 712.195 316.718 709.785 316.207 707.419C315.963 705.654 315.247 703.989 314.133 702.599C313.365 701.85 312.358 701.397 311.289 701.32C310.22 701.242 309.158 701.545 308.291 702.176C306.464 703.5 305.026 705.291 304.128 707.36C304.011 707.463 303.836 707.346 303.894 707.229Z" fill="#263238"/>
<path d="M304.991 705.796C304.991 705.796 308.292 694.112 300.99 699.954C288.823 709.681 288.385 730.815 288.385 730.815C288.385 730.815 310.016 718.255 312.703 709.959C316.705 697.617 304.991 705.796 304.991 705.796Z" fill="#92E3A9"/>
<path d="M292.941 722.153C293.131 721.832 293.35 721.511 293.554 721.189C293.525 720.859 293.525 720.527 293.554 720.196C293.554 719.7 293.554 719.188 293.554 718.736C293.554 717.743 293.554 716.764 293.452 715.815C293.452 715.787 293.463 715.761 293.482 715.742C293.501 715.723 293.527 715.712 293.554 715.712C293.581 715.712 293.607 715.723 293.627 715.742C293.646 715.761 293.657 715.787 293.657 715.815C293.657 716.779 293.744 717.743 293.773 718.736C293.773 719.218 293.773 719.714 293.773 720.196C293.773 720.386 293.773 720.605 293.773 720.81C294.621 719.495 295.482 718.195 296.388 716.91C296.651 716.53 296.928 716.18 297.191 715.8C297.325 714.534 297.349 713.258 297.264 711.988C297.264 710.63 297.264 709.286 297.176 707.928C297.176 707.901 297.187 707.875 297.206 707.855C297.226 707.836 297.252 707.825 297.279 707.825C297.306 707.825 297.332 707.836 297.351 707.855C297.37 707.875 297.381 707.901 297.381 707.928C297.381 709.388 297.498 710.747 297.571 712.163C297.646 713.169 297.671 714.178 297.644 715.187C299.732 712.339 301.952 709.607 304.202 706.876C304.275 706.788 304.435 706.876 304.362 707.008C302.902 708.76 301.631 710.571 300.331 712.397C302.873 711.798 305.458 711.462 308.057 711.082C308.189 711.082 308.233 711.272 308.057 711.287C305.326 711.696 302.639 712.382 299.922 712.981C298.885 714.442 297.863 715.902 296.84 717.363L295.614 719.159H295.731L296.578 719.042L298.374 718.882C299.616 718.78 300.872 718.721 302.113 718.648C302.245 718.648 302.245 718.853 302.113 718.867C300.886 718.867 299.659 718.984 298.433 719.115L296.505 719.349L295.657 719.451H295.409L293.335 722.518C292.108 724.33 291.013 726.257 289.713 728.01C289.64 728.112 289.494 728.01 289.538 727.893C290.561 725.916 291.697 724 292.941 722.153Z" fill="#263238"/>
<path d="M298.316 708.967V707.594C298.345 706.618 298.306 705.642 298.199 704.673C298.199 704.645 298.21 704.619 298.229 704.6C298.248 704.581 298.274 704.57 298.301 704.57C298.328 704.57 298.354 704.581 298.374 704.6C298.393 704.619 298.404 704.645 298.404 704.673C298.404 705.622 298.506 706.557 298.55 707.506C298.55 707.973 298.55 708.455 298.55 708.967V709.624C298.594 709.846 298.594 710.074 298.55 710.296C298.55 710.319 298.54 710.341 298.524 710.358C298.507 710.374 298.485 710.383 298.462 710.383C298.439 710.383 298.416 710.374 298.4 710.358C298.384 710.341 298.374 710.319 298.374 710.296C298.345 710.087 298.345 709.876 298.374 709.668L298.316 708.967Z" fill="#263238"/>
<path d="M300.988 713.8C301.801 713.674 302.62 713.591 303.441 713.552C304.332 713.479 305.223 713.391 306.114 713.274C306.141 713.274 306.167 713.285 306.186 713.304C306.206 713.324 306.216 713.35 306.216 713.377C306.216 713.404 306.206 713.43 306.186 713.449C306.167 713.468 306.141 713.479 306.114 713.479C304.405 713.596 302.711 713.902 301.002 713.961C300.915 714.005 300.9 713.815 300.988 713.8Z" fill="#263238"/>
<path d="M303.396 769.506C307.939 766.088 312.028 761.181 318.148 760.933C323.201 760.743 326.736 764.54 328.766 768.776C329.783 771.024 330.609 773.355 331.234 775.742C332.15 778.946 333.011 782.159 333.82 785.382C335.397 791.721 336.741 798.133 337.865 804.574C338.479 808.167 339.048 811.774 339.501 815.382C340.089 819.046 340.445 822.743 340.567 826.453C340.568 826.593 340.517 826.728 340.424 826.833C340.331 826.938 340.203 827.005 340.064 827.022C339.925 827.038 339.784 827.002 339.67 826.922C339.555 826.841 339.474 826.721 339.443 826.584C338.829 823.561 338.566 820.435 338.114 817.383C337.661 814.33 337.208 811.234 336.653 808.167C335.621 802.052 334.413 795.956 333.031 789.881C331.731 784.155 330.446 778.342 328.649 772.763C327.32 768.776 325.202 764.117 320.879 762.671C314.321 760.494 308.362 766.045 303.557 769.652C303.426 769.754 303.28 769.608 303.396 769.506Z" fill="#263238"/>
<path d="M308.042 766.263C308.042 766.263 312.233 754.286 306.172 751.935C297.088 748.415 273.295 775.216 277.954 816.199C277.954 816.199 296.328 806.077 309.897 794.685C323.465 783.293 326.956 768.395 320.967 764.568C314.979 760.742 308.042 766.263 308.042 766.263Z" fill="#92E3A9"/>
<path d="M280.759 807.48C281.39 806.049 282.127 804.667 282.965 803.346C283.739 801.886 284.527 800.542 285.345 799.155C286.923 796.453 288.485 793.751 290.107 791.063L290.91 789.763C290.91 789.603 290.91 789.442 290.808 789.281L290.53 788.098C290.326 787.207 290.18 786.316 290.004 785.411C289.683 783.658 289.376 781.876 288.894 780.153C288.894 780.021 289.084 779.978 289.099 780.153C289.479 781.92 290.034 783.644 290.559 785.367C290.808 786.2 291.085 787.047 291.304 787.908C291.304 788.2 291.465 788.493 291.538 788.785C293.495 785.586 295.481 782.388 297.614 779.306C297.476 778.881 297.407 778.438 297.409 777.991C297.409 777.392 297.278 776.794 297.205 776.195C297.044 774.851 296.884 773.493 296.694 772.149C296.299 769.506 295.905 766.877 295.233 764.277C295.233 764.145 295.408 764.116 295.438 764.277C296.095 766.862 296.811 769.447 297.293 772.061C297.541 773.347 297.76 774.647 297.935 775.932C298.023 776.589 298.096 777.246 298.154 777.889C298.154 778.079 298.154 778.283 298.227 778.473C298.899 777.553 299.556 776.618 300.243 775.713C302.346 772.952 304.522 770.25 306.713 767.563C306.801 767.461 306.961 767.563 306.888 767.68C303.138 772.451 299.69 777.45 296.562 782.65L294.766 785.572H295.365C296.139 785.469 296.913 785.425 297.687 785.352C299.235 785.206 300.769 785.06 302.317 784.943C305.413 784.695 308.524 784.505 311.62 784.184C311.752 784.184 311.781 784.374 311.62 784.388C308.495 784.739 305.369 785.236 302.258 785.688L297.658 786.302C296.49 786.543 295.301 786.666 294.108 786.667L290.457 792.597C290.729 792.575 291.003 792.575 291.275 792.597H295.657C297.658 792.597 299.644 792.597 301.645 792.597C301.776 792.597 301.762 792.801 301.645 792.801C299.615 792.801 297.599 792.933 295.584 793.035L292.663 793.21L291.202 793.312C290.788 793.4 290.36 793.4 289.946 793.312L286.835 798.351C285.886 799.899 284.922 801.448 283.914 802.981C282.995 804.619 281.955 806.186 280.803 807.67C280.876 807.67 280.701 807.596 280.759 807.48Z" fill="#263238"/>
<path d="M289.508 774.296C289.693 775.614 289.971 776.917 290.341 778.195C290.677 779.524 291.057 780.839 291.495 782.139C291.5 782.155 291.503 782.172 291.502 782.19C291.501 782.207 291.497 782.224 291.489 782.239C291.482 782.255 291.471 782.269 291.459 782.281C291.446 782.292 291.431 782.301 291.414 782.307C291.398 782.313 291.381 782.315 291.364 782.314C291.346 782.313 291.329 782.309 291.314 782.301C291.298 782.294 291.284 782.283 291.273 782.271C291.261 782.258 291.252 782.243 291.246 782.226C290.837 780.927 290.472 779.627 290.151 778.312C289.83 776.998 289.625 775.639 289.304 774.325C289.302 774.311 289.303 774.298 289.306 774.285C289.309 774.272 289.315 774.259 289.323 774.248C289.34 774.226 289.364 774.212 289.392 774.208C289.419 774.204 289.446 774.211 289.468 774.228C289.49 774.244 289.504 774.269 289.508 774.296Z" fill="#263238"/>
<path d="M303.018 782.314C303.298 782.072 303.655 781.938 304.025 781.934L305.749 781.701L308.991 781.306C311.226 781.043 313.475 780.824 315.71 780.547C315.841 780.547 315.87 780.737 315.71 780.751C313.607 781 311.503 781.321 309.386 781.598C308.363 781.745 307.326 781.891 306.289 782.007L304.829 782.168C304.247 782.168 303.669 782.267 303.12 782.46C303.018 782.519 302.945 782.387 303.018 782.314Z" fill="#263238"/>
<path d="M289.552 800.366C290.604 800.278 291.67 800.234 292.722 800.205H294.328H295.103C295.437 800.241 295.775 800.241 296.11 800.205C296.256 800.205 296.271 800.439 296.11 800.41C295.799 800.381 295.486 800.381 295.176 800.41H294.343L292.736 800.497C291.685 800.57 290.619 800.629 289.552 800.629C289.421 800.585 289.421 800.38 289.552 800.366Z" fill="#263238"/>
<path d="M283.067 795.795L282.716 793.999C282.497 792.816 282.278 791.633 282.074 790.45C282.074 790.423 282.084 790.397 282.104 790.378C282.123 790.358 282.149 790.348 282.176 790.348C282.203 790.348 282.229 790.358 282.248 790.378C282.267 790.397 282.278 790.423 282.278 790.45C282.526 791.604 282.789 792.758 283.052 793.911C283.184 794.481 283.315 795.065 283.432 795.635C283.432 795.912 283.549 796.175 283.593 796.438C283.677 796.712 283.711 796.999 283.695 797.285C283.695 797.387 283.534 797.46 283.461 797.285C283.243 796.816 283.109 796.311 283.067 795.795Z" fill="#263238"/>
<path d="M285.507 831.155L286.529 848.127L289.553 898.223H351.494L354.518 848.127L355.54 831.155H285.507Z" fill="#455A64"/>
<path d="M285.507 831.155L286.529 848.127H354.518L355.54 831.155H285.507Z" fill="#263238"/>
<path d="M280.775 819.148H360.287V836.135H280.775V819.148Z" fill="#455A64"/>
<path d="M191.49 832.498C191.49 832.498 191.49 897.872 191.49 897.916C191.49 910.418 191.593 921.387 192.206 927.054C192.199 927.082 192.199 927.112 192.206 927.141C192.207 928.484 192.517 929.808 193.112 931.012L193.185 931.085C196.894 933.626 296.796 937.044 300.315 935.992C303.835 934.94 301.119 924.804 297.394 921.591C293.67 918.378 255.959 899.946 255.959 899.946L255.316 834.587L191.49 832.498Z" fill="#EB9481"/>
<path d="M191.505 884.495V897.918C191.505 910.42 191.608 921.388 192.221 927.055C192.214 927.084 192.214 927.114 192.221 927.143C192.366 928.465 192.67 929.764 193.126 931.013L193.199 931.086C196.909 933.628 296.81 937.045 300.33 935.994C303.85 934.942 301.134 924.806 297.409 921.593C293.685 918.38 255.974 899.948 255.974 899.948L256.149 886.321L191.505 884.495Z" fill="white"/>
<path d="M300.345 936.007C296.81 937.059 196.923 933.641 193.214 931.1C191.753 930.151 191.432 915.574 191.505 897.931C191.505 897.756 191.505 897.566 191.505 897.391L255.973 898.851V899.947C255.973 899.947 293.626 918.364 297.409 921.592C301.192 924.82 303.879 934.956 300.345 936.007Z" fill="#92E3A9"/>
<path d="M299.277 932.079C282.451 931.1 214.492 928.69 197.783 928.982C197.652 928.982 197.652 929.085 197.783 929.099C214.434 930.443 282.407 932.298 299.262 932.356C299.686 932.356 299.7 932.108 299.277 932.079Z" fill="#263238"/>
<path d="M261.304 900.326C254.717 898.866 246.582 899.611 241.353 904.153C241.149 904.328 241.353 904.62 241.631 904.547C248.049 902.721 254.644 901.585 261.304 901.159C261.401 901.141 261.489 901.089 261.552 901.013C261.615 900.937 261.649 900.841 261.649 900.743C261.649 900.644 261.615 900.548 261.552 900.472C261.489 900.396 261.401 900.345 261.304 900.326Z" fill="#263238"/>
<path d="M266.021 903.378C259.434 901.917 251.299 902.648 246.07 907.205C245.865 907.38 246.07 907.657 246.333 907.599C252.736 905.771 259.317 904.635 265.963 904.211C266.062 904.2 266.154 904.155 266.224 904.084C266.293 904.012 266.335 903.918 266.342 903.819C266.349 903.719 266.32 903.621 266.262 903.54C266.203 903.459 266.118 903.402 266.021 903.378Z" fill="#263238"/>
<path d="M270.71 906.417C264.123 904.957 255.973 905.702 250.759 910.244C250.554 910.419 250.759 910.711 251.022 910.653C257.423 908.818 264.005 907.682 270.651 907.264C270.747 907.247 270.834 907.198 270.899 907.125C270.964 907.053 271.003 906.961 271.01 906.864C271.016 906.766 270.991 906.67 270.936 906.589C270.882 906.508 270.802 906.448 270.71 906.417Z" fill="#263238"/>
<path d="M188.276 785.499V786.215L189.722 900.677L259.652 899.275L245.295 550.337H186.231L188.276 785.499Z" fill="#455A64"/>
<path d="M256.73 887.618C245.805 887.516 248.946 887.399 238.021 887.413C232.69 887.413 197.578 887.559 192.598 888.436C192.575 888.444 192.556 888.459 192.543 888.479C192.529 888.498 192.522 888.521 192.522 888.545C192.522 888.569 192.529 888.592 192.543 888.612C192.556 888.632 192.575 888.646 192.598 888.655C197.593 889.429 232.704 888.655 238.035 888.582C248.96 888.348 245.82 888.29 256.73 887.925C256.754 887.932 256.78 887.934 256.805 887.93C256.83 887.925 256.853 887.916 256.873 887.901C256.894 887.886 256.91 887.866 256.922 887.844C256.933 887.821 256.939 887.796 256.939 887.771C256.939 887.746 256.933 887.721 256.922 887.699C256.91 887.676 256.894 887.657 256.873 887.642C256.853 887.627 256.83 887.617 256.805 887.613C256.78 887.609 256.754 887.61 256.73 887.618Z" fill="#263238"/>
<path d="M201.596 848.813C201.45 838.355 201.279 827.898 201.085 817.44C200.695 796.525 200.306 775.591 199.916 754.637C199.157 713.021 198.49 671.41 197.915 629.804C197.55 606.333 197.565 582.848 196.966 559.377H196.864C196.484 580.292 196.718 601.222 196.747 622.18C196.776 643.139 196.878 664.025 197.083 684.984C197.482 726.599 198.134 768.215 199.04 809.831C199.318 821.515 199.61 833.302 200.004 845.03C200.398 856.758 200.676 868.515 201.465 880.229C201.474 880.258 201.493 880.284 201.518 880.302C201.543 880.32 201.573 880.329 201.603 880.329C201.634 880.329 201.664 880.32 201.689 880.302C201.714 880.284 201.732 880.258 201.742 880.229C201.976 869.728 201.727 859.256 201.596 848.813Z" fill="#263238"/>
<path d="M186.23 551.051L187.779 729.222L235.129 550.35H186.245L186.23 551.051Z" fill="#263238"/>
<path d="M80.8118 799.799C80.8118 799.799 47.0732 854.628 47.044 854.657C41.5669 865.903 36.9662 875.849 35.0675 881.224C35.0594 881.253 35.0594 881.283 35.0675 881.312C34.4839 882.518 34.1888 883.843 34.2058 885.182C34.204 885.216 34.204 885.25 34.2058 885.284C36.4551 889.184 124.979 935.585 128.615 936.17C132.252 936.754 134.18 926.428 132.179 921.886C130.178 917.343 104.224 884.423 104.224 884.423L137.379 829.389L80.8118 799.799Z" fill="#EB9481"/>
<path d="M34.1741 885.194C34.1676 885.208 34.1643 885.223 34.1643 885.238C34.1643 885.253 34.1676 885.268 34.1741 885.282C36.4088 889.181 124.947 935.583 128.584 936.167C132.22 936.751 134.148 926.425 132.162 921.883C130.176 917.34 104.193 884.405 104.193 884.405L110.108 874.576C95.6338 866.864 69.3294 853.325 53.0006 844.927C49.4514 850.696 47.0269 854.654 47.0269 854.669C41.5353 865.9 36.9346 875.846 35.0359 881.207C35.0295 881.24 35.0295 881.275 35.0359 881.309C34.4431 882.517 34.1477 883.849 34.1741 885.194Z" fill="white"/>
<path d="M128.615 936.166C124.978 935.581 36.4545 889.18 34.2052 885.28C33.3289 883.82 39.3317 870.514 47.058 854.609C47.1319 854.439 47.2148 854.273 47.3063 854.112L104.749 883.323L104.224 884.287C104.224 884.287 130.163 917.208 132.178 921.765C134.194 926.322 132.251 936.75 128.615 936.166Z" fill="#92E3A9"/>
<path d="M129.417 932.21C114.68 924.016 54.4908 892.381 39.3012 885.473C39.1844 885.473 39.1405 885.473 39.3012 885.56C53.7314 894.002 114.169 925.141 129.329 932.517C129.607 932.604 129.723 932.385 129.417 932.21Z" fill="#263238"/>
<path d="M108.927 887.109C103.626 882.932 95.9725 880.069 89.2978 881.909C89.0349 881.982 89.1371 882.348 89.2978 882.377C95.8806 883.495 102.324 885.316 108.519 887.81C108.607 887.831 108.7 887.824 108.784 887.788C108.868 887.752 108.938 887.691 108.984 887.612C109.03 887.533 109.049 887.442 109.039 887.351C109.029 887.26 108.99 887.176 108.927 887.109Z" fill="#263238"/>
<path d="M111.832 891.883C106.531 887.706 98.8773 884.844 92.2026 886.684C91.9397 886.684 92.0419 887.122 92.2026 887.151C98.7622 888.282 105.181 890.113 111.35 892.614C111.447 892.678 111.565 892.7 111.679 892.677C111.793 892.654 111.893 892.586 111.956 892.489C112.02 892.393 112.043 892.274 112.02 892.161C111.997 892.047 111.929 891.947 111.832 891.883Z" fill="#263238"/>
<path d="M114.724 896.659C109.437 892.482 101.769 889.619 95.0946 891.459C94.8317 891.532 94.9339 891.897 95.1676 891.927C101.727 893.059 108.146 894.891 114.315 897.389C114.41 897.424 114.514 897.424 114.609 897.39C114.704 897.355 114.783 897.287 114.832 897.199C114.882 897.111 114.898 897.008 114.878 896.909C114.858 896.81 114.804 896.721 114.724 896.659Z" fill="#263238"/>
<path d="M235.541 550.291C235.292 551.503 231.159 570.738 226.88 587.126C223.769 599.146 220.555 609.706 218.73 610.801C216.641 612.028 206.505 616.526 203.102 617.943C203.102 617.943 180.288 731.865 168.253 767.094C157.139 799.678 111.161 886.756 111.161 886.756L44.4577 853.061C44.4577 853.061 96.5553 764.684 102.032 748.822C110.518 724.241 142.343 604.229 142.343 604.229C142.343 604.229 142.095 566.649 154.743 550.188L235.541 550.291Z" fill="#455A64"/>
<path d="M110.166 873.817C100.643 868.486 103.448 869.888 93.8517 864.659C89.1634 862.103 58.3021 845.351 53.5116 843.744C53.4093 843.744 53.3217 843.876 53.4093 843.934C57.4258 847.016 88.5646 863.228 93.3114 865.682C102.995 870.72 100.278 869.172 110.02 874.094C110.055 874.104 110.093 874.101 110.126 874.086C110.16 874.072 110.187 874.046 110.204 874.014C110.221 873.982 110.227 873.945 110.22 873.909C110.213 873.873 110.194 873.84 110.166 873.817Z" fill="#263238"/>
<path d="M159.43 593.817C161.255 593.35 163.213 593.203 165.082 592.911C166.543 592.663 168.076 592.4 169.566 592.079C172.425 591.565 175.134 590.423 177.497 588.734C180.082 586.733 181.382 583.681 182.638 580.76C183.383 579.022 184.098 577.284 184.916 575.56L186.055 573.063C186.598 572.093 187.086 571.093 187.516 570.068C187.516 569.908 187.794 570.068 187.735 570.068C187.482 570.775 187.272 571.497 187.107 572.23C186.844 573.077 186.61 573.91 186.348 574.742C185.88 576.203 185.442 577.736 184.887 579.226C184.139 581.961 183.07 584.599 181.703 587.084C178.957 591.465 174.035 593.233 169.113 593.846C167.653 594.036 166.28 594.124 164.848 594.211C163.06 594.372 161.262 594.372 159.474 594.211C159.44 594.192 159.412 594.165 159.391 594.132C159.371 594.1 159.358 594.063 159.353 594.025C159.349 593.987 159.354 593.948 159.367 593.912C159.38 593.876 159.402 593.843 159.43 593.817Z" fill="#263238"/>
<path d="M224.103 608.173C216.867 610.81 209.874 614.069 203.202 617.915C202.939 618.061 203.115 618.47 203.392 618.338C210.432 615.315 217.618 612.423 224.482 609.02C224.581 608.961 224.654 608.868 224.688 608.759C224.723 608.65 224.716 608.532 224.669 608.428C224.622 608.323 224.539 608.239 224.434 608.192C224.33 608.146 224.212 608.139 224.103 608.173Z" fill="#263238"/>
<path d="M226.252 559.932C226.252 559.698 225.813 559.64 225.813 559.932C225.812 567.79 225.417 575.643 224.63 583.461C224.309 587.084 221.388 607.137 215.093 605.676C214.041 605.428 213.501 604.391 213.34 602.755C213.365 600.679 213.644 598.614 214.173 596.606C214.874 592.4 215.429 588.194 215.794 583.958C216.525 576.064 216.437 568.115 215.531 560.239C215.519 560.196 215.494 560.158 215.458 560.13C215.422 560.103 215.379 560.089 215.334 560.089C215.289 560.089 215.246 560.103 215.21 560.13C215.174 560.158 215.149 560.196 215.137 560.239C215.318 571.182 214.678 582.123 213.224 592.97C212.435 598.184 209.806 606.115 215.254 606.845C220.702 607.575 224.411 594.503 225.083 590.91C226.818 580.679 227.21 570.265 226.252 559.932Z" fill="#263238"/>
<path d="M215.238 606.188C214.657 607.536 214.17 608.922 213.777 610.336C213.37 611.429 213.167 612.587 213.179 613.754C213.188 613.8 213.211 613.842 213.244 613.876C213.277 613.91 213.319 613.933 213.365 613.944C213.411 613.955 213.459 613.952 213.504 613.937C213.548 613.921 213.588 613.893 213.617 613.856C214.274 612.829 214.767 611.705 215.077 610.526C215.559 609.24 216.071 607.97 216.538 606.67C216.572 606.506 216.546 606.335 216.465 606.188C216.384 606.041 216.253 605.928 216.095 605.87C215.938 605.812 215.765 605.812 215.608 605.87C215.45 605.928 215.319 606.041 215.238 606.188Z" fill="#263238"/>
<path d="M62.4496 842.052C71.9431 824.175 81.7287 806.458 91.5582 788.771C96.4072 780.008 101.461 771.42 106.076 762.583C110.43 753.824 113.964 744.681 116.636 735.271C122.478 716.187 128.038 697.005 133.315 677.726C138.593 658.447 143.524 639.09 148.11 619.655C149.279 614.806 150.549 609.942 151.484 605.049C152.317 600.094 152.317 595.034 151.484 590.079C150.771 585.459 150.737 580.76 151.382 576.131C152.116 571.516 153.205 566.965 154.639 562.518C155.369 560.167 156.173 557.83 156.976 555.508C157.001 555.464 157.04 555.429 157.087 555.411C157.134 555.392 157.186 555.391 157.234 555.406C157.282 555.422 157.324 555.453 157.351 555.496C157.379 555.538 157.391 555.589 157.385 555.639C154.464 565.045 151.543 574.553 152.185 584.529C152.492 589.319 153.763 594.022 153.646 598.842C153.335 603.627 152.522 608.365 151.221 612.98C146.694 632.542 141.825 652.015 136.616 671.402C131.407 690.788 125.9 710.087 120.097 729.298C117.264 738.631 114.62 748.124 110.604 757.048C106.587 765.972 101.49 774.414 96.6847 782.943C86.7822 800.572 76.7921 818.157 66.5683 835.611C65.283 837.816 63.9685 839.992 62.6686 842.227C62.581 842.329 62.3765 842.198 62.4496 842.052Z" fill="#263238"/>
<path d="M205.993 460.353C215.369 469.51 261.946 508.069 288.718 506.608C313.781 505.148 341.75 451.341 349.462 441.015C352.85 436.473 314.978 409.438 310.407 413.396C305.835 417.354 285.811 460.543 281.503 461.916C277.194 463.288 242.068 455.08 220.788 449.764C201.538 444.9 193.096 447.734 205.993 460.353Z" fill="#EB9481"/>
<path d="M263.496 458.791L248.014 494.107C248.014 494.107 217.883 476.449 206.52 463.917C195.157 451.386 195.916 444.93 219.037 448.143C234.145 450.358 249.024 453.921 263.496 458.791Z" fill="#92E3A9"/>
<path d="M268.272 459.171L259.655 456.017L243.866 493.29L251.972 497.467L268.272 459.171Z" fill="#92E3A9"/>
<path opacity="0.1" d="M268.272 459.171L259.655 456.017L243.866 493.29L251.972 497.467L268.272 459.171Z" fill="black"/>
<path d="M301.103 433.58C306.098 408.897 324.34 387.719 328.182 384.828C331.453 382.359 333.162 381.118 333.162 381.118C339.004 376.561 343.254 377.335 343.254 377.335C343.254 377.335 348.381 370.105 353.274 372.486C358.765 375.13 350.469 384.769 349.155 392.934C346.132 411.468 347.023 438.649 346.687 444.053L301.103 433.58Z" fill="#EB9481"/>
<path d="M332.344 410.052C333.158 404.621 334.349 399.253 335.907 393.986C337.964 388.324 340.439 382.822 343.312 377.526C343.332 377.491 343.336 377.45 343.325 377.412C343.314 377.373 343.289 377.341 343.254 377.322C343.219 377.302 343.178 377.298 343.14 377.309C343.101 377.319 343.069 377.345 343.049 377.38C336.411 387.025 332.542 398.305 331.862 409.994C331.867 410.051 331.891 410.104 331.931 410.144C331.97 410.185 332.023 410.211 332.079 410.218C332.135 410.225 332.192 410.212 332.241 410.182C332.289 410.152 332.325 410.106 332.344 410.052Z" fill="#263238"/>
<path d="M320.896 409.862C322.152 404.619 324.43 395.432 333.325 381.207C333.325 381.207 333.325 381.104 333.238 381.207C326.386 389.354 321.931 399.244 320.37 409.775C320.326 410.052 320.808 410.213 320.896 409.862Z" fill="#263238"/>
<path d="M346.936 415.412C347.491 417.982 348.849 417.705 350.879 413.498C352.909 409.292 357.408 390.904 363.688 393.051C369.968 395.198 363.264 421.005 359.306 427.753C355.348 434.501 346.658 444.038 346.658 444.038C346.979 438.707 346.483 425.811 346.936 415.412Z" fill="#EB9481"/>
<path d="M245.238 565.893C243.588 567.528 150.04 562.621 149.544 561.978C148.229 560.196 178.141 462.136 201.787 445.135C206.87 441.484 221.724 444.872 225.156 448.392C227.361 450.597 231.831 464.662 234.956 476.142C241.28 499.306 246.626 564.461 245.238 565.893Z" fill="#92E3A9"/>
<path d="M245.602 566.693C245.602 566.693 246.142 518.788 237.276 480.901C230.908 453.735 227.71 449.456 227.71 449.456L225.198 448.404L229.769 470.721L210.782 469.816C210.782 469.816 202.72 445.965 201.479 445.381C200.69 445.016 197.491 448.2 197.491 448.2C197.491 448.2 204.794 473.496 203.801 483.822C202.808 494.148 195.549 510.287 189.473 515.151C183.397 520.014 162.672 515.618 162.19 515.735C161.708 515.852 147.585 564.313 147.351 564.97C147.117 565.627 245.602 566.693 245.602 566.693Z" fill="#455A64"/>
<path d="M233.132 494.428C229.682 496.78 225.808 498.436 221.725 499.306C219.476 499.467 209.047 495.932 207.514 494.997C206.74 494.53 207.835 478.727 208.2 477.748C208.565 476.77 232.139 477.033 232.781 477.748C234.213 479.647 233.877 493.785 233.132 494.428ZM232.226 478.771C231.467 478.084 210.523 477.383 208.858 478.566C208.624 481.838 208.098 493.961 208.434 494.369C208.77 494.778 219.636 498.605 221.579 498.357C224.5 498.006 231.204 494.749 232.343 493.975C233.161 493.303 232.752 479.253 232.226 478.771Z" fill="#263238"/>
<path d="M148.113 565.203C147.558 565.743 143.994 599.043 146.112 600.372C148.23 601.701 176.871 606.215 178.945 605.105C181.019 603.995 183.239 570.709 183.049 570.271C182.859 569.832 149.135 564.18 148.113 565.203Z" fill="#92E3A9"/>
<path opacity="0.1" d="M182.056 585.111C181.252 594.327 180.084 604.521 178.945 605.12C176.856 606.215 148.273 601.702 146.112 600.373C144.943 599.643 145.498 589.405 146.316 580.159C146.655 575.146 147.255 570.154 148.113 565.203C149.135 564.166 182.859 569.848 183.049 570.271C183.136 570.476 182.713 577.443 182.056 585.111Z" fill="black"/>
<path d="M144.577 564.182C144.095 563.744 147.25 551.315 149.134 548.189C149.134 548.189 179.893 553.579 206.095 555.492C225.695 556.953 248.042 555.887 248.158 556.442C248.275 556.997 249.166 570.317 248.713 571.412C248.261 572.507 218.582 572.873 201.699 571.982C184.815 571.091 146.183 565.672 144.577 564.182Z" fill="#92E3A9"/>
<path d="M233.553 572.93C232.94 573.383 211.645 573.66 211.222 573.193C210.798 572.725 210.638 556.265 212.303 555.301C213.296 554.731 232.093 554.878 233.291 555.418C234.488 555.958 234.138 572.462 233.553 572.93ZM231.26 557.39C230.282 556.966 215.034 556.878 214.23 557.317C212.887 558.062 213.018 570.783 213.34 571.133C213.661 571.484 230.954 571.265 231.45 570.9C231.947 570.535 232.181 557.813 231.217 557.39H231.26Z" fill="#DBDBDB"/>
<path d="M232.806 565.302L226.832 565.325L226.823 563.047L232.797 563.024L232.806 565.302Z" fill="#DBDBDB"/>
<path d="M205.656 563.977C205.629 564.188 205.526 564.382 205.366 564.523C205.206 564.663 205 564.741 204.787 564.741C204.574 564.741 204.369 564.663 204.209 564.523C204.049 564.382 203.946 564.188 203.918 563.977C203.946 563.766 204.049 563.572 204.209 563.432C204.369 563.291 204.574 563.214 204.787 563.214C205 563.214 205.206 563.291 205.366 563.432C205.526 563.572 205.629 563.766 205.656 563.977Z" fill="#263238"/>
<path d="M196.586 563.379C196.592 563.493 196.575 563.608 196.536 563.715C196.498 563.823 196.438 563.922 196.36 564.006C196.283 564.091 196.189 564.159 196.085 564.206C195.981 564.254 195.868 564.281 195.754 564.284C195.639 564.288 195.524 564.27 195.416 564.229C195.308 564.189 195.21 564.127 195.125 564.049C195.041 563.97 194.974 563.875 194.926 563.771C194.878 563.666 194.852 563.552 194.848 563.437C194.844 563.323 194.863 563.209 194.904 563.102C194.945 562.995 195.006 562.897 195.085 562.814C195.164 562.731 195.258 562.665 195.363 562.619C195.468 562.573 195.581 562.548 195.695 562.546C195.808 562.543 195.921 562.561 196.027 562.601C196.133 562.64 196.231 562.701 196.313 562.778C196.396 562.855 196.463 562.948 196.51 563.051C196.556 563.154 196.582 563.266 196.586 563.379Z" fill="#263238"/>
<path d="M150.1 559.419L160.68 560.615L163.727 533.664C163.836 532.702 163.558 531.736 162.954 530.979C162.351 530.221 161.471 529.735 160.509 529.626L157.229 529.255C156.267 529.146 155.301 529.424 154.543 530.028C153.786 530.631 153.299 531.511 153.19 532.473L150.144 559.424L150.1 559.419Z" fill="#37474F"/>
<path d="M158.621 563.248L151.51 562.444L151.828 559.629L158.939 560.433L158.621 563.248Z" fill="#37474F"/>
<path d="M152.752 593.314L150.503 593.06L153.932 562.727L156.181 562.982L152.752 593.314Z" fill="#EBEBEB"/>
<path d="M153.602 596.081C153.602 596.081 151.689 600.594 151.543 600.579L150.798 600.492L150.053 600.404C149.892 600.404 149.045 595.57 149.045 595.57L150.506 593.043L152.74 593.291L153.602 596.081Z" fill="#EBEBEB"/>
<path d="M153.294 556.768L151.45 556.56L154.122 532.932L155.965 533.141L153.294 556.768Z" fill="#263238"/>
<path d="M156.704 557.147L154.861 556.938L157.532 533.311L159.376 533.52L156.704 557.147Z" fill="#263238"/>
<path d="M160.105 557.488L158.262 557.28L160.929 533.653L162.772 533.861L160.105 557.488Z" fill="#263238"/>
<path d="M163.735 550.166L157.662 549.368L158.905 539.897L164.978 540.695L163.735 550.166Z" fill="#EBEBEB"/>
<path d="M165.184 542.536L169.288 543.12C169.916 543.193 172.706 540.681 174.634 540.929L176.751 541.207C178.577 541.441 186.055 544.318 185.427 549.094L185.062 551.927C185.062 551.927 184.331 549.284 182.652 548.583C181.862 548.259 180.978 548.256 180.187 548.576C179.395 548.895 178.76 549.511 178.416 550.291C177.882 551.657 177.443 553.057 177.102 554.483L169.565 553.49C169.427 551.779 169.138 550.083 168.704 548.422C168.178 547.137 164.614 546.961 164.614 546.961L165.184 542.536Z" fill="#EBEBEB"/>
<path d="M173.412 571.134L168.734 570.525L170.934 553.609L175.612 554.217L173.412 571.134Z" fill="#EBEBEB"/>
<path d="M170.704 601.044L163.723 600.136L168.618 562.493L175.599 563.401L170.704 601.044Z" fill="#263238"/>
<path d="M182.055 585.111C181.252 594.327 180.084 604.522 178.944 605.121C176.856 606.216 148.273 601.703 146.111 600.374C144.943 599.644 145.498 589.405 146.316 580.16L182.055 585.111Z" fill="#92E3A9"/>
<path d="M219.169 461.434C213.502 462.165 204.885 452.671 201.847 445.471C201.642 444.96 202.884 440.081 204.111 434.093C204.841 430.442 205.571 426.367 205.965 422.599L228.984 430.821C227.141 435.385 225.866 440.158 225.186 445.033C225.128 445.552 225.128 446.076 225.186 446.595C225.194 446.683 225.194 446.771 225.186 446.858C225.361 449.852 224.66 460.733 219.169 461.434Z" fill="#EB9481"/>
<path d="M207.059 422.99C207.264 427.737 209.104 444.986 222.745 446.724C223.554 446.823 224.369 446.867 225.184 446.855C225.2 446.764 225.2 446.67 225.184 446.578C225.141 446.063 225.141 445.545 225.184 445.03C225.872 440.151 227.152 435.373 228.996 430.804L207.059 422.99Z" fill="#263238"/>
<path d="M207.468 395.519C203.846 403.538 205.16 428.236 210.389 434.37C217.998 443.279 231.99 445.835 239.95 436.327C247.662 427.126 245.384 394.964 239.366 389.239C230.545 380.782 212.814 383.66 207.468 395.519Z" fill="#EB9481"/>
<path d="M228.075 413.237C228.075 413.237 227.958 413.325 227.958 413.383C228.09 415.048 227.958 416.976 226.498 417.604C226.498 417.604 226.498 417.707 226.498 417.692C228.324 417.341 228.47 414.785 228.075 413.237Z" fill="#263238"/>
<path d="M226.514 411.571C223.826 411.498 223.87 416.873 226.367 416.946C228.865 417.019 228.763 411.673 226.514 411.571Z" fill="#263238"/>
<path d="M237.658 413.133C237.658 413.133 237.79 413.22 237.79 413.279C237.79 414.944 237.994 416.857 239.498 417.398V417.5C237.658 417.31 237.366 414.769 237.658 413.133Z" fill="#263238"/>
<path d="M239.131 411.439C241.803 411.22 242.052 416.58 239.583 416.799C237.115 417.018 236.881 411.673 239.131 411.439Z" fill="#263238"/>
<path d="M224.366 409.132C225.07 408.916 225.763 408.663 226.44 408.373C227.208 408.212 227.902 407.801 228.412 407.204C228.538 406.987 228.588 406.734 228.553 406.485C228.519 406.236 228.402 406.006 228.222 405.831C227.805 405.525 227.313 405.339 226.798 405.293C226.283 405.246 225.765 405.342 225.301 405.569C224.312 405.853 223.468 406.5 222.935 407.38C222.813 407.592 222.759 407.837 222.779 408.081C222.8 408.325 222.893 408.558 223.048 408.747C223.203 408.937 223.412 409.076 223.647 409.144C223.883 409.213 224.133 409.209 224.366 409.132Z" fill="#263238"/>
<path d="M241.191 408.751C240.467 408.607 239.75 408.427 239.044 408.211C238.264 408.129 237.535 407.79 236.97 407.247C236.799 407.042 236.705 406.783 236.705 406.516C236.705 406.25 236.799 405.991 236.97 405.786C237.345 405.452 237.803 405.224 238.296 405.127C238.789 405.029 239.3 405.065 239.774 405.231C240.793 405.429 241.7 406.002 242.315 406.838C242.453 407.029 242.532 407.255 242.543 407.49C242.554 407.725 242.497 407.959 242.377 408.161C242.258 408.364 242.083 408.528 241.872 408.633C241.661 408.737 241.425 408.779 241.191 408.751Z" fill="#263238"/>
<path d="M226.558 428.731C226.952 429.125 227.361 429.651 228.018 429.695C228.642 429.678 229.254 429.529 229.815 429.256C229.815 429.256 229.917 429.256 229.888 429.344C229.65 429.673 229.328 429.933 228.955 430.095C228.583 430.256 228.173 430.315 227.77 430.264C227.431 430.178 227.125 429.994 226.891 429.734C226.657 429.474 226.506 429.15 226.456 428.804C226.368 428.716 226.499 428.672 226.558 428.731Z" fill="#263238"/>
<path d="M228.25 423.737C228.678 424.405 229.241 424.976 229.902 425.413C230.564 425.851 231.309 426.146 232.091 426.278C232.765 426.405 233.455 426.43 234.136 426.351C234.262 426.367 234.39 426.367 234.516 426.351H234.881C234.971 426.335 235.054 426.289 235.115 426.22C235.176 426.151 235.212 426.064 235.217 425.972C235.224 425.913 235.224 425.855 235.217 425.796V425.65C235.217 424.365 235.085 422.408 235.085 422.408C235.567 422.642 238.006 423.693 237.919 423.021C237.72 417.245 236.927 411.504 235.553 405.889C235.553 405.85 235.537 405.813 235.51 405.786C235.483 405.759 235.445 405.743 235.407 405.743C235.368 405.743 235.331 405.759 235.303 405.786C235.276 405.813 235.261 405.85 235.261 405.889C235.407 411.235 236.502 416.507 236.721 421.868C235.866 421.483 234.962 421.217 234.034 421.079C233.859 421.079 234.384 424.847 234.326 425.46C233.283 425.57 232.23 425.471 231.226 425.167C230.223 424.864 229.29 424.363 228.484 423.693C228.279 423.489 228.148 423.606 228.25 423.737Z" fill="#263238"/>
<path d="M233.16 425.942C232.389 426.772 231.418 427.39 230.341 427.739C229.747 427.928 229.109 427.928 228.515 427.739C227.23 427.286 227.289 426.088 227.61 425.066C227.792 424.554 228.032 424.064 228.326 423.605C229.646 424.881 231.34 425.7 233.16 425.942Z" fill="#263238"/>
<path d="M230.34 427.739C229.747 427.928 229.109 427.928 228.515 427.739C227.229 427.286 227.288 426.089 227.609 425.066C228.297 425.145 228.939 425.45 229.434 425.934C229.928 426.418 230.247 427.053 230.34 427.739Z" fill="#F291B8"/>
<path d="M207.861 414.186C212.71 415.646 217.632 394.717 217.632 394.717C220.101 396.857 222.885 398.606 225.884 399.901C228.999 401.004 232.228 401.753 235.509 402.136C236.24 402.136 228.762 396.44 228.762 396.44C228.762 396.44 236.795 401.742 243.732 400.822C245.879 400.515 242.403 382.55 227.272 381.104C217.048 380.111 211.206 388.276 211.206 388.276C211.206 388.276 204.254 392.979 203.524 396.44C202.589 401.011 202.735 412.725 207.861 414.186Z" fill="#263238"/>
<path d="M211.748 415.235C211.748 415.235 207.133 406.822 203.364 408.399C199.596 409.977 202.503 421.749 206.505 423.735C206.995 424.016 207.537 424.196 208.098 424.265C208.659 424.334 209.228 424.291 209.772 424.137C210.316 423.983 210.824 423.722 211.266 423.37C211.708 423.018 212.076 422.581 212.347 422.084L211.748 415.235Z" fill="#EB9481"/>
<path d="M204.344 411.747V411.864C207.134 413.324 208.375 416.246 209.149 419.167C209.012 418.855 208.808 418.577 208.553 418.352C208.297 418.127 207.996 417.96 207.669 417.863C207.343 417.765 206.999 417.74 206.662 417.789C206.325 417.837 206.003 417.959 205.717 418.144C205.644 418.144 205.717 418.32 205.717 418.305C206.25 418.198 206.803 418.258 207.299 418.478C207.796 418.697 208.213 419.066 208.492 419.532C208.958 420.31 209.335 421.138 209.617 422C209.719 422.278 210.216 422.19 210.143 421.869C210.581 418.086 208.244 412.565 204.344 411.747Z" fill="#263238"/>
<path d="M245.748 397.885C245.748 397.885 241.498 372.851 219.137 376.474C196.776 380.096 200.646 405.188 200.646 405.188L245.748 397.885Z" fill="#92E3A9"/>
<path d="M198.681 403.653L247.139 395.805L247.713 399.351L199.256 407.2L198.681 403.653Z" fill="#92E3A9"/>
<path d="M223.271 399.697L233.363 398.062L227.01 373.875L216.918 375.511L223.271 399.697Z" fill="#92E3A9"/>
<path opacity="0.1" d="M223.271 399.697L233.363 398.062L227.01 373.875L216.918 375.511L223.271 399.697Z" fill="black"/>
<path d="M225.198 445.82L219.473 459.608L202.457 441.877L197.506 447.442C197.506 447.442 214.025 475.499 214.142 474.243L219.984 462.368L228.134 470.766L227.71 449.895L225.198 445.82Z" fill="#92E3A9"/>
<path d="M228.514 460.44C228.339 456.994 228.237 453.532 227.901 450.1C227.901 449.968 227.697 449.91 227.667 450.1C226.937 453.415 227.667 466.589 227.667 469.744C227.331 469.379 220.116 462.339 220.043 462.441C218.787 464.326 214.493 472.972 214.201 473.761C211.601 469.306 201.568 453.094 198.471 448.931C198.456 448.904 198.43 448.884 198.4 448.876C198.37 448.868 198.338 448.872 198.31 448.888C198.283 448.903 198.264 448.929 198.255 448.959C198.247 448.989 198.251 449.021 198.267 449.048C200.56 453.751 213.821 475.572 214.026 475.513C216.286 471.438 218.329 467.245 220.146 462.953C221.358 464.413 228.631 472.417 228.675 471.906C228.823 468.084 228.77 464.257 228.514 460.44Z" fill="#263238"/>
<path d="M322.559 559.83C323.248 563.157 324.851 566.227 327.189 568.693C329.526 571.16 332.505 572.926 335.791 573.792L332.753 559.187L340.173 554.674L348.732 555.857L351.77 570.462C354.33 568.45 356.307 565.79 357.495 562.758C358.683 559.726 359.04 556.431 358.529 553.215C358.018 549.999 356.657 546.977 354.587 544.463C352.517 541.949 349.813 540.033 346.755 538.914C343.696 537.794 340.395 537.512 337.191 538.096C333.987 538.68 330.997 540.109 328.53 542.236C326.064 544.362 324.21 547.108 323.16 550.191C322.11 553.274 321.902 556.581 322.559 559.771V559.83Z" fill="#37474F"/>
<path d="M337.529 455.954C336.835 452.626 335.229 449.557 332.889 447.09C330.549 444.624 327.569 442.859 324.282 441.991L327.32 456.597L319.929 461.081L311.37 459.897L308.332 445.292C305.772 447.305 303.796 449.966 302.608 452.999C301.421 456.031 301.064 459.326 301.577 462.543C302.089 465.759 303.451 468.781 305.522 471.295C307.594 473.808 310.299 475.723 313.358 476.841C316.417 477.959 319.719 478.24 322.923 477.655C326.127 477.069 329.117 475.638 331.582 473.51C334.048 471.382 335.901 468.634 336.949 465.55C337.997 462.466 338.202 459.158 337.543 455.969L337.529 455.954Z" fill="#37474F"/>
<path d="M315.098 467.827L331.135 464.996L345.423 545.944L329.386 548.775L315.098 467.827Z" fill="#37474F"/>
<path d="M190.191 477.879C194.295 490.323 208.156 536.812 232.459 548.146C255.214 558.75 296.168 545.561 308.787 542.538C314.293 541.208 307.677 504.14 302.361 501.277C297.044 498.415 253.885 510.581 249.445 509.734C245.005 508.887 223.375 486.628 208.74 470.299C194.923 454.92 182.538 454.613 190.191 477.879Z" fill="#EB9481"/>
<path d="M237.599 550.074C238.227 538.624 240.418 527.611 244.113 519.403C245.321 516.602 246.903 513.979 248.816 511.604C249.335 510.945 249.901 510.325 250.511 509.749C250.715 509.559 250.934 509.354 251.153 509.179C251.442 508.91 251.75 508.661 252.073 508.434C253.697 507.158 255.598 506.282 257.623 505.878C257.908 505.819 258.196 505.775 258.485 505.747H259.201H260.165C260.315 505.732 260.467 505.732 260.618 505.747C260.748 505.725 260.881 505.725 261.012 505.747C262.732 505.838 264.424 506.213 266.022 506.857L263.539 507.397H263.407H263.29H263.115C262.423 507.246 261.719 507.148 261.012 507.105H259.814H259.026C257.021 507.353 255.117 508.123 253.505 509.34C246.29 514.481 240.17 528.327 239.148 550.381C239.045 552.484 239.002 554.675 239.002 556.939C239.002 569.28 240.798 580.658 244.04 588.969C246.479 595.176 250.876 602.552 258.208 603.004H259.42H259.77H260.442C260.495 603.013 260.55 603.013 260.603 603.004C271.499 601.222 282.234 582.002 282.234 550.878C282.234 550.293 282.234 549.695 282.234 549.125L283.694 548.818C283.694 549.505 283.694 550.191 283.694 550.878C283.694 566.359 280.51 582.148 274.756 592.576C273.684 594.546 272.428 596.41 271.002 598.141C270.501 598.738 269.97 599.308 269.41 599.85C269.162 600.098 268.899 600.346 268.651 600.565C266.461 602.638 263.697 604.002 260.72 604.479H260.384H259.931H258.222C255.739 604.328 253.351 603.466 251.343 601.997C251.066 601.807 250.803 601.602 250.525 601.383C249.932 600.884 249.366 600.352 248.831 599.791C246.683 597.42 244.941 594.711 243.675 591.773C243.339 591.042 243.018 590.312 242.711 589.509C239.396 581.023 237.57 569.456 237.57 556.939C237.41 554.69 237.468 552.367 237.599 550.074Z" fill="#263238"/>
<path d="M235.349 549.328C236.138 537.643 238.738 526.441 243.076 518.306C244.518 515.524 246.369 512.973 248.567 510.74C248.903 510.404 249.239 510.083 249.59 509.791C249.94 509.499 250.086 509.382 250.32 509.192C252.429 507.486 254.946 506.359 257.623 505.92C257.907 505.861 258.195 505.817 258.484 505.789H259.2H260.164C260.315 505.774 260.466 505.774 260.617 505.789C260.747 505.767 260.881 505.767 261.011 505.789C261.196 505.774 261.381 505.774 261.566 505.789H261.741C263.356 505.909 264.947 506.243 266.474 506.782L266.021 506.87L263.538 507.41H263.406H263.29C262.739 507.306 262.183 507.233 261.625 507.191H261.449C261.304 507.176 261.157 507.176 261.011 507.191H259.813H259.025C256.701 507.411 254.47 508.215 252.54 509.528C248.971 512.072 246.087 515.459 244.142 519.386C240.301 526.499 237.526 536.679 236.839 549.795C236.708 552.103 236.635 554.498 236.635 556.995C236.635 569.322 238.621 580.685 242.243 588.996C242.637 589.931 243.09 590.88 243.601 591.829C246.42 597.131 250.904 602.404 257.506 603.017H258.163H259.375H259.726H259.843H260.135H260.237C260.947 602.955 261.651 602.833 262.34 602.652C262.378 602.664 262.419 602.664 262.457 602.652C262.866 602.535 263.26 602.418 263.655 602.272C264.049 602.126 264.195 602.082 264.473 601.966C268.699 599.899 272.213 596.619 274.565 592.545C275.753 590.675 276.807 588.722 277.72 586.703C282.101 576.961 284.701 563.904 284.701 550.861C284.701 550.087 284.701 549.313 284.701 548.553L286.162 548.247C286.162 549.108 286.162 549.985 286.162 550.861C286.162 565.058 283.241 579.517 277.778 589.858C276.487 592.365 274.935 594.73 273.148 596.912C272.562 597.631 271.933 598.314 271.264 598.957C268.591 601.772 265.102 603.677 261.289 604.405H261.172H260.982H260.661H260.325H259.77H258.061C254.933 604.263 251.922 603.173 249.429 601.279C248.873 600.874 248.345 600.43 247.852 599.95C245.829 598.049 244.119 595.841 242.784 593.407C242.054 592.125 241.395 590.803 240.812 589.449C237.117 580.963 235.086 569.381 235.086 556.864C235.013 554.439 235.174 551.884 235.349 549.328Z" fill="#263238"/>
<path d="M232.939 548.365C233.903 536.915 236.766 526.019 241.469 518.088C243.013 515.428 244.937 513.008 247.18 510.903C247.701 510.413 248.247 509.949 248.816 509.515C251.598 507.336 254.961 506.025 258.484 505.747H259.025H260.164C260.315 505.732 260.466 505.732 260.617 505.747C260.747 505.725 260.881 505.725 261.011 505.747C261.196 505.732 261.381 505.732 261.566 505.747H261.741L263.041 505.864H263.246C264.454 506.016 265.647 506.275 266.809 506.638L266.474 506.711L266.021 506.798L263.538 507.339H263.406L262.661 507.222H261.917H261.449C261.304 507.207 261.157 507.207 261.011 507.222H259.813C259.551 507.2 259.287 507.2 259.025 507.222C256.38 507.435 253.828 508.293 251.591 509.719C250.665 510.292 249.786 510.937 248.962 511.647C246.73 513.568 244.8 515.813 243.236 518.307C238.738 525.303 235.422 535.556 234.473 548.979C234.283 551.549 234.181 554.251 234.181 557.056C234.181 569.368 236.372 580.731 240.344 589.042C241.095 590.621 241.959 592.144 242.93 593.598C244.487 596.031 246.466 598.168 248.772 599.908C251.316 601.807 254.365 602.91 257.535 603.077H258.192H259.404H259.755H260.412H260.646H260.909H261.274C261.405 603.098 261.538 603.098 261.668 603.077C262.403 602.954 263.127 602.769 263.83 602.522C264.107 602.435 264.37 602.332 264.648 602.216C266.954 601.31 269.088 600.016 270.957 598.389C273.702 596.019 276.054 593.229 277.924 590.122C283.533 581.125 287.345 567.849 287.345 551.126C287.345 550.152 287.345 549.178 287.345 548.205L288.805 547.869C288.805 548.92 288.805 549.987 288.805 551.053C288.805 564.446 285.884 578.073 280.582 588.253C279.174 591.018 277.464 593.619 275.485 596.008C272.161 600.321 267.425 603.326 262.106 604.494H261.829H261.435H261.259H261.069H260.748H260.412H260.31H259.857H257.9C253.596 604.313 249.493 602.628 246.303 599.733C244.18 597.802 242.354 595.568 240.885 593.102C240.242 592.021 239.614 590.882 239.03 589.655C234.97 581.155 232.72 569.573 232.72 557.041C232.574 554.12 232.691 551.228 232.939 548.365Z" fill="#263238"/>
<path d="M230.632 547.181C231.742 536.461 234.693 526.31 239.396 518.73L239.469 518.628C241.682 514.893 244.671 511.676 248.232 509.193C251.411 507.064 255.115 505.851 258.938 505.687H260.208C260.359 505.672 260.511 505.672 260.661 505.687C260.792 505.665 260.925 505.665 261.056 505.687C261.24 505.673 261.426 505.673 261.611 505.687H261.713H262.122L263.086 505.789H263.29C264.582 505.929 265.862 506.169 267.117 506.505H266.854L266.518 506.578L266.065 506.666L263.582 507.206L262.823 507.104H262.75H262.005H261.538C261.392 507.089 261.245 507.089 261.099 507.104H259.142C256.431 507.208 253.775 507.901 251.358 509.134C250.972 509.313 250.597 509.513 250.233 509.733C249.729 510.012 249.241 510.319 248.772 510.653C245.966 512.657 243.555 515.163 241.66 518.043C236.46 525.653 233.276 536.461 232.166 547.868C231.874 550.876 231.728 553.909 231.728 556.967C231.728 569.279 234.109 580.628 238.432 588.924C239.165 590.349 240 591.721 240.929 593.028C242.804 595.798 245.212 598.166 248.013 599.994C248.815 600.51 249.655 600.964 250.525 601.353C252.433 602.197 254.465 602.725 256.542 602.916C256.863 602.937 257.185 602.937 257.506 602.916C257.735 602.93 257.964 602.93 258.193 602.916H258.719C259.069 602.916 259.405 602.916 259.756 602.916H260.69H260.953H261.318C261.449 602.936 261.582 602.936 261.713 602.916H262.02L262.56 602.813C262.598 602.826 262.639 602.826 262.677 602.813C265.059 602.252 267.333 601.304 269.41 600.009C270.815 599.158 272.14 598.18 273.368 597.088C276.246 594.533 278.709 591.548 280.671 588.237C286.177 579.313 289.814 566.68 289.814 551.037C289.814 549.898 289.814 548.773 289.814 547.649L291.274 547.313C291.333 548.54 291.362 549.781 291.362 551.037C291.362 563.729 288.528 576.626 283.3 586.616C278.567 595.73 271.805 602.39 263.422 604.274C263.123 604.348 262.821 604.406 262.516 604.449H262.326H262.049H261.654H261.479H261.289H260.968H260.866H260.53H259.58H257.799C250.262 604.172 243.85 600.068 239.06 592.648C238.432 591.669 237.833 590.647 237.263 589.552C232.882 581.037 230.384 569.455 230.384 556.908C230.302 553.664 230.385 550.417 230.632 547.181Z" fill="#263238"/>
<path d="M228.326 545.823C230.385 529.757 236.914 515.152 247.663 508.886C251.076 506.886 254.94 505.786 258.895 505.687H260.165C260.316 505.672 260.468 505.672 260.618 505.687C260.749 505.665 260.882 505.665 261.012 505.687C261.197 505.673 261.383 505.673 261.567 505.687H262.079L263.043 505.789H263.247C264.603 505.924 265.95 506.144 267.278 506.447H267.074H266.811L266.475 506.52L266.022 506.607L263.539 507.148L262.736 507.06H262.663H261.918H261.451C261.305 507.046 261.158 507.046 261.012 507.06H260.56H258.997C256.654 507.113 254.336 507.548 252.132 508.345C251.54 508.55 250.959 508.789 250.394 509.061C250.024 509.217 249.659 509.392 249.299 509.587C248.596 509.959 247.913 510.369 247.254 510.814C244.205 512.883 241.57 515.503 239.484 518.54L239.411 518.642C234.27 525.945 231.028 535.935 229.757 546.568C229.347 550.004 229.142 553.462 229.143 556.923C229.143 569.221 231.714 580.569 236.373 588.865C237.106 590.184 237.925 591.453 238.827 592.663C240.822 595.463 243.348 597.845 246.261 599.673C247.281 600.313 248.356 600.861 249.474 601.309C250.044 601.56 250.63 601.775 251.227 601.952C252.912 602.492 254.659 602.811 256.426 602.901C256.747 602.923 257.069 602.923 257.39 602.901C257.619 602.916 257.848 602.916 258.077 602.901H258.603C258.953 602.901 259.289 602.901 259.64 602.901H260.078H260.209H260.516H260.837H261.202C261.333 602.915 261.466 602.915 261.597 602.901H261.903L262.444 602.799C262.482 602.811 262.523 602.811 262.561 602.799C264.635 602.368 266.644 601.666 268.534 600.71C269.511 600.228 270.457 599.687 271.368 599.089C272.814 598.162 274.177 597.111 275.443 595.949C278.439 593.219 281.014 590.059 283.081 586.572C288.427 577.809 291.918 565.701 291.918 550.993C291.918 549.679 291.918 548.364 291.815 547.079L293.276 546.729C293.276 548.189 293.393 549.562 293.393 550.993C293.393 575.297 282.22 600.36 263.218 604.23C262.919 604.304 262.617 604.362 262.312 604.405H262.122H261.845H261.451H261.334H261.144H260.72L259.26 604.508H257.697C248.364 604.332 240.609 599.177 235.234 589.625C230.443 581.11 227.814 569.513 227.814 556.967C227.744 553.245 227.915 549.523 228.326 545.823Z" fill="#263238"/>
<path d="M245.236 499.099C252.643 499.26 259.928 501.024 266.589 504.27H266.706C267.738 504.795 268.746 505.365 269.729 505.978H270.065L271.642 505.628C263.789 500.583 254.685 497.827 245.353 497.668L245.236 499.099Z" fill="#263238"/>
<path d="M250.934 502.092C256.783 502.446 262.508 503.934 267.789 506.474L269.717 506.05H270.052C268.986 505.466 267.862 504.926 266.693 504.415H266.576C261.658 502.299 256.42 501.02 251.08 500.632L250.934 502.092Z" fill="#263238"/>
<path d="M251.825 497.466C259.062 498.577 265.948 501.335 271.951 505.528L273.864 505.148C267.444 500.39 259.958 497.271 252.058 496.063L251.825 497.466Z" fill="#263238"/>
<path d="M345.708 479.427C346.655 480.476 347.259 481.789 347.439 483.191C347.619 484.593 347.367 486.016 346.716 487.27C349.059 487.832 351.128 489.202 352.558 491.141C354.91 494.661 350.426 499.904 350.426 499.904C352.718 501.007 354.626 502.773 355.903 504.972C357.816 508.565 354.048 514.48 354.048 514.48C355.596 516.656 356.311 519.314 356.064 521.973C355.114 529.042 345.183 533.526 338.917 536.447C332.651 539.368 312.087 541.763 308.245 542.625L289.054 502.46C289.054 502.46 313.474 481.37 321.347 478.974C328.036 476.973 341.926 475.557 345.708 479.427Z" fill="#EB9481"/>
<path d="M346.13 486.759C338.565 487.197 331.525 489.856 324.397 492.105C324.364 492.116 324.337 492.141 324.322 492.172C324.307 492.204 324.305 492.24 324.317 492.273C324.329 492.306 324.353 492.333 324.384 492.348C324.416 492.363 324.452 492.365 324.485 492.353C331.569 490.031 339.09 489.14 346.189 487.11C346.235 487.102 346.277 487.076 346.304 487.038C346.331 486.999 346.342 486.952 346.335 486.905C346.327 486.859 346.301 486.817 346.263 486.79C346.224 486.763 346.177 486.752 346.13 486.759Z" fill="#263238"/>
<path d="M350.016 499.422C348.307 499.682 346.641 500.174 345.065 500.882C343.341 501.51 341.647 502.182 339.953 502.869C336.564 504.256 333.205 505.717 329.89 507.25C329.744 507.25 329.802 507.557 329.89 507.499C333.278 506.126 336.681 504.797 340.114 503.57C341.837 502.956 343.56 502.343 345.284 501.759C346.955 501.304 348.572 500.668 350.104 499.86C350.136 499.829 350.161 499.791 350.174 499.748C350.188 499.706 350.191 499.66 350.182 499.617C350.173 499.573 350.153 499.532 350.124 499.498C350.095 499.464 350.058 499.438 350.016 499.422Z" fill="#263238"/>
<path d="M353.873 514.509C352.336 514.775 350.854 515.298 349.491 516.057C347.957 516.729 346.424 517.371 344.89 518.029C341.809 519.314 338.727 520.614 335.616 521.797C335.455 521.797 335.528 522.104 335.616 522.045C338.8 520.848 341.984 519.708 345.153 518.496L349.812 516.67C351.281 516.25 352.662 515.567 353.887 514.655C353.887 514.655 353.946 514.509 353.873 514.509Z" fill="#263238"/>
<path d="M275.546 504.606C280.319 503.268 285.166 502.214 290.064 501.451C294.226 497.196 298.73 493.288 303.53 489.767C308.243 486.25 313.213 483.091 318.399 480.317C318.53 480.317 318.632 480.434 318.515 480.522C313.593 483.75 308.803 487.27 304.129 490.877C299.455 494.485 295.176 498.34 290.78 502.182C290.604 502.313 278.891 504.051 275.619 504.855C275.488 504.898 275.415 504.65 275.546 504.606Z" fill="#263238"/>
<path d="M233.291 492.573L201.159 513.824C201.159 513.824 191.257 491.054 188.526 474.389C185.795 457.724 189.884 452.744 207.6 467.948C225.317 483.152 233.291 492.573 233.291 492.573Z" fill="#92E3A9"/>
<path d="M236.986 495.449L231.334 488.234L198.253 511.559L202.941 519.388L236.986 495.449Z" fill="#92E3A9"/>
<path opacity="0.1" d="M236.986 495.449L231.334 488.234L198.253 511.559L202.941 519.388L236.986 495.449Z" fill="black"/>
<path d="M189.167 487.357C189.16 487.331 189.162 487.304 189.173 487.279C189.184 487.255 189.203 487.235 189.227 487.223C189.251 487.211 189.279 487.208 189.305 487.214C189.331 487.219 189.354 487.234 189.371 487.255C191.486 490.988 193.383 494.841 195.053 498.793C195.87 500.736 196.659 502.693 197.419 504.635C198.178 506.578 198.806 508.652 199.551 510.638C199.551 510.741 199.42 510.814 199.376 510.638C198.572 508.696 197.638 506.826 196.791 504.913C196.133 503.452 195.476 501.919 194.804 500.414C193.279 498.613 192.038 496.588 191.124 494.412C191.124 494.412 191.124 494.309 191.226 494.412C191.883 495.434 192.482 496.529 193.139 497.566C193.534 498.18 193.913 498.779 194.322 499.378L194.191 499.071C192.438 495.215 190.763 491.31 189.167 487.357Z" fill="#263238"/>
<path d="M385.789 869.641H541.059V932.619H385.789V869.641Z" fill="#92E3A9"/>
<path d="M378.923 852.565H547.893V869.639H378.923V852.565Z" fill="#92E3A9"/>
<path opacity="0.1" d="M385.774 869.641H541.059V881.661H385.774V869.641Z" fill="black"/>
<path d="M445.363 863.139H479.306V876.167H445.363V863.139Z" fill="#263238"/>
<path d="M433.152 852.565H441.2V842.371H485.629V852.565H493.677V834.323H433.152V852.565Z" fill="#263238"/>
</svg>
