<svg width="806" height="601" viewBox="0 0 806 601" fill="none" xmlns="http://www.w3.org/2000/svg">
<path d="M805.438 527.402H0V527.805H805.438V527.402Z" fill="#EBEBEB"/>
<path d="M715.053 542.737H661.701V543.14H715.053V542.737Z" fill="#EBEBEB"/>
<path d="M292.101 548.197H211.782V548.6H292.101V548.197Z" fill="#EBEBEB"/>
<path d="M660.089 557.702H612.52V558.105H660.089V557.702Z" fill="#EBEBEB"/>
<path d="M119.301 554.996H84.5063V555.399H119.301V554.996Z" fill="#EBEBEB"/>
<path d="M195.447 554.996H133.638V555.399H195.447V554.996Z" fill="#EBEBEB"/>
<path d="M533.555 538.37H382.648V538.773H533.555V538.37Z" fill="#EBEBEB"/>
<path d="M381.778 455.556H70.7342C68.2975 455.552 65.9621 454.581 64.2406 452.856C62.5191 451.132 61.5522 448.794 61.5522 446.358V9.11756C61.5735 6.69484 62.5497 4.37833 64.2689 2.67118C65.9881 0.964042 68.3114 0.00415024 70.7342 0H381.778C384.218 0 386.557 0.969083 388.282 2.69406C390.007 4.41904 390.976 6.75861 390.976 9.1981V446.358C390.976 448.797 390.007 451.137 388.282 452.862C386.557 454.587 384.218 455.556 381.778 455.556ZM70.7342 0.322176C68.4044 0.326444 66.1713 1.25498 64.5254 2.90397C62.8794 4.55296 61.955 6.78767 61.955 9.11756V446.358C61.955 448.688 62.8794 450.922 64.5254 452.571C66.1713 454.22 68.4044 455.149 70.7342 455.153H381.778C384.11 455.149 386.344 454.221 387.993 452.572C389.641 450.924 390.569 448.689 390.574 446.358V9.11756C390.569 6.78619 389.641 4.55152 387.993 2.90299C386.344 1.25445 384.11 0.326435 381.778 0.322176H70.7342Z" fill="#EBEBEB"/>
<path d="M730.225 455.556H419.164C416.726 455.552 414.389 454.581 412.665 452.857C410.941 451.133 409.971 448.796 409.966 446.358V9.11756C409.992 6.69337 410.972 4.37687 412.693 2.67018C414.415 0.963479 416.74 0.00410498 419.164 0H730.225C732.645 0.0083838 734.964 0.970149 736.68 2.67684C738.395 4.38353 739.369 6.69762 739.39 9.11756V446.358C739.39 448.792 738.426 451.126 736.708 452.85C734.99 454.574 732.658 455.547 730.225 455.556ZM419.164 0.322176C416.833 0.326435 414.598 1.25445 412.95 2.90299C411.301 4.55152 410.373 6.78619 410.369 9.11756V446.358C410.373 448.689 411.301 450.924 412.95 452.572C414.598 454.221 416.833 455.149 419.164 455.153H730.225C732.556 455.149 734.791 454.221 736.439 452.572C738.088 450.924 739.016 448.689 739.02 446.358V9.11756C739.016 6.78619 738.088 4.55152 736.439 2.90299C734.791 1.25445 732.556 0.326435 730.225 0.322176H419.164Z" fill="#EBEBEB"/>
<path d="M302.618 295.064H478.703L478.703 44.2833L302.618 44.2833V295.064Z" fill="#E6E6E6"/>
<path d="M295.884 295.064H471.969L471.969 44.2833L295.884 44.2833V295.064Z" fill="#F5F5F5"/>
<path d="M459.874 283.773V55.5762L307.985 55.5762V283.773H459.874Z" fill="white"/>
<path d="M313.089 283.754V55.5576H307.999V283.754H313.089Z" fill="#E6E6E6"/>
<path d="M300.896 231.161L466.978 231.161V216.003L300.896 216.003V231.161Z" fill="#F5F5F5"/>
<path d="M300.896 90.6279L466.978 90.6279V75.4696L300.896 75.4696V90.6279Z" fill="#F5F5F5"/>
<path d="M88.1461 295.064H264.231L264.231 44.2833L88.1461 44.2833L88.1461 295.064Z" fill="#E6E6E6"/>
<path d="M81.4122 295.064H257.497L257.497 44.2833L81.4122 44.2833L81.4122 295.064Z" fill="#F5F5F5"/>
<path d="M245.402 283.754V55.5576L93.5123 55.5576V283.754H245.402Z" fill="white"/>
<path d="M98.6011 283.773L98.6011 55.5762H93.5107L93.5107 283.773H98.6011Z" fill="#E6E6E6"/>
<path d="M86.4084 231.161L252.49 231.161V216.003L86.4084 216.003V231.161Z" fill="#F5F5F5"/>
<path d="M86.4084 90.6279L252.49 90.6279V75.4696L86.4084 75.4696V90.6279Z" fill="#F5F5F5"/>
<path d="M242.839 527.4V318.599H112.761V527.4H242.839Z" fill="#F0F0F0"/>
<path d="M235.687 385.307V323.836H119.897V385.307H235.687Z" fill="#E6E6E6"/>
<path d="M235.687 452.285V390.814H119.897V452.285H235.687Z" fill="#E6E6E6"/>
<path d="M235.687 519.267V457.796H119.897V519.267H235.687Z" fill="#E6E6E6"/>
<path d="M165.437 385.307V323.836H119.898V385.307H165.437Z" fill="#E0E0E0"/>
<path d="M165.437 452.285V390.814H119.898V452.285H165.437Z" fill="#E0E0E0"/>
<path d="M185.832 452.286H217.389V427.736H185.832V452.286Z" fill="#F0F0F0"/>
<path d="M230.711 427.721H217.389V452.27H230.711V427.721Z" fill="#E0E0E0"/>
<path d="M134.861 452.286H166.418V427.736H134.861V452.286Z" fill="#F0F0F0"/>
<path d="M179.74 427.721H166.418V452.27H179.74V427.721Z" fill="#E0E0E0"/>
<path d="M165.437 519.267V457.796H119.898V519.267H165.437Z" fill="#E0E0E0"/>
<path d="M278.149 527.4V318.599H242.822V527.4H278.149Z" fill="#F5F5F5"/>
<path d="M150.65 519.268H221.787V466.656H150.65V519.268Z" fill="#F0F0F0"/>
<path d="M235.705 466.654H221.787V519.266H235.705V466.654Z" fill="#E0E0E0"/>
<path d="M127.742 385.289H221.769V332.678H127.742V385.289Z" fill="#FAFAFA"/>
<path d="M235.705 332.694H221.787V385.306H235.705V332.694Z" fill="#F0F0F0"/>
<path d="M382.568 527.385V318.583H252.49V527.385H382.568Z" fill="#F0F0F0"/>
<path d="M375.415 385.307V323.836H259.625V385.307H375.415Z" fill="#E6E6E6"/>
<path d="M375.415 452.285V390.814H259.625V452.285H375.415Z" fill="#E6E6E6"/>
<path d="M375.415 519.267V457.796H259.625V519.267H375.415Z" fill="#E6E6E6"/>
<path d="M305.181 385.307V323.836H259.641V385.307H305.181Z" fill="#E0E0E0"/>
<path d="M305.181 452.285V390.814H259.641V452.285H305.181Z" fill="#E0E0E0"/>
<path d="M276.991 385.307H308.548V360.757H276.991V385.307Z" fill="#F0F0F0"/>
<path d="M321.87 360.741H308.548V385.291H321.87V360.741Z" fill="#E0E0E0"/>
<path d="M315.215 385.289H355.729V353.748H315.215V385.289Z" fill="#F0F0F0"/>
<path d="M372.836 353.763H355.729V385.304H372.836V353.763Z" fill="#E0E0E0"/>
<path d="M305.181 519.267V457.796H259.641V519.267H305.181Z" fill="#E0E0E0"/>
<path d="M417.877 527.4V318.599H382.551V527.4H417.877Z" fill="#F5F5F5"/>
<path d="M272.609 519.249H358.614V505.798H272.609V519.249Z" fill="#F0F0F0"/>
<path d="M375.431 505.815H358.614V519.266H375.431V505.815Z" fill="#E0E0E0"/>
<path d="M287.704 452.286H364.124V409.533H287.704V452.286Z" fill="#FAFAFA"/>
<path d="M375.432 409.519H364.124V452.271H375.432V409.519Z" fill="#F0F0F0"/>
<path d="M402.72 600.148C575.216 600.148 715.052 591.984 715.052 581.913C715.052 571.842 575.216 563.678 402.72 563.678C230.223 563.678 90.3867 571.842 90.3867 581.913C90.3867 591.984 230.223 600.148 402.72 600.148Z" fill="#F5F5F5"/>
<path d="M449.952 552.255L438.321 548.808L443.186 520.939L454.833 524.371L449.952 552.255Z" fill="#FFB573"/>
<path d="M551.019 569.509H538.873L535.845 541.399H547.991L551.019 569.509Z" fill="#FFB573"/>
<path d="M537.874 568.106H552.678C552.919 568.101 553.153 568.18 553.342 568.33C553.53 568.48 553.66 568.691 553.709 568.927L556.109 579.72C556.168 579.983 556.166 580.255 556.104 580.517C556.041 580.779 555.92 581.023 555.749 581.232C555.579 581.44 555.363 581.606 555.118 581.718C554.873 581.83 554.606 581.885 554.337 581.879C549.504 581.798 546.089 581.524 540.097 581.524C536.408 581.524 525.277 581.911 520.186 581.911C515.096 581.911 514.42 576.869 516.498 576.418C525.857 574.372 532.912 571.585 535.909 568.847C536.449 568.364 537.149 568.1 537.874 568.106Z" fill="#263238"/>
<path d="M438.789 547.487L451.515 551.257C451.744 551.325 451.944 551.469 452.081 551.665C452.219 551.861 452.286 552.097 452.272 552.336L451.499 563.371C451.486 563.64 451.412 563.903 451.282 564.14C451.152 564.376 450.97 564.58 450.749 564.735C450.529 564.891 450.275 564.994 450.009 565.036C449.742 565.079 449.47 565.06 449.211 564.981C444.653 563.548 438.113 561.309 432.346 559.617C425.596 557.62 419.668 556.267 411.759 553.931C406.926 552.513 407.087 547.294 409.213 547.487C418.879 548.196 426.418 550.177 435.728 547.648C436.714 547.314 437.774 547.258 438.789 547.487Z" fill="#263238"/>
<path d="M523.377 198.844C517.142 203.274 510.892 207.334 504.433 211.296C497.973 215.259 491.433 218.98 484.619 222.476L482.058 223.781L481.349 224.135L480.173 224.683C479.375 225.004 478.557 225.273 477.724 225.488C474.682 226.239 471.504 226.239 468.462 225.488C463.872 224.261 459.598 222.064 455.929 219.045C449.67 213.944 444.297 207.842 440.03 200.987L447.069 195.204C452.241 199.783 457.853 203.841 463.822 207.318C466.16 208.717 468.748 209.648 471.442 210.056C472.054 210.152 472.68 210.05 473.23 209.766C473.29 209.732 473.345 209.689 473.391 209.637L473.472 209.557L473.971 209.251L476.274 207.817C482.396 203.967 488.517 199.956 494.606 195.896L512.906 183.767L523.377 198.844Z" fill="#FFB573"/>
<path d="M488.533 195.222L501.742 223.734C560.201 204.404 542.191 159.476 488.533 195.222Z" fill="#263238"/>
<path opacity="0.2" d="M519.575 196.672C512.076 203.968 506.569 213.063 503.579 223.09C515.467 218.966 524.005 213.747 529.611 208.447L519.575 196.672Z" fill="black"/>
<path d="M448.374 197.878L444.073 185.668L433.796 195.333C434.528 197.016 435.607 198.525 436.961 199.763C438.316 201.001 439.916 201.939 441.657 202.518L448.374 197.878Z" fill="#FFB573"/>
<path d="M437.114 182.397L429.108 191.273L433.796 195.317L444.073 185.668L437.114 182.397Z" fill="#FFB573"/>
<path opacity="0.2" d="M443.186 520.939L440.673 535.308L452.32 538.756L454.832 524.387L443.186 520.939Z" fill="black"/>
<path opacity="0.2" d="M547.991 541.399H535.845L537.407 555.897H549.553L547.991 541.399Z" fill="black"/>
<path d="M578.824 192.271C579.711 192.592 580.525 193.087 581.219 193.726C581.912 194.365 582.471 195.137 582.863 195.995C583.254 196.853 583.471 197.781 583.499 198.724C583.528 199.666 583.367 200.605 583.028 201.486C579.077 211.969 575.737 222.672 573.025 233.542C570.721 242.74 568.917 251.568 567.467 259.59C564.084 278.405 562.635 292.887 561.507 297.703L497.765 285.122C509.669 190.419 518.787 182.284 518.787 182.284C523.99 181.959 529.209 181.959 534.412 182.284C535.486 182.348 536.598 182.445 537.747 182.574C546.874 183.826 555.921 185.606 564.842 187.906C566.452 188.325 568.24 188.792 569.9 189.291C573.17 190.306 576.263 191.353 578.824 192.271Z" fill="#263238"/>
<path opacity="0.2" d="M567.257 210.187C565.905 220.033 567.456 230.06 571.719 239.037C572.122 237.217 572.573 235.397 573.024 233.56C574.764 226.65 576.793 219.53 579.177 212.377L567.257 210.187Z" fill="black"/>
<path d="M568.207 156.946L548.763 167.868C549.134 174.972 547.958 182.221 537.777 182.624C535.538 185.201 533.299 191.274 540.645 196.671L539.034 201.68C553.532 200.617 561.795 192.708 564.808 187.972C559.911 180.948 564.776 165.323 568.207 156.946Z" fill="#FFB573"/>
<path d="M520.315 289.957C520.211 289.941 520.117 289.885 520.054 289.801C519.991 289.716 519.963 289.611 519.977 289.506C526.952 235.51 540.113 196.881 540.242 196.494C540.282 196.396 540.356 196.315 540.451 196.268C540.546 196.22 540.655 196.209 540.757 196.236C540.858 196.273 540.941 196.347 540.989 196.443C541.037 196.539 541.046 196.649 541.015 196.752C540.87 197.138 527.742 235.703 520.766 289.603C520.763 289.657 520.748 289.709 520.722 289.757C520.697 289.805 520.662 289.847 520.62 289.88C520.577 289.913 520.528 289.938 520.476 289.951C520.423 289.964 520.369 289.966 520.315 289.957Z" fill="white"/>
<path d="M531.19 201.359C534.163 199.458 537.333 197.886 540.646 196.671C538.906 194.819 537.843 186.12 539.18 182.093H535.958C535.958 182.093 528.581 184.719 531.19 201.359Z" fill="white"/>
<path d="M551.905 206.53C550.815 203.832 549.004 201.485 546.669 199.748C551.905 198.137 560.861 193.659 563.906 185.701C565.146 186.716 567.128 188.134 567.128 188.134C567.128 188.134 570.253 200.086 551.905 206.53Z" fill="white"/>
<path d="M542.496 205.531C542.287 206.53 541.626 207.335 541.03 207.335C540.434 207.335 540.096 206.514 540.289 205.515C540.483 204.516 541.143 203.711 541.755 203.711C542.367 203.711 542.69 204.581 542.496 205.531Z" fill="white"/>
<path opacity="0.2" d="M560.281 161.409L548.779 167.853C548.888 169.512 548.85 171.178 548.667 172.83C552.484 173.024 558.332 169.963 559.556 166.145C560.079 164.623 560.325 163.019 560.281 161.409Z" fill="black"/>
<path d="M548.698 120.604C540.386 122.618 536.423 139.645 546.83 145.411C567.143 140.837 572.136 114.918 548.698 120.604Z" fill="#263238"/>
<path d="M574.699 143.253C571.267 154.803 569.866 161.73 562.537 166.385C551.55 173.377 538.373 164.662 538.228 152.322C538.148 141.207 543.77 124.18 556.319 122.167C559.084 121.713 561.919 121.972 564.555 122.921C567.192 123.87 569.542 125.477 571.383 127.589C573.224 129.702 574.495 132.249 575.076 134.991C575.656 137.732 575.526 140.576 574.699 143.253Z" fill="#FFB573"/>
<path d="M577.003 127.259C565.195 124.408 561.651 149.232 572.041 154.999C596.027 149.57 589.439 130.207 577.003 127.259Z" fill="#263238"/>
<path d="M574.151 120.267C561.184 117.851 553.21 107.38 553.21 107.38C553.21 107.38 542.368 115.756 545.461 122.264C548.554 128.772 563.084 136.102 570.059 136.376C570.059 136.376 566.838 151.711 580.643 143.077C599.152 131.559 586.361 122.554 574.151 120.267Z" fill="#263238"/>
<path d="M585.088 136.216C588.361 138.004 590.891 140.899 592.224 144.383C593.239 135.314 586.957 135.974 585.088 136.216Z" fill="#263238"/>
<path d="M554.789 128.869C548.909 127.061 543.87 123.21 540.581 118.012C541.902 132.912 551.857 129.819 554.789 128.869Z" fill="#263238"/>
<path d="M549.02 154.338C550.396 154.683 551.834 154.694 553.215 154.372C554.596 154.05 555.88 153.403 556.962 152.486C557.016 152.426 557.046 152.349 557.046 152.268C557.046 152.188 557.016 152.11 556.962 152.051C556.933 152.022 556.899 151.999 556.862 151.984C556.825 151.968 556.785 151.96 556.744 151.96C556.704 151.96 556.664 151.968 556.627 151.984C556.589 151.999 556.555 152.022 556.527 152.051C555.519 152.891 554.327 153.481 553.048 153.775C551.769 154.069 550.439 154.058 549.165 153.742C549.092 153.741 549.02 153.765 548.963 153.81C548.905 153.855 548.864 153.919 548.847 153.99C548.83 154.061 548.838 154.136 548.87 154.203C548.901 154.269 548.954 154.322 549.02 154.354V154.338Z" fill="#263238"/>
<path d="M575.762 155.222C573.983 157.158 571.537 158.35 568.915 158.556C565.613 158.734 565.081 155.335 566.934 152.451C568.545 149.809 572.346 146.555 575.214 147.764C578.081 148.972 578.049 152.757 575.762 155.222Z" fill="#FFB573"/>
<path d="M437.098 531.329L456.831 537.161C456.831 537.161 476.564 469.987 488.823 428.346C492.045 417.312 497.038 401.783 502.95 385.32C510.409 364.571 519.301 342.245 526.485 324.783C534.04 306.387 539.678 293.403 539.678 293.403L497.763 285.123C497.763 285.123 462.582 381.292 454.801 417.537C446.747 455.248 437.098 531.329 437.098 531.329Z" fill="#C53F3F"/>
<path opacity="0.2" d="M502.949 385.32C510.407 364.571 519.299 342.245 526.484 324.783L523.262 314.779C511.229 325.927 503.561 364.056 502.949 385.32Z" fill="black"/>
<path d="M520.317 289.602C520.317 289.602 511.892 393.648 511.86 429.232C511.86 468.183 531.738 553.093 531.738 553.093H553.984C553.984 553.093 545.286 477.961 545.108 439.751C544.915 396.483 561.443 297.72 561.443 297.72L520.317 289.602Z" fill="#C53F3F"/>
<path d="M529.144 553.561H555.337V545.748L526.051 545.232L529.144 553.561Z" fill="#263238"/>
<path d="M435.728 531.427L457.99 538.016L461.357 530.364L435.986 522.825L435.728 531.427Z" fill="#263238"/>
<path d="M556.157 142.415C555.948 143.366 555.255 144.026 554.627 143.881C553.999 143.736 553.676 142.85 553.902 141.9C554.128 140.95 554.804 140.289 555.432 140.434C556.061 140.579 556.383 141.465 556.157 142.415Z" fill="#263238"/>
<path d="M545.382 139.92C545.157 140.887 544.48 141.531 543.852 141.386C543.224 141.241 542.902 140.355 543.127 139.405C543.353 138.454 544.029 137.794 544.641 137.939C545.253 138.084 545.592 138.97 545.382 139.92Z" fill="#263238"/>
<path d="M548.699 141.192C546.888 143.845 544.72 146.235 542.256 148.296C543.577 150.262 546.799 150.004 546.799 150.004L548.699 141.192Z" fill="#ED893E"/>
<path d="M560.314 139.711C560.209 139.702 560.108 139.666 560.02 139.607C559.933 139.548 559.862 139.467 559.815 139.372C559.537 138.694 559.099 138.093 558.538 137.622C557.977 137.151 557.309 136.823 556.593 136.666C556.445 136.638 556.313 136.554 556.226 136.431C556.138 136.307 556.103 136.155 556.126 136.006C556.15 135.854 556.233 135.718 556.357 135.628C556.48 135.537 556.635 135.499 556.787 135.522C557.677 135.724 558.506 136.134 559.207 136.719C559.907 137.305 560.458 138.049 560.814 138.889C560.875 139.03 560.879 139.19 560.824 139.334C560.77 139.478 560.663 139.596 560.524 139.662C560.456 139.687 560.386 139.704 560.314 139.711Z" fill="#263238"/>
<path d="M541.61 135.134C541.489 135.126 541.373 135.087 541.271 135.021C541.155 134.921 541.081 134.78 541.066 134.627C541.051 134.474 541.096 134.321 541.191 134.2C541.756 133.465 542.491 132.879 543.333 132.492C544.175 132.105 545.098 131.928 546.023 131.977C546.106 131.974 546.189 131.988 546.265 132.02C546.342 132.051 546.411 132.099 546.467 132.159C546.524 132.219 546.567 132.291 546.594 132.369C546.62 132.448 546.63 132.531 546.622 132.613C546.614 132.695 546.588 132.775 546.547 132.847C546.505 132.918 546.449 132.98 546.382 133.028C546.314 133.076 546.237 133.109 546.156 133.125C546.075 133.141 545.991 133.14 545.911 133.12C545.189 133.104 544.475 133.259 543.825 133.573C543.175 133.886 542.609 134.35 542.173 134.925C542.108 135.008 542.02 135.071 541.921 135.108C541.821 135.145 541.714 135.154 541.61 135.134Z" fill="#263238"/>
<path d="M533.862 570.25C533.035 570.315 532.21 570.093 531.527 569.622C531.309 569.439 531.141 569.205 531.037 568.941C530.933 568.676 530.896 568.39 530.931 568.108C530.93 567.94 530.975 567.775 531.06 567.631C531.145 567.486 531.267 567.367 531.414 567.286C532.767 566.594 536.681 569.01 537.116 569.284C537.165 569.313 537.204 569.356 537.227 569.408C537.25 569.46 537.257 569.518 537.245 569.574C537.238 569.63 537.214 569.683 537.177 569.726C537.14 569.769 537.091 569.8 537.036 569.815C535.997 570.075 534.933 570.221 533.862 570.25ZM532.058 567.737C531.936 567.709 531.81 567.709 531.688 567.737C531.626 567.769 531.575 567.818 531.54 567.878C531.506 567.938 531.49 568.007 531.494 568.076C531.473 568.27 531.499 568.466 531.569 568.648C531.639 568.83 531.751 568.993 531.897 569.123C533.252 569.736 534.79 569.81 536.198 569.332C534.935 568.533 533.529 567.986 532.058 567.721V567.737Z" fill="#C53F3F"/>
<path d="M536.971 569.798H536.826C535.57 569.121 533.137 566.447 533.395 565.094C533.442 564.885 533.558 564.698 533.725 564.564C533.892 564.429 534.099 564.355 534.313 564.353C534.532 564.321 534.755 564.337 534.967 564.401C535.179 564.465 535.373 564.575 535.537 564.724C536.955 565.867 537.245 569.379 537.261 569.556C537.263 569.596 537.257 569.635 537.244 569.672C537.23 569.709 537.209 569.743 537.182 569.772C537.155 569.8 537.122 569.823 537.086 569.839C537.05 569.854 537.011 569.862 536.971 569.862V569.798ZM534.523 564.869H534.394C534.007 564.869 533.975 565.078 533.975 565.159C533.814 565.964 535.36 567.962 536.617 568.912C536.526 567.531 536.027 566.208 535.183 565.11C534.995 564.959 534.763 564.874 534.523 564.869Z" fill="#C53F3F"/>
<path d="M437.179 548.76C435.197 548.583 431.718 548.051 430.735 546.537C430.596 546.319 430.512 546.07 430.489 545.812C430.467 545.554 430.507 545.294 430.606 545.055C430.657 544.905 430.746 544.771 430.865 544.667C430.984 544.562 431.128 544.49 431.283 544.459C432.894 544.105 436.905 547.842 437.356 548.261C437.389 548.311 437.407 548.37 437.407 548.43C437.407 548.49 437.389 548.549 437.356 548.599C437.342 548.638 437.318 548.674 437.287 548.702C437.256 548.73 437.219 548.75 437.179 548.76ZM431.492 545.007H431.412C431.351 545.021 431.296 545.051 431.251 545.093C431.205 545.136 431.172 545.189 431.154 545.249C431.071 545.402 431.027 545.574 431.027 545.748C431.027 545.922 431.071 546.094 431.154 546.247C431.686 547.085 433.57 547.762 436.261 548.1C434.73 546.65 432.443 544.91 431.492 545.007Z" fill="#C53F3F"/>
<path d="M437.177 548.76C437.11 548.788 437.035 548.788 436.968 548.76C435.76 547.713 433.746 544.379 434.31 543.122C434.455 542.816 434.793 542.51 435.566 542.655C435.849 542.703 436.118 542.809 436.357 542.967C436.595 543.125 436.798 543.332 436.952 543.573C438.079 545.184 437.467 548.406 437.435 548.599C437.428 548.647 437.408 548.693 437.377 548.73C437.345 548.767 437.304 548.794 437.258 548.809L437.177 548.76ZM435.131 543.122C435.069 543.123 435.008 543.139 434.955 543.17C434.901 543.201 434.856 543.246 434.825 543.3C434.471 544.057 435.776 546.521 436.952 547.874C437.221 546.511 437.058 545.097 436.485 543.831C436.248 543.481 435.884 543.238 435.47 543.155C435.359 543.131 435.245 543.12 435.131 543.122Z" fill="#C53F3F"/>
<path d="M581.529 195.561C582.463 196.495 583.139 197.171 583.848 197.961C584.557 198.75 585.25 199.572 585.926 200.313C587.279 201.924 588.6 203.534 589.873 205.145C592.416 208.428 594.777 211.848 596.945 215.39C599.146 218.991 601.11 222.73 602.824 226.586C604.6 230.541 606.013 234.65 607.045 238.861L607.431 240.472L607.802 242.357C607.963 243.597 608.124 244.837 608.173 246.045C608.28 248.384 608.199 250.727 607.931 253.053C607.416 257.366 606.438 261.611 605.015 265.714C602.297 273.512 598.501 280.891 593.739 287.638L585.685 283.241L587.424 278.054C588.004 276.298 588.488 274.51 589.035 272.754C590.012 269.279 590.813 265.758 591.435 262.203C592.04 258.87 592.348 255.49 592.354 252.102C592.353 250.58 592.223 249.06 591.967 247.56C591.865 246.871 591.725 246.188 591.548 245.514L591.274 244.58L590.888 243.436C588.548 236.973 585.404 230.83 581.529 225.152C579.563 222.221 577.453 219.337 575.246 216.534C574.172 215.117 573.045 213.731 571.863 212.378L570.252 210.381L568.642 208.56L581.529 195.561Z" fill="#FFB573"/>
<path d="M563.503 213.134C567.288 223.814 571.702 231.933 577.92 237.909L601.23 215.695C579.918 174.086 557.72 196.848 563.503 213.134Z" fill="#263238"/>
<path d="M587.247 281.321L578.146 289.633L592.418 295.69C592.418 295.69 598.604 286.895 594.303 283.093L587.247 281.321Z" fill="#FFB573"/>
<path d="M576.391 299.62L588.424 304.066L592.419 295.69L578.146 289.633L576.391 299.62Z" fill="#FFB573"/>
<path d="M360.707 64.1801L266.294 87.3767L260.108 74.232C259.85 73.6767 259.406 73.2286 258.854 72.9641C258.301 72.6996 257.674 72.6353 257.08 72.7822L198.605 87.1512C198.011 87.2991 197.486 87.6476 197.119 88.1377C196.752 88.6279 196.566 89.2296 196.591 89.8414L197.203 104.339L159.477 113.618C158.423 113.881 157.516 114.55 156.954 115.48C156.393 116.41 156.222 117.524 156.48 118.579L187.603 245.21C187.729 245.735 187.958 246.229 188.276 246.665C188.594 247.1 188.996 247.469 189.457 247.749C189.918 248.029 190.43 248.215 190.963 248.296C191.496 248.377 192.04 248.352 192.564 248.223L393.762 198.769C394.819 198.51 395.73 197.841 396.295 196.911C396.86 195.981 397.032 194.865 396.775 193.807L365.669 67.1763C365.406 66.1224 364.736 65.2155 363.807 64.654C362.877 64.0924 361.762 63.9221 360.707 64.1801Z" fill="#C53F3F"/>
<path opacity="0.5" d="M360.707 64.1801L266.294 87.3767L260.108 74.232C259.85 73.6767 259.406 73.2286 258.854 72.9641C258.301 72.6996 257.674 72.6353 257.08 72.7822L198.605 87.1512C198.011 87.2991 197.486 87.6476 197.119 88.1377C196.752 88.6279 196.566 89.2296 196.591 89.8414L197.203 104.339L159.477 113.618C158.423 113.881 157.516 114.55 156.954 115.48C156.393 116.41 156.222 117.524 156.48 118.579L187.603 245.21C187.729 245.735 187.958 246.229 188.276 246.665C188.594 247.1 188.996 247.469 189.457 247.749C189.918 248.029 190.43 248.215 190.963 248.296C191.496 248.377 192.04 248.352 192.564 248.223L393.762 198.769C394.819 198.51 395.73 197.841 396.295 196.911C396.86 195.981 397.032 194.865 396.775 193.807L365.669 67.1763C365.406 66.1224 364.736 65.2155 363.807 64.654C362.877 64.0924 361.762 63.9221 360.707 64.1801Z" fill="white"/>
<path d="M253.311 78.6975L204.692 90.6484L206.28 97.109L254.899 85.1581L253.311 78.6975Z" fill="white"/>
<path d="M363.528 106.321L262.043 131.258L255.857 118.113C255.599 117.558 255.155 117.11 254.603 116.845C254.05 116.581 253.423 116.516 252.829 116.663L194.354 131.032C193.761 131.177 193.237 131.522 192.87 132.01C192.503 132.497 192.316 133.097 192.34 133.706L192.952 148.204L162.346 155.727C161.289 155.986 160.378 156.654 159.813 157.585C159.249 158.515 159.076 159.631 159.333 160.688L190.456 287.319C190.715 288.376 191.383 289.287 192.313 289.852C193.243 290.417 194.36 290.589 195.417 290.332L396.632 240.878C397.155 240.75 397.647 240.519 398.081 240.201C398.515 239.882 398.881 239.48 399.16 239.019C399.438 238.558 399.623 238.047 399.703 237.514C399.783 236.982 399.758 236.439 399.628 235.916L368.522 109.285C368.252 108.23 367.575 107.326 366.639 106.77C365.702 106.214 364.583 106.053 363.528 106.321Z" fill="#C53F3F"/>
<path opacity="0.4" d="M363.528 106.321L262.043 131.258L255.857 118.113C255.599 117.558 255.155 117.11 254.603 116.845C254.05 116.581 253.423 116.516 252.829 116.663L194.354 131.032C193.761 131.177 193.237 131.522 192.87 132.01C192.503 132.497 192.316 133.097 192.34 133.706L192.952 148.204L162.346 155.727C161.289 155.986 160.378 156.654 159.813 157.585C159.249 158.515 159.076 159.631 159.333 160.688L190.456 287.319C190.715 288.376 191.383 289.287 192.313 289.852C193.243 290.417 194.36 290.589 195.417 290.332L396.632 240.878C397.155 240.75 397.647 240.519 398.081 240.201C398.515 239.882 398.881 239.48 399.16 239.019C399.438 238.558 399.623 238.047 399.703 237.514C399.783 236.982 399.758 236.439 399.628 235.916L368.522 109.285C368.252 108.23 367.575 107.326 366.639 106.77C365.702 106.214 364.583 106.053 363.528 106.321Z" fill="white"/>
<path d="M249.056 122.52L200.438 134.471L202.026 140.931L250.644 128.98L249.056 122.52Z" fill="white"/>
<path d="M366.362 148.332L257.741 175.008L251.555 161.863C251.296 161.308 250.853 160.86 250.301 160.595C249.748 160.331 249.121 160.266 248.527 160.413L190.084 174.782C189.488 174.927 188.962 175.275 188.594 175.766C188.227 176.257 188.042 176.86 188.07 177.472L188.682 191.97L165.148 197.753C164.091 198.013 163.18 198.681 162.615 199.611C162.05 200.541 161.878 201.658 162.135 202.715L193.306 329.362C193.565 330.419 194.233 331.33 195.163 331.894C196.094 332.459 197.21 332.632 198.267 332.374L399.498 282.92C400.022 282.794 400.517 282.565 400.952 282.247C401.388 281.929 401.756 281.527 402.036 281.066C402.316 280.605 402.502 280.093 402.583 279.56C402.665 279.027 402.64 278.483 402.51 277.959L371.388 151.328C371.262 150.797 371.031 150.297 370.708 149.856C370.386 149.416 369.978 149.046 369.509 148.766C369.04 148.487 368.52 148.304 367.98 148.23C367.439 148.155 366.889 148.19 366.362 148.332Z" fill="#C53F3F"/>
<path opacity="0.3" d="M366.362 148.332L257.741 175.008L251.555 161.863C251.296 161.308 250.853 160.86 250.301 160.595C249.748 160.331 249.121 160.266 248.527 160.413L190.084 174.782C189.488 174.927 188.962 175.275 188.594 175.766C188.227 176.257 188.042 176.86 188.07 177.472L188.682 191.97L165.148 197.753C164.091 198.013 163.18 198.681 162.615 199.611C162.05 200.541 161.878 201.658 162.135 202.715L193.306 329.362C193.565 330.419 194.233 331.33 195.163 331.894C196.094 332.459 197.21 332.632 198.267 332.374L399.498 282.92C400.022 282.794 400.517 282.565 400.952 282.247C401.388 281.929 401.756 281.527 402.036 281.066C402.316 280.605 402.502 280.093 402.583 279.56C402.665 279.027 402.64 278.483 402.51 277.959L371.388 151.328C371.262 150.797 371.031 150.297 370.708 149.856C370.386 149.416 369.978 149.046 369.509 148.766C369.04 148.487 368.52 148.304 367.98 148.23C367.439 148.155 366.889 148.19 366.362 148.332Z" fill="white"/>
<path d="M244.817 166.324L196.198 178.274L197.786 184.735L246.405 172.784L244.817 166.324Z" fill="white"/>
<path d="M447.164 193.712L328.233 199.753L324.641 185.674C324.489 185.08 324.137 184.556 323.644 184.192C323.151 183.828 322.547 183.646 321.935 183.676L261.801 186.737C261.188 186.767 260.605 187.008 260.15 187.419C259.695 187.83 259.396 188.386 259.304 188.992L257.161 203.361L240.247 204.231C239.708 204.256 239.18 204.387 238.691 204.617C238.203 204.846 237.766 205.171 237.403 205.57C237.041 205.97 236.761 206.438 236.58 206.946C236.399 207.454 236.321 207.993 236.349 208.532L242.986 338.755C243.04 339.842 243.523 340.863 244.33 341.594C245.136 342.325 246.2 342.706 247.287 342.653L454.268 332.134C455.355 332.08 456.376 331.597 457.107 330.79C457.838 329.984 458.219 328.92 458.166 327.833L451.53 197.594C451.503 197.051 451.368 196.518 451.134 196.028C450.899 195.537 450.568 195.098 450.162 194.736C449.755 194.375 449.281 194.098 448.766 193.922C448.252 193.746 447.707 193.675 447.164 193.712Z" fill="#C53F3F"/>
<path opacity="0.2" d="M447.164 193.712L328.233 199.753L324.641 185.674C324.489 185.08 324.137 184.556 323.644 184.192C323.151 183.828 322.547 183.646 321.935 183.676L261.801 186.737C261.188 186.767 260.605 187.008 260.15 187.419C259.695 187.83 259.396 188.386 259.304 188.992L257.161 203.361L240.247 204.231C239.708 204.256 239.18 204.387 238.691 204.617C238.203 204.846 237.766 205.171 237.403 205.57C237.041 205.97 236.761 206.438 236.58 206.946C236.399 207.454 236.321 207.993 236.349 208.532L242.986 338.755C243.04 339.842 243.523 340.863 244.33 341.594C245.136 342.325 246.2 342.706 247.287 342.653L454.268 332.134C455.355 332.08 456.376 331.597 457.107 330.79C457.838 329.984 458.219 328.92 458.166 327.833L451.53 197.594C451.503 197.051 451.368 196.518 451.134 196.028C450.899 195.537 450.568 195.098 450.162 194.736C449.755 194.375 449.281 194.098 448.766 193.922C448.252 193.746 447.707 193.675 447.164 193.712Z" fill="white"/>
<path d="M317.098 188.825L267.096 191.367L267.434 198.012L317.435 195.47L317.098 188.825Z" fill="white"/>
<path d="M372.017 232.468L249.284 262.575L243.115 249.43C242.833 248.883 242.372 248.45 241.809 248.204C241.245 247.957 240.614 247.912 240.022 248.077L181.547 262.446C180.951 262.591 180.425 262.939 180.057 263.43C179.69 263.92 179.505 264.524 179.533 265.136L180.145 279.634L170.754 281.905C169.697 282.165 168.786 282.833 168.222 283.763C167.657 284.693 167.484 285.809 167.742 286.867L198.864 413.498C199.127 414.556 199.798 415.467 200.731 416.031C201.664 416.596 202.782 416.768 203.841 416.51L405.04 367.056C406.094 366.793 407.001 366.124 407.562 365.194C408.124 364.264 408.294 363.15 408.036 362.095L376.946 235.48C376.683 234.432 376.019 233.53 375.097 232.966C374.175 232.403 373.069 232.224 372.017 232.468Z" fill="#C53F3F"/>
<path opacity="0.1" d="M372.017 232.468L249.284 262.575L243.115 249.43C242.833 248.883 242.372 248.45 241.809 248.204C241.245 247.957 240.614 247.912 240.022 248.077L181.547 262.446C180.951 262.591 180.425 262.939 180.057 263.43C179.69 263.92 179.505 264.524 179.533 265.136L180.145 279.634L170.754 281.905C169.697 282.165 168.786 282.833 168.222 283.763C167.657 284.693 167.484 285.809 167.742 286.867L198.864 413.498C199.127 414.556 199.798 415.467 200.731 416.031C201.664 416.596 202.782 416.768 203.841 416.51L405.04 367.056C406.094 366.793 407.001 366.124 407.562 365.194C408.124 364.264 408.294 363.15 408.036 362.095L376.946 235.48C376.683 234.432 376.019 233.53 375.097 232.966C374.175 232.403 373.069 232.224 372.017 232.468Z" fill="white"/>
<path d="M236.31 253.97L187.691 265.921L189.279 272.382L237.898 260.431L236.31 253.97Z" fill="white"/>
<path d="M374.855 274.537L173.669 323.99C171.466 324.532 170.119 326.757 170.66 328.96L201.783 455.575C202.325 457.778 204.55 459.125 206.753 458.583L407.939 409.13C410.142 408.589 411.489 406.364 410.947 404.161L379.824 277.545C379.283 275.342 377.058 273.995 374.855 274.537Z" fill="#C53F3F"/>
<path d="M243.436 310.515L179.243 326.286C178.866 326.368 178.475 326.367 178.098 326.284C177.722 326.2 177.368 326.035 177.061 325.8C176.754 325.566 176.503 325.267 176.323 324.925C176.143 324.584 176.04 324.207 176.021 323.821L175.393 308.921C175.364 308.308 175.55 307.705 175.917 307.214C176.284 306.723 176.811 306.376 177.407 306.23L235.881 291.861C236.478 291.717 237.107 291.782 237.661 292.046C238.215 292.31 238.662 292.757 238.926 293.311L245.273 306.794C245.438 307.156 245.521 307.549 245.516 307.947C245.51 308.344 245.416 308.735 245.24 309.092C245.064 309.448 244.811 309.761 244.499 310.007C244.187 310.253 243.824 310.427 243.436 310.515Z" fill="#C53F3F"/>
<path d="M232.055 297.777L183.436 309.728L185.024 316.188L233.643 304.237L232.055 297.777Z" fill="white"/>
</svg>
