<svg width="656" height="656" viewBox="0 0 656 656" fill="none" xmlns="http://www.w3.org/2000/svg">
<path opacity="0.36" d="M89.1243 219.222C89.1243 219.222 52.5458 313.686 103.95 408.806C155.354 503.926 261.233 554.175 345.975 597.143C430.717 640.111 518.713 619.185 560.526 548.809C602.339 478.433 544.992 428.197 544.913 327.842C544.834 227.487 559.936 200.919 505.553 116.138C451.171 31.3563 317.858 12.5816 217.044 75.4657C116.23 138.35 89.1243 219.222 89.1243 219.222Z" fill="white"/>
<path d="M112.597 594.623C112.597 594.623 -4.69582 434.047 67.989 310.628C140.674 187.208 285.033 271.91 312.52 156.73C340.006 41.5494 440.335 22.6698 535.481 166.701C630.627 310.732 607.864 511.036 557.483 594.623H112.597Z" fill="#90CAF9"/>
<path opacity="0.7" d="M112.597 594.623C112.597 594.623 -4.69582 434.047 67.989 310.628C140.674 187.208 285.033 271.91 312.52 156.73C340.006 41.5494 440.335 22.6698 535.481 166.701C630.627 310.732 607.864 511.036 557.483 594.623H112.597Z" fill="white"/>
<path d="M51.5886 594.626H604.413" stroke="#263238" stroke-width="1.312" stroke-linecap="round" stroke-linejoin="round"/>
<path d="M351.221 127.841H87.4043V594.624H351.221V127.841Z" fill="white" stroke="#263238" stroke-width="1.312" stroke-linecap="round" stroke-linejoin="round"/>
<path d="M336.16 409.828H102.349" stroke="#263238" stroke-width="1.312" stroke-miterlimit="10"/>
<path d="M102.349 313.228H336.16" stroke="#263238" stroke-width="1.312" stroke-miterlimit="10"/>
<path d="M178.471 186.225H102.349V298.479H178.471V186.225Z" fill="#90CAF9" stroke="#263238" stroke-width="1.312" stroke-linecap="round" stroke-linejoin="round"/>
<path d="M172.158 298.492V262.189C161.74 258.199 150.659 256.218 139.503 256.351C125.766 256.495 113.604 258.975 107.018 261.875V298.492H172.158Z" fill="#90CAF9" stroke="#263238" stroke-width="1.312" stroke-linecap="round" stroke-linejoin="round"/>
<path d="M135.554 298.493H144.318L142.192 271.492L145.328 264.748C145.328 264.748 140.251 262.937 136.328 264.748L138.335 271.492L135.554 298.493Z" fill="#263238"/>
<path d="M149.948 252.048L155.786 256.338L148.544 273.827L140.409 264.748L131.422 273.827L123.366 256.338L129.205 252.048H149.948Z" fill="#90CAF9" stroke="#263238" stroke-width="1.312" stroke-linecap="round" stroke-linejoin="round"/>
<path d="M151.652 254.175C151.652 254.175 145.368 263.359 140.408 263.516C136.905 263.608 127.892 254.896 127.892 254.896C130.332 252.705 130.516 248.664 130.122 245.476C129.948 243.909 129.641 242.36 129.204 240.845H149.947C148.891 243.787 148.638 246.956 149.212 250.029C149.495 251.661 150.362 253.135 151.652 254.175Z" fill="white" stroke="#263238" stroke-width="1.312" stroke-linecap="round" stroke-linejoin="round"/>
<path d="M149.212 250.041C134.229 253.977 131.264 245.41 131.264 245.41H130.122C129.948 243.843 129.641 242.293 129.204 240.778H149.947C148.877 243.745 148.624 246.943 149.212 250.041Z" fill="#263238"/>
<path d="M155.721 226.017C155.721 226.017 165.666 194.214 129.206 202.847C129.206 202.847 126.227 201.299 124.404 202.008C122.58 202.716 120.822 215.561 123.918 227.434L155.721 226.017Z" fill="#263238"/>
<path d="M154.461 226.295C154.461 226.295 156.127 224.471 156.954 225.075C157.499 225.534 157.909 226.134 158.14 226.808C158.371 227.483 158.415 228.208 158.266 228.906C157.82 230.441 155.878 233.13 155.734 234.692C155.589 236.253 154.579 238.037 153.477 237.001C152.375 235.964 154.461 226.295 154.461 226.295Z" fill="white" stroke="#263238" stroke-width="1.312" stroke-linecap="round" stroke-linejoin="round"/>
<path d="M124.639 226.295C124.639 226.295 122.973 224.471 122.159 225.075C121.614 225.534 121.204 226.134 120.973 226.808C120.742 227.483 120.698 228.208 120.847 228.906C121.293 230.441 123.235 233.13 123.392 234.692C123.55 236.253 124.547 238.037 125.636 237.001C126.725 235.964 124.639 226.295 124.639 226.295Z" fill="white" stroke="#263238" stroke-width="1.312" stroke-linecap="round" stroke-linejoin="round"/>
<path d="M139.229 205.315C160.221 205.315 155.235 233.287 151.365 242.274C150.053 245.423 142.981 249.556 139.557 249.556C136.395 249.556 129.153 244.61 127.867 241.684C123.984 232.631 119.208 205.315 139.229 205.315Z" fill="white" stroke="#263238" stroke-width="1.312" stroke-linecap="round" stroke-linejoin="round"/>
<path d="M142.785 222.579C142.785 222.579 148.256 220.9 149.949 224.272" stroke="#263238" stroke-width="1.312" stroke-linecap="round" stroke-linejoin="round"/>
<path d="M146.837 227.185C146.837 227.828 146.509 228.353 146.103 228.353C145.696 228.353 145.368 227.828 145.368 227.185C145.368 226.542 145.696 226.018 146.103 226.018C146.509 226.018 146.837 226.542 146.837 227.185Z" fill="#263238"/>
<path d="M136.367 222.579C136.367 222.579 130.896 220.9 129.204 224.272" stroke="#263238" stroke-width="1.312" stroke-linecap="round" stroke-linejoin="round"/>
<path d="M132.328 227.185C132.328 227.828 132.642 228.353 133.049 228.353C133.456 228.353 133.784 227.828 133.784 227.185C133.784 226.542 133.456 226.018 133.049 226.018C132.642 226.018 132.328 226.542 132.328 227.185Z" fill="#263238"/>
<path d="M127.774 213.724C126.658 215.154 127.774 219.55 128.075 221.347C128.377 223.145 125.622 224.352 125.95 228.904L124.887 230.465C124.887 230.465 121.922 223.184 122.67 216.913C123.418 210.641 127.367 208.214 127.367 208.214C127.367 208.214 129.164 202.809 139.739 202.848C151.127 202.848 152.282 209.054 152.282 209.054C152.282 209.054 159.996 214.21 154.289 230.99L153.043 228.904C153.34 226.679 152.828 224.421 151.6 222.541C150.616 221.085 152.203 216.716 151.836 214.485C151.468 212.255 128.902 212.307 127.774 213.724Z" fill="#263238"/>
<path d="M140.828 226.018C140.828 226.018 141.143 232.473 142.062 234.296C142.98 236.12 139.753 236.409 138.375 235.333" stroke="#263238" stroke-width="1.312" stroke-linecap="round" stroke-linejoin="round"/>
<path d="M134.977 238.784C135.122 239.31 135.369 239.802 135.705 240.232C136.04 240.662 136.457 241.022 136.932 241.29C139.095 241.807 141.356 241.753 143.492 241.133C144.107 240.538 144.536 239.776 144.725 238.942" fill="white"/>
<path d="M134.977 238.784C135.122 239.31 135.369 239.802 135.705 240.232C136.04 240.662 136.457 241.022 136.932 241.29C139.095 241.807 141.356 241.753 143.492 241.133C144.107 240.538 144.536 239.776 144.725 238.942" stroke="#263238" stroke-width="1.312" stroke-linecap="round" stroke-linejoin="round"/>
<path d="M134.518 238.68C138.094 239.451 141.793 239.451 145.369 238.68" stroke="#263238" stroke-width="1.312" stroke-linecap="round" stroke-linejoin="round"/>
<path d="M118.329 258.516L102.349 262.937V298.479H138.652L118.329 258.516Z" fill="#999999" stroke="#263238" stroke-width="1.312" stroke-linecap="round" stroke-linejoin="round"/>
<path d="M178.47 263.948L158.397 257.598L141.629 298.48H178.47V263.948Z" fill="#999999" stroke="#263238" stroke-width="1.312" stroke-linecap="round" stroke-linejoin="round"/>
<path d="M148.662 298.491L160.483 284.729L153.175 277.722L164.38 271.49L160.522 258.607L155.786 256.337L141.406 298.491H148.662Z" fill="#BFBFBF" stroke="#263238" stroke-width="1.312" stroke-linecap="round" stroke-linejoin="round"/>
<path d="M119.482 286.146L131.251 298.491H139.096L123.366 256.337L118.327 258.515L114.549 270.48L125.976 279.546L119.482 286.146Z" fill="#BFBFBF" stroke="#263238" stroke-width="1.312" stroke-linecap="round" stroke-linejoin="round"/>
<path d="M176.174 145.132V147.481C176.174 150.38 174.77 151.955 171.936 151.955H170.624V158.751H167.79V140.658H171.975C174.77 140.658 176.174 142.233 176.174 145.132ZM170.558 143.243V149.37H171.87C172.776 149.37 173.261 148.95 173.261 147.664V144.948C173.261 143.636 172.776 143.243 171.87 143.243H170.558Z" fill="#263238"/>
<path d="M183.43 158.751C183.19 158.038 183.101 157.283 183.167 156.533V153.686C183.167 152.007 182.603 151.39 181.317 151.39H180.333V158.751H177.486V140.658H181.777C184.716 140.658 185.988 142.036 185.988 144.817V146.247C186.089 146.971 185.964 147.708 185.631 148.359C185.297 149.009 184.772 149.541 184.125 149.882C185.542 150.472 186.014 151.823 186.014 153.699V156.494C185.951 157.258 186.049 158.027 186.303 158.751H183.43ZM180.333 143.256V148.806H181.436C182.498 148.806 183.141 148.347 183.141 146.903V145.106C183.141 143.794 182.708 143.243 181.698 143.243L180.333 143.256Z" fill="#263238"/>
<path d="M187.616 145C187.616 142.114 189.138 140.461 191.932 140.461C194.727 140.461 196.236 142.114 196.236 145V154.408C196.236 157.294 194.714 158.947 191.932 158.947C189.151 158.947 187.616 157.294 187.616 154.408V145ZM190.463 154.578C190.463 155.89 191.027 156.362 191.932 156.362C192.838 156.362 193.402 155.877 193.402 154.578V144.817C193.402 143.505 192.838 143.032 191.932 143.032C191.027 143.032 190.463 143.531 190.463 144.817V154.578Z" fill="#263238"/>
<path d="M200.946 148.701H204.672V151.325H201.012V158.751H198.112V140.658H205.63V143.282H200.959L200.946 148.701Z" fill="#263238"/>
<path d="M206.994 140.658H209.827V158.751H206.994V140.658Z" fill="#263238"/>
<path d="M211.901 140.658H214.735V156.127H219.419V158.751H211.901V140.658Z" fill="#263238"/>
<path d="M223.499 148.255H227.435V150.879H223.499V156.127H228.406V158.751H220.652V140.658H228.406V143.282H223.499V148.255Z" fill="#263238"/>
<path d="M234.164 140.658H238.664C241.498 140.658 242.889 142.233 242.889 145.132V154.316C242.889 157.203 241.498 158.777 238.664 158.777H234.164V140.658ZM237.011 143.282V156.127H238.611C239.517 156.127 240.055 155.667 240.055 154.382V144.975C240.055 143.663 239.517 143.217 238.611 143.217L237.011 143.282Z" fill="#263238"/>
<path d="M253.87 158.75H251.009L250.511 155.47H247.034L246.536 158.75H243.912L246.811 140.671H250.97L253.87 158.75ZM247.388 153.017H250.13L248.818 143.833L247.388 153.017Z" fill="#263238"/>
<path d="M253.385 140.658H262.162V143.282H259.197V158.751H256.35V143.243H253.385V140.658Z" fill="#263238"/>
<path d="M271.582 158.75H268.708L268.223 155.47H264.733L264.248 158.75H261.624L264.51 140.671H268.669L271.582 158.75ZM265.1 153.017H267.829L266.517 143.833L265.1 153.017Z" fill="#263238"/>
<path d="M102.413 172.79H336.211" stroke="#263238" stroke-width="1.312" stroke-linecap="round" stroke-linejoin="round"/>
<path d="M193.848 191.984H250.999C251.323 192.008 251.648 191.965 251.955 191.858C252.262 191.751 252.543 191.581 252.781 191.36C253.019 191.139 253.209 190.871 253.339 190.573C253.469 190.276 253.536 189.954 253.536 189.629C253.536 189.304 253.469 188.983 253.339 188.685C253.209 188.387 253.019 188.119 252.781 187.898C252.543 187.677 252.262 187.508 251.955 187.4C251.648 187.293 251.323 187.25 250.999 187.274H193.848C193.254 187.319 192.698 187.586 192.293 188.023C191.887 188.459 191.662 189.033 191.662 189.629C191.662 190.225 191.887 190.799 192.293 191.236C192.698 191.672 193.254 191.94 193.848 191.984Z" fill="#263238"/>
<path d="M272.606 203.465H193.886C193.292 203.509 192.737 203.777 192.331 204.213C191.926 204.65 191.701 205.224 191.701 205.82C191.701 206.416 191.926 206.99 192.331 207.426C192.737 207.863 193.292 208.131 193.886 208.175H272.606C273.201 208.131 273.756 207.863 274.161 207.426C274.567 206.99 274.792 206.416 274.792 205.82C274.792 205.224 274.567 204.65 274.161 204.213C273.756 203.777 273.201 203.509 272.606 203.465Z" fill="#263238"/>
<path d="M229.403 219.667H193.848C193.254 219.711 192.698 219.978 192.293 220.415C191.887 220.852 191.662 221.426 191.662 222.022C191.662 222.618 191.887 223.192 192.293 223.628C192.698 224.065 193.254 224.332 193.848 224.377H229.403C229.727 224.401 230.053 224.358 230.359 224.251C230.666 224.143 230.947 223.974 231.185 223.753C231.424 223.532 231.614 223.264 231.744 222.966C231.874 222.668 231.941 222.347 231.941 222.022C231.941 221.697 231.874 221.375 231.744 221.078C231.614 220.78 231.424 220.512 231.185 220.291C230.947 220.07 230.666 219.9 230.359 219.793C230.053 219.685 229.727 219.643 229.403 219.667Z" fill="#263238"/>
<path d="M272.606 235.871H193.886C193.292 235.915 192.737 236.183 192.331 236.62C191.926 237.056 191.701 237.63 191.701 238.226C191.701 238.822 191.926 239.396 192.331 239.833C192.737 240.269 193.292 240.537 193.886 240.581H272.606C273.201 240.537 273.756 240.269 274.161 239.833C274.567 239.396 274.792 238.822 274.792 238.226C274.792 237.63 274.567 237.056 274.161 236.62C273.756 236.183 273.201 235.915 272.606 235.871Z" fill="#263238"/>
<path d="M240.201 252.062H193.848C193.254 252.107 192.698 252.374 192.293 252.811C191.887 253.248 191.662 253.821 191.662 254.417C191.662 255.013 191.887 255.587 192.293 256.024C192.698 256.461 193.254 256.728 193.848 256.772H240.201C240.525 256.797 240.85 256.754 241.157 256.646C241.464 256.539 241.745 256.369 241.983 256.148C242.221 255.927 242.411 255.659 242.541 255.362C242.671 255.064 242.738 254.742 242.738 254.417C242.738 254.092 242.671 253.771 242.541 253.473C242.411 253.175 242.221 252.907 241.983 252.686C241.745 252.465 241.464 252.296 241.157 252.188C240.85 252.081 240.525 252.038 240.201 252.062Z" fill="#263238"/>
<path d="M217.03 270.626H191.498V296.157H217.03V270.626Z" fill="#BFBFBF" stroke="#263238" stroke-width="1.312" stroke-linecap="round" stroke-linejoin="round"/>
<path d="M256.39 270.626H230.858V296.157H256.39V270.626Z" fill="#BFBFBF" stroke="#263238" stroke-width="1.312" stroke-linecap="round" stroke-linejoin="round"/>
<path d="M295.75 270.626H270.218V296.157H295.75V270.626Z" fill="#BFBFBF" stroke="#263238" stroke-width="1.312" stroke-linecap="round" stroke-linejoin="round"/>
<path d="M141.589 376.098C154.168 376.098 164.366 365.9 164.366 353.321C164.366 340.742 154.168 330.545 141.589 330.545C129.01 330.545 118.813 340.742 118.813 353.321C118.813 365.9 129.01 376.098 141.589 376.098Z" stroke="#263238" stroke-width="6.56" stroke-miterlimit="10"/>
<path d="M164.379 353.322C164.379 357.829 163.042 362.235 160.538 365.983C158.034 369.731 154.475 372.651 150.311 374.376C146.146 376.101 141.564 376.553 137.144 375.673C132.723 374.794 128.662 372.623 125.475 369.436C122.288 366.249 120.117 362.188 119.238 357.768C118.359 353.347 118.81 348.765 120.535 344.601C122.26 340.436 125.181 336.877 128.928 334.373C132.676 331.869 137.082 330.532 141.589 330.532" stroke="#90CAF9" stroke-width="6.56" stroke-linecap="round" stroke-linejoin="round"/>
<path d="M159.368 388.968H123.826C123.502 388.944 123.176 388.987 122.869 389.095C122.563 389.202 122.281 389.371 122.043 389.593C121.805 389.814 121.615 390.081 121.485 390.379C121.355 390.677 121.288 390.999 121.288 391.324C121.288 391.648 121.355 391.97 121.485 392.268C121.615 392.566 121.805 392.833 122.043 393.054C122.281 393.276 122.563 393.445 122.869 393.552C123.176 393.66 123.502 393.703 123.826 393.679H159.368C159.692 393.703 160.017 393.66 160.324 393.552C160.631 393.445 160.912 393.276 161.15 393.054C161.388 392.833 161.578 392.566 161.708 392.268C161.838 391.97 161.905 391.648 161.905 391.324C161.905 390.999 161.838 390.677 161.708 390.379C161.578 390.081 161.388 389.814 161.15 389.593C160.912 389.371 160.631 389.202 160.324 389.095C160.017 388.987 159.692 388.944 159.368 388.968Z" fill="#263238"/>
<path d="M216.714 376.098C229.293 376.098 239.49 365.9 239.49 353.321C239.49 340.742 229.293 330.545 216.714 330.545C204.135 330.545 193.938 340.742 193.938 353.321C193.938 365.9 204.135 376.098 216.714 376.098Z" stroke="#263238" stroke-width="6.56" stroke-miterlimit="10"/>
<path d="M232.826 369.42C230.177 372.067 226.916 374.02 223.333 375.106C219.749 376.192 215.953 376.378 212.28 375.647C208.607 374.915 205.172 373.29 202.277 370.914C199.382 368.539 197.118 365.486 195.685 362.026C194.252 358.567 193.693 354.807 194.06 351.08C194.426 347.354 195.706 343.775 197.785 340.661C199.865 337.546 202.68 334.993 205.982 333.226C209.284 331.46 212.97 330.534 216.715 330.532" stroke="#90CAF9" stroke-width="6.56" stroke-linecap="round" stroke-linejoin="round"/>
<path d="M234.492 388.968H198.937C198.343 389.013 197.787 389.28 197.382 389.717C196.977 390.154 196.751 390.728 196.751 391.324C196.751 391.919 196.977 392.493 197.382 392.93C197.787 393.367 198.343 393.634 198.937 393.679H234.492C234.816 393.703 235.142 393.66 235.448 393.552C235.755 393.445 236.036 393.276 236.275 393.054C236.513 392.833 236.703 392.566 236.833 392.268C236.963 391.97 237.03 391.648 237.03 391.324C237.03 390.999 236.963 390.677 236.833 390.379C236.703 390.081 236.513 389.814 236.275 389.593C236.036 389.371 235.755 389.202 235.448 389.095C235.142 388.987 234.816 388.944 234.492 388.968Z" fill="#263238"/>
<path d="M291.841 376.098C304.42 376.098 314.618 365.9 314.618 353.321C314.618 340.742 304.42 330.545 291.841 330.545C279.262 330.545 269.065 340.742 269.065 353.321C269.065 365.9 279.262 376.098 291.841 376.098Z" stroke="#263238" stroke-width="6.56" stroke-miterlimit="10"/>
<path d="M291.841 376.098C285.893 375.955 280.237 373.492 276.081 369.235C271.925 364.978 269.598 359.265 269.598 353.315C269.598 347.366 271.925 341.652 276.081 337.395C280.237 333.138 285.893 330.675 291.841 330.532" stroke="#90CAF9" stroke-width="6.56" stroke-linecap="round" stroke-linejoin="round"/>
<path d="M309.63 388.967H274.075C273.48 389.011 272.925 389.279 272.52 389.715C272.114 390.152 271.889 390.726 271.889 391.322C271.889 391.918 272.114 392.492 272.52 392.928C272.925 393.365 273.48 393.632 274.075 393.677H309.63C310.224 393.632 310.78 393.365 311.185 392.928C311.59 392.492 311.816 391.918 311.816 391.322C311.816 390.726 311.59 390.152 311.185 389.715C310.78 389.279 310.224 389.011 309.63 388.967Z" fill="#263238"/>
<path d="M146.365 424.261H102.413V468.213H146.365V424.261Z" fill="#BFBFBF" stroke="#263238" stroke-width="1.312" stroke-linecap="round" stroke-linejoin="round"/>
<path d="M159.736 429.023H295.607C295.931 429.047 296.256 429.005 296.563 428.897C296.87 428.79 297.151 428.62 297.389 428.399C297.627 428.178 297.817 427.91 297.947 427.612C298.077 427.315 298.144 426.993 298.144 426.668C298.144 426.343 298.077 426.022 297.947 425.724C297.817 425.426 297.627 425.158 297.389 424.937C297.151 424.716 296.87 424.547 296.563 424.439C296.256 424.332 295.931 424.289 295.607 424.313H159.736C159.142 424.358 158.586 424.625 158.181 425.062C157.775 425.498 157.55 426.072 157.55 426.668C157.55 427.264 157.775 427.838 158.181 428.275C158.586 428.712 159.142 428.979 159.736 429.023Z" fill="#263238"/>
<path d="M317.214 440.463H159.774C159.18 440.507 158.625 440.775 158.219 441.211C157.814 441.648 157.589 442.222 157.589 442.818C157.589 443.414 157.814 443.988 158.219 444.424C158.625 444.861 159.18 445.129 159.774 445.173H317.214C317.809 445.129 318.364 444.861 318.769 444.424C319.175 443.988 319.4 443.414 319.4 442.818C319.4 442.222 319.175 441.648 318.769 441.211C318.364 440.775 317.809 440.507 317.214 440.463Z" fill="#263238"/>
<path d="M313.371 456.655H159.736C159.142 456.699 158.586 456.967 158.181 457.404C157.775 457.84 157.55 458.414 157.55 459.01C157.55 459.606 157.775 460.18 158.181 460.617C158.586 461.053 159.142 461.321 159.736 461.365H313.371C313.695 461.389 314.021 461.346 314.327 461.239C314.634 461.132 314.915 460.962 315.153 460.741C315.392 460.52 315.582 460.252 315.712 459.954C315.842 459.656 315.909 459.335 315.909 459.01C315.909 458.685 315.842 458.364 315.712 458.066C315.582 457.768 315.392 457.5 315.153 457.279C314.915 457.058 314.634 456.889 314.327 456.781C314.021 456.674 313.695 456.631 313.371 456.655Z" fill="#263238"/>
<path d="M317.214 472.858H159.774C159.18 472.903 158.625 473.17 158.219 473.607C157.814 474.044 157.589 474.618 157.589 475.213C157.589 475.809 157.814 476.383 158.219 476.82C158.625 477.257 159.18 477.524 159.774 477.568H317.214C317.809 477.524 318.364 477.257 318.769 476.82C319.175 476.383 319.4 475.809 319.4 475.213C319.4 474.618 319.175 474.044 318.769 473.607C318.364 473.17 317.809 472.903 317.214 472.858Z" fill="#263238"/>
<path d="M192.969 489.06H159.736C159.142 489.105 158.586 489.372 158.181 489.809C157.775 490.246 157.55 490.819 157.55 491.415C157.55 492.011 157.775 492.585 158.181 493.022C158.586 493.459 159.142 493.726 159.736 493.77H192.969C193.293 493.795 193.618 493.752 193.925 493.644C194.232 493.537 194.513 493.367 194.751 493.146C194.989 492.925 195.179 492.657 195.309 492.36C195.439 492.062 195.506 491.74 195.506 491.415C195.506 491.09 195.439 490.769 195.309 490.471C195.179 490.173 194.989 489.905 194.751 489.684C194.513 489.463 194.232 489.294 193.925 489.186C193.618 489.079 193.293 489.036 192.969 489.06Z" fill="#263238"/>
<path d="M146.365 509.541H102.413V553.493H146.365V509.541Z" fill="#BFBFBF" stroke="#263238" stroke-width="1.312" stroke-linecap="round" stroke-linejoin="round"/>
<path d="M159.736 514.304H295.607C295.931 514.328 296.256 514.285 296.563 514.177C296.87 514.07 297.151 513.901 297.389 513.679C297.627 513.458 297.817 513.191 297.947 512.893C298.077 512.595 298.144 512.273 298.144 511.948C298.144 511.624 298.077 511.302 297.947 511.004C297.817 510.706 297.627 510.439 297.389 510.218C297.151 509.996 296.87 509.827 296.563 509.72C296.256 509.612 295.931 509.569 295.607 509.593H159.736C159.142 509.638 158.586 509.905 158.181 510.342C157.775 510.779 157.55 511.353 157.55 511.948C157.55 512.544 157.775 513.118 158.181 513.555C158.586 513.992 159.142 514.259 159.736 514.304Z" fill="#263238"/>
<path d="M317.214 525.743H159.774C159.18 525.788 158.625 526.055 158.219 526.492C157.814 526.928 157.589 527.502 157.589 528.098C157.589 528.694 157.814 529.268 158.219 529.705C158.625 530.141 159.18 530.409 159.774 530.453H317.214C317.809 530.409 318.364 530.141 318.769 529.705C319.175 529.268 319.4 528.694 319.4 528.098C319.4 527.502 319.175 526.928 318.769 526.492C318.364 526.055 317.809 525.788 317.214 525.743Z" fill="#263238"/>
<path d="M313.371 541.934H159.736C159.142 541.979 158.586 542.246 158.181 542.683C157.775 543.12 157.55 543.693 157.55 544.289C157.55 544.885 157.775 545.459 158.181 545.896C158.586 546.333 159.142 546.6 159.736 546.644H313.371C313.695 546.669 314.021 546.626 314.327 546.518C314.634 546.411 314.915 546.241 315.153 546.02C315.392 545.799 315.582 545.531 315.712 545.234C315.842 544.936 315.909 544.614 315.909 544.289C315.909 543.964 315.842 543.643 315.712 543.345C315.582 543.047 315.392 542.779 315.153 542.558C314.915 542.337 314.634 542.168 314.327 542.06C314.021 541.953 313.695 541.91 313.371 541.934Z" fill="#263238"/>
<path d="M317.214 558.139H159.774C159.18 558.183 158.625 558.45 158.219 558.887C157.814 559.324 157.589 559.898 157.589 560.494C157.589 561.09 157.814 561.663 158.219 562.1C158.625 562.537 159.18 562.804 159.774 562.849H317.214C317.809 562.804 318.364 562.537 318.769 562.1C319.175 561.663 319.4 561.09 319.4 560.494C319.4 559.898 319.175 559.324 318.769 558.887C318.364 558.45 317.809 558.183 317.214 558.139Z" fill="#263238"/>
<path d="M192.969 574.34H159.736C159.142 574.384 158.586 574.651 158.181 575.088C157.775 575.525 157.55 576.099 157.55 576.695C157.55 577.29 157.775 577.864 158.181 578.301C158.586 578.738 159.142 579.005 159.736 579.05H192.969C193.293 579.074 193.618 579.031 193.925 578.924C194.232 578.816 194.513 578.647 194.751 578.426C194.989 578.205 195.179 577.937 195.309 577.639C195.439 577.341 195.506 577.02 195.506 576.695C195.506 576.37 195.439 576.048 195.309 575.75C195.179 575.453 194.989 575.185 194.751 574.964C194.513 574.743 194.232 574.573 193.925 574.466C193.618 574.358 193.293 574.315 192.969 574.34Z" fill="#263238"/>
<path d="M368.32 130.346L379.42 146.601L369.094 154.473L359.858 140.711" fill="white"/>
<path d="M368.32 130.346L379.42 146.601L369.094 154.473L359.858 140.711" stroke="#263238" stroke-width="1.312" stroke-linecap="round" stroke-linejoin="round"/>
<path d="M382.476 147.243L373.934 135.671L361.431 145.091L367.624 156.597L382.476 147.243Z" fill="#90CAF9" stroke="#263238" stroke-width="1.312" stroke-linecap="round" stroke-linejoin="round"/>
<path d="M455.187 206.783L454.898 245.185C454.898 245.185 450.241 242.876 443.576 239.413C431.571 233.154 413.072 223.17 403.73 216.282C401.764 214.957 399.997 213.357 398.482 211.533C392.434 202.886 362.625 151.876 362.625 151.876L378.592 140.383L407.456 182.97L414.541 193.466L415.197 193.689L455.187 206.783Z" fill="#999999"/>
<mask id="mask0_304_3414" style="mask-type:luminance" maskUnits="userSpaceOnUse" x="362" y="140" width="94" height="106">
<path d="M455.186 206.782L454.897 245.184C454.897 245.184 450.24 242.875 443.575 239.412C431.57 233.153 413.071 223.169 403.729 216.281C401.763 214.956 399.996 213.356 398.481 211.532C392.433 202.886 362.624 151.875 362.624 151.875L378.591 140.382L407.455 182.969L414.54 193.465L415.196 193.688L455.186 206.782Z" fill="white"/>
</mask>
<g mask="url(#mask0_304_3414)">
<path opacity="0.3" d="M448.706 222.015L443.537 239.412C431.532 233.154 413.033 223.169 403.691 216.281C422.033 219.771 448.706 222.015 448.706 222.015Z" fill="black" fill-opacity="0.7"/>
<path opacity="0.3" d="M415.197 193.623C409.529 195.131 407.771 198.871 407.771 198.871C405.147 191.904 405.948 186.564 407.456 182.956L414.541 193.452L415.197 193.623Z" fill="black" fill-opacity="0.7"/>
</g>
<path d="M455.187 206.783L454.898 245.185C454.898 245.185 450.241 242.876 443.576 239.413C431.571 233.154 413.072 223.17 403.73 216.282C401.764 214.957 399.997 213.357 398.482 211.533C392.434 202.886 362.625 151.876 362.625 151.876L378.592 140.383L407.456 182.97L414.541 193.466L415.197 193.689L455.187 206.783Z" stroke="#263238" stroke-width="1.312" stroke-linecap="round" stroke-linejoin="round"/>
<path d="M368.936 133.441C369.399 132.508 369.667 131.49 369.723 130.45C369.817 129.056 369.685 127.655 369.33 126.304C368.979 124.918 368.427 123.592 367.69 122.368C367.046 121.257 366.498 120.094 366.05 118.891C365.735 118.078 365.459 117.264 365.223 116.49C364.735 114.888 364.341 113.258 364.042 111.61C364.042 111.61 361.418 110.731 361.13 113.276C361.064 113.976 361.094 114.683 361.221 115.375C361.431 116.556 361.812 117.776 362.035 118.76C362.232 119.32 362.269 119.925 362.14 120.505C362.044 120.721 361.92 120.924 361.772 121.108L361.615 121.318C361.291 121.709 360.876 122.015 360.408 122.211C360.204 122.297 359.986 122.346 359.765 122.355C359.709 122.369 359.651 122.369 359.595 122.355C359.433 122.374 359.27 122.374 359.109 122.355C358.251 122.171 357.424 121.862 356.656 121.436C355.509 120.837 354.408 120.153 353.363 119.39C352.969 119.088 352.588 118.799 352.221 118.498C351.306 117.756 350.431 116.968 349.597 116.136C349.007 115.546 348.351 114.903 347.668 114.299C346.986 113.696 346.357 113.158 345.727 112.672C343.864 111.268 342.158 110.547 341.568 111.99C340.977 113.433 341.686 113.866 343.181 115.257C343.706 115.742 344.336 116.333 345.058 117.067C346.304 118.378 347.449 119.781 348.482 121.266L348.889 121.843L348.338 122.604C348.429 122.748 348.101 122.604 347.472 122.342C345.833 121.52 344.251 120.591 342.735 119.56C342.053 119.114 341.332 118.603 340.623 118.091C339.915 117.579 339.311 117.133 338.734 116.635C335.703 114.155 334.995 117.002 335.493 118.261C336.3 119.368 337.322 120.301 338.498 121.003L340.61 122.565L341.594 123.339C342.906 124.388 344.218 125.451 345.097 126.186L345.464 126.475L345.149 127.668L344.585 127.524C342.947 127.113 341.348 126.555 339.81 125.858C338.773 125.386 337.973 124.939 337.343 124.546C336.162 123.929 335.519 123.719 334.719 124.428C333.919 125.136 334.719 126.461 336.031 127.59C337.08 128.468 338.257 129.18 339.521 129.702C339.749 129.789 339.981 129.863 340.216 129.925C341.401 130.31 342.53 130.848 343.575 131.526L344.218 131.906L344.441 132.877L343.391 132.772C342.287 132.636 341.192 132.434 340.111 132.169C339.248 131.93 338.372 131.737 337.487 131.591C337.216 131.519 336.929 131.53 336.665 131.624C336.4 131.718 336.17 131.889 336.005 132.116C335.493 132.877 336.293 133.717 337.514 134.412C338.256 134.816 339.039 135.141 339.849 135.383C340.444 135.579 341.061 135.698 341.686 135.737C342.852 135.886 343.997 136.173 345.097 136.59L346.409 137.075C348.036 137.666 349.532 138.283 350.043 138.492L350.24 138.571C351.316 139.28 352.261 139.883 353.1 140.316C355.066 141.493 357.273 142.211 359.555 142.415C360.612 142.399 361.627 142.004 362.415 141.3" fill="white"/>
<path d="M368.936 133.441C369.399 132.508 369.667 131.49 369.723 130.45C369.817 129.056 369.685 127.655 369.33 126.304C368.979 124.918 368.427 123.592 367.69 122.368C367.046 121.257 366.498 120.094 366.05 118.891C365.735 118.078 365.459 117.264 365.223 116.49C364.735 114.888 364.341 113.258 364.042 111.61C364.042 111.61 361.418 110.731 361.13 113.276C361.064 113.976 361.094 114.683 361.221 115.375C361.431 116.556 361.812 117.776 362.035 118.76C362.232 119.32 362.269 119.925 362.14 120.505C362.044 120.721 361.92 120.924 361.772 121.108L361.615 121.318C361.291 121.709 360.876 122.015 360.408 122.211C360.204 122.297 359.986 122.346 359.765 122.355C359.709 122.369 359.651 122.369 359.595 122.355C359.433 122.374 359.27 122.374 359.109 122.355C358.251 122.171 357.424 121.862 356.656 121.436C355.509 120.837 354.408 120.153 353.363 119.39C352.969 119.088 352.588 118.799 352.221 118.498C351.306 117.756 350.431 116.968 349.597 116.136C349.007 115.546 348.351 114.903 347.668 114.299C346.986 113.696 346.357 113.158 345.727 112.672C343.864 111.268 342.158 110.547 341.568 111.99C340.977 113.433 341.686 113.866 343.181 115.257C343.706 115.742 344.336 116.333 345.058 117.067C346.304 118.378 347.449 119.781 348.482 121.266L348.889 121.843L348.338 122.604C348.429 122.748 348.101 122.604 347.472 122.342C345.833 121.52 344.251 120.591 342.735 119.56C342.053 119.114 341.332 118.603 340.623 118.091C339.915 117.579 339.311 117.133 338.734 116.635C335.703 114.155 334.995 117.002 335.493 118.261C336.3 119.368 337.322 120.301 338.498 121.003L340.61 122.565L341.594 123.339C342.906 124.388 344.218 125.451 345.097 126.186L345.464 126.475L345.149 127.668L344.585 127.524C342.947 127.113 341.348 126.555 339.81 125.858C338.773 125.386 337.973 124.939 337.343 124.546C336.162 123.929 335.519 123.719 334.719 124.428C333.919 125.136 334.719 126.461 336.031 127.59C337.08 128.468 338.257 129.18 339.521 129.702C339.749 129.789 339.981 129.863 340.216 129.925C341.401 130.31 342.53 130.848 343.575 131.526L344.218 131.906L344.441 132.877L343.391 132.772C342.287 132.636 341.192 132.434 340.111 132.169C339.248 131.93 338.372 131.737 337.487 131.591C337.216 131.519 336.929 131.53 336.665 131.624C336.4 131.718 336.17 131.889 336.005 132.116C335.493 132.877 336.293 133.717 337.514 134.412C338.256 134.816 339.039 135.141 339.849 135.383C340.444 135.579 341.061 135.698 341.686 135.737C342.852 135.886 343.997 136.173 345.097 136.59L346.409 137.075C348.036 137.666 349.532 138.283 350.043 138.492L350.24 138.571C351.316 139.28 352.261 139.883 353.1 140.316C355.066 141.493 357.273 142.211 359.555 142.415C360.612 142.399 361.627 142.004 362.415 141.3" stroke="#263238" stroke-width="1.312" stroke-linecap="round" stroke-linejoin="round"/>
<path d="M359.569 122.433C359.569 122.433 356.039 126.762 358.952 130.908" stroke="#263238" stroke-width="1.312" stroke-linecap="round" stroke-linejoin="round"/>
<path d="M424.958 220.663C424.958 220.663 429.432 228.955 441.03 236.237" stroke="#263238" stroke-width="1.312" stroke-linecap="round" stroke-linejoin="round"/>
<path d="M414.592 193.398C414.592 193.398 405.408 194.081 408.294 203.029" stroke="#263238" stroke-width="1.312" stroke-linecap="round" stroke-linejoin="round"/>
<path d="M569.973 556.115C569.973 556.115 544.743 577.645 531.584 581.135C518.425 584.625 522.177 594.544 522.177 594.544H552.878L565.998 591.71V594.622H574.145C574.145 594.622 581.388 590.909 579.59 572.318C579.525 571.177 569.973 556.115 569.973 556.115Z" fill="#263238"/>
<path d="M297.077 562.676C297.077 562.676 275.783 577.646 262.624 581.136C249.465 584.626 253.217 594.545 253.217 594.545H283.918L297.038 591.711V594.623H305.185C305.185 594.623 312.428 590.91 310.63 572.319C310.525 571.173 310.381 569.979 310.197 568.737C307.114 547.103 297.077 562.676 297.077 562.676Z" fill="#263238"/>
<path d="M551.763 573.08C551.763 573.08 472.676 509.146 468.163 500.841C463.65 492.536 454.689 416.493 454.689 416.493C453.534 417.306 379.406 469.931 375.969 475.034C375.732 475.389 375.247 476.15 374.538 477.278C364.725 492.825 312.966 576.99 312.966 576.99C308.68 577.124 304.416 576.323 300.472 574.642C296.527 572.961 292.996 570.44 290.124 567.255L343.444 452.337L421.587 375.926L422.754 374.771L430.207 345.054L497.25 336.854C497.25 336.854 503.023 358.122 506.106 374.798C506.242 375.85 506.308 376.911 506.303 377.973C506.644 396.682 501.291 480.637 504.072 487.682C507.064 495.305 570.866 555.171 570.866 555.171C571.548 568.724 551.763 573.08 551.763 573.08Z" fill="#757575"/>
<mask id="mask1_304_3414" style="mask-type:luminance" maskUnits="userSpaceOnUse" x="290" y="336" width="281" height="242">
<path d="M551.765 573.082C551.765 573.082 472.677 509.148 468.164 500.843C463.651 492.538 454.69 416.495 454.69 416.495C453.535 417.308 379.407 469.933 375.97 475.036C375.734 475.391 375.248 476.151 374.54 477.28C364.726 492.827 312.968 576.992 312.968 576.992C308.682 577.126 304.418 576.325 300.473 574.644C296.528 572.963 292.997 570.442 290.126 567.257L343.445 452.339L421.588 375.928L422.756 374.773L430.208 345.056L497.251 336.856C497.251 336.856 503.024 358.124 506.107 374.8C506.244 375.852 506.309 376.913 506.304 377.975C506.645 396.684 501.292 480.639 504.074 487.684C507.065 495.307 570.867 555.173 570.867 555.173C571.55 568.726 551.765 573.082 551.765 573.082Z" fill="white"/>
</mask>
<g mask="url(#mask1_304_3414)">
<path opacity="0.3" d="M454.69 416.495C453.535 417.308 379.407 469.933 375.97 475.036C375.733 475.391 375.248 476.151 374.54 477.28C371.679 458.4 424.973 418.423 424.973 418.423L414.162 412.834L435.443 409.699C428.069 406.287 430.509 396.985 430.509 396.985L454.69 416.495Z" fill="black" fill-opacity="0.7"/>
<path opacity="0.3" d="M459.086 386.083L462.602 391.331C441.767 386.726 428.739 380.362 421.589 375.954L422.756 374.8L430.209 345.056L497.252 336.856C497.252 336.856 503.025 358.124 506.108 374.8C506.244 375.852 506.31 376.913 506.304 377.975C488.553 384.876 459.086 386.083 459.086 386.083Z" fill="black" fill-opacity="0.7"/>
</g>
<path d="M551.763 573.08C551.763 573.08 472.676 509.146 468.163 500.841C463.65 492.536 454.689 416.493 454.689 416.493C453.534 417.306 379.406 469.931 375.969 475.034C375.732 475.389 375.247 476.15 374.538 477.278C364.725 492.825 312.966 576.99 312.966 576.99C308.68 577.124 304.416 576.323 300.472 574.642C296.527 572.961 292.996 570.44 290.124 567.255L343.444 452.337L421.587 375.926L422.754 374.771L430.207 345.054L497.25 336.854C497.25 336.854 503.023 358.122 506.106 374.798C506.242 375.85 506.308 376.911 506.303 377.973C506.644 396.682 501.291 480.637 504.072 487.682C507.064 495.305 570.866 555.171 570.866 555.171C571.548 568.724 551.763 573.08 551.763 573.08Z" stroke="#263238" stroke-width="1.312" stroke-linecap="round" stroke-linejoin="round"/>
<path d="M513.518 278.417C509.766 299.527 494.704 325.282 494.704 325.282L498.247 336.316L507.746 365.823L456.04 381.226L446.633 363.553L437.96 379.94L420.353 372.881L421.796 365.455L425.129 348.268C425.05 347.297 424.985 346.274 424.906 345.224C422.741 313.29 422.964 247.756 452.786 206.152C452.786 206.152 497.053 212.319 513.256 261.82C514.725 266.426 514.607 272.225 513.518 278.417Z" fill="#999999"/>
<mask id="mask2_304_3414" style="mask-type:luminance" maskUnits="userSpaceOnUse" x="420" y="206" width="95" height="176">
<path d="M513.52 278.418C509.768 299.528 494.706 325.283 494.706 325.283L498.249 336.317L507.747 365.824L456.041 381.227L446.634 363.554L437.962 379.941L420.355 372.882L421.798 365.456L425.131 348.269C425.052 347.298 424.986 346.275 424.908 345.225C422.743 313.291 422.966 247.757 452.788 206.153C452.788 206.153 497.055 212.32 513.258 261.821C514.727 266.427 514.609 272.226 513.52 278.418Z" fill="white"/>
</mask>
<g mask="url(#mask2_304_3414)">
<path opacity="0.3" d="M494.707 325.283L498.249 336.317C489.432 344.464 478.805 354.317 477.795 355.55C476.483 357.138 440.245 362.701 421.759 365.456L425.092 348.269C425.013 347.298 424.947 346.275 424.869 345.225L499.876 283.39L513.521 278.418C509.768 299.528 494.707 325.283 494.707 325.283Z" fill="black" fill-opacity="0.7"/>
</g>
<path d="M513.518 278.417C509.766 299.527 494.704 325.282 494.704 325.282L498.247 336.316L507.746 365.823L456.04 381.226L446.633 363.553L437.96 379.94L420.353 372.881L421.796 365.455L425.129 348.268C425.05 347.297 424.985 346.274 424.906 345.224C422.741 313.29 422.964 247.756 452.786 206.152C452.786 206.152 497.053 212.319 513.256 261.82C514.725 266.426 514.607 272.225 513.518 278.417Z" stroke="#263238" stroke-width="1.312" stroke-linecap="round" stroke-linejoin="round"/>
<path d="M443.049 290.605C443.049 290.605 515.629 231.801 488.838 222.565C464.71 214.233 433.878 232.956 443.049 290.605Z" fill="#90CAF9" stroke="#263238" stroke-width="1.312" stroke-linecap="round" stroke-linejoin="round"/>
<path d="M469.054 243.571L459.083 247.887C453.936 260.863 450.659 274.504 449.348 288.402L441.659 298.124L439.521 288.402C439.521 288.402 443.273 258.974 456.013 246.956L459.096 235.266L471.14 229.1L469.054 243.571Z" fill="#263238"/>
<path d="M443.812 286.879C443.812 286.879 501.081 246.81 487.869 219.967C487.869 219.967 503.548 219.56 496.922 258.015L477.793 263.591L483.133 274.284C483.133 274.284 461.59 278.64 441.661 298.097L433.881 252.321L439.509 248.162L436.203 241.13C436.203 241.13 456.001 219.101 474.946 220.951C474.946 220.951 452.38 230.332 446.528 248.188C440.677 266.044 443.812 286.879 443.812 286.879Z" fill="#BFBFBF" stroke="#263238" stroke-width="1.312" stroke-linecap="round" stroke-linejoin="round"/>
<path d="M476.625 218.616C476.625 218.616 459.031 223.93 451.172 241.275L460.632 237.772L461.59 240.697L466.326 242.652V252.348C466.326 252.348 493.419 240.081 493.471 230.136C493.484 227.315 486.754 214.064 476.625 218.616Z" fill="#90CAF9" stroke="#263238" stroke-width="1.312" stroke-linecap="round" stroke-linejoin="round"/>
<path d="M493.864 203.71C486.989 214.744 491.541 228.245 491.541 228.245C491.541 228.245 471.009 243.543 464.58 239.292C464.789 234.917 464.688 230.533 464.278 226.172C463.957 222.431 463.396 218.715 462.599 215.046C462.599 215.046 464.777 213.734 467.991 211.989C478.238 206.229 499.112 195.314 493.864 203.71Z" fill="white" stroke="#263238" stroke-width="1.312" stroke-linecap="round" stroke-linejoin="round"/>
<path d="M361.091 387.036C361.754 386.509 362.356 385.911 362.888 385.252C363.289 384.771 363.628 384.242 363.899 383.677C364.485 382.657 365.185 381.707 365.985 380.843L366.956 379.768C368.123 378.456 369.252 377.34 369.645 376.947L369.79 376.789C370.852 376.055 371.731 375.412 372.414 374.808C374.256 373.436 375.763 371.664 376.822 369.626C378.239 367.002 374.198 360.166 372.007 357.555C371.313 356.778 370.47 356.149 369.527 355.706C368.292 355.084 366.962 354.671 365.591 354.485C364.177 354.282 362.741 354.282 361.327 354.485C360.058 354.662 358.777 354.733 357.496 354.695C356.63 354.695 355.764 354.617 354.964 354.538C353.294 354.381 351.634 354.131 349.991 353.79C349.758 354.017 349.582 354.296 349.475 354.603C349.369 354.911 349.336 355.239 349.38 355.562C349.423 355.884 349.541 356.192 349.725 356.461C349.909 356.73 350.153 356.952 350.438 357.109C351.058 357.435 351.72 357.673 352.406 357.818C353.586 358.08 354.859 358.198 355.843 358.356C356.441 358.38 357.019 358.576 357.509 358.92C357.669 359.093 357.81 359.282 357.929 359.484L358.06 359.707C358.292 360.158 358.418 360.656 358.428 361.163C358.427 361.382 358.391 361.599 358.323 361.806C358.334 361.863 358.334 361.921 358.323 361.977C358.254 362.127 358.175 362.271 358.086 362.41C357.591 363.134 356.989 363.78 356.302 364.325C355.298 365.149 354.232 365.895 353.114 366.556L351.802 367.264C350.767 367.839 349.703 368.36 348.614 368.826C347.84 369.154 347 369.521 346.187 369.915C345.417 370.266 344.668 370.66 343.943 371.095C341.923 372.289 340.624 373.588 341.726 374.677C342.828 375.766 343.51 375.294 345.373 374.428C346.016 374.126 346.79 373.772 347.748 373.378C349.435 372.725 351.167 372.194 352.93 371.791L353.613 371.633L354.111 372.42C354.282 372.42 354.111 372.67 353.547 373.129C352.189 374.353 350.756 375.493 349.257 376.54C348.574 376.999 347.827 377.485 347.079 377.931C346.331 378.377 345.767 378.757 345.019 379.125C341.582 381.001 343.943 382.733 345.294 382.746C346.636 382.432 347.9 381.847 349.007 381.027L351.264 379.65L352.353 379.046C353.796 378.272 355.292 377.445 356.289 376.881L356.683 376.658L357.68 377.393L357.339 377.865C356.338 379.218 355.219 380.478 353.993 381.631C353.153 382.418 352.445 382.943 351.907 383.441C350.897 384.32 350.451 384.832 350.818 385.79C351.185 386.747 352.694 386.59 354.229 385.79C355.435 385.152 356.537 384.333 357.496 383.363C357.666 383.185 357.823 382.996 357.968 382.798C358.765 381.847 359.688 381.008 360.71 380.306L361.314 379.859L362.298 380.017C362.141 380.345 361.97 380.66 361.799 380.948C361.255 381.918 360.655 382.856 360.002 383.756C359.446 384.471 358.929 385.216 358.454 385.987C358.277 386.205 358.175 386.475 358.163 386.756C358.151 387.037 358.23 387.315 358.388 387.548C358.9 388.348 360.002 387.863 361.091 387.036Z" fill="white" stroke="#263238" stroke-width="1.312" stroke-linecap="round" stroke-linejoin="round"/>
<path d="M368.883 357.386L387.526 351.049L392.341 363.093L376.611 368.315" fill="white"/>
<path d="M368.883 357.386L387.526 351.049L392.341 363.093L376.611 368.315" stroke="#263238" stroke-width="1.312" stroke-linecap="round" stroke-linejoin="round"/>
<path d="M388.957 348.269L375.522 353.398L381.256 367.975L393.995 365.088L388.957 348.269Z" fill="#90CAF9" stroke="#263238" stroke-width="1.312" stroke-linecap="round" stroke-linejoin="round"/>
<path d="M511.551 263.619C511.551 263.619 502.695 260.037 491.372 266.4C484.445 270.336 449.9 324.246 451.172 321.78L380.324 349.45L387.58 369.746C387.58 369.746 462.01 350.893 468.032 346.314C474.054 341.735 505.647 308.266 512.758 280.202" fill="#999999"/>
<path d="M511.551 263.619C511.551 263.619 502.695 260.037 491.372 266.4C484.445 270.336 449.9 324.246 451.172 321.78L380.324 349.45L387.58 369.746C387.58 369.746 462.01 350.893 468.032 346.314C474.054 341.735 505.647 308.266 512.758 280.202" stroke="#263238" stroke-width="1.312" stroke-linecap="round" stroke-linejoin="round"/>
<path d="M435.428 400.644C435.428 400.644 456.801 412.452 468.084 423.144" stroke="#263238" stroke-width="1.312" stroke-linecap="round" stroke-linejoin="round"/>
<path d="M494.77 371.295C494.6 371.584 493.904 383.103 500.832 387.918" stroke="#263238" stroke-width="1.312" stroke-linecap="round" stroke-linejoin="round"/>
<path d="M500.831 368.314C500.831 368.314 504.635 370.545 502.143 404.447C499.65 438.349 498.561 486.119 498.561 486.119C499.4 489.084 500.929 491.808 503.022 494.07C506.38 497.533 560.356 550.21 560.356 550.21" stroke="#263238" stroke-width="1.312" stroke-linecap="round" stroke-linejoin="round"/>
<path d="M451.762 411.967C451.762 411.967 434.273 415.247 420.274 413.174" stroke="#263238" stroke-width="1.312" stroke-linecap="round" stroke-linejoin="round"/>
<path d="M446.594 413.789C446.594 413.789 377.648 470.887 363.807 475.729" stroke="#263238" stroke-width="1.312" stroke-linecap="round" stroke-linejoin="round"/>
<path d="M368.883 473.17L322.622 551.864" stroke="#263238" stroke-width="1.312" stroke-linecap="round" stroke-linejoin="round"/>
<path d="M451.33 372.474C451.33 372.474 448.404 389.228 446.581 391.996C444.757 394.765 448.956 404.447 448.956 404.447" stroke="#263238" stroke-width="1.312" stroke-linecap="round" stroke-linejoin="round"/>
<path d="M446.592 372.474C446.592 372.474 444.427 382.655 443.731 385.082C443.036 387.509 446.592 388.467 446.592 388.467" stroke="#263238" stroke-width="1.312" stroke-linecap="round" stroke-linejoin="round"/>
<path d="M439.522 302.033C439.522 302.033 437.173 316.57 437.869 323.484Z" fill="#BFBFBF"/>
<path d="M439.522 302.033C439.522 302.033 437.173 316.57 437.869 323.484" stroke="#263238" stroke-width="1.312" stroke-linecap="round" stroke-linejoin="round"/>
<path d="M500.83 296.154C500.83 296.154 488.668 305.142 477.792 304.8" stroke="#263238" stroke-width="1.312" stroke-linecap="round" stroke-linejoin="round"/>
<path d="M451.172 321.779C451.172 321.779 456.106 325.558 459.044 323.485" stroke="#263238" stroke-width="1.312" stroke-linecap="round" stroke-linejoin="round"/>
<path d="M494.704 325.282C494.704 325.282 488.026 329.021 486.635 332.826" stroke="#263238" stroke-width="1.312" stroke-linecap="round" stroke-linejoin="round"/>
<path d="M483.131 214.405C483.131 214.405 474.761 223.235 464.278 226.108C463.957 222.368 463.396 218.652 462.599 214.983C462.599 214.983 464.777 213.671 467.991 211.926L483.131 214.405Z" fill="#263238"/>
<path d="M485.835 216.372C477.373 221.069 467.782 222.722 458.953 218.616C455.817 217.173 454.295 198.345 458.953 181.722C466.444 154.866 488.158 153.973 505.647 169.914C514.896 178.364 509.215 195.157 497.63 207.162" fill="white"/>
<path d="M485.835 216.372C477.373 221.069 467.782 222.722 458.953 218.616C455.817 217.173 454.295 198.345 458.953 181.722C466.444 154.866 488.158 153.973 505.647 169.914C514.896 178.364 509.215 195.157 497.63 207.162" stroke="#263238" stroke-width="1.312" stroke-linecap="round" stroke-linejoin="round"/>
<path d="M472.451 183.39C474.729 183.207 477.004 183.771 478.931 184.997C480.859 186.224 482.333 188.046 483.131 190.187" stroke="#263238" stroke-width="1.312" stroke-linecap="round" stroke-linejoin="round"/>
<path d="M464.579 180.005C464.579 180.005 463.451 176.751 460.643 176.686" stroke="#263238" stroke-width="1.312" stroke-linecap="round" stroke-linejoin="round"/>
<path d="M460.291 198.871C460.291 198.871 456.946 195.395 457.995 193.427C459.045 191.459 460.108 192.626 462.6 190.881C463.355 190.361 463.993 189.688 464.472 188.906C464.951 188.124 465.261 187.251 465.382 186.342" fill="white"/>
<path d="M460.291 198.871C460.291 198.871 456.946 195.395 457.995 193.427C459.045 191.459 460.108 192.626 462.6 190.881C463.355 190.361 463.993 189.688 464.472 188.906C464.951 188.124 465.261 187.251 465.382 186.342" stroke="#263238" stroke-width="1.312" stroke-linecap="round" stroke-linejoin="round"/>
<path d="M475.877 193.23C475.535 194.096 474.866 194.647 474.381 194.464C473.895 194.28 473.764 193.414 474.105 192.535C474.446 191.656 475.116 191.118 475.601 191.315C476.086 191.512 476.257 192.365 475.877 193.23Z" fill="#263238"/>
<path d="M463.492 187.103C463.151 187.982 462.482 188.533 461.996 188.336C461.511 188.14 461.38 187.287 461.721 186.421C462.062 185.555 462.731 185.004 463.216 185.188C463.702 185.371 463.833 186.303 463.492 187.103Z" fill="#263238"/>
<path d="M459.083 203.016C459.083 203.016 465.984 206.191 471.127 206.256C471.127 206.256 468.503 211.819 464.016 211.321C459.529 210.822 460.513 204.669 460.513 204.669" stroke="#263238" stroke-width="1.312" stroke-linecap="round" stroke-linejoin="round"/>
<path d="M491.042 174.493C491.042 174.493 483.643 168.55 467.426 165.821C467.426 165.821 467.505 155.902 471.166 152.32C474.826 148.738 477.831 156.125 477.831 156.125C477.831 156.125 487.015 153.58 503.323 164.771C519.631 175.962 511.811 201.861 491.2 212.869L491.082 208.487C491.082 208.487 491.292 199.408 487.907 197.715C487.907 197.715 490.439 191.155 487.697 186.314C484.955 181.473 491.042 174.493 491.042 174.493Z" fill="#263238"/>
<path d="M487.867 200.903C487.867 200.903 493.785 193.727 498.639 196.259C503.493 198.791 492.722 214.194 487.867 211.36" fill="white"/>
<path d="M487.867 200.903C487.867 200.903 493.785 193.727 498.639 196.259C503.493 198.791 492.722 214.194 487.867 211.36" stroke="#263238" stroke-width="1.312" stroke-linecap="round" stroke-linejoin="round"/>
</svg>
