<svg width="738" height="608" viewBox="0 0 738 608" fill="none" xmlns="http://www.w3.org/2000/svg">
<path d="M756.826 577.973H701.111V578.393H756.826V577.973Z" fill="#EBEBEB"/>
<path d="M557.181 582.549H542.562V582.969H557.181V582.549Z" fill="#EBEBEB"/>
<path d="M699.428 562.361H667.146V562.782H699.428V562.361Z" fill="#EBEBEB"/>
<path d="M160.903 565.188H88.248V565.608H160.903V565.188Z" fill="#EBEBEB"/>
<path d="M186.541 565.188H175.893V565.608H186.541V565.188Z" fill="#EBEBEB"/>
<path d="M378.75 572.287H221.16V572.708H378.75V572.287Z" fill="#EBEBEB"/>
<path d="M398.684 475.879H73.8659C71.3213 475.875 68.8825 474.861 67.0848 473.06C65.287 471.259 64.2773 468.818 64.2773 466.274V9.6717C64.2995 7.14169 65.319 4.7226 67.1143 2.93986C68.9096 1.15712 71.3358 0.154725 73.8659 0.150391H398.684C401.231 0.150391 403.674 1.16239 405.476 2.96375C407.277 4.76512 408.289 7.20829 408.289 9.7558V466.274C408.289 468.821 407.277 471.264 405.476 473.066C403.674 474.867 401.231 475.879 398.684 475.879ZM73.8659 0.486834C71.4329 0.49129 69.101 1.46094 67.3821 3.18295C65.6633 4.90497 64.6979 7.23863 64.6979 9.6717V466.274C64.6979 468.707 65.6633 471.041 67.3821 472.763C69.101 474.485 71.4329 475.454 73.8659 475.459H398.684C401.118 475.454 403.452 474.485 405.174 472.764C406.895 471.042 407.864 468.708 407.869 466.274V9.6717C407.864 7.23708 406.895 4.90346 405.174 3.18193C403.452 1.46039 401.118 0.491281 398.684 0.486834H73.8659Z" fill="#EBEBEB"/>
<path d="M762.563 475.879H437.728C435.182 475.875 432.742 474.861 430.941 473.061C429.141 471.261 428.127 468.82 428.123 466.274V9.6717C428.15 7.14016 429.173 4.72108 430.971 2.93881C432.769 1.15653 435.197 0.154677 437.728 0.150391H762.563C765.09 0.159146 767.512 1.1635 769.304 2.94576C771.096 4.72803 772.113 7.1446 772.135 9.6717V466.274C772.135 468.815 771.128 471.254 769.333 473.054C767.539 474.854 765.105 475.87 762.563 475.879ZM437.728 0.486834C435.294 0.491281 432.96 1.46039 431.239 3.18193C429.517 4.90346 428.548 7.23708 428.544 9.6717V466.274C428.548 468.708 429.517 471.042 431.239 472.764C432.96 474.485 435.294 475.454 437.728 475.459H762.563C764.998 475.454 767.331 474.485 769.053 472.764C770.774 471.042 771.744 468.708 771.748 466.274V9.6717C771.744 7.23708 770.774 4.90346 769.053 3.18193C767.331 1.46039 764.998 0.491281 762.563 0.486834H437.728Z" fill="#EBEBEB"/>
<path d="M841.105 550.905H0V551.326H841.105V550.905Z" fill="#EBEBEB"/>
<path d="M713.947 132.826H644.102V229.351H713.947V132.826Z" fill="#E6E6E6"/>
<path d="M703.92 132.642H634.074V229.167H703.92V132.642Z" fill="#EBEBEB"/>
<path d="M696.753 138.041H641.24V221.58H696.753V138.041Z" fill="#F5F5F5"/>
<path d="M707.149 173.317H704.172V188.878H707.149V173.317Z" fill="#E0E0E0"/>
<path d="M640.922 201.36V221.546H642.89L696.435 148.69V138.092H688.932L640.922 201.36Z" fill="white"/>
<path d="M641.24 177.708V187.195L679.023 138.041H673.286L641.24 177.708Z" fill="white"/>
<path d="M643.512 476.922H623.375C619.325 476.922 616.041 480.206 616.041 484.256V504.392C616.041 508.443 619.325 511.727 623.375 511.727H643.512C647.562 511.727 650.846 508.443 650.846 504.392V484.256C650.846 480.206 647.562 476.922 643.512 476.922Z" fill="#F5F5F5"/>
<path d="M683.094 476.922H662.958C658.907 476.922 655.623 480.206 655.623 484.256V504.392C655.623 508.443 658.907 511.727 662.958 511.727H683.094C687.144 511.727 690.428 508.443 690.428 504.392V484.256C690.428 480.206 687.144 476.922 683.094 476.922Z" fill="#F5F5F5"/>
<path d="M683.094 516.05H662.958C658.907 516.05 655.623 519.334 655.623 523.384V543.52C655.623 547.571 658.907 550.855 662.958 550.855H683.094C687.144 550.855 690.428 547.571 690.428 543.52V523.384C690.428 519.334 687.144 516.05 683.094 516.05Z" fill="#F5F5F5"/>
<path d="M643.949 516.05H623.813C619.762 516.05 616.479 519.334 616.479 523.384V543.52C616.479 547.571 619.762 550.855 623.813 550.855H643.949C648 550.855 651.283 547.571 651.283 543.52V523.384C651.283 519.334 648 516.05 643.949 516.05Z" fill="#F5F5F5"/>
<path d="M722.408 476.922H702.272C698.221 476.922 694.938 480.206 694.938 484.256V504.392C694.938 508.443 698.221 511.727 702.272 511.727H722.408C726.459 511.727 729.742 508.443 729.742 504.392V484.256C729.742 480.206 726.459 476.922 722.408 476.922Z" fill="#F5F5F5"/>
<path d="M722.408 516.05H702.272C698.221 516.05 694.938 519.334 694.938 523.384V543.52C694.938 547.571 698.221 550.855 702.272 550.855H722.408C726.459 550.855 729.742 547.571 729.742 543.52V523.384C729.742 519.334 726.459 516.05 722.408 516.05Z" fill="#F5F5F5"/>
<path d="M643.377 28.1924H623.241C619.19 28.1924 615.906 31.4761 615.906 35.5268V55.6629C615.906 59.7136 619.19 62.9973 623.241 62.9973H643.377C647.427 62.9973 650.711 59.7136 650.711 55.6629V35.5268C650.711 31.4761 647.427 28.1924 643.377 28.1924Z" fill="#F5F5F5"/>
<path d="M682.959 28.1924H662.823C658.772 28.1924 655.488 31.4761 655.488 35.5268V55.6629C655.488 59.7136 658.772 62.9973 662.823 62.9973H682.959C687.009 62.9973 690.293 59.7136 690.293 55.6629V35.5268C690.293 31.4761 687.009 28.1924 682.959 28.1924Z" fill="#F5F5F5"/>
<path d="M682.959 67.3379H662.823C658.772 67.3379 655.488 70.6216 655.488 74.6723V94.8084C655.488 98.8591 658.772 102.143 662.823 102.143H682.959C687.009 102.143 690.293 98.8591 690.293 94.8084V74.6723C690.293 70.6216 687.009 67.3379 682.959 67.3379Z" fill="#F5F5F5"/>
<path d="M643.814 67.3379H623.678C619.627 67.3379 616.344 70.6216 616.344 74.6723V94.8084C616.344 98.8591 619.627 102.143 623.678 102.143H643.814C647.865 102.143 651.149 98.8591 651.149 94.8084V74.6723C651.149 70.6216 647.865 67.3379 643.814 67.3379Z" fill="#F5F5F5"/>
<path d="M722.273 28.1924H702.137C698.086 28.1924 694.803 31.4761 694.803 35.5268V55.6629C694.803 59.7136 698.086 62.9973 702.137 62.9973H722.273C726.324 62.9973 729.608 59.7136 729.608 55.6629V35.5268C729.608 31.4761 726.324 28.1924 722.273 28.1924Z" fill="#F5F5F5"/>
<path d="M722.273 67.3379H702.137C698.086 67.3379 694.803 70.6216 694.803 74.6723V94.8084C694.803 98.8591 698.086 102.143 702.137 102.143H722.273C726.324 102.143 729.608 98.8591 729.608 94.8084V74.6723C729.608 70.6216 726.324 67.3379 722.273 67.3379Z" fill="#F5F5F5"/>
<path d="M134.039 29.5547H113.903C109.852 29.5547 106.568 32.8384 106.568 36.8891V57.0252C106.568 61.0759 109.852 64.3596 113.903 64.3596H134.039C138.09 64.3596 141.373 61.0759 141.373 57.0252V36.8891C141.373 32.8384 138.09 29.5547 134.039 29.5547Z" fill="#F5F5F5"/>
<path d="M173.621 29.5547H153.485C149.434 29.5547 146.15 32.8384 146.15 36.8891V57.0252C146.15 61.0759 149.434 64.3596 153.485 64.3596H173.621C177.672 64.3596 180.955 61.0759 180.955 57.0252V36.8891C180.955 32.8384 177.672 29.5547 173.621 29.5547Z" fill="#F5F5F5"/>
<path d="M173.621 68.7002H153.485C149.434 68.7002 146.15 71.9839 146.15 76.0346V96.1707C146.15 100.221 149.434 103.505 153.485 103.505H173.621C177.672 103.505 180.955 100.221 180.955 96.1707V76.0346C180.955 71.9839 177.672 68.7002 173.621 68.7002Z" fill="#F5F5F5"/>
<path d="M134.476 68.7002H114.34C110.29 68.7002 107.006 71.9839 107.006 76.0346V96.1707C107.006 100.221 110.29 103.505 114.34 103.505H134.476C138.527 103.505 141.811 100.221 141.811 96.1707V76.0346C141.811 71.9839 138.527 68.7002 134.476 68.7002Z" fill="#F5F5F5"/>
<path d="M212.933 29.5547H192.797C188.747 29.5547 185.463 32.8384 185.463 36.8891V57.0252C185.463 61.0759 188.747 64.3596 192.797 64.3596H212.933C216.984 64.3596 220.268 61.0759 220.268 57.0252V36.8891C220.268 32.8384 216.984 29.5547 212.933 29.5547Z" fill="#F5F5F5"/>
<path d="M212.933 68.7002H192.797C188.747 68.7002 185.463 71.9839 185.463 76.0346V96.1707C185.463 100.221 188.747 103.505 192.797 103.505H212.933C216.984 103.505 220.268 100.221 220.268 96.1707V76.0346C220.268 71.9839 216.984 68.7002 212.933 68.7002Z" fill="#F5F5F5"/>
<path d="M134.039 476.435H113.903C109.852 476.435 106.568 479.718 106.568 483.769V503.905C106.568 507.956 109.852 511.239 113.903 511.239H134.039C138.09 511.239 141.373 507.956 141.373 503.905V483.769C141.373 479.718 138.09 476.435 134.039 476.435Z" fill="#F5F5F5"/>
<path d="M173.621 476.435H153.485C149.434 476.435 146.15 479.718 146.15 483.769V503.905C146.15 507.956 149.434 511.239 153.485 511.239H173.621C177.672 511.239 180.955 507.956 180.955 503.905V483.769C180.955 479.718 177.672 476.435 173.621 476.435Z" fill="#F5F5F5"/>
<path d="M173.621 515.562H153.485C149.434 515.562 146.15 518.846 146.15 522.897V543.033C146.15 547.084 149.434 550.367 153.485 550.367H173.621C177.672 550.367 180.955 547.084 180.955 543.033V522.897C180.955 518.846 177.672 515.562 173.621 515.562Z" fill="#F5F5F5"/>
<path d="M134.476 515.562H114.34C110.29 515.562 107.006 518.846 107.006 522.897V543.033C107.006 547.084 110.29 550.367 114.34 550.367H134.476C138.527 550.367 141.811 547.084 141.811 543.033V522.897C141.811 518.846 138.527 515.562 134.476 515.562Z" fill="#F5F5F5"/>
<path d="M212.933 476.435H192.797C188.747 476.435 185.463 479.718 185.463 483.769V503.905C185.463 507.956 188.747 511.239 192.797 511.239H212.933C216.984 511.239 220.268 507.956 220.268 503.905V483.769C220.268 479.718 216.984 476.435 212.933 476.435Z" fill="#F5F5F5"/>
<path d="M212.933 515.562H192.797C188.747 515.562 185.463 518.846 185.463 522.897V543.033C185.463 547.084 188.747 550.367 192.797 550.367H212.933C216.984 550.367 220.268 547.084 220.268 543.033V522.897C220.268 518.846 216.984 515.562 212.933 515.562Z" fill="#F5F5F5"/>
<path d="M244.727 524.175C242.608 488.95 255.746 458.132 255.881 457.829L256.94 458.283C256.806 458.586 243.769 489.152 245.871 524.108L244.727 524.175Z" fill="#EBEBEB"/>
<path d="M252.753 449.519C252.487 448.659 251.929 447.919 251.177 447.427C250.424 446.934 249.523 446.718 248.629 446.818C247.735 446.918 246.903 447.326 246.277 447.972C245.651 448.619 245.27 449.463 245.2 450.36C244.998 452.766 246.983 454.734 248.8 456.332C250.17 457.827 252.033 458.777 254.048 459.006C254.835 458.953 255.602 458.733 256.297 458.362C256.993 457.991 257.603 457.477 258.085 456.853C259.042 455.608 259.812 454.231 260.373 452.766C261.112 451.356 261.553 449.81 261.669 448.224C261.778 447.459 261.628 446.68 261.244 446.01C260.86 445.34 260.263 444.817 259.547 444.525C258.832 444.234 258.04 444.189 257.297 444.399C256.553 444.609 255.901 445.061 255.444 445.683C254.528 446.779 253.821 448.033 253.358 449.384L252.753 449.519Z" fill="#E6E6E6"/>
<path d="M266.293 456.382C267.164 456.171 268.081 456.268 268.889 456.656C269.697 457.044 270.346 457.699 270.726 458.511C271.106 459.322 271.194 460.24 270.974 461.109C270.755 461.978 270.242 462.745 269.523 463.279C267.571 464.692 264.863 464.019 262.558 463.279C260.562 462.901 258.769 461.814 257.512 460.217C257.145 459.517 256.931 458.747 256.885 457.958C256.838 457.169 256.96 456.38 257.243 455.642C257.817 454.173 258.593 452.792 259.547 451.537C260.376 450.212 261.463 449.068 262.744 448.173C263.338 447.683 264.079 447.406 264.848 447.384C265.618 447.363 266.373 447.598 266.994 448.053C267.615 448.508 268.067 449.157 268.278 449.898C268.489 450.639 268.448 451.428 268.16 452.143C267.7 453.5 266.993 454.76 266.074 455.86L266.293 456.382Z" fill="#E6E6E6"/>
<path d="M245.484 460.722C244.61 460.952 243.683 460.868 242.865 460.486C242.046 460.104 241.386 459.448 241.001 458.631C240.615 457.814 240.528 456.888 240.754 456.013C240.979 455.138 241.504 454.37 242.237 453.842C244.188 452.412 246.914 453.085 249.201 453.842C251.201 454.223 252.994 455.317 254.248 456.92C254.616 457.617 254.83 458.384 254.876 459.17C254.923 459.957 254.8 460.744 254.517 461.479C253.949 462.95 253.173 464.333 252.213 465.583C251.394 466.944 250.306 468.123 249.016 469.049C248.421 469.543 247.678 469.823 246.904 469.846C246.131 469.868 245.373 469.631 244.75 469.172C244.127 468.714 243.675 468.06 243.467 467.315C243.258 466.57 243.305 465.777 243.6 465.062C244.06 463.71 244.767 462.455 245.686 461.361L245.484 460.722Z" fill="#E6E6E6"/>
<path d="M259.061 469.1C259.327 469.959 259.884 470.699 260.637 471.192C261.39 471.685 262.291 471.9 263.185 471.801C264.079 471.701 264.911 471.293 265.537 470.647C266.162 470 266.543 469.156 266.614 468.259C266.816 465.853 264.831 463.885 263.014 462.304C261.652 460.795 259.785 459.838 257.765 459.612C256.979 459.666 256.212 459.885 255.516 460.256C254.82 460.628 254.211 461.142 253.728 461.766C252.769 463.014 251.998 464.397 251.44 465.87C250.7 467.273 250.259 468.813 250.145 470.395C250.038 471.157 250.187 471.933 250.57 472.6C250.952 473.268 251.546 473.789 252.257 474.082C252.968 474.375 253.757 474.423 254.498 474.218C255.24 474.014 255.892 473.568 256.352 472.952C257.271 471.849 257.983 470.59 258.455 469.235L259.061 469.1Z" fill="#E6E6E6"/>
<path d="M246.982 490.666C247.621 489.61 248.496 488.716 249.538 488.053C250.579 487.391 251.76 486.978 252.988 486.848C254.014 486.73 255.074 486.848 256.083 486.663C256.599 486.605 257.093 486.422 257.521 486.129C257.95 485.835 258.299 485.441 258.539 484.981C259.582 482.508 256.184 481.111 254.737 483.147C254.418 479.412 251.154 480.994 249.539 482.794C247.285 485.317 248.345 488.379 246.982 490.666Z" fill="#E6E6E6"/>
<path d="M231.859 532.569C231.859 540.375 233.087 545.421 235.224 548.651C236.012 549.839 237.086 550.809 238.347 551.473C239.608 552.137 241.015 552.474 242.44 552.453H253.745C255.172 552.476 256.583 552.139 257.847 551.475C259.11 550.811 260.187 549.84 260.978 548.651C263.031 545.421 264.343 540.375 264.343 532.569C264.343 521.248 259.414 512.181 257.799 504.948C257.21 502.34 259.145 494.35 259.145 494.35H237.276C237.276 494.35 239.211 502.34 238.639 504.948C236.805 512.181 231.859 521.248 231.859 532.569Z" fill="#F0F0F0"/>
<path d="M258.943 516.69C260.406 520.845 261.803 525.387 261.332 529.811C261.231 530.652 260.978 531.611 260.373 531.762C259.767 531.914 259.246 531.207 259.044 530.433C258.892 529.653 258.841 528.855 258.892 528.062C258.892 521.198 255.175 515.411 254.468 508.733C254.266 506.832 254.754 500.81 255.881 505.234C256.874 509.17 257.58 512.854 258.943 516.69Z" fill="#FAFAFA"/>
<path d="M238.285 500.708H244.341H245.485H257.782L258.169 498.303H245.485H244.358H237.898L238.285 500.708Z" fill="#E0E0E0"/>
<path d="M420.552 625.95C600.687 625.95 746.716 617.424 746.716 606.907C746.716 596.39 600.687 587.864 420.552 587.864C240.417 587.864 94.3887 596.39 94.3887 606.907C94.3887 617.424 240.417 625.95 420.552 625.95Z" fill="#F5F5F5"/>
<path d="M485.808 0H562.449C563.607 0 564.753 0.228003 565.822 0.670987C566.892 1.11397 567.864 1.76326 568.682 2.58179C569.501 3.40031 570.15 4.37205 570.593 5.44151C571.036 6.51096 571.264 7.65721 571.264 8.81478V578.276C571.264 580.873 570.233 583.363 568.396 585.199C566.56 587.035 564.07 588.067 561.473 588.067H486.8C484.204 588.067 481.713 587.035 479.877 585.199C478.041 583.363 477.01 580.873 477.01 578.276V8.81478C477.01 6.47987 477.936 4.24034 479.586 2.58773C481.235 0.93512 483.473 0.00445594 485.808 0Z" fill="#FFC100"/>
<g opacity="0.2">
<path d="M561.035 0H487.203C481.564 0 476.992 4.57163 476.992 10.211V577.856C476.992 583.495 481.564 588.067 487.203 588.067H561.035C566.675 588.067 571.246 583.495 571.246 577.856V10.211C571.246 4.57163 566.675 0 561.035 0Z" fill="white"/>
</g>
<path d="M503.604 10.4121H493.712C492.411 10.4076 491.161 10.918 490.234 11.832C489.307 12.7459 488.78 13.9892 488.767 15.2905V233.978C488.753 234.636 488.871 235.29 489.114 235.901C489.356 236.513 489.718 237.07 490.179 237.54C490.64 238.01 491.189 238.384 491.796 238.639C492.403 238.893 493.054 239.025 493.712 239.024H503.604C504.262 239.025 504.913 238.893 505.52 238.639C506.127 238.384 506.676 238.01 507.137 237.54C507.598 237.07 507.96 236.513 508.202 235.901C508.445 235.29 508.563 234.636 508.549 233.978V232.296C508.552 231.645 508.425 231.001 508.178 230.4C507.93 229.799 507.566 229.253 507.106 228.794C506.646 228.334 506.1 227.97 505.499 227.722C504.898 227.474 504.254 227.348 503.604 227.35H501.484C500.172 227.35 498.915 226.829 497.987 225.901C497.06 224.974 496.539 223.716 496.539 222.404V25.2492C496.547 23.9434 497.072 22.6941 497.999 21.7738C498.925 20.8536 500.178 20.3371 501.484 20.3372H503.604C504.262 20.3373 504.913 20.2061 505.52 19.9513C506.127 19.6965 506.676 19.3231 507.137 18.8531C507.598 18.3831 507.96 17.8259 508.202 17.2142C508.445 16.6025 508.563 15.9485 508.549 15.2905C508.536 13.9892 508.009 12.7459 507.082 11.832C506.156 10.918 504.905 10.4076 503.604 10.4121Z" fill="#FFC100"/>
<path opacity="0.4" d="M503.604 10.4121H493.712C492.411 10.4076 491.161 10.918 490.234 11.832C489.307 12.7459 488.78 13.9892 488.767 15.2905V233.978C488.753 234.636 488.871 235.29 489.114 235.901C489.356 236.513 489.718 237.07 490.179 237.54C490.64 238.01 491.189 238.384 491.796 238.639C492.403 238.893 493.054 239.025 493.712 239.024H503.604C504.262 239.025 504.913 238.893 505.52 238.639C506.127 238.384 506.676 238.01 507.137 237.54C507.598 237.07 507.96 236.513 508.202 235.901C508.445 235.29 508.563 234.636 508.549 233.978V232.296C508.552 231.645 508.425 231.001 508.178 230.4C507.93 229.799 507.566 229.253 507.106 228.794C506.646 228.334 506.1 227.97 505.499 227.722C504.898 227.474 504.254 227.348 503.604 227.35H501.484C500.172 227.35 498.915 226.829 497.987 225.901C497.06 224.974 496.539 223.716 496.539 222.404V25.2492C496.547 23.9434 497.072 22.6941 497.999 21.7738C498.925 20.8536 500.178 20.3371 501.484 20.3372H503.604C504.262 20.3373 504.913 20.2061 505.52 19.9513C506.127 19.6965 506.676 19.3231 507.137 18.8531C507.598 18.3831 507.96 17.8259 508.202 17.2142C508.445 16.6025 508.563 15.9485 508.549 15.2905C508.536 13.9892 508.009 12.7459 507.082 11.832C506.156 10.918 504.905 10.4076 503.604 10.4121Z" fill="white"/>
<path d="M500.745 81.2344L473.308 65.0179C472.339 64.4503 471.189 64.2757 470.095 64.5301L459.665 66.902C458.704 67.1299 457.849 67.6761 457.238 68.4519C456.627 69.2277 456.297 70.1874 456.301 71.1748V74.8925C456.298 75.6984 456.518 76.4893 456.937 77.178C457.355 77.8667 457.956 78.4264 458.673 78.7952L477.177 88.367C477.895 88.7343 478.497 89.2936 478.915 89.9827C479.334 90.6717 479.553 91.4634 479.549 92.2697C479.549 93.4342 480.012 94.5509 480.835 95.3743C481.658 96.1977 482.775 96.6603 483.94 96.6603H498.491C499.655 96.6603 500.772 96.1977 501.595 95.3743C502.419 94.5509 502.881 93.4342 502.881 92.2697V85.0194C502.881 84.258 502.684 83.5095 502.31 82.8465C501.936 82.1834 501.397 81.6282 500.745 81.2344Z" fill="#FFC100"/>
<path d="M500.745 81.2344L473.308 65.0179C472.339 64.4503 471.189 64.2757 470.095 64.5301L459.665 66.902C458.704 67.1299 457.849 67.6761 457.238 68.4519C456.627 69.2277 456.297 70.1874 456.301 71.1748V74.8925C456.298 75.6984 456.518 76.4893 456.937 77.178C457.355 77.8667 457.956 78.4264 458.673 78.7952L477.177 88.367C477.895 88.7343 478.497 89.2936 478.915 89.9827C479.334 90.6717 479.553 91.4634 479.549 92.2697C479.549 93.4342 480.012 94.5509 480.835 95.3743C481.658 96.1977 482.775 96.6603 483.94 96.6603H498.491C499.655 96.6603 500.772 96.1977 501.595 95.3743C502.419 94.5509 502.881 93.4342 502.881 92.2697V85.0194C502.881 84.258 502.684 83.5095 502.31 82.8465C501.936 82.1834 501.397 81.6282 500.745 81.2344Z" fill="#FFC100"/>
<path opacity="0.2" d="M500.93 95.9193C500.211 96.3918 499.369 96.6433 498.508 96.6427H483.957C483.382 96.6442 482.813 96.5321 482.281 96.3127C481.75 96.0933 481.268 95.7709 480.862 95.3642C480.448 94.9586 480.121 94.4742 479.898 93.9396C479.676 93.405 479.563 92.8311 479.566 92.2521C479.567 91.4466 479.346 90.6564 478.928 89.9681C478.509 89.2797 477.91 88.7197 477.194 88.3494L458.69 78.7944C458.002 78.4361 457.422 77.9021 457.008 77.2468L468.783 73.8824C469.701 73.6247 470.663 73.5649 471.605 73.707C472.548 73.8491 473.45 74.1899 474.25 74.7066L492.166 86.4821C492.802 86.889 493.326 87.4484 493.69 88.1095C494.054 88.7706 494.247 89.5123 494.252 90.2671C494.255 90.9042 494.393 91.5335 494.657 92.1134C494.921 92.6933 495.304 93.2107 495.783 93.6315C496.23 94.017 496.743 94.319 497.297 94.5231L500.93 95.9193Z" fill="black"/>
<path d="M494.402 299.955C494.402 307.474 490.13 313.564 484.864 313.564C479.599 313.564 475.326 307.474 475.326 299.955C475.326 292.435 479.582 286.346 484.864 286.346C490.146 286.346 494.402 292.435 494.402 299.955Z" fill="#FFC100"/>
<path d="M524.935 299.955C524.935 307.474 520.663 313.564 515.38 313.564H484.865C490.131 313.564 494.403 307.474 494.403 299.955C494.403 292.435 490.131 286.346 484.865 286.346H515.38C520.663 286.346 524.935 292.435 524.935 299.955Z" fill="#FFC100"/>
<path opacity="0.4" d="M524.935 299.955C524.935 307.474 520.663 313.564 515.38 313.564H484.865C490.131 313.564 494.403 307.474 494.403 299.955C494.403 292.435 490.131 286.346 484.865 286.346H515.38C520.663 286.346 524.935 292.435 524.935 299.955Z" fill="white"/>
<path d="M503.773 404.084C503.291 404.109 502.808 404.109 502.326 404.084C494.891 403.277 488.633 396.396 488.078 388.389C487.472 379.978 488.078 316.306 488.078 313.615H493.124C493.124 314.288 492.536 379.726 493.124 388.002C493.257 390.674 494.296 393.221 496.069 395.223C497.843 397.226 500.245 398.565 502.881 399.021C507.558 399.525 511.292 395.976 513.328 389.281C516.776 377.505 492.603 226.274 479.684 145.057C475.276 117.402 471.71 95.1631 469.977 83.2698C469.93 82.9428 469.947 82.6095 470.029 82.2892C470.111 81.969 470.255 81.6681 470.454 81.4039C470.652 81.1396 470.901 80.9173 471.186 80.7496C471.471 80.582 471.786 80.4723 472.114 80.4269C472.774 80.3305 473.445 80.4993 473.981 80.8965C474.517 81.2937 474.874 81.8869 474.973 82.5465C476.656 94.322 480.255 116.628 484.68 144.25C503.571 262.408 521.688 378.767 518.24 390.694C515.666 399.172 510.35 404.084 503.773 404.084Z" fill="#FFC100"/>
<g opacity="0.8">
<path d="M503.773 404.084C503.291 404.109 502.808 404.109 502.326 404.084C494.891 403.277 488.633 396.396 488.078 388.389C487.472 379.978 488.078 316.306 488.078 313.615H493.124C493.124 314.288 492.536 379.726 493.124 388.002C493.257 390.674 494.296 393.221 496.069 395.223C497.843 397.226 500.245 398.565 502.881 399.021C507.558 399.525 511.292 395.976 513.328 389.281C516.776 377.505 492.603 226.274 479.684 145.057C475.276 117.402 471.71 95.1631 469.977 83.2698C469.93 82.9428 469.947 82.6095 470.029 82.2892C470.111 81.969 470.255 81.6681 470.454 81.4039C470.652 81.1396 470.901 80.9173 471.186 80.7496C471.471 80.582 471.786 80.4723 472.114 80.4269C472.774 80.3305 473.445 80.4993 473.981 80.8965C474.517 81.2937 474.874 81.8869 474.973 82.5465C476.656 94.322 480.255 116.628 484.68 144.25C503.571 262.408 521.688 378.767 518.24 390.694C515.666 399.172 510.35 404.084 503.773 404.084Z" fill="white"/>
</g>
<path d="M499.904 211.891H483.603C482.804 211.891 482.038 211.574 481.474 211.009C480.909 210.445 480.592 209.679 480.592 208.88C480.596 208.084 480.915 207.323 481.48 206.762C482.044 206.201 482.807 205.886 483.603 205.886H499.904C500.698 205.886 501.459 206.201 502.021 206.763C502.582 207.324 502.898 208.086 502.898 208.88C502.898 209.676 502.583 210.439 502.022 211.003C501.461 211.568 500.699 211.887 499.904 211.891Z" fill="#FFC100"/>
<path d="M402.049 23.2317C404.135 22.9625 406.692 22.6933 409.804 22.4747C437.224 20.6747 454.938 44.848 454.938 44.848L447.233 50.0461C447.233 50.0461 440.218 38.2706 429.048 34.0146C424.693 32.1849 420.079 31.0496 415.372 30.6502L402.049 23.2317Z" fill="#FFC100"/>
<path opacity="0.4" d="M402.049 23.2316C404.135 22.9624 406.675 22.6933 409.804 22.4746C437.224 20.6746 455.223 45.1339 455.223 45.1339L447.283 50.046C447.283 50.046 440.269 38.2705 429.099 34.0145C424.744 32.1848 420.129 31.0495 415.422 30.6501C415.422 30.6501 403.496 23.7026 402.049 23.2316Z" fill="white"/>
<path d="M417.189 31.8608L416.466 40.5242C406.928 42.5428 391.132 40.5241 382.166 36.7728H381.914L381.51 27.5039L391.687 24.56C393.075 23.9027 394.547 23.4386 396.061 23.1806C397.361 22.9617 398.682 22.894 399.997 22.9787C400.67 23.0259 401.338 23.1158 401.999 23.2479C405.309 23.858 408.358 25.4527 410.747 27.8235L415.322 30.7337L417.189 31.8608Z" fill="#FFC100"/>
<path d="M447.184 50.0625L459.447 66.9351L467.774 65.051L454.871 44.8477L447.184 50.0625Z" fill="#FFC100"/>
<path d="M489.422 300.039C489.422 304.228 486.966 307.626 483.938 307.626C480.91 307.626 478.438 304.261 478.438 300.039C478.438 295.817 480.894 292.436 483.938 292.436C486.983 292.436 489.422 295.834 489.422 300.039Z" fill="white"/>
<path opacity="0.5" d="M417.189 31.8608L416.466 40.5242C406.928 42.5428 391.132 40.5241 382.166 36.7728H381.914L381.51 27.5039L391.687 24.56C393.075 23.9027 394.547 23.4386 396.061 23.1806C397.361 22.9617 398.682 22.894 399.997 22.9787C400.67 23.0259 401.338 23.1158 401.999 23.2479C405.309 23.858 408.358 25.4527 410.747 27.8235L415.322 30.7337L417.189 31.8608Z" fill="white"/>
<path d="M413.488 37.3948C413.236 39.3798 406.591 40.1704 398.651 39.1779C390.711 38.1854 384.47 35.8135 384.722 33.7612C384.975 31.7089 391.619 30.9856 399.559 32.079C407.499 33.1725 413.824 35.4771 413.488 37.3948Z" fill="#FFC100"/>
<path opacity="0.5" d="M413.488 37.3948C413.236 39.3798 406.591 40.1704 398.651 39.1779C390.711 38.1854 384.47 35.8135 384.722 33.7612C384.975 31.7089 391.619 30.9856 399.559 32.079C407.499 33.1725 413.824 35.4771 413.488 37.3948Z" fill="black"/>
<path d="M578.967 86.1289H577.705V99.6034H578.967V86.1289Z" fill="#FFC100"/>
<path d="M578.967 20.54H577.705V73.8997H578.967V20.54Z" fill="#FFC100"/>
<path d="M470.869 241.111H469.607V254.586H470.869V241.111Z" fill="#FFC100"/>
<path d="M470.869 266.815H469.607V320.175H470.869V266.815Z" fill="#FFC100"/>
<path d="M702.174 423.412C702.959 426.682 703.288 430.045 703.15 433.404C702.83 436.769 701.35 440.133 698.742 441.58C696.135 443.027 693.376 442.286 690.701 441.58L685.352 440.251C684.384 440.053 683.445 439.731 682.559 439.292C678.438 437.038 677.597 430.747 677.311 425.431L673.324 352.692C672.433 336.526 666.36 320.192 670.263 304.648C671.306 300.443 674.249 291.359 677.412 289.02C680.574 286.682 693.595 287.607 693.595 287.607C694.554 289.29 693.999 294.336 693.04 299.753C690.587 314.008 689.903 328.512 691.004 342.935C692.975 369.975 696.706 396.858 702.174 423.412Z" fill="#FFC100"/>
<path d="M702.174 423.412C702.959 426.682 703.288 430.045 703.15 433.404C702.83 436.769 701.35 440.133 698.742 441.58C696.135 443.027 693.376 442.286 690.701 441.58L685.352 440.251C684.384 440.053 683.445 439.731 682.559 439.292C678.438 437.038 677.597 430.747 677.311 425.431L673.324 352.692C672.433 336.526 666.36 320.192 670.263 304.648C671.306 300.443 674.249 291.359 677.412 289.02C680.574 286.682 693.595 287.607 693.595 287.607C694.554 289.29 693.999 294.336 693.04 299.753C690.587 314.008 689.903 328.512 691.004 342.935C692.975 369.975 696.706 396.858 702.174 423.412Z" fill="#FFC100"/>
<path opacity="0.2" d="M702.174 423.412C702.959 426.682 703.288 430.045 703.15 433.404C702.83 436.769 701.35 440.133 698.742 441.58C696.135 443.027 693.376 442.286 690.701 441.58L685.352 440.251C684.384 440.053 683.445 439.731 682.559 439.292C678.438 437.038 677.597 430.747 677.311 425.431L673.324 352.692C672.433 336.526 666.36 320.192 670.263 304.648C671.306 300.443 674.249 291.359 677.412 289.02C680.574 286.682 693.595 287.607 693.595 287.607C694.554 289.29 693.999 294.336 693.04 299.753C690.587 314.008 689.903 328.512 691.004 342.935C692.975 369.975 696.706 396.858 702.174 423.412Z" fill="black"/>
<path d="M593.822 290.871C593.822 292.036 594.285 293.152 595.108 293.976C595.932 294.799 597.048 295.262 598.213 295.262H750.84V286.464H598.246C597.666 286.462 597.091 286.574 596.555 286.795C596.018 287.015 595.53 287.339 595.119 287.749C594.708 288.158 594.382 288.645 594.159 289.181C593.937 289.717 593.822 290.291 593.822 290.871Z" fill="#263238"/>
<path opacity="0.2" d="M593.822 290.871C593.822 292.036 594.285 293.152 595.108 293.976C595.932 294.799 597.048 295.262 598.213 295.262H706.278C705.438 294.874 704.726 294.254 704.227 293.474C703.728 292.695 703.463 291.788 703.463 290.863C703.463 289.937 703.728 289.031 704.227 288.252C704.726 287.472 705.438 286.852 706.278 286.464H598.246C597.666 286.462 597.091 286.574 596.555 286.795C596.018 287.015 595.53 287.339 595.119 287.749C594.708 288.158 594.382 288.645 594.159 289.181C593.937 289.717 593.822 290.291 593.822 290.871Z" fill="white"/>
<path d="M740.325 295.278V322.076C737.679 322.075 735.083 321.358 732.812 320.001C730.541 318.645 728.678 316.7 727.422 314.371L726.968 313.513C725.279 310.409 722.525 308.019 719.213 306.785L718.961 306.701C715.89 305.539 713.296 303.384 711.593 300.577L708.396 295.329L740.325 295.278Z" fill="#263238"/>
<path d="M744.583 295.278V322.076C741.937 322.075 739.341 321.358 737.07 320.001C734.798 318.645 732.936 316.7 731.68 314.371L731.226 313.513C729.537 310.409 726.783 308.019 723.471 306.785L723.219 306.701C720.148 305.539 717.554 303.384 715.85 300.577L712.654 295.329L744.583 295.278Z" fill="#263238"/>
<path opacity="0.2" d="M744.583 295.278V322.076C741.937 322.075 739.341 321.358 737.07 320.001C734.798 318.645 732.936 316.7 731.68 314.371L731.226 313.513C729.537 310.409 726.783 308.019 723.471 306.785L723.219 306.701C720.148 305.539 717.554 303.384 715.85 300.577L712.654 295.329L744.583 295.278Z" fill="white"/>
<path d="M631.688 295.278V322.076C629.043 322.075 626.447 321.358 624.175 320.001C621.904 318.645 620.042 316.7 618.786 314.371L618.331 313.513C616.643 310.409 613.888 308.019 610.576 306.785L610.324 306.701C607.258 305.54 604.665 303.392 602.956 300.594L599.76 295.329L631.688 295.278Z" fill="#263238"/>
<path opacity="0.2" d="M631.688 295.278V322.076C629.043 322.075 626.447 321.358 624.175 320.001C621.904 318.645 620.042 316.7 618.786 314.371L618.331 313.513C616.643 310.409 613.888 308.019 610.576 306.785L610.324 306.701C607.258 305.54 604.665 303.392 602.956 300.594L599.76 295.329L631.688 295.278Z" fill="white"/>
<path d="M635.878 295.278V322.076C633.232 322.075 630.636 321.358 628.365 320.001C626.093 318.645 624.231 316.7 622.975 314.371L622.521 313.513C620.832 310.409 618.078 308.019 614.766 306.785L614.513 306.701C611.447 305.54 608.855 303.392 607.145 300.594L603.949 295.329L635.878 295.278Z" fill="#263238"/>
<path d="M686.092 302.175C686.092 312.925 690.684 399.239 691.391 426.39C691.576 433.522 691.592 440.924 688.951 447.35C686.31 453.776 680.237 458.856 674.282 457.241C668.647 455.71 664.475 448.83 658.672 448.83C653.272 448.982 649.201 455.324 643.818 455.795C639.982 456.131 636.517 453.423 632.984 451.606C629.672 449.901 626.02 448.961 622.297 448.853C618.574 448.745 614.874 449.473 611.469 450.983C611.604 402.654 614.266 354.365 619.442 306.313C620.3 298.424 621.747 289.491 627.517 285.303C631.42 282.46 632.883 285.303 637.493 285.488C637.493 285.488 653.743 285.235 674.064 285C677.63 285 686.26 284.277 688.026 284.327C689.557 284.678 690.996 285.349 692.248 286.295C692.248 286.295 686.159 291.409 686.092 302.175Z" fill="#FFC100"/>
<path opacity="0.7" d="M686.092 302.175C686.092 312.925 690.684 399.239 691.391 426.39C691.576 433.522 691.592 440.924 688.951 447.35C686.31 453.776 680.237 458.856 674.282 457.241C668.647 455.71 664.475 448.83 658.672 448.83C653.272 448.982 649.201 455.324 643.818 455.795C639.982 456.131 636.517 453.423 632.984 451.606C629.672 449.901 626.02 448.961 622.297 448.853C618.574 448.745 614.874 449.473 611.469 450.983C611.604 402.654 614.266 354.365 619.442 306.313C620.3 298.424 621.747 289.491 627.517 285.303C631.42 282.46 632.883 285.303 637.493 285.488C637.493 285.488 653.743 285.235 674.064 285C677.63 285 686.26 284.277 688.026 284.327C689.557 284.678 690.996 285.349 692.248 286.295C692.248 286.295 686.159 291.409 686.092 302.175Z" fill="white"/>
<path d="M261.213 251.237H104.195V260.035H261.213V251.237Z" fill="#263238"/>
<path opacity="0.2" d="M261.212 251.237H148.756V260.035H261.212V251.237Z" fill="white"/>
<path d="M114.742 260.053V286.834C117.387 286.837 119.983 286.125 122.255 284.771C124.527 283.417 126.389 281.473 127.645 279.146L128.116 278.288C129.794 275.181 132.544 272.79 135.854 271.559L136.106 271.475C139.182 270.315 141.781 268.159 143.491 265.352L146.671 260.103L114.742 260.053Z" fill="#263238"/>
<path d="M110.488 260.053V286.834C113.133 286.837 115.729 286.125 118.001 284.771C120.273 283.417 122.135 281.473 123.391 279.146L123.862 278.288C125.54 275.181 128.29 272.79 131.6 271.559L131.852 271.475C134.926 270.318 137.521 268.162 139.22 265.352L142.417 260.103L110.488 260.053Z" fill="#263238"/>
<path opacity="0.2" d="M110.488 260.053V286.834C113.133 286.837 115.729 286.125 118.001 284.771C120.273 283.417 122.135 281.473 123.391 279.146L123.862 278.288C125.54 275.181 128.29 272.79 131.6 271.559L131.852 271.475C134.926 270.318 137.521 268.162 139.22 265.352L142.417 260.103L110.488 260.053Z" fill="white"/>
<path d="M223.379 260.053V286.834C226.023 286.837 228.62 286.125 230.892 284.771C233.163 283.417 235.026 281.473 236.281 279.146L236.752 278.288C238.431 275.181 241.181 272.79 244.491 271.559L244.743 271.475C247.819 270.315 250.418 268.159 252.128 265.352L255.307 260.103L223.379 260.053Z" fill="#263238"/>
<path opacity="0.2" d="M223.379 260.053V286.834C226.023 286.837 228.62 286.125 230.892 284.771C233.163 283.417 235.026 281.473 236.281 279.146L236.752 278.288C238.431 275.181 241.181 272.79 244.491 271.559L244.743 271.475C247.819 270.315 250.418 268.159 252.128 265.352L255.307 260.103L223.379 260.053Z" fill="white"/>
<path d="M219.125 260.053V286.834C221.77 286.837 224.366 286.125 226.638 284.771C228.91 283.417 230.772 281.473 232.028 279.146L232.499 278.288C234.177 275.181 236.927 272.79 240.237 271.559L240.489 271.475C243.563 270.318 246.158 268.162 247.857 265.352L251.053 260.103L219.125 260.053Z" fill="#263238"/>
<path d="M143.104 187.953H141.018V196.886H143.104V187.953Z" fill="#263238"/>
<path d="M154.762 251.271H129.529V209.064C129.529 207.403 129.857 205.758 130.492 204.223C131.128 202.688 132.06 201.294 133.234 200.119C134.409 198.945 135.804 198.013 137.338 197.377C138.873 196.741 140.518 196.414 142.18 196.414C145.523 196.432 148.723 197.772 151.081 200.143C153.439 202.513 154.762 205.721 154.762 209.064V251.271Z" fill="#FFC100"/>
<path opacity="0.2" d="M154.762 251.271H129.529V209.064C129.529 207.403 129.857 205.758 130.492 204.223C131.128 202.688 132.06 201.294 133.234 200.119C134.409 198.945 135.804 198.013 137.338 197.377C138.873 196.741 140.518 196.414 142.18 196.414C145.523 196.432 148.723 197.772 151.081 200.143C153.439 202.513 154.762 205.721 154.762 209.064V251.271Z" fill="white"/>
<path d="M147.899 194.345V199.072H136.611V194.345H139.622V192.41H144.568V194.345H147.899Z" fill="#FFC100"/>
<path d="M131.16 185.413H146.737L155.048 183.765L153.399 186.995L146.737 188.34H131.16V185.413Z" fill="#FFC100"/>
<path opacity="0.2" d="M131.16 185.413H146.737L155.048 183.765L153.399 186.995L146.737 188.34H131.16V185.413Z" fill="white"/>
<path d="M151.652 212.463H132.861V238.1H151.652V212.463Z" fill="#FAFAFA"/>
<path d="M176.294 240.909L175.521 251.288H165.629L164.855 240.909H176.294Z" fill="#FFC100"/>
<path opacity="0.2" d="M176.294 240.909L175.521 251.288H165.629L164.855 240.909H176.294Z" fill="white"/>
<path d="M179.424 199.055L176.295 240.908H164.856L161.744 199.055H179.424Z" fill="#FFC100"/>
<path opacity="0.7" d="M179.424 199.055L176.295 240.908H164.856L161.744 199.055H179.424Z" fill="white"/>
<path d="M255.006 242.389C255.006 246.191 246.259 249.269 235.476 249.269C224.693 249.269 215.945 246.191 215.945 242.389C215.945 238.587 224.693 235.492 235.476 235.492C246.259 235.492 255.006 238.621 255.006 242.389Z" fill="#FFC100"/>
<path opacity="0.4" d="M255.006 242.389C255.006 246.191 246.259 249.269 235.476 249.269C224.693 249.269 215.945 246.191 215.945 242.389C215.945 238.587 224.693 235.492 235.476 235.492C246.259 235.492 255.006 238.621 255.006 242.389Z" fill="white"/>
<path d="M213.27 243.92H256.603V245.754C256.603 247.132 256.056 248.454 255.081 249.429C254.106 250.404 252.784 250.952 251.405 250.952H218.468C217.093 250.952 215.776 250.406 214.804 249.434C213.832 248.462 213.286 247.144 213.286 245.77V243.92H213.27Z" fill="#FFC100"/>
<path opacity="0.9" d="M213.27 243.92H256.603V245.754C256.603 247.132 256.056 248.454 255.081 249.429C254.106 250.404 252.784 250.952 251.405 250.952H218.468C217.093 250.952 215.776 250.406 214.804 249.434C213.832 248.462 213.286 247.144 213.286 245.77V243.92H213.27Z" fill="white"/>
<path d="M199.712 185.497H190.947V194.261H199.712V185.497Z" fill="#FFC100"/>
<path d="M199.627 183.209H191.014V185.497H199.627V183.209Z" fill="#FFC100"/>
<path opacity="0.2" d="M199.627 183.209H191.014V185.497H199.627V183.209Z" fill="white"/>
<path d="M207.971 251.271H182.738V209.064C182.738 207.403 183.065 205.758 183.701 204.223C184.337 202.688 185.269 201.294 186.443 200.119C187.618 198.945 189.013 198.013 190.547 197.377C192.082 196.741 193.727 196.414 195.389 196.414C198.741 196.419 201.954 197.753 204.323 200.125C206.691 202.497 208.022 205.712 208.022 209.064L207.971 251.271Z" fill="#FFC100"/>
<g opacity="0.5">
<path d="M207.971 251.271H182.738V209.064C182.738 207.403 183.065 205.758 183.701 204.223C184.337 202.688 185.269 201.294 186.443 200.119C187.618 198.945 189.013 198.013 190.547 197.377C192.082 196.741 193.727 196.414 195.389 196.414C198.741 196.419 201.954 197.753 204.323 200.125C206.691 202.497 208.022 205.712 208.022 209.064L207.971 251.271Z" fill="white"/>
</g>
<path d="M206.305 210.142H198.668V242.423H206.305V210.142Z" fill="white"/>
<path d="M201.158 194.362V197.861C199.365 196.912 197.366 196.421 195.338 196.431C193.437 196.427 191.561 196.859 189.854 197.693V194.328L201.158 194.362Z" fill="#FFC100"/>
<path opacity="0.2" d="M201.158 194.362V197.861C199.365 196.912 197.366 196.421 195.338 196.431C193.437 196.427 191.561 196.859 189.854 197.693V194.328L201.158 194.362Z" fill="black"/>
<path d="M345.307 91.5449C344.651 93.6477 344.028 95.7673 343.523 97.9205L345.206 98.3074C345.71 96.1878 346.316 94.1019 346.888 92.0328C346.335 91.9711 345.798 91.8055 345.307 91.5449Z" fill="#FFC100"/>
<path d="M377.217 45.9404C364.663 55.6434 354.782 68.3784 348.502 82.949C349.057 83.0595 349.584 83.2828 350.05 83.6051C356.219 69.2966 365.92 56.7885 378.243 47.2526L377.217 45.9404Z" fill="#FFC100"/>
<path d="M387.344 53.1399C388.118 51.6427 388.909 50.1792 389.733 48.7493L388.286 47.9082C387.445 49.3549 386.604 50.8521 385.83 52.3829C386.382 52.5282 386.897 52.7859 387.344 53.1399Z" fill="#FFC100"/>
<path d="M372.911 90.5694C372.289 93.732 371.751 96.9113 371.33 100.124L373.012 100.36C373.466 96.9954 374.022 93.631 374.694 90.2666C374.132 90.5046 373.521 90.6082 372.911 90.5694Z" fill="#FFC100"/>
<path d="M376.157 83.5889C378.093 75.5696 380.71 67.7301 383.979 60.1557C383.429 60.0328 382.912 59.7917 382.465 59.4492C379.206 66.9696 376.589 74.7524 374.643 82.7142C375.218 82.8618 375.741 83.1644 376.157 83.5889Z" fill="#FFC100"/>
<path d="M402.166 58.6579C402.3 55.7309 402.418 52.8543 402.519 50.1123H400.837C400.736 52.9384 400.618 55.9159 400.467 58.9439C401.004 58.721 401.585 58.6232 402.166 58.6579Z" fill="#FFC100"/>
<path d="M401.744 66.11C401.197 66.0871 400.663 65.9435 400.179 65.6895C399.557 76.7752 398.682 89.0049 397.689 102.261L399.372 102.378C400.347 89.2572 401.222 77.1453 401.845 66.11H401.744Z" fill="#FFC100"/>
<path d="M425.463 87.6255H425.833C424.59 82.2698 423.057 76.9855 421.241 71.7959C420.794 72.155 420.279 72.4185 419.727 72.5697C421.479 77.5938 422.956 82.7097 424.151 87.8947C424.567 87.7217 425.012 87.6303 425.463 87.6255Z" fill="#FFC100"/>
<path d="M425.598 95.0273C426.17 98.2067 426.641 101.403 426.977 104.599L428.659 104.414C428.323 101.285 427.869 98.1394 427.33 95.0273H425.598Z" fill="#FFC100"/>
<path d="M418.532 64.6128C416.686 60.1012 414.609 55.6879 412.308 51.3906L410.811 52.1813C413.08 56.4012 415.13 60.7359 416.951 65.1679C417.435 64.8791 417.973 64.6903 418.532 64.6128Z" fill="#FFC100"/>
<path d="M307.136 390.558C307.613 390.557 308.087 390.642 308.533 390.811C313.293 362.432 318.34 332.539 323.471 302.831C322.9 302.871 322.326 302.791 321.788 302.596C316.742 332.102 311.695 361.944 306.867 390.592L307.136 390.558Z" fill="#FFC100"/>
<path d="M296.757 452.917C297.236 452.914 297.711 453.005 298.154 453.186C301.013 435.927 304.092 417.355 307.339 397.993H307.137C306.634 398.001 306.136 397.903 305.673 397.707C302.46 416.867 299.382 435.439 296.488 452.917H296.757Z" fill="#FFC100"/>
<path d="M281.567 550.72C281.154 550.733 280.742 550.664 280.356 550.519C277.984 564.599 276.369 573.75 275.797 576.155L277.479 576.542C278.068 574.103 279.7 564.851 282.088 550.653L281.567 550.72Z" fill="#FFC100"/>
<path d="M286.361 515.546H286.176C284.494 525.202 283.114 534.05 281.836 541.704C282.432 541.73 283.012 541.91 283.518 542.226C284.83 534.32 286.344 525.269 287.976 515.311C287.454 515.476 286.909 515.556 286.361 515.546Z" fill="#FFC100"/>
<path d="M293.778 479.765C294.81 473.518 295.875 467.047 296.974 460.352H296.756C296.261 460.357 295.769 460.266 295.309 460.083C294.188 466.677 293.133 473.081 292.146 479.294C292.719 479.327 293.276 479.488 293.778 479.765Z" fill="#FFC100"/>
<path d="M291.948 486.764C291.606 486.758 291.267 486.708 290.938 486.612L290.282 490.633C289.323 496.403 288.415 501.954 287.523 507.304C288.124 507.335 288.705 507.527 289.206 507.859C290.097 502.425 291.039 496.773 291.998 490.902C292.234 489.523 292.469 488.093 292.705 486.696C292.455 486.741 292.201 486.763 291.948 486.764Z" fill="#FFC100"/>
<path d="M324.851 294.79C338.124 217.829 351.817 143.139 361.675 99.9231C361.164 99.9228 360.659 99.8138 360.194 99.6035C350.219 142.937 336.643 217.257 323.186 294.74C323.737 294.627 324.307 294.645 324.851 294.79Z" fill="#FFC100"/>
<path d="M372.171 61.0801C369.765 62.9305 366.199 74.2854 361.809 92.4533H362.212C362.607 92.4601 362.999 92.5282 363.373 92.6551C367.579 75.0929 370.977 64.1417 373.197 62.3754L372.171 61.0801Z" fill="#FFC100"/>
<path d="M378.394 106.55H378.697C379.039 106.557 379.378 106.608 379.706 106.701C383.744 83.1505 386.704 68.1956 388 65.9751L386.553 65.1172C385.19 67.4723 382.162 82.7131 378.041 106.584L378.394 106.55Z" fill="#FFC100"/>
<path d="M308.06 572.287C307.471 576.425 307.084 579.218 306.916 580.446L308.598 580.665C308.75 579.521 309.103 576.913 309.658 573.044C309.067 572.939 308.516 572.677 308.06 572.287Z" fill="#FFC100"/>
<path d="M326.346 448.914C326.741 448.907 327.134 448.969 327.507 449.099C343.455 339.503 365.643 189.87 378.461 114.003C377.92 114.001 377.386 113.881 376.897 113.649C363.961 189.803 341.772 339.436 325.842 448.998L326.346 448.914Z" fill="#FFC100"/>
<path d="M323.368 477.411C324.333 470.872 325.314 464.144 326.312 457.224C325.725 457.248 325.143 457.108 324.63 456.82C323.643 463.717 322.668 470.446 321.703 477.007C322.283 477.002 322.855 477.141 323.368 477.411Z" fill="#FFC100"/>
<path d="M321.537 484.358H320.663C315.532 519.684 311.444 548.416 309.072 565.104C309.477 564.949 309.902 564.853 310.334 564.818H310.805C313.194 547.996 317.281 519.398 322.395 484.189C322.117 484.279 321.829 484.335 321.537 484.358Z" fill="#FFC100"/>
<path d="M388.286 111.95C388.426 111.941 388.566 111.941 388.706 111.95C392.289 82.3431 394.459 62.964 394.392 60.1211H392.71C392.71 62.9472 390.59 82.4104 386.99 112.169C387.408 112.027 387.845 111.953 388.286 111.95Z" fill="#FFC100"/>
<path d="M331.729 555.818C330.484 566.652 329.778 573.566 329.744 575.551H331.426C331.426 573.633 332.15 566.854 333.361 556.256C332.789 556.251 332.227 556.101 331.729 555.818Z" fill="#FFC100"/>
<path d="M379.943 183.108C382.904 159.557 385.562 137.923 387.782 119.671C387.175 119.609 386.595 119.389 386.1 119.032C383.88 137.318 381.205 158.968 378.244 182.704C378.836 182.693 379.42 182.832 379.943 183.108Z" fill="#FFC100"/>
<path d="M378.294 190.24H377.368C372.238 231.404 366.316 278.254 360.462 324.531C348.687 417.187 337.534 506.008 332.504 549.123C332.836 549.017 333.182 548.96 333.53 548.955H334.22C339.384 504.797 350.907 413.638 362.128 324.733C367.999 278.354 373.903 231.404 379.084 190.156C378.825 190.217 378.56 190.246 378.294 190.24Z" fill="#FFC100"/>
<path d="M409.885 75.1432C409.885 70.5676 409.514 67.5901 408.942 66.5303L407.445 67.3209C408 68.3302 408.27 71.2405 408.303 75.732C408.776 75.4126 409.318 75.2108 409.885 75.1432Z" fill="#FFC100"/>
<path d="M406.876 119.134C407.188 119.137 407.498 119.176 407.801 119.252C408.894 104.23 409.601 91.7981 409.836 82.7646C409.279 82.7011 408.741 82.5236 408.255 82.2432C408.02 91.2262 407.296 103.86 406.152 119.252C406.388 119.186 406.631 119.147 406.876 119.134Z" fill="#FFC100"/>
<path d="M403.627 169.835C405.04 154.022 406.268 139.471 407.261 126.568H406.874C406.444 126.569 406.017 126.495 405.612 126.35C404.603 139.454 403.341 154.274 401.895 170.339C402.417 170.021 403.015 169.847 403.627 169.835Z" fill="#FFC100"/>
<path d="M365.643 525.824C364.382 538.491 363.322 549.476 362.531 558.325C363.024 557.963 363.605 557.742 364.213 557.685C364.987 549.089 365.997 538.575 367.191 526.564C366.622 526.448 366.091 526.194 365.643 525.824Z" fill="#FFC100"/>
<path d="M371.9 466.779H371.766C369.798 485.586 368.014 502.879 366.467 518.036C366.936 517.834 367.437 517.714 367.947 517.682H368.199C369.747 502.374 371.564 485.031 373.498 466.375C373 466.62 372.455 466.757 371.9 466.779Z" fill="#FFC100"/>
<path d="M380.699 387.362C381.057 387.368 381.413 387.418 381.758 387.513C389.345 315.431 397.42 237.982 402.954 177.237C402.347 177.099 401.792 176.79 401.356 176.346C395.687 238.318 387.461 317.248 380.076 387.513C380.279 387.444 380.487 387.394 380.699 387.362Z" fill="#FFC100"/>
<path d="M380.699 394.814C380.228 394.814 379.76 394.729 379.32 394.562C378.647 400.954 377.98 407.251 377.318 413.453C375.636 429.148 374.071 444.254 372.574 458.553C373.193 458.66 373.772 458.927 374.256 459.327C375.787 444.708 377.402 429.366 379.068 413.638C379.718 407.414 380.38 401.133 381.053 394.797L380.699 394.814Z" fill="#FFC100"/>
<path d="M363.642 564.952C362.997 564.8 362.412 564.46 361.959 563.977C361.267 570.239 360.908 576.534 360.883 582.834L362.565 582.666C362.615 576.747 362.974 570.834 363.642 564.952Z" fill="#FFC100"/>
<path d="M379.892 150.187C380.06 151.331 380.784 152.155 381.574 152.054C382.365 151.953 382.786 150.944 382.617 149.8C382.449 148.656 381.726 147.849 380.935 147.933C380.145 148.017 379.724 149.043 379.892 150.187Z" fill="#263238"/>
<path d="M380.682 152.172C382.513 155.448 384.776 158.464 387.41 161.138C385.728 163.291 382.128 162.82 382.128 162.82L380.682 152.172Z" fill="#A02724"/>
<path d="M374.845 144.467C374.757 144.46 374.67 144.437 374.591 144.397C374.512 144.357 374.441 144.302 374.384 144.235C374.326 144.167 374.282 144.089 374.254 144.005C374.227 143.921 374.216 143.832 374.223 143.743C374.237 143.579 374.308 143.424 374.425 143.306C375.179 142.552 376.101 141.988 377.116 141.66C378.131 141.333 379.209 141.251 380.262 141.422C380.346 141.452 380.424 141.499 380.491 141.559C380.557 141.62 380.61 141.693 380.648 141.774C380.686 141.856 380.707 141.944 380.71 142.034C380.713 142.124 380.698 142.213 380.666 142.297C380.617 142.437 380.522 142.556 380.397 142.636C380.272 142.715 380.123 142.75 379.976 142.734C379.137 142.608 378.281 142.683 377.477 142.952C376.673 143.221 375.944 143.677 375.35 144.282C375.284 144.347 375.205 144.398 375.118 144.43C375.031 144.462 374.938 144.474 374.845 144.467Z" fill="#263238"/>
<path d="M347.83 160.751C350.168 171.113 352.759 190.122 345.66 197.272C345.66 197.272 348.823 207.735 368.168 207.18C389.414 206.558 378.026 196.33 378.026 196.33C366.335 193.907 366.402 185.278 368.185 177.136L347.83 160.751Z" fill="#B26752"/>
<path d="M451.823 608.958C442.151 608.47 435.001 607.68 426.842 607.276C423.327 607.091 421.224 607.057 419.323 607.007C417.422 606.956 415.673 607.007 412.88 606.889C411.783 606.976 410.683 606.777 409.686 606.312C408.689 605.847 407.83 605.131 407.193 604.234C406.555 603.337 406.162 602.291 406.05 601.196C405.938 600.102 406.112 598.997 406.555 597.99C407.211 596.527 408.002 594.626 408.826 592.153C411.595 583.816 412.904 575.063 412.695 566.28C412.375 549.576 412.426 509.371 418.869 474.987C420.876 464.212 419.622 453.083 415.269 443.025C407.531 425.838 398.535 409.245 388.354 393.383C395.991 390.708 397.723 390.691 397.791 390.742C421.964 386.94 421.342 378.579 429.753 370.135C442.319 404.654 447.786 426.993 452.429 454.245C453.253 459.09 452.648 466.441 449.737 480.69C431.031 571.748 430.308 587.914 430.644 588.132C439.947 594.474 446.154 599.79 457.156 602.768C459.545 603.424 457.644 609.244 451.823 608.958Z" fill="#B26752"/>
<path d="M369.277 464.642C368.487 469.504 365.526 476.266 358.141 488.782C310.905 568.922 305 583.978 305.219 584.281C308.735 588.991 311.561 593.163 314.791 596.965L315.733 598.159C318.761 599.64 321.116 599.656 324.951 600.632C327.39 601.238 325.59 607.092 319.753 606.907C318.273 606.907 316.389 606.755 314.706 606.654C311.011 606.422 307.389 605.509 304.024 603.963C298.826 601.591 291.29 598.176 290.129 597.755C288.329 597.116 285.083 597.251 282.408 596.258C281.34 595.986 280.362 595.441 279.568 594.676C278.775 593.912 278.194 592.955 277.882 591.898C277.569 590.841 277.537 589.722 277.788 588.649C278.039 587.576 278.564 586.587 279.313 585.778C280.406 584.617 281.786 583.036 283.35 581.001C288.677 574.017 292.753 566.163 295.395 557.786C300.441 541.872 313.613 503.871 330.856 473.423C336.26 463.878 338.691 452.936 337.837 442C336.065 423.221 332.911 404.599 328.4 386.285C336.491 386.285 338.14 386.773 338.19 386.84C362.279 391.096 364.483 383.005 375.199 377.739C375.787 414.462 373.718 437.374 369.277 464.642Z" fill="#B26752"/>
<path d="M402.046 208.207C406.134 222.22 404.536 264.376 405.966 320.326L330.031 325.12C327.895 305.539 336.894 273.863 321.62 218.468C321.184 216.266 321.187 213.999 321.627 211.797C322.068 209.596 322.938 207.503 324.187 205.637C325.437 203.772 327.042 202.171 328.911 200.926C330.779 199.682 332.875 198.817 335.078 198.383L335.65 198.282C338.038 197.878 340.511 197.525 342.967 197.256C353.679 195.944 364.457 195.253 375.249 195.187C379.446 195.319 383.635 195.661 387.798 196.213C391.08 196.616 394.174 197.964 396.704 200.093C399.233 202.223 401.09 205.042 402.046 208.207Z" fill="#B26752"/>
<path d="M382.751 320.544C382.751 320.544 380.312 380.128 377.705 395.402C348.232 398.918 333.631 395.638 325.203 390.103C325.321 375.973 314.588 350.706 330.384 321.385C338.639 322.617 347.003 322.956 355.331 322.394C372.709 321.25 382.751 320.544 382.751 320.544Z" fill="#263238"/>
<path opacity="0.2" d="M379.606 371.111L364.18 357.535C364.382 357.956 370.471 387.058 377.637 395.402C377.637 395.402 378.394 385.477 378.394 385.409L379.606 371.111Z" fill="black"/>
<path d="M383.358 167.395C383.049 170.587 381.969 173.655 380.21 176.336C378.452 179.018 376.069 181.232 373.265 182.787C371.429 183.837 369.426 184.559 367.343 184.924C364.909 185.331 362.417 185.224 360.027 184.609C357.636 183.995 355.401 182.887 353.465 181.357C345.407 175.217 344.448 166.991 341.69 153.147C340.979 149.93 341.106 146.586 342.058 143.432C343.01 140.279 344.755 137.423 347.127 135.137C349.498 132.852 352.417 131.213 355.603 130.378C358.79 129.544 362.137 129.541 365.325 130.37C379.741 133.986 384.586 154.425 383.358 167.395Z" fill="#B26752"/>
<path opacity="0.2" d="M373.112 182.755C371.298 183.791 369.317 184.503 367.258 184.858L368.048 177.153C368.048 177.153 370.37 182.116 373.112 182.755Z" fill="black"/>
<path opacity="0.2" d="M404.739 220.974L397.001 229.57C396.225 230.442 395.644 231.469 395.296 232.582C394.948 233.696 394.841 234.871 394.982 236.029L396.076 244.979C399.477 242.072 402.064 238.331 403.582 234.122C405.101 229.914 405.5 225.383 404.739 220.974Z" fill="black"/>
<path d="M383.307 167.883C381.651 167.565 380.107 166.817 378.832 165.713C378.769 165.647 378.734 165.56 378.734 165.469C378.734 165.378 378.769 165.291 378.832 165.225C378.901 165.161 378.991 165.126 379.084 165.126C379.178 165.126 379.268 165.161 379.337 165.225C380.504 166.195 381.89 166.865 383.374 167.177L383.307 167.883Z" fill="#263238"/>
<path d="M368.555 148.958C370.288 151.784 371.432 154.931 371.919 158.21C372.424 150.893 371.062 148.706 371.919 141.388C372.777 134.071 374.342 136.14 375.284 136.813C375.257 134.399 374.548 132.043 373.238 130.015C371.928 127.988 370.071 126.373 367.882 125.357C362.062 123.035 355.266 124.331 349.378 125.559C341.611 127.14 334.518 131.069 329.057 136.813C323.135 143.171 322.143 150.422 324.986 158.85C326.668 163.678 329.662 164.704 331.16 169.582C332.657 174.461 331.16 182.821 326.298 184.369C335.432 186.892 339.15 179.894 339.15 179.894C339.15 179.894 340.26 184.15 335.416 188.81C341.623 188.978 347.511 180.971 347.511 180.971C347.511 180.971 349.681 185.311 343.473 191.064C355.383 187.599 361.002 180.399 363.407 172.778C365.813 165.158 364.114 156.915 362.398 149.11C362.696 148.56 363.133 148.099 363.666 147.772C364.198 147.446 364.808 147.266 365.433 147.25C366.057 147.235 366.675 147.385 367.223 147.685C367.772 147.985 368.231 148.424 368.555 148.958Z" fill="#263238"/>
<path d="M341.117 116.627C338.434 115.197 335.35 114.705 332.356 115.23C329.361 115.755 326.628 117.266 324.592 119.523C322.555 121.78 321.332 124.653 321.117 127.686C320.901 130.718 321.706 133.736 323.403 136.258C320.369 137.323 317.868 139.526 316.427 142.401C314.986 145.276 314.719 148.599 315.682 151.667C309.222 154.729 307.271 164.452 311.998 169.784C316.725 175.117 326.633 174.259 330.401 168.102C330.431 170.548 331.402 172.889 333.112 174.639C334.822 176.388 337.14 177.413 339.585 177.499C342.03 177.586 344.414 176.728 346.244 175.104C348.073 173.479 349.207 171.213 349.41 168.775C351.732 173.536 359.503 174.141 362.548 169.801C364.089 169.665 365.524 168.964 366.58 167.834C367.635 166.704 368.236 165.224 368.268 163.678C368.317 162.586 368.107 161.497 367.657 160.5C367.207 159.504 366.529 158.627 365.677 157.942C362.8 155.772 362.649 152.626 365.677 150.708C369.782 148.134 368.453 152.979 372.507 153.316C373.343 153.361 374.177 153.187 374.926 152.813C375.675 152.438 376.314 151.875 376.78 151.179C379.909 146.738 374.845 142.516 371.144 143.946C373.121 143.654 374.934 142.68 376.268 141.192C377.603 139.705 378.375 137.797 378.45 135.8C378.526 133.803 377.901 131.843 376.684 130.258C375.466 128.673 373.733 127.564 371.783 127.124C372.87 125.655 373.628 123.968 374.003 122.18C374.379 120.392 374.364 118.543 373.96 116.761C373.556 114.979 372.773 113.305 371.662 111.853C370.552 110.402 369.142 109.207 367.528 108.35C365.914 107.493 364.134 106.995 362.309 106.889C360.485 106.784 358.659 107.073 356.957 107.737C355.254 108.401 353.715 109.425 352.445 110.739C351.175 112.052 350.202 113.625 349.595 115.348C349.475 114.79 349.241 114.263 348.908 113.799C348.576 113.335 348.151 112.945 347.66 112.653C347.17 112.36 346.625 112.172 346.059 112.1C345.492 112.028 344.917 112.073 344.369 112.233C343.821 112.393 343.312 112.664 342.874 113.029C342.435 113.395 342.076 113.847 341.82 114.357C341.564 114.867 341.415 115.424 341.384 115.994C341.353 116.564 341.439 117.134 341.638 117.669L341.117 116.627Z" fill="#FFC100"/>
<path opacity="0.8" d="M341.117 116.627C338.434 115.197 335.35 114.705 332.356 115.23C329.361 115.755 326.628 117.266 324.592 119.523C322.555 121.78 321.332 124.653 321.117 127.686C320.901 130.718 321.706 133.736 323.403 136.258C320.369 137.323 317.868 139.526 316.427 142.401C314.986 145.276 314.719 148.599 315.682 151.667C309.222 154.729 307.271 164.452 311.998 169.784C316.725 175.117 326.633 174.259 330.401 168.102C330.431 170.548 331.402 172.889 333.112 174.639C334.822 176.388 337.14 177.413 339.585 177.499C342.03 177.586 344.414 176.728 346.244 175.104C348.073 173.479 349.207 171.213 349.41 168.775C351.732 173.536 359.503 174.141 362.548 169.801C364.089 169.665 365.524 168.964 366.58 167.834C367.635 166.704 368.236 165.224 368.268 163.678C368.317 162.586 368.107 161.497 367.657 160.5C367.207 159.504 366.529 158.627 365.677 157.942C362.8 155.772 362.649 152.626 365.677 150.708C369.782 148.134 368.453 152.979 372.507 153.316C373.343 153.361 374.177 153.187 374.926 152.813C375.675 152.438 376.314 151.875 376.78 151.179C379.909 146.738 374.845 142.516 371.144 143.946C373.121 143.654 374.934 142.68 376.268 141.192C377.603 139.705 378.375 137.797 378.45 135.8C378.526 133.803 377.901 131.843 376.684 130.258C375.466 128.673 373.733 127.564 371.783 127.124C372.87 125.655 373.628 123.968 374.003 122.18C374.379 120.392 374.364 118.543 373.96 116.761C373.556 114.979 372.773 113.305 371.662 111.853C370.552 110.402 369.142 109.207 367.528 108.35C365.914 107.493 364.134 106.995 362.309 106.889C360.485 106.784 358.659 107.073 356.957 107.737C355.254 108.401 353.715 109.425 352.445 110.739C351.175 112.052 350.202 113.625 349.595 115.348C349.475 114.79 349.241 114.263 348.908 113.799C348.576 113.335 348.151 112.945 347.66 112.653C347.17 112.36 346.625 112.172 346.059 112.1C345.492 112.028 344.917 112.073 344.369 112.233C343.821 112.393 343.312 112.664 342.874 113.029C342.435 113.395 342.076 113.847 341.82 114.357C341.564 114.867 341.415 115.424 341.384 115.994C341.353 116.564 341.439 117.134 341.638 117.669L341.117 116.627Z" fill="white"/>
<path d="M361.001 152.911C361.967 156.273 364.005 159.226 366.805 161.323C370.522 164.048 373.264 161.238 372.978 157.117C372.709 153.366 370.455 147.394 366.367 146.317C362.28 145.241 359.992 148.807 361.001 152.911Z" fill="#B26752"/>
<path d="M406.959 311.729L408.641 318.862L328.736 324.161L328.82 316.81L406.959 311.729Z" fill="white"/>
<path d="M434.934 370.237C434.732 382.13 403.746 395.958 383.324 394.31C381.515 389.409 379.303 384.666 376.713 380.129C375.519 378.833 374.308 377.487 373.096 376.058C369.544 371.79 366.38 367.213 363.642 362.381C357.57 351.531 352.843 337.485 353.919 322.631C353.919 322.479 407.38 318.997 407.38 318.997C410.996 327.585 415.079 335.969 419.609 344.112C424.959 353.768 434.968 368.437 434.934 370.237Z" fill="#263238"/>
<path d="M358.864 114.103C360.462 115.213 368.368 114.103 371.396 120.024L366.131 135.719L349.443 125.626L358.864 114.103Z" fill="#B26752"/>
<path d="M366.131 135.719L369.243 117.366L381.473 125.676L378.865 136.661L366.131 135.719Z" fill="#B26752"/>
<path d="M374.408 133.785L426.708 169.01C426.708 169.01 451.773 175.739 449.502 163.341C447.332 151.566 378.849 124.28 378.849 124.28L377.251 129.579L374.408 133.785Z" fill="#B26752"/>
<path d="M409.332 183.259C419.56 174.646 418.281 172.342 428.509 163.729C431.029 161.345 433.958 159.436 437.156 158.093C438.781 157.295 440.616 157.026 442.402 157.327C444.188 157.627 445.834 158.48 447.109 159.766C448.384 161.052 449.223 162.706 449.508 164.495C449.792 166.283 449.508 168.116 448.696 169.734C446.145 177.263 441.817 184.066 436.079 189.567C421.537 203.199 407.692 217.556 394.596 232.581C389.902 231.522 386.824 207.567 386.723 202.302C386.622 197.036 405.732 186.287 409.332 183.259Z" fill="#B26752"/>
<path d="M319.618 132.44L277.681 179.541C277.681 179.541 255.089 192.326 254.13 179.71C253.289 167.665 312.906 124.314 312.906 124.314L315.766 129.058L319.618 132.44Z" fill="#B26752"/>
<path d="M313.023 124.331C313.023 124.331 312.434 129.377 315.361 130.303C316.921 130.731 318.383 131.457 319.668 132.439L332.385 127.527C332.385 127.527 329.492 118.325 330.333 114.456C331.174 110.587 313.023 124.331 313.023 124.331Z" fill="#B26752"/>
<path d="M329.879 113.767L339.535 113.649C339.535 113.649 345.659 122.498 344.733 122.851L332.386 127.528C332.386 127.528 326.952 118.259 329.879 113.767Z" fill="#B26752"/>
<path d="M298.103 189.029C286.059 183.242 286.715 180.618 274.687 174.881C271.657 173.184 268.347 172.044 264.913 171.517C263.193 171.29 261.444 171.528 259.847 172.205C258.249 172.883 256.862 173.975 255.83 175.369C253.895 178.431 254.618 182.62 256.62 185.648C258.83 188.549 261.577 190.999 264.712 192.864C271.811 197.759 324.178 227.921 324.178 227.921C328.467 225.718 334.372 206.742 333.161 201.595C331.95 196.447 302.343 191.064 298.103 189.029Z" fill="#B26752"/>
<path d="M328.786 321.217C328.57 321.222 328.361 321.141 328.204 320.994C328.047 320.846 327.954 320.642 327.945 320.426C327.931 320.206 328.004 319.989 328.149 319.822C328.294 319.655 328.499 319.552 328.719 319.535L407.783 314.387C408.006 314.374 408.225 314.45 408.392 314.598C408.559 314.746 408.661 314.955 408.674 315.178C408.688 315.401 408.612 315.62 408.464 315.787C408.315 315.955 408.107 316.056 407.884 316.069L328.82 321.217H328.786Z" fill="black"/>
<path d="M405.178 180.147C404.25 178.32 402.634 176.937 400.686 176.301C398.738 175.665 396.618 175.83 394.791 176.758C392.964 177.686 391.58 179.301 390.944 181.249C390.309 183.197 390.473 185.318 391.401 187.145C390.861 186.872 390.257 186.75 389.653 186.792C389.049 186.834 388.467 187.037 387.97 187.382C387.472 187.726 387.076 188.199 386.825 188.749C386.573 189.3 386.474 189.908 386.539 190.51C385.374 189.807 383.993 189.553 382.653 189.794C381.314 190.035 380.109 190.756 379.262 191.821C378.415 192.886 377.985 194.223 378.052 195.582C378.119 196.942 378.678 198.23 379.625 199.207C379.268 199.768 379.037 200.4 378.948 201.06C378.86 201.719 378.917 202.39 379.114 203.025C379.312 203.661 379.645 204.245 380.092 204.739C380.539 205.232 381.088 205.622 381.701 205.881C382.313 206.14 382.975 206.263 383.64 206.24C384.305 206.217 384.957 206.049 385.551 205.749C386.145 205.448 386.666 205.021 387.077 204.499C387.489 203.976 387.782 203.37 387.936 202.723C389.238 203.342 390.66 203.67 392.103 203.684C393.545 203.697 394.973 203.395 396.287 202.799C397.6 202.203 398.768 201.327 399.708 200.233C400.648 199.139 401.338 197.853 401.73 196.465C403.044 196.82 404.422 196.875 405.76 196.623C407.098 196.371 408.362 195.82 409.457 195.012C410.552 194.203 411.45 193.157 412.084 191.952C412.718 190.747 413.072 189.414 413.118 188.054C413.017 185.244 417.307 184.471 413.118 180.955C411.587 179.676 406.776 179.558 405.178 180.147Z" fill="#FFC100"/>
<path opacity="0.8" d="M405.178 180.147C404.25 178.32 402.634 176.937 400.686 176.301C398.738 175.665 396.618 175.83 394.791 176.758C392.964 177.686 391.58 179.301 390.944 181.249C390.309 183.197 390.473 185.318 391.401 187.145C390.861 186.872 390.257 186.75 389.653 186.792C389.049 186.834 388.467 187.037 387.97 187.382C387.472 187.726 387.076 188.199 386.825 188.749C386.573 189.3 386.474 189.908 386.539 190.51C385.374 189.807 383.993 189.553 382.653 189.794C381.314 190.035 380.109 190.756 379.262 191.821C378.415 192.886 377.985 194.223 378.052 195.582C378.119 196.942 378.678 198.23 379.625 199.207C379.268 199.768 379.037 200.4 378.948 201.06C378.86 201.719 378.917 202.39 379.114 203.025C379.312 203.661 379.645 204.245 380.092 204.739C380.539 205.232 381.088 205.622 381.701 205.881C382.313 206.14 382.975 206.263 383.64 206.24C384.305 206.217 384.957 206.049 385.551 205.749C386.145 205.448 386.666 205.021 387.077 204.499C387.489 203.976 387.782 203.37 387.936 202.723C389.238 203.342 390.66 203.67 392.103 203.684C393.545 203.697 394.973 203.395 396.287 202.799C397.6 202.203 398.768 201.327 399.708 200.233C400.648 199.139 401.338 197.853 401.73 196.465C403.044 196.82 404.422 196.875 405.76 196.623C407.098 196.371 408.362 195.82 409.457 195.012C410.552 194.203 411.45 193.157 412.084 191.952C412.718 190.747 413.072 189.414 413.118 188.054C413.017 185.244 417.307 184.471 413.118 180.955C411.587 179.676 406.776 179.558 405.178 180.147Z" fill="white"/>
<path d="M340.277 207.988C339.576 207.708 338.801 207.673 338.078 207.886C337.354 208.1 336.724 208.55 336.287 209.166C335.85 209.781 335.633 210.525 335.67 211.278C335.707 212.032 335.997 212.751 336.492 213.32C335.213 213.489 334.013 214.03 333.039 214.876C332.066 215.721 331.362 216.834 331.017 218.076C330.671 219.319 330.697 220.635 331.094 221.862C331.49 223.089 332.238 224.173 333.245 224.978C332.685 226.091 332.38 227.315 332.35 228.56C332.321 229.806 332.569 231.042 333.076 232.18C333.583 233.318 334.337 234.33 335.282 235.141C336.228 235.952 337.342 236.543 338.544 236.871C337.941 237.535 337.548 238.361 337.413 239.247C337.277 240.133 337.406 241.04 337.783 241.853C338.16 242.666 338.768 243.35 339.532 243.819C340.296 244.289 341.181 244.523 342.077 244.492C342.913 246.696 344.437 248.572 346.423 249.843C348.408 251.115 350.75 251.714 353.102 251.551C355.454 251.389 357.691 250.475 359.483 248.943C361.276 247.411 362.527 245.343 363.054 243.045C362.095 244.475 364.416 246.292 365.947 245.501C366.652 244.999 367.2 244.307 367.527 243.506C367.855 242.705 367.949 241.828 367.798 240.976C367.611 238.829 366.857 236.771 365.612 235.012C364.368 233.253 362.678 231.857 360.715 230.967L357.183 228.746C355.122 227.646 353.382 226.029 352.136 224.053C351.076 221.967 351.531 219.006 353.65 217.963C354.14 218.35 354.736 218.58 355.358 218.623C355.981 218.667 356.602 218.523 357.142 218.209C357.681 217.895 358.114 217.426 358.384 216.863C358.653 216.3 358.747 215.669 358.653 215.051C358.56 214.434 358.282 213.86 357.858 213.402C357.433 212.944 356.881 212.625 356.272 212.486C355.664 212.346 355.027 212.393 354.446 212.62C353.864 212.847 353.364 213.243 353.011 213.758C353.266 213.413 353.444 213.018 353.535 212.599C353.626 212.18 353.627 211.747 353.537 211.328C353.448 210.909 353.271 210.513 353.018 210.167C352.764 209.822 352.44 209.534 352.067 209.323C351.694 209.112 351.28 208.982 350.854 208.943C350.427 208.903 349.997 208.955 349.591 209.095C349.186 209.234 348.815 209.458 348.502 209.751C348.19 210.045 347.944 210.401 347.779 210.797C347.687 210.077 347.404 209.394 346.958 208.821C346.512 208.247 345.921 207.804 345.245 207.538C344.569 207.271 343.835 207.191 343.117 207.306C342.4 207.42 341.727 207.726 341.168 208.19L340.277 207.988Z" fill="#FFC100"/>
<g opacity="0.8">
<path d="M340.279 207.988C339.578 207.708 338.803 207.673 338.08 207.886C337.356 208.1 336.726 208.55 336.289 209.166C335.852 209.781 335.635 210.525 335.672 211.278C335.709 212.032 335.999 212.751 336.494 213.32C335.215 213.489 334.015 214.03 333.041 214.876C332.068 215.721 331.364 216.834 331.018 218.076C330.673 219.319 330.699 220.635 331.096 221.862C331.492 223.089 332.24 224.173 333.247 224.978C332.687 226.091 332.382 227.315 332.352 228.56C332.323 229.806 332.571 231.042 333.078 232.18C333.585 233.318 334.339 234.33 335.284 235.141C336.23 235.952 337.344 236.543 338.546 236.871C337.943 237.535 337.55 238.361 337.415 239.247C337.279 240.133 337.408 241.04 337.785 241.853C338.162 242.666 338.77 243.35 339.534 243.819C340.298 244.289 341.183 244.523 342.078 244.492C342.915 246.696 344.439 248.572 346.425 249.843C348.41 251.115 350.752 251.714 353.104 251.551C355.456 251.389 357.693 250.475 359.485 248.943C361.278 247.411 362.529 245.343 363.056 243.045C362.097 244.475 364.418 246.292 365.949 245.501C366.654 244.999 367.202 244.307 367.529 243.506C367.857 242.705 367.95 241.828 367.799 240.976C367.613 238.829 366.859 236.771 365.614 235.012C364.37 233.253 362.68 231.857 360.717 230.967L357.185 228.746C355.124 227.646 353.384 226.029 352.138 224.053C351.078 221.967 351.532 219.006 353.652 217.963C354.142 218.35 354.737 218.58 355.36 218.623C355.983 218.667 356.604 218.523 357.144 218.209C357.683 217.895 358.116 217.426 358.386 216.863C358.655 216.3 358.749 215.669 358.655 215.051C358.561 214.434 358.284 213.86 357.86 213.402C357.435 212.944 356.882 212.625 356.274 212.486C355.666 212.346 355.029 212.393 354.448 212.62C353.866 212.847 353.366 213.243 353.013 213.758C353.268 213.413 353.446 213.018 353.537 212.599C353.628 212.18 353.629 211.747 353.539 211.328C353.45 210.909 353.273 210.513 353.019 210.167C352.766 209.822 352.442 209.534 352.069 209.323C351.696 209.112 351.282 208.982 350.856 208.943C350.429 208.903 349.999 208.955 349.593 209.095C349.188 209.234 348.817 209.458 348.504 209.751C348.192 210.045 347.946 210.401 347.781 210.797C347.689 210.077 347.406 209.394 346.96 208.821C346.514 208.247 345.923 207.804 345.247 207.538C344.571 207.271 343.836 207.191 343.119 207.306C342.402 207.42 341.729 207.726 341.17 208.19L340.279 207.988Z" fill="white"/>
</g>
<path d="M302.226 140.245C302.226 141.557 300.78 142.432 299.484 142.6C298.189 142.768 296.843 142.499 295.565 142.752C294.286 143.004 292.941 144.013 293.092 145.325C292.004 144.873 290.804 144.765 289.653 145.015C288.501 145.265 287.454 145.861 286.652 146.724C285.85 147.587 285.331 148.674 285.165 149.841C284.999 151.007 285.194 152.196 285.724 153.249C285.057 153.155 284.377 153.263 283.772 153.561C283.167 153.858 282.666 154.33 282.332 154.915C281.999 155.5 281.849 156.172 281.902 156.844C281.954 157.516 282.208 158.156 282.629 158.682C281.367 158.763 280.176 159.287 279.264 160.162C278.474 161.155 278.793 163.022 280.055 163.174C280.724 163.149 281.362 162.887 281.855 162.433L289.105 157.101C291.925 155.274 294.431 153.001 296.524 150.372L305.759 140.682C306.348 140.043 307.004 139.185 306.667 138.378C306.422 138.023 306.049 137.776 305.626 137.688C305.203 137.601 304.763 137.679 304.396 137.907C303.69 138.449 303.158 139.186 302.866 140.026L303.538 138.933L302.226 140.245Z" fill="#FFC100"/>
<g opacity="0.8">
<path d="M302.226 140.245C302.226 141.557 300.78 142.432 299.484 142.6C298.189 142.768 296.843 142.499 295.565 142.752C294.286 143.004 292.941 144.013 293.092 145.325C292.004 144.873 290.804 144.765 289.653 145.015C288.501 145.265 287.454 145.861 286.652 146.724C285.85 147.587 285.331 148.674 285.165 149.841C284.999 151.007 285.194 152.196 285.724 153.249C285.057 153.155 284.377 153.263 283.772 153.561C283.167 153.858 282.666 154.33 282.332 154.915C281.999 155.5 281.849 156.172 281.902 156.844C281.954 157.516 282.208 158.156 282.629 158.682C281.367 158.763 280.176 159.287 279.264 160.162C278.474 161.155 278.793 163.022 280.055 163.174C280.724 163.149 281.362 162.887 281.855 162.433L289.105 157.101C291.925 155.274 294.431 153.001 296.524 150.372L305.759 140.682C306.348 140.043 307.004 139.185 306.667 138.378C306.422 138.023 306.049 137.776 305.626 137.688C305.203 137.601 304.763 137.679 304.396 137.907C303.69 138.449 303.158 139.186 302.866 140.026L303.538 138.933L302.226 140.245Z" fill="white"/>
</g>
<path d="M379.979 270.75C378.777 270.976 377.71 271.661 377.004 272.659C376.297 273.657 376.007 274.891 376.194 276.1C376.465 277.296 377.107 278.376 378.029 279.186C378.95 279.995 380.104 280.493 381.325 280.608C382.549 280.683 383.774 280.462 384.895 279.964C386.016 279.466 387.002 278.706 387.768 277.748C388.773 276.613 389.398 275.191 389.554 273.683C389.711 272.175 389.392 270.655 388.642 269.337C388.247 268.712 387.719 268.182 387.095 267.783C386.472 267.385 385.768 267.128 385.035 267.032C384.301 266.936 383.556 267.002 382.851 267.226C382.146 267.45 381.498 267.826 380.955 268.328L379.979 270.75Z" fill="#FFC100"/>
<g opacity="0.8">
<path d="M379.979 270.75C378.777 270.976 377.71 271.661 377.004 272.659C376.297 273.657 376.007 274.891 376.194 276.1C376.465 277.296 377.107 278.376 378.029 279.186C378.95 279.995 380.104 280.493 381.325 280.608C382.549 280.683 383.774 280.462 384.895 279.964C386.016 279.466 387.002 278.706 387.768 277.748C388.773 276.613 389.398 275.191 389.554 273.683C389.711 272.175 389.392 270.655 388.642 269.337C388.247 268.712 387.719 268.182 387.095 267.783C386.472 267.385 385.768 267.128 385.035 267.032C384.301 266.936 383.556 267.002 382.851 267.226C382.146 267.45 381.498 267.826 380.955 268.328L379.979 270.75Z" fill="white"/>
</g>
</svg>
