<svg width="247" height="247" viewBox="0 0 247 247" fill="none" xmlns="http://www.w3.org/2000/svg">
<g clip-path="url(#clip0_304_2738)">
<path d="M219.917 228.88C219.917 228.88 264.138 206.928 274.49 154.757C284.842 102.585 259.82 48.1784 240.632 3.65232C221.445 -40.8737 180.716 -63.253 142.127 -51.8658C103.537 -40.4785 109.784 -2.61815 77.8744 33.9592C45.9647 70.5365 31.6638 75.0677 25.749 124.486C19.8342 173.904 65.5308 226.181 124.597 237.633C183.662 249.086 219.917 228.88 219.917 228.88Z" fill="#FFEFC3"/>
<path opacity="0.7" d="M219.917 228.88C219.917 228.88 264.138 206.928 274.49 154.757C284.842 102.585 259.82 48.1784 240.632 3.65232C221.445 -40.8737 180.716 -63.253 142.127 -51.8658C103.537 -40.4785 109.784 -2.61815 77.8744 33.9592C45.9647 70.5365 31.6638 75.0677 25.749 124.486C19.8342 173.904 65.5308 226.181 124.597 237.633C183.662 249.086 219.917 228.88 219.917 228.88Z" fill="#FFEFC3"/>
<path d="M103.193 131.42C108.543 146.003 122.395 174.285 132.68 178.577C141.409 182.218 162.241 182.663 168.46 182.391C171.75 182.248 165.99 154.268 162.473 154.327C158.862 154.386 142.382 153.902 139.798 153.408C137.215 152.914 123.062 135.491 114.244 126.238C103.114 114.619 98.7963 119.475 103.193 131.42Z" fill="#D3766A"/>
<path d="M164.266 182.169C167.586 182.535 183.152 182.969 187.449 182.105C191.747 181.24 203.934 177.847 203.603 174.487C203.272 171.128 199.626 171.839 199.626 171.839C199.626 171.839 204.566 169.592 203.905 166.242C203.243 162.893 197.631 164.178 197.631 164.178C197.631 164.178 202.511 161.5 201.637 158.205C200.763 154.91 195.304 157.153 195.304 157.153C195.304 157.153 199.883 154.915 198.021 152.499C195.778 149.6 187.8 154.678 182.984 155.281C181.887 155.419 160.615 156.466 160.615 156.466L164.266 182.169Z" fill="#D3766A"/>
<path d="M195.779 156.97C189.905 160.69 186.689 161.302 179.842 161.312C179.709 161.312 179.679 161.51 179.817 161.524C186.526 162.122 190.685 161.939 195.971 157.242C196.233 157.014 196.065 156.792 195.779 156.97Z" fill="#263238"/>
<path d="M198.091 163.871C191.669 167.205 188.171 167.897 181.003 168.44C180.899 168.44 180.904 168.618 181.003 168.618C188.082 168.677 192.212 168.396 198.209 164.221C198.481 164.034 198.387 163.718 198.091 163.871Z" fill="#263238"/>
<path d="M199.262 171.854C192.795 174.63 189.011 175.554 181.972 175.184C181.955 175.182 181.938 175.184 181.922 175.189C181.905 175.194 181.89 175.202 181.877 175.212C181.864 175.223 181.853 175.236 181.845 175.251C181.837 175.266 181.832 175.283 181.831 175.3C181.829 175.317 181.831 175.334 181.836 175.35C181.841 175.366 181.849 175.381 181.86 175.394C181.871 175.407 181.884 175.418 181.899 175.426C181.914 175.434 181.93 175.439 181.947 175.44C189.075 176.517 193.803 175.396 199.316 172.057C199.701 171.829 199.667 171.676 199.262 171.854Z" fill="#263238"/>
<path d="M156.244 156.391C156.244 156.391 162.616 150.463 165.99 148.457C169.364 146.451 184.678 143.66 185.474 146.936C186.496 151.159 177.975 154.519 173.588 155.615C173.588 155.615 175.964 165.391 170.367 169.126C164.77 172.861 156.244 156.391 156.244 156.391Z" fill="#D3766A"/>
<path d="M185.375 148.191C183.528 152.716 177.674 153.788 173.494 155.171C173.432 155.189 173.374 155.222 173.327 155.266C173.279 155.311 173.244 155.367 173.222 155.428C173.201 155.49 173.195 155.556 173.204 155.62C173.214 155.685 173.239 155.746 173.277 155.799C174.003 159.958 173.811 166.044 170.639 169.181C170.619 169.198 170.606 169.222 170.604 169.249C170.601 169.275 170.61 169.302 170.627 169.322C170.644 169.342 170.668 169.355 170.695 169.357C170.721 169.359 170.747 169.351 170.768 169.334C174.626 166.434 175.302 160.472 174.226 155.962C178.533 154.608 184.353 153.279 185.424 148.206C185.424 148.176 185.385 148.161 185.375 148.191Z" fill="#263238"/>
<path d="M112.085 156.614L140.505 150.686C140.505 150.686 120.498 128.698 110.509 121.11C100.1 113.206 95.5061 114.876 101.498 131.118C107.535 147.465 112.085 156.614 112.085 156.614Z" fill="#FFC727"/>
<path d="M115.316 147.281C115.09 147.257 114.871 147.181 114.679 147.059C114.503 146.947 114.359 146.791 114.262 146.607C114.165 146.422 114.118 146.215 114.126 146.007C114.118 145.686 114.015 145.374 113.832 145.111C113.648 144.848 113.392 144.644 113.093 144.525C112.816 144.434 112.52 144.417 112.234 144.476C111.966 144.516 111.7 144.57 111.438 144.639C111.71 144.698 111.962 144.732 112.234 144.782C112.463 144.804 112.684 144.873 112.886 144.984C113.061 145.092 113.206 145.242 113.308 145.421C113.41 145.6 113.465 145.801 113.469 146.007C113.469 146.324 113.563 146.634 113.738 146.898C113.914 147.161 114.164 147.367 114.457 147.489C114.728 147.605 115.027 147.638 115.316 147.583C115.588 147.519 115.84 147.489 116.097 147.425C115.84 147.359 115.579 147.311 115.316 147.281ZM99.9825 122.665C99.748 122.649 99.5217 122.572 99.3255 122.443C99.1981 122.357 99.0876 122.248 98.9994 122.122C99.034 122.374 99.0735 122.641 99.1279 122.917C99.4012 123.018 99.6966 123.041 99.9825 122.987C100.244 122.949 100.503 122.894 100.758 122.824C100.503 122.757 100.244 122.704 99.9825 122.665ZM125.127 134.521C125.104 134.725 125.038 134.922 124.934 135.099C124.831 135.278 124.682 135.427 124.504 135.531C124.326 135.634 124.123 135.69 123.917 135.692C123.599 135.688 123.287 135.78 123.023 135.957C122.758 136.133 122.553 136.385 122.435 136.68C122.309 136.947 122.281 137.25 122.356 137.535C122.4 137.802 122.435 138.059 122.494 138.31C122.564 138.055 122.618 137.796 122.657 137.535C122.681 137.308 122.757 137.09 122.879 136.898C122.992 136.72 123.149 136.576 123.336 136.479C123.523 136.383 123.732 136.338 123.941 136.349C124.263 136.345 124.577 136.244 124.841 136.06C125.105 135.876 125.308 135.617 125.423 135.317C125.474 135.176 125.501 135.027 125.503 134.877L125.127 134.521ZM113.073 127.665C112.898 127.811 112.689 127.913 112.466 127.961C112.264 128.008 112.054 128.001 111.856 127.94C111.658 127.88 111.48 127.767 111.34 127.615C111.108 127.398 110.817 127.253 110.503 127.199C110.189 127.146 109.867 127.186 109.576 127.314C109.307 127.437 109.081 127.637 108.924 127.887C108.776 128.109 108.608 128.317 108.479 128.554C108.716 128.411 108.924 128.253 109.146 128.109C109.315 127.951 109.523 127.842 109.749 127.793C109.948 127.737 110.158 127.733 110.359 127.783C110.56 127.832 110.745 127.933 110.895 128.075C111.113 128.303 111.394 128.46 111.703 128.525C112.011 128.59 112.332 128.561 112.624 128.44C112.9 128.324 113.138 128.133 113.311 127.887C113.454 127.665 113.612 127.457 113.74 127.215C113.484 127.363 113.276 127.521 113.073 127.665ZM134.735 145.834C134.563 145.983 134.356 146.087 134.133 146.135C133.931 146.182 133.721 146.175 133.523 146.115C133.325 146.054 133.147 145.942 133.006 145.79C132.774 145.572 132.483 145.428 132.17 145.374C131.856 145.321 131.534 145.36 131.243 145.488C130.974 145.612 130.748 145.811 130.591 146.061C130.443 146.284 130.275 146.491 130.141 146.728C130.383 146.585 130.591 146.427 130.813 146.284C130.981 146.125 131.19 146.015 131.416 145.967C131.615 145.912 131.825 145.908 132.026 145.958C132.227 146.007 132.411 146.107 132.562 146.249C132.78 146.477 133.061 146.634 133.37 146.699C133.678 146.764 133.999 146.735 134.291 146.615C134.567 146.499 134.805 146.307 134.977 146.061C135.121 145.834 135.279 145.627 135.407 145.389C135.15 145.538 134.943 145.696 134.716 145.834H134.735Z" fill="white"/>
<path d="M112.994 151.318C113.656 151.096 114.348 150.973 115.024 150.824L117.109 150.33C118.517 149.999 119.93 149.693 121.343 149.392C124.168 148.794 126.994 148.186 129.829 147.633C130.61 147.485 131.391 147.337 132.171 147.203C132.952 147.07 133.831 146.986 134.641 146.848C134.695 146.848 134.7 146.917 134.641 146.927C133.949 147.095 133.263 147.322 132.571 147.495C131.88 147.668 131.144 147.841 130.422 147.989C129.013 148.302 127.6 148.603 126.184 148.893C123.398 149.461 120.611 150.039 117.81 150.548L115.469 150.968C114.649 151.116 113.824 151.313 112.999 151.388C112.974 151.402 112.95 151.318 112.994 151.318Z" fill="#263238"/>
<path opacity="0.1" d="M125.883 153.744L112.085 156.614C112.085 156.614 107.526 147.465 101.494 131.123C98.9549 124.207 98.3176 119.964 99.2266 117.938L125.883 153.744Z" fill="black"/>
<path d="M121.965 219.134H78.063C77.7023 217.721 77.3516 216.328 77.0009 214.959C76.6007 213.388 76.2055 211.852 75.8301 210.355C75.7461 210.024 75.6572 209.688 75.5732 209.367L74.7235 206.018C74.5556 205.356 74.3876 204.709 74.2295 204.042C74.0714 203.375 73.8985 202.743 73.7355 202.115C73.6911 201.947 73.6515 201.779 73.6071 201.621L73.4737 201.083C73.4194 200.861 73.365 200.648 73.3107 200.436C73.2465 200.209 73.1921 199.986 73.1378 199.764C73.0242 199.344 72.9204 198.924 72.8216 198.519C72.6635 197.916 72.5153 197.329 72.3671 196.756C72.3079 196.509 72.2387 196.262 72.1794 196.01C72.0757 195.609 71.9719 195.224 71.8781 194.839L71.6904 194.088C71.4285 193.1 71.1964 192.137 70.9691 191.252C70.9049 191.02 70.8506 190.788 70.7913 190.566C70.6974 190.185 70.5986 189.815 70.5097 189.459C70.4504 189.237 70.3961 189.024 70.3467 188.812C70.1491 188.056 69.9712 187.365 69.823 186.757C69.7786 186.599 69.7391 186.441 69.6995 186.293C69.6007 185.892 69.5069 185.537 69.4278 185.221C69.3933 185.092 69.3686 184.969 69.334 184.855C69.2994 184.741 69.2698 184.613 69.2451 184.509C69.2204 184.406 69.2055 184.351 69.1858 184.287C69.166 184.223 69.1314 184.075 69.1117 183.986C69.0919 183.897 69.087 183.892 69.0771 183.852C69.0079 183.59 68.9783 183.457 68.9783 183.457H111.69C111.69 183.457 113.093 188.303 115.345 196.123C115.8 197.714 116.299 199.433 116.827 201.256C118.314 206.468 120.063 212.573 121.965 219.134Z" fill="#37474F"/>
<path d="M85.2461 219.134H84.1543C82.5274 212.412 80.9532 205.678 79.4317 198.93C79.0661 197.283 78.7022 195.636 78.3399 193.99C78.3103 193.836 78.2757 193.683 78.2411 193.53C78.2366 193.513 78.2389 193.495 78.2477 193.48C78.2565 193.464 78.271 193.453 78.2881 193.449C78.3051 193.444 78.3233 193.446 78.3386 193.455C78.3538 193.464 78.365 193.478 78.3696 193.496L78.414 193.644C78.908 195.406 79.402 197.173 79.896 198.944C81.7436 205.656 83.5269 212.386 85.2461 219.134Z" fill="#263238"/>
<path d="M110.296 183.457L108.414 192.892L106.868 200.633L104.235 213.823L103.963 215.172L103.514 217.424L103.173 219.134H78.058C77.7023 217.716 77.3467 216.323 77.0009 214.959C76.6007 213.388 76.2055 211.852 75.8301 210.355C75.7461 210.024 75.6572 209.688 75.5732 209.367L74.7235 206.018C74.5556 205.356 74.3876 204.709 74.2295 204.042C74.0714 203.375 73.8985 202.743 73.7355 202.115C73.6911 201.947 73.6515 201.779 73.6071 201.621L73.4737 201.083C73.4194 200.861 73.365 200.648 73.3107 200.436C73.2465 200.209 73.1921 199.986 73.1378 199.764C73.0242 199.344 72.9204 198.924 72.8216 198.519C72.6635 197.916 72.5153 197.329 72.3671 196.756C72.3029 196.499 72.2387 196.262 72.1794 196.01C72.0757 195.609 71.9719 195.224 71.8781 194.839L71.6904 194.088C71.4285 193.1 71.1964 192.137 70.9691 191.252C70.9049 191.02 70.8506 190.788 70.7913 190.566C70.6974 190.185 70.5986 189.815 70.5097 189.459C70.4504 189.237 70.3961 189.024 70.3467 188.812C70.1491 188.056 69.9712 187.365 69.823 186.757C69.7786 186.599 69.7391 186.441 69.6995 186.293C69.6007 185.892 69.5069 185.537 69.4278 185.221C69.3933 185.092 69.3686 184.969 69.334 184.855C69.2994 184.741 69.2698 184.613 69.2451 184.509C69.2204 184.406 69.2055 184.351 69.1858 184.287C69.166 184.223 69.1314 184.075 69.1117 183.986C69.0919 183.897 69.087 183.892 69.0771 183.852C69.0079 183.59 68.9783 183.457 68.9783 183.457H110.296Z" fill="#263238"/>
<path d="M110.302 183.428C110.302 183.66 110.124 186.209 109.714 190.092C109.596 191.228 109.458 192.473 109.299 193.807C109.048 195.916 108.736 198.253 108.351 200.698C107.694 204.986 106.839 209.659 105.728 214.234C105.333 215.879 104.898 217.509 104.439 219.105H49.3032C49.9553 210.707 50.553 203.104 51.0223 197.112C51.6843 188.684 52.1091 183.408 52.1091 183.408H102.117L110.302 183.428Z" fill="#37474F"/>
<path d="M110.188 188.507C110.124 190.483 110.04 192.459 109.917 194.435C109.783 196.564 109.586 198.688 109.309 200.812C109.309 200.891 109.309 200.97 109.279 201.049C109.017 203.025 108.726 205.001 108.385 207.002C108.069 208.849 107.837 210.84 107.017 212.545C106.708 213.207 106.27 213.8 105.727 214.288C105.23 214.742 104.622 215.056 103.964 215.197C103.857 215.225 103.748 215.245 103.638 215.257H103.544C103.563 215.268 103.579 215.285 103.589 215.305C103.6 215.325 103.605 215.348 103.603 215.37C103.578 216.032 103.603 216.704 103.524 217.346C103.524 217.376 103.524 217.401 103.524 217.43C103.455 218.003 103.351 218.571 103.248 219.139H102.299C102.299 219.139 102.299 219.139 102.299 219.105C102.462 218.482 102.605 217.855 102.758 217.223C102.912 216.59 103.139 215.958 103.287 215.306C103.296 215.282 103.311 215.262 103.331 215.247C102.731 215.276 102.136 215.12 101.627 214.8C101.118 214.481 100.72 214.012 100.486 213.458C100.249 212.614 100.234 211.722 100.442 210.87C100.614 209.739 100.778 208.612 100.936 207.481C101.257 205.411 101.677 203.356 102.042 201.296C102.096 200.985 102.156 200.664 102.21 200.353C102.951 196.159 103.722 191.955 104.65 187.8C104.685 187.627 104.725 187.454 104.764 187.306C104.804 187.158 104.972 187.222 104.962 187.336C104.937 187.612 104.907 187.894 104.873 188.176C104.71 189.771 104.522 191.362 104.3 192.943C104.033 194.81 103.85 196.682 103.588 198.545C103.499 199.177 103.411 199.814 103.317 200.447C102.887 203.509 102.442 206.572 101.919 209.625C101.677 211.043 100.792 213.577 102.833 214.027C103.3 214.127 103.788 214.066 104.216 213.854C105.118 213.312 105.792 212.46 106.113 211.458C106.691 209.833 106.898 208.039 107.2 206.35C107.529 204.483 107.825 202.614 108.089 200.743C108.418 198.405 108.765 196.068 109.131 193.733L109.694 190.161L109.961 188.511C110.005 188.368 110.188 188.368 110.188 188.507Z" fill="#263238"/>
<path d="M61.4012 203.189C63.6959 203.164 65.9789 202.857 68.1986 202.275C69.2261 202.008 70.2388 201.682 71.2417 201.351C72.2386 201.076 73.1717 200.607 73.9883 199.973C75.5345 198.639 76.2558 196.539 76.9227 194.677C77.6592 192.578 78.255 190.433 78.706 188.255C78.706 188.146 78.8888 188.181 78.8937 188.285C78.946 190.751 78.633 193.211 77.965 195.586C77.4117 197.602 76.6658 199.854 75.0356 201.267C73.3214 202.749 70.9947 203.273 68.8013 203.544C66.3372 203.831 63.8464 203.796 61.3913 203.441C61.3579 203.439 61.3264 203.425 61.3037 203.4C61.281 203.376 61.269 203.343 61.2703 203.31C61.2716 203.276 61.2861 203.245 61.3107 203.222C61.3352 203.199 61.3678 203.187 61.4012 203.189Z" fill="#263238"/>
<path d="M57.5775 188.284C57.4589 191.374 57.3305 194.461 57.1921 197.547C56.8628 204.743 56.5154 211.939 56.1498 219.135H55.1173C55.585 211.922 56.079 204.715 56.5993 197.512C56.8299 194.433 57.0637 191.355 57.3008 188.279C57.3011 188.261 57.305 188.243 57.3123 188.227C57.3195 188.21 57.33 188.195 57.3431 188.182C57.3562 188.17 57.3716 188.16 57.3885 188.153C57.4054 188.146 57.4234 188.143 57.4416 188.144C57.4598 188.144 57.4777 188.148 57.4944 188.155C57.511 188.162 57.5261 188.173 57.5387 188.186C57.5513 188.199 57.5612 188.214 57.5679 188.231C57.5745 188.248 57.5778 188.266 57.5775 188.284Z" fill="#263238"/>
<path d="M119.797 206.275L45 200.604C45 200.604 60.0472 140.968 89.7613 119.045C97.3541 113.443 105.668 117.039 109.413 121.223C118.917 131.859 120.019 206.038 119.797 206.275Z" fill="#FFC727"/>
<path d="M86.1948 145.816C85.9676 145.794 85.749 145.718 85.5575 145.593C85.3801 145.483 85.2353 145.327 85.1381 145.142C85.0408 144.957 84.9946 144.75 85.0042 144.541C85.0016 144.31 84.947 144.082 84.8444 143.875C84.7419 143.668 84.5941 143.487 84.4119 143.344C84.2298 143.202 84.0179 143.102 83.7921 143.053C83.5662 143.004 83.3322 143.006 83.1073 143.059C82.8411 143.098 82.5773 143.15 82.3169 143.217C82.5836 143.282 82.8405 143.311 83.1073 143.365C83.3383 143.385 83.5624 143.454 83.7643 143.568C83.9388 143.675 84.0836 143.825 84.1854 144.003C84.2873 144.18 84.3429 144.381 84.3472 144.586C84.3479 144.902 84.4419 145.212 84.6177 145.476C84.7934 145.739 85.043 145.945 85.3352 146.068C85.6068 146.181 85.9052 146.213 86.1948 146.162C86.4665 146.097 86.7184 146.068 86.9703 145.999C86.7159 145.921 86.4569 145.86 86.1948 145.816ZM115.316 147.298C115.089 147.274 114.871 147.198 114.679 147.075C114.503 146.964 114.359 146.808 114.262 146.623C114.165 146.438 114.118 146.232 114.126 146.023C114.117 145.702 114.015 145.391 113.832 145.127C113.648 144.864 113.391 144.66 113.093 144.541C112.816 144.45 112.519 144.433 112.234 144.492C111.966 144.532 111.7 144.586 111.438 144.655C111.71 144.714 111.962 144.749 112.234 144.798C112.462 144.821 112.684 144.889 112.886 145.001C113.061 145.108 113.206 145.259 113.308 145.437C113.41 145.616 113.465 145.818 113.469 146.023C113.469 146.34 113.562 146.65 113.738 146.914C113.914 147.178 114.164 147.383 114.457 147.505C114.727 147.621 115.027 147.654 115.316 147.599C115.588 147.535 115.84 147.505 116.097 147.441C115.84 147.37 115.58 147.317 115.316 147.283V147.298ZM101.316 196.653C101.085 196.633 100.863 196.557 100.669 196.431C100.493 196.319 100.348 196.163 100.249 195.979C100.151 195.794 100.101 195.588 100.106 195.379C100.105 195.056 100.006 194.741 99.8212 194.476C99.6367 194.212 99.3758 194.009 99.0733 193.897C98.7979 193.805 98.5029 193.788 98.2187 193.847C97.9668 193.897 97.6951 193.931 97.4431 193.996C97.6981 194.063 97.9572 194.114 98.2187 194.149C98.4462 194.173 98.6664 194.244 98.8659 194.356C99.0462 194.459 99.1969 194.607 99.3034 194.785C99.4099 194.963 99.4684 195.166 99.4735 195.374C99.4681 195.692 99.5598 196.004 99.7363 196.269C99.9128 196.534 100.166 196.738 100.461 196.856C100.736 196.977 101.041 197.011 101.336 196.955C101.588 196.895 101.83 196.856 102.116 196.797C101.825 196.732 101.568 196.703 101.316 196.653ZM99.9823 122.667C99.7478 122.65 99.5216 122.574 99.3253 122.445C99.1546 122.328 99.0149 122.172 98.9185 121.99C98.822 121.807 98.7717 121.604 98.772 121.397C98.7701 121.081 98.6717 120.773 98.4898 120.514C98.3079 120.256 98.0513 120.059 97.7544 119.95C97.4761 119.841 97.1713 119.818 96.88 119.886C96.6231 119.935 96.3563 119.97 96.0995 120.044C96.3563 120.108 96.6231 120.138 96.88 120.207C97.109 120.221 97.3319 120.287 97.5321 120.399C97.7099 120.504 97.8584 120.651 97.9638 120.828C98.0692 121.005 98.128 121.206 98.1347 121.412C98.1385 121.728 98.2339 122.036 98.4092 122.299C98.5846 122.562 98.8324 122.769 99.1227 122.894C99.4027 123.002 99.7073 123.03 100.002 122.973C100.264 122.935 100.523 122.881 100.778 122.81C100.515 122.748 100.25 122.7 99.9823 122.667ZM80.4693 190.108C80.2389 190.083 80.0165 190.009 79.8172 189.89C79.6426 189.777 79.5 189.621 79.4031 189.437C79.3063 189.252 79.2583 189.046 79.2639 188.838C79.261 188.516 79.1609 188.202 78.9767 187.938C78.7925 187.673 78.5328 187.471 78.2315 187.356C77.9538 187.26 77.6558 187.238 77.367 187.292C77.1002 187.356 76.8433 187.386 76.5914 187.455C76.8466 187.522 77.1056 187.573 77.367 187.608C77.5999 187.621 77.8257 187.693 78.024 187.816C78.2028 187.92 78.352 188.068 78.4575 188.246C78.563 188.424 78.6212 188.626 78.6267 188.833C78.622 189.151 78.7139 189.463 78.8904 189.728C79.0668 189.992 79.3193 190.197 79.6147 190.315C79.8901 190.428 80.1923 190.457 80.4841 190.399C80.741 190.35 80.9781 190.315 81.2646 190.236C80.9633 190.192 80.7163 190.157 80.4693 190.108ZM54.1836 197.068C53.9531 197.043 53.7307 196.969 53.5315 196.851C53.3579 196.737 53.216 196.58 53.1193 196.396C53.0225 196.212 52.974 196.007 52.9782 195.799C52.9767 195.476 52.8771 195.162 52.6927 194.897C52.5083 194.632 52.2478 194.43 51.9457 194.317C51.6697 194.221 51.3734 194.198 51.0862 194.252C50.8145 194.317 50.5625 194.346 50.3057 194.415C50.562 194.484 50.8228 194.536 51.0862 194.569C51.317 194.585 51.5405 194.656 51.7383 194.776C51.9177 194.88 52.0676 195.028 52.1739 195.206C52.2802 195.384 52.3394 195.586 52.3459 195.794C52.3405 196.112 52.4322 196.424 52.6087 196.689C52.7852 196.954 53.0381 197.158 53.3339 197.276C53.6093 197.388 53.9115 197.417 54.2033 197.36C54.4664 197.32 54.727 197.266 54.9838 197.197C54.6825 197.152 54.4306 197.123 54.1737 197.068H54.1836ZM93.3973 166.816C93.1722 166.794 92.9547 166.723 92.76 166.608C92.5855 166.496 92.4428 166.341 92.3459 166.157C92.2489 165.974 92.201 165.768 92.2067 165.561C92.2025 165.239 92.1019 164.926 91.9178 164.662C91.7338 164.397 91.4748 164.194 91.1743 164.079C90.9009 163.971 90.6011 163.948 90.3147 164.015C90.043 164.079 89.7911 164.109 89.5194 164.173C89.7804 164.244 90.0462 164.297 90.3147 164.331C90.5433 164.348 90.7657 164.413 90.9668 164.524C91.1425 164.63 91.2886 164.779 91.3913 164.957C91.4941 165.135 91.5503 165.336 91.5547 165.541C91.5566 165.858 91.6512 166.167 91.8268 166.43C92.0023 166.693 92.2512 166.9 92.5427 167.023C92.8145 167.136 93.1143 167.164 93.4022 167.102C93.6699 167.065 93.9354 167.014 94.1976 166.949C93.911 166.91 93.6591 166.88 93.3874 166.816H93.3973ZM113.222 181.483C112.993 181.465 112.774 181.388 112.584 181.26C112.407 181.15 112.263 180.995 112.165 180.811C112.067 180.628 112.019 180.421 112.026 180.213C112.022 179.891 111.921 179.578 111.737 179.314C111.553 179.049 111.294 178.846 110.994 178.731C110.711 178.641 110.41 178.625 110.119 178.686C109.867 178.731 109.625 178.766 109.344 178.825C109.596 178.892 109.851 178.945 110.109 178.983C110.345 178.998 110.574 179.069 110.776 179.19C110.954 179.295 111.101 179.443 111.204 179.622C111.307 179.8 111.362 180.002 111.364 180.208C111.364 180.525 111.458 180.835 111.634 181.099C111.81 181.362 112.059 181.568 112.352 181.69C112.63 181.807 112.935 181.84 113.231 181.784C113.498 181.72 113.755 181.69 114.007 181.626C113.746 181.557 113.48 181.509 113.212 181.483H113.222ZM65.1059 168.876C64.876 168.859 64.6545 168.783 64.4637 168.653C64.2881 168.542 64.1446 168.387 64.0476 168.203C63.9505 168.02 63.9032 167.814 63.9104 167.606C63.9069 167.284 63.8065 166.97 63.6224 166.706C63.4382 166.442 63.1789 166.239 62.878 166.124C62.5956 166.033 62.2944 166.016 62.0036 166.075C61.7467 166.124 61.5096 166.154 61.2231 166.218C61.4799 166.286 61.7406 166.339 62.0036 166.376C62.239 166.392 62.4674 166.463 62.6705 166.583C62.8481 166.688 62.9957 166.836 63.0987 167.015C63.2018 167.193 63.2568 167.395 63.2583 167.601C63.2583 167.918 63.3522 168.228 63.528 168.492C63.7038 168.755 63.9538 168.961 64.2463 169.083C64.5238 169.2 64.8297 169.233 65.1257 169.177C65.3924 169.113 65.6493 169.083 65.9012 169.019C65.6366 168.952 65.3675 168.904 65.096 168.876H65.1059ZM111.769 166.03C111.589 166.178 111.383 166.292 111.162 166.366C110.96 166.415 110.75 166.413 110.549 166.36C110.349 166.306 110.165 166.203 110.015 166.06C109.794 165.836 109.511 165.683 109.203 165.619C108.894 165.555 108.574 165.583 108.282 165.699C108.005 165.811 107.77 166.004 107.605 166.253C107.457 166.475 107.298 166.682 107.155 166.919C107.397 166.776 107.605 166.618 107.827 166.475C108.004 166.333 108.21 166.23 108.43 166.173C108.634 166.134 108.846 166.144 109.045 166.205C109.245 166.265 109.427 166.373 109.576 166.519C109.806 166.74 110.097 166.887 110.411 166.942C110.725 166.997 111.048 166.956 111.339 166.826C111.603 166.695 111.828 166.497 111.991 166.253C112.13 166.03 112.293 165.828 112.416 165.586C112.184 165.729 111.982 165.887 111.759 166.03H111.769ZM85.2611 126.327C85.2117 126.056 85.1771 125.799 85.1178 125.547C85.0497 125.804 84.9953 126.065 84.9548 126.327C84.9355 126.557 84.8663 126.779 84.7523 126.98C84.6484 127.157 84.4999 127.305 84.3214 127.408C84.143 127.511 83.9407 127.566 83.7346 127.567C83.4183 127.57 83.1095 127.665 82.8462 127.84C82.583 128.016 82.3767 128.264 82.2526 128.555C82.1397 128.83 82.1071 129.132 82.1588 129.425C82.223 129.682 82.2526 129.919 82.3218 130.205C82.4008 129.934 82.4305 129.682 82.4799 129.425C82.4962 129.193 82.5729 128.97 82.7022 128.778C82.8146 128.602 82.9705 128.458 83.1549 128.36C83.3392 128.262 83.5458 128.214 83.7544 128.219C84.0727 128.213 84.3818 128.111 84.6416 127.927C84.9014 127.743 85.1 127.485 85.2117 127.187C85.3084 126.911 85.3255 126.613 85.2611 126.327ZM79.0614 172.116C79.0244 171.855 78.9717 171.596 78.9033 171.341C78.844 171.593 78.8045 171.835 78.7452 172.116C78.7297 172.345 78.6639 172.568 78.5526 172.768C78.4491 172.947 78.3006 173.095 78.1221 173.198C77.9436 173.301 77.7411 173.356 77.5349 173.356C77.219 173.361 76.911 173.456 76.6481 173.632C76.3852 173.807 76.1785 174.054 76.0529 174.344C75.9515 174.619 75.9242 174.915 75.9739 175.204C76.0106 175.47 76.0617 175.734 76.127 175.994C76.2003 175.735 76.2547 175.471 76.2901 175.204C76.309 174.976 76.3855 174.757 76.5124 174.567C76.6221 174.389 76.7768 174.244 76.9608 174.146C77.1447 174.048 77.3513 174.001 77.5596 174.008C77.8811 174.002 78.1935 173.901 78.4573 173.717C78.7211 173.533 78.9244 173.275 79.0416 172.976C79.1286 172.697 79.1354 172.399 79.0614 172.116ZM70.4905 145.885C70.4556 145.623 70.4045 145.364 70.3374 145.109C70.2731 145.361 70.2386 145.603 70.1743 145.885C70.1605 146.114 70.0946 146.337 69.9817 146.537C69.879 146.715 69.7314 146.863 69.5537 146.966C69.376 147.069 69.1744 147.124 68.969 147.125C68.6533 147.13 68.3459 147.227 68.0832 147.402C67.8205 147.577 67.6136 147.824 67.487 148.113C67.3858 148.389 67.3585 148.687 67.4079 148.977C67.4463 149.243 67.4991 149.507 67.566 149.768C67.6369 149.508 67.6913 149.244 67.729 148.977C67.7448 148.749 67.8215 148.529 67.9513 148.34C68.0611 148.163 68.2158 148.018 68.3997 147.92C68.5837 147.822 68.7903 147.774 68.9986 147.782C69.3201 147.776 69.6325 147.674 69.8963 147.49C70.1601 147.307 70.3634 147.049 70.4806 146.749C70.5677 146.468 70.5712 146.168 70.4905 145.885ZM113.202 202.265C113.165 202.002 113.112 201.741 113.044 201.485C112.984 201.741 112.945 201.979 112.886 202.265C112.869 202.494 112.803 202.716 112.693 202.917C112.589 203.095 112.44 203.242 112.262 203.345C112.083 203.448 111.881 203.503 111.675 203.505C111.359 203.509 111.051 203.604 110.788 203.78C110.525 203.955 110.318 204.203 110.193 204.493C110.092 204.768 110.065 205.064 110.114 205.353C110.114 205.417 110.114 205.486 110.149 205.55H110.396C110.396 205.476 110.421 205.407 110.43 205.333C110.45 205.105 110.527 204.886 110.653 204.696C110.767 204.528 110.922 204.392 111.104 204.301C111.286 204.211 111.487 204.168 111.69 204.177C112.012 204.171 112.324 204.069 112.588 203.885C112.852 203.702 113.055 203.444 113.172 203.144C113.266 202.86 113.276 202.555 113.202 202.265ZM102.314 152.801C102.25 152.544 102.22 152.307 102.156 152.02C102.088 152.277 102.035 152.538 101.998 152.801C101.979 153.036 101.908 153.264 101.79 153.468C101.687 153.647 101.539 153.796 101.36 153.899C101.182 154.003 100.979 154.059 100.773 154.061C100.455 154.055 100.142 154.147 99.8776 154.323C99.6128 154.5 99.4081 154.753 99.2907 155.049C99.1706 155.317 99.1428 155.617 99.2117 155.903C99.2611 156.175 99.2907 156.427 99.3549 156.684C99.4232 156.427 99.476 156.166 99.513 155.903C99.5425 155.679 99.6182 155.464 99.7353 155.271C99.8464 155.095 100.002 154.952 100.185 154.855C100.369 154.758 100.575 154.71 100.783 154.718C101.105 154.714 101.418 154.614 101.683 154.43C101.947 154.245 102.15 153.986 102.265 153.685C102.352 153.399 102.369 153.095 102.314 152.801ZM68.9196 199.178C68.8603 198.906 68.8257 198.654 68.7615 198.402C68.6927 198.657 68.6399 198.916 68.6034 199.178C68.5919 199.409 68.5204 199.634 68.3959 199.83C68.2948 200.009 68.1476 200.158 67.9695 200.261C67.7915 200.365 67.5891 200.419 67.3832 200.418C67.0669 200.42 66.7581 200.515 66.4948 200.69C66.2316 200.866 66.0253 201.114 65.9012 201.406C65.7985 201.656 65.766 201.929 65.8074 202.196V202.285C65.8074 202.324 65.8074 202.374 65.8321 202.413H66.0939C66.0939 202.374 66.0939 202.334 66.1285 202.295C66.1261 202.275 66.1261 202.255 66.1285 202.235C66.1429 202.024 66.2109 201.82 66.3261 201.643C66.4358 201.465 66.5905 201.32 66.7745 201.222C66.9584 201.124 67.1651 201.077 67.3734 201.084C67.6961 201.084 68.0109 200.984 68.2757 200.8C68.5405 200.615 68.7428 200.354 68.8554 200.052C68.9588 199.769 68.9811 199.463 68.9196 199.168V199.178ZM54.1737 176.266C54.1144 175.994 54.0798 175.742 54.0156 175.485C53.9473 175.742 53.8945 176.003 53.8575 176.266C53.8451 176.497 53.7737 176.722 53.65 176.918C53.551 177.094 53.4076 177.24 53.2343 177.343C53.061 177.447 52.8637 177.503 52.662 177.506C52.6012 177.501 52.5401 177.501 52.4793 177.506L52.2125 178.222C52.3599 178.163 52.5182 178.136 52.6769 178.143C52.9996 178.142 53.3144 178.043 53.5792 177.858C53.844 177.674 54.0463 177.413 54.1589 177.111C54.2387 176.835 54.2438 176.544 54.1737 176.266ZM100.55 138.025C100.374 138.171 100.166 138.275 99.9428 138.327C99.7408 138.372 99.5305 138.363 99.3329 138.301C99.1353 138.24 98.9573 138.128 98.8165 137.976C98.5853 137.759 98.2953 137.614 97.9825 137.56C97.6698 137.507 97.3482 137.547 97.0578 137.675C96.7888 137.799 96.5609 137.998 96.4008 138.248C96.2575 138.47 96.0846 138.677 95.9562 138.915C96.1933 138.771 96.4008 138.613 96.6231 138.47C96.7918 138.312 97 138.203 97.2258 138.154C97.4252 138.097 97.636 138.094 97.837 138.144C98.0381 138.194 98.2226 138.297 98.3719 138.44C98.5907 138.668 98.8735 138.825 99.183 138.889C99.4924 138.954 99.8142 138.923 100.106 138.801C100.382 138.686 100.618 138.494 100.788 138.248C100.936 138.025 101.089 137.818 101.222 137.576C100.98 137.724 100.773 137.882 100.55 138.025ZM112.579 127.923L112.431 127.963C112.23 128.01 112.019 128.002 111.821 127.942C111.623 127.881 111.445 127.769 111.305 127.617C111.073 127.399 110.782 127.254 110.468 127.201C110.155 127.147 109.832 127.187 109.541 127.315C109.273 127.439 109.046 127.638 108.889 127.888C108.741 128.111 108.573 128.318 108.445 128.555C108.682 128.412 108.889 128.254 109.111 128.111C109.28 127.953 109.488 127.844 109.714 127.795C109.913 127.738 110.123 127.735 110.324 127.784C110.525 127.833 110.71 127.934 110.86 128.076C111.078 128.304 111.36 128.461 111.668 128.526C111.977 128.591 112.298 128.562 112.589 128.442C112.634 128.427 112.677 128.407 112.718 128.382C112.688 128.229 112.644 128.101 112.579 127.923ZM79.4813 157.114C79.3127 157.269 79.1038 157.373 78.8786 157.415C78.6763 157.462 78.4651 157.455 78.2663 157.395C78.0676 157.334 77.8886 157.222 77.7474 157.069C77.5165 156.85 77.2255 156.704 76.9114 156.65C76.5974 156.596 76.2745 156.637 75.9838 156.768C75.7156 156.889 75.4889 157.087 75.3317 157.336C75.1934 157.558 75.0155 157.766 74.8871 158.008C75.1242 157.859 75.3317 157.701 75.554 157.558C75.7263 157.403 75.9355 157.294 76.1616 157.242C76.3603 157.186 76.5702 157.183 76.7704 157.233C76.9707 157.283 77.1542 157.385 77.3028 157.528C77.5207 157.756 77.8023 157.913 78.1108 157.978C78.4193 158.044 78.7403 158.014 79.0318 157.894C79.3086 157.776 79.5465 157.583 79.7184 157.336C79.8617 157.114 80.0198 156.906 80.1482 156.669C79.9061 156.812 79.6987 156.97 79.4813 157.114ZM65.2047 185.232C64.9622 185.447 64.6476 185.563 64.3236 185.557C63.9995 185.55 63.6897 185.422 63.4559 185.197C63.2305 184.974 62.9427 184.825 62.6306 184.768C62.3184 184.712 61.9965 184.751 61.7072 184.881C61.4445 185.011 61.2198 185.207 61.0551 185.449C60.8906 185.663 60.7404 185.888 60.6056 186.121C60.8403 185.988 61.0648 185.838 61.2774 185.672C61.4499 185.519 61.6566 185.411 61.8801 185.355C62.0788 185.306 62.2866 185.308 62.4844 185.361C62.6822 185.414 62.8634 185.515 63.0113 185.657C63.2336 185.883 63.5174 186.039 63.8275 186.104C64.1376 186.17 64.4602 186.143 64.7552 186.027C65.0252 185.905 65.2573 185.712 65.427 185.469C65.5653 185.247 65.7432 185.039 65.8716 184.802C65.6493 184.911 65.427 185.089 65.2047 185.232ZM88.2498 201.914C88.0073 202.129 87.6927 202.245 87.3687 202.239C87.0446 202.233 86.7348 202.104 86.501 201.88C86.2752 201.657 85.9875 201.508 85.6755 201.452C85.3635 201.395 85.0417 201.434 84.7523 201.564C84.4905 201.695 84.2663 201.89 84.1002 202.132C83.9379 202.346 83.7893 202.57 83.6556 202.804C83.8879 202.671 84.1107 202.522 84.3225 202.359C84.4924 202.203 84.7002 202.094 84.9252 202.043C85.1235 201.993 85.3311 201.994 85.5288 202.046C85.7265 202.098 85.908 202.199 86.0564 202.339C86.2787 202.565 86.5625 202.721 86.8726 202.787C87.1827 202.853 87.5053 202.826 87.8003 202.71C88.0699 202.589 88.3021 202.398 88.4721 202.156C88.6104 201.934 88.7883 201.727 88.9167 201.485C88.6796 201.608 88.4721 201.771 88.2498 201.914ZM97.2653 182.327C97.0857 182.477 96.8719 182.581 96.6429 182.629C96.4412 182.67 96.2324 182.66 96.0356 182.599C95.8388 182.539 95.6604 182.43 95.5165 182.283C95.2891 182.056 94.9972 181.905 94.6807 181.85C94.3642 181.795 94.0385 181.839 93.748 181.977C93.4837 182.104 93.2598 182.303 93.1009 182.55C92.9527 182.757 92.7995 182.96 92.6513 183.202C92.8849 183.068 93.1093 182.92 93.3232 182.757C93.506 182.619 93.7093 182.511 93.9259 182.436C94.1273 182.387 94.3378 182.389 94.5381 182.442C94.7384 182.496 94.922 182.599 95.0719 182.742C95.2317 182.911 95.4273 183.042 95.6443 183.125C95.8613 183.209 96.0942 183.242 96.3259 183.224C96.5576 183.205 96.7822 183.135 96.9832 183.018C97.1843 182.902 97.3566 182.742 97.4876 182.55C97.6259 182.327 97.7889 182.12 97.9124 181.883C97.7099 182.011 97.5074 182.169 97.2653 182.327ZM119.495 191.367C119.267 191.314 119.058 191.197 118.893 191.032C118.665 190.812 118.376 190.666 118.065 190.612C117.753 190.559 117.432 190.6 117.144 190.73C116.873 190.848 116.645 191.046 116.492 191.298C116.329 191.512 116.18 191.737 116.047 191.97C116.284 191.822 116.492 191.669 116.714 191.521C116.89 191.366 117.097 191.253 117.322 191.19C117.52 191.139 117.727 191.139 117.924 191.192C118.122 191.245 118.302 191.348 118.448 191.491C118.732 191.779 119.111 191.955 119.515 191.985C119.52 191.768 119.495 191.57 119.495 191.367Z" fill="white"/>
<path d="M107.392 131.776C103.03 131.84 97.3099 123.946 95.6253 118.201C95.5166 117.805 100.071 104.072 100.694 101.256C100.822 100.673 117.435 109.442 117.435 109.442C117.435 109.442 114.397 114.96 113.345 119.875C113.261 120.29 111.591 131.711 107.392 131.776Z" fill="#D3766A"/>
<path d="M117.435 109.437C117.435 109.437 114.397 114.959 113.34 119.875C113.34 119.974 113.216 120.685 113.009 121.722C104.779 119.094 100.565 112.761 98.5739 108.434C99.5619 105.322 100.446 102.397 100.693 101.256C100.822 100.678 117.435 109.437 117.435 109.437Z" fill="#263238"/>
<path d="M97.1023 82.4746C94.6323 88.7188 96.6083 107.451 100.817 111.922C106.948 118.408 117.712 119.826 123.413 112.292C128.936 104.996 125.982 80.6271 121.185 76.4874C114.126 70.3914 100.723 73.2665 97.1023 82.4746Z" fill="#D3766A"/>
<path d="M113.074 92.6204C112.55 92.8526 112.026 92.986 111.488 93.1688C110.875 93.3713 110.411 93.5936 109.764 93.4158C109.587 93.346 109.438 93.2194 109.34 93.0558C109.243 92.8922 109.202 92.7008 109.225 92.5118C109.369 91.7065 110.055 91.2718 110.777 91.0001C111.498 90.6957 112.307 90.6728 113.044 90.9359C113.208 91.0061 113.347 91.122 113.447 91.2697C113.546 91.4174 113.6 91.5907 113.603 91.7686C113.607 91.9465 113.558 92.1216 113.464 92.2727C113.37 92.4238 113.235 92.5446 113.074 92.6204Z" fill="#263238"/>
<path d="M113.523 95.3184C113.523 95.2739 113.434 95.3925 113.439 95.4419C113.661 96.6966 113.701 98.1638 112.624 98.7467C112.589 98.7467 112.624 98.8258 112.624 98.8159C114.002 98.4207 113.933 96.4842 113.523 95.3184Z" fill="#263238"/>
<path d="M112.208 94.1674C110.168 94.3008 110.588 98.3812 112.48 98.2528C114.372 98.1243 113.923 94.0538 112.208 94.1674Z" fill="#263238"/>
<path d="M120.804 94.3894C120.804 94.34 120.908 94.4388 120.913 94.4931C121.002 95.7627 121.323 97.1953 122.508 97.4967C122.543 97.4967 122.548 97.5708 122.508 97.5708C121.091 97.5164 120.686 95.6046 120.804 94.3894Z" fill="#263238"/>
<path d="M121.797 92.9568C123.813 92.5913 124.391 96.652 122.524 96.9879C120.656 97.3238 120.108 93.2631 121.797 92.9568Z" fill="#263238"/>
<path d="M123.072 90.4073C122.499 90.3727 121.97 90.2443 121.407 90.1554C120.77 90.0516 120.251 90.0319 119.757 89.5725C119.633 89.427 119.56 89.2448 119.549 89.0539C119.538 88.8629 119.591 88.6737 119.698 88.5153C120.192 87.8632 121.017 87.799 121.787 87.8929C122.567 87.9589 123.296 88.3107 123.832 88.8809C123.949 89.0194 124.023 89.1893 124.045 89.3694C124.066 89.5494 124.035 89.7319 123.954 89.8943C123.873 90.0566 123.746 90.1917 123.59 90.2829C123.433 90.374 123.253 90.4173 123.072 90.4073Z" fill="#263238"/>
<path d="M113.167 106.789C113.503 107.051 113.844 107.426 114.308 107.416C114.777 107.362 115.229 107.207 115.632 106.962C115.64 106.956 115.651 106.953 115.661 106.953C115.671 106.954 115.681 106.958 115.689 106.965C115.696 106.972 115.701 106.981 115.703 106.992C115.704 107.002 115.702 107.012 115.696 107.021C115.541 107.288 115.316 107.508 115.045 107.658C114.775 107.807 114.469 107.881 114.16 107.871C113.899 107.828 113.657 107.708 113.464 107.528C113.27 107.348 113.135 107.115 113.073 106.858C113.024 106.784 113.118 106.749 113.167 106.789Z" fill="#263238"/>
<path d="M114.106 102.866C114.478 103.333 114.942 103.718 115.47 103.996C115.998 104.274 116.578 104.439 117.174 104.481C117.694 104.528 118.218 104.498 118.73 104.392C118.829 104.382 118.927 104.361 119.021 104.328L119.293 104.259C119.359 104.239 119.417 104.197 119.458 104.141C119.499 104.085 119.521 104.017 119.52 103.948C119.525 103.907 119.525 103.865 119.52 103.824V103.711C119.446 102.723 119.199 101.241 119.199 101.241C119.574 101.384 121.471 102.011 121.387 101.508C120.706 97.3233 119.94 92.6748 118.374 88.6635C118.363 88.6379 118.343 88.6169 118.318 88.6044C118.293 88.5919 118.265 88.5885 118.237 88.595C118.21 88.6015 118.186 88.6174 118.17 88.6399C118.153 88.6624 118.145 88.69 118.147 88.7179C118.641 92.7637 119.856 96.696 120.424 100.747C119.748 100.514 119.043 100.377 118.33 100.342C118.196 100.396 118.858 103.172 118.858 103.617C118.859 103.632 118.859 103.647 118.858 103.661C117.243 104.042 115.963 103.661 114.259 102.743C114.111 102.678 114.017 102.772 114.106 102.866Z" fill="#263238"/>
<path d="M118.107 103.963C117.643 104.711 116.995 105.329 116.225 105.757C115.799 105.976 115.316 106.057 114.842 105.989C113.804 105.826 113.681 104.902 113.785 104.092C113.844 103.661 113.954 103.238 114.111 102.832C115.289 103.625 116.689 104.021 118.107 103.963Z" fill="#263238"/>
<path d="M116.225 105.757C115.799 105.976 115.316 106.057 114.842 105.989C113.804 105.826 113.681 104.902 113.785 104.092C114.876 104.092 116.037 104.714 116.225 105.757Z" fill="#FF97B8"/>
<path d="M95.8621 99.4482C99.3646 98.4602 101.113 86.6832 101.113 86.6832C101.113 86.6832 101.113 91.6677 102.027 91.5442C102.941 91.4207 106.77 84.6282 107.19 79.787C107.19 79.787 111.636 82.7806 116.082 84.0897C120.528 85.3988 125.428 85.0777 125.428 84.3367C125.428 82.094 123.358 76.2302 120.305 74.1603C116.783 71.7792 111.759 69.4772 104.497 72.2732C97.2354 75.0693 95.3879 79.6882 94.3258 83.324C93.2637 86.9599 94.5777 99.794 95.8621 99.4482Z" fill="#263238"/>
<path d="M100.101 98.7906C100.101 98.7906 96.317 92.5316 93.5012 93.8506C90.6854 95.1696 93.2542 104.032 96.3615 105.435C96.7472 105.639 97.1701 105.764 97.605 105.801C98.0399 105.839 98.4778 105.788 98.8928 105.653C99.3077 105.517 99.6911 105.299 100.02 105.012C100.349 104.725 100.617 104.375 100.807 103.983L100.101 98.7906Z" fill="#D3766A"/>
<path d="M94.301 96.3662C94.2516 96.3662 94.2367 96.4304 94.301 96.4502C96.4746 97.5024 97.512 99.6563 98.1937 101.855C97.5811 100.985 96.7117 100.471 95.5458 101.188C95.4866 101.227 95.5458 101.321 95.6002 101.311C96.0013 101.214 96.4226 101.242 96.8071 101.392C97.1915 101.542 97.5204 101.807 97.7491 102.151C98.1239 102.732 98.4352 103.351 98.6778 103.999C98.7717 104.201 99.1372 104.122 99.0779 103.885V103.831C99.2904 100.99 97.344 96.8602 94.301 96.3662Z" fill="#263238"/>
<path d="M116.447 72.5794C114.179 71.2123 111.722 70.1854 109.156 69.5314C106.276 68.8546 97.0036 68.5879 94.5978 70.1934C92.192 71.7989 90.6903 80.4093 90.4976 81.6739C90.305 82.9386 90.053 90.6598 92.6317 92.8038C95.2104 94.9477 96.8603 81.9358 101.706 78.1073C106.553 74.2788 116.447 72.5794 116.447 72.5794Z" fill="#FFC727"/>
<path opacity="0.1" d="M116.452 72.5848C116.452 72.5848 106.547 74.2545 101.711 78.1077C96.8747 81.9609 95.2149 94.9531 92.6313 92.8091C91.4951 91.8607 91.0307 90.5862 90.7442 88.4965C91.7322 84.757 93.9009 79.0167 97.5071 75.2623C100.886 71.7499 106.206 70.3568 111.739 70.3223C113.372 70.9407 114.948 71.6977 116.452 72.5848Z" fill="black"/>
<path d="M92.5674 100.619C93.1849 97.1608 97.7 88.2688 101.953 83.3288C106.207 78.3888 117.435 76.4474 118.952 76.6944C122.622 77.302 123.754 78.5568 124.386 78.2851C125.018 78.0134 121.496 74.8271 120.523 74.1059C119.55 73.3846 116.912 71.6062 115.301 71.4728C113.691 71.3395 103.687 71.2901 99.6415 75.1087C95.5956 78.9273 89.2428 90.235 89.8553 93.3867C89.9986 94.1376 90.9174 94.7057 91.115 95.7727C91.3768 97.1658 91.4954 98.7367 91.8017 99.7247C92.0487 100.53 92.513 100.93 92.5674 100.619Z" fill="#FFC727"/>
<path d="M103.075 81.0317C102.281 80.4215 101.541 79.7456 100.861 79.0112C100.163 78.2815 99.5531 77.4724 99.0435 76.6005C99.0418 76.5916 99.038 76.5833 99.0325 76.5761C99.0271 76.5689 99.02 76.5631 99.012 76.559C99.0039 76.555 98.995 76.5528 98.986 76.5527C98.977 76.5526 98.968 76.5546 98.9599 76.5585C98.9517 76.5624 98.9446 76.5681 98.939 76.5751C98.9333 76.5822 98.9294 76.5905 98.9275 76.5993C98.9255 76.6081 98.9256 76.6172 98.9278 76.626C98.9299 76.6348 98.934 76.643 98.9398 76.6499C99.3264 77.6175 99.8687 78.5152 100.545 79.3076C101.231 80.0841 102.055 80.7258 102.976 81.1996C102.998 81.208 103.022 81.2083 103.044 81.2006C103.066 81.1929 103.084 81.1776 103.096 81.1575C103.108 81.1373 103.112 81.1136 103.108 81.0906C103.104 81.0676 103.092 81.0467 103.075 81.0317Z" fill="#263238"/>
<path d="M92.9028 97.1465C92.8337 96.8896 92.6904 96.6525 92.5966 96.3956C92.4875 96.1067 92.4097 95.8069 92.3644 95.5015C92.3558 94.9208 92.2846 94.3428 92.152 93.7774C91.9683 93.3381 91.7363 92.9206 91.4604 92.5325C91.1145 92.1162 90.9257 91.5917 90.9268 91.0505C90.9268 90.9764 90.8182 90.9616 90.8132 91.0505C90.6947 92.1077 91.3072 92.9277 91.6876 93.8614C91.9247 94.4542 91.8407 95.0964 91.9741 95.7139C92.0525 96.2984 92.3196 96.8413 92.7349 97.2601C92.8189 97.2947 92.9275 97.2403 92.9028 97.1465Z" fill="#263238"/>
<path d="M94.499 93.5195C94.1942 93.106 93.9106 92.6773 93.6493 92.2351C93.4147 91.7922 93.2116 91.3333 93.0417 90.8617C92.8688 90.3974 92.7354 89.9182 92.5724 89.4539C92.3797 88.9006 92.1229 88.3671 91.9549 87.8088C91.9549 87.7347 91.8264 87.8088 91.8511 87.8533C92.0191 88.4362 92.0932 89.0438 92.2414 89.6317C92.3745 90.1357 92.5395 90.6307 92.7354 91.1137C92.9186 91.5804 93.1487 92.0273 93.4221 92.4475C93.6812 92.8825 94.0257 93.2606 94.4348 93.559C94.44 93.5675 94.4484 93.5736 94.4581 93.5759C94.4679 93.5782 94.4781 93.5766 94.4866 93.5713C94.4952 93.5661 94.5012 93.5577 94.5036 93.548C94.5059 93.5382 94.5042 93.528 94.499 93.5195Z" fill="#263238"/>
<path d="M96.1195 90.2647C95.458 89.5705 94.8991 88.7853 94.4597 87.933C94.0398 87.0981 93.6644 86.2336 93.3037 85.3691C93.3037 85.3148 93.1753 85.3345 93.1951 85.4037C93.3852 86.3582 93.6921 87.2857 94.109 88.1652C94.3184 88.5896 94.5753 88.989 94.8747 89.3557C95.2221 89.7288 95.6117 90.0604 96.0356 90.3437C96.0899 90.3882 96.1689 90.319 96.1195 90.2647Z" fill="#263238"/>
<path d="M97.843 87.1674C97.5047 86.881 97.2246 86.5321 97.018 86.1399C96.7612 85.7151 96.524 85.2902 96.277 84.8555C96.03 84.4208 95.8127 84.0256 95.5855 83.6106C95.3289 83.2021 95.1606 82.7444 95.0915 82.267C95.0878 82.2547 95.0803 82.244 95.0701 82.2364C95.0598 82.2287 95.0474 82.2246 95.0346 82.2246C95.0219 82.2246 95.0094 82.2287 94.9992 82.2364C94.989 82.244 94.9815 82.2547 94.9778 82.267C94.9675 82.7451 95.0532 83.2205 95.2298 83.665C95.402 84.1634 95.6168 84.646 95.872 85.1075C96.1228 85.5603 96.4033 85.9959 96.7118 86.4116C96.9606 86.8054 97.322 87.1152 97.7492 87.3008C97.843 87.3305 97.9171 87.2218 97.843 87.1674Z" fill="#263238"/>
<path d="M99.2705 83.1462C98.9839 82.7955 98.6974 82.4447 98.4356 82.0742C98.1738 81.7037 97.9416 81.3234 97.7045 80.938C97.4674 80.5527 97.2105 80.1279 96.9783 79.7129C96.9754 79.7061 96.9711 79.6999 96.9658 79.6948C96.9605 79.6896 96.9543 79.6855 96.9474 79.6827C96.9405 79.68 96.9332 79.6786 96.9257 79.6787C96.9183 79.6788 96.911 79.6804 96.9042 79.6833C96.8974 79.6862 96.8912 79.6904 96.886 79.6957C96.8809 79.701 96.8768 79.7073 96.874 79.7142C96.8713 79.7211 96.8699 79.7284 96.87 79.7358C96.8701 79.7432 96.8716 79.7506 96.8746 79.7574C97.0047 80.2124 97.1699 80.6567 97.3686 81.0862C97.5821 81.5051 97.8231 81.9094 98.0898 82.2965C98.3488 82.6805 98.6309 83.0484 98.9345 83.3982C99.2217 83.7646 99.5774 84.0717 99.9818 84.3022C99.9963 84.3084 100.012 84.3101 100.028 84.3071C100.043 84.3041 100.058 84.2965 100.069 84.2854C100.08 84.2742 100.087 84.26 100.09 84.2445C100.093 84.229 100.092 84.2129 100.086 84.1984C99.849 83.8219 99.5759 83.4694 99.2705 83.1462Z" fill="#263238"/>
<path d="M105.945 79.3426C105.375 78.3933 104.692 77.5173 103.909 76.7343C103.154 75.9464 102.316 75.2425 101.41 74.6348C101.355 74.6002 101.276 74.6644 101.326 74.7187C102.808 76.2946 104.379 77.8161 105.856 79.4117C105.86 79.4176 105.866 79.4225 105.872 79.4261C105.879 79.4298 105.886 79.4321 105.893 79.4331C105.901 79.434 105.908 79.4334 105.915 79.4315C105.922 79.4295 105.929 79.4262 105.935 79.4216C105.941 79.4171 105.946 79.4114 105.949 79.405C105.953 79.3986 105.955 79.3915 105.956 79.3841C105.957 79.3768 105.957 79.3694 105.955 79.3622C105.953 79.3551 105.949 79.3484 105.945 79.3426Z" fill="#263238"/>
<path d="M108.36 76.5956C108.056 76.1422 107.701 75.7246 107.303 75.3507C106.445 74.5925 105.508 73.9299 104.507 73.3747C104.443 73.3401 104.374 73.4192 104.433 73.4686C105.273 74.1602 106.117 74.8419 106.903 75.5829C107.302 75.9425 107.68 76.3252 108.034 76.729C108.39 77.139 108.642 77.6132 108.973 78.0331C108.979 78.041 108.987 78.0466 108.997 78.049C109.006 78.0515 109.017 78.0507 109.026 78.0467C109.035 78.0427 109.042 78.0358 109.047 78.0271C109.052 78.0184 109.053 78.0083 109.052 77.9985C108.915 77.4904 108.68 77.0139 108.36 76.5956Z" fill="#263238"/>
<path d="M111.394 75.5383C111.109 75.0946 110.778 74.6823 110.406 74.3083C109.719 73.5917 108.916 72.997 108.03 72.5496C107.97 72.52 107.921 72.6139 107.97 72.6534C108.763 73.2459 109.502 73.9072 110.179 74.6294C110.52 74.9949 110.841 75.3753 111.167 75.7508C111.493 76.1262 111.75 76.5807 112.11 76.9215C112.14 76.9462 112.179 76.9215 112.169 76.8771C111.954 76.4075 111.694 75.9592 111.394 75.5383Z" fill="#263238"/>
<path d="M113.666 74.0321C113.335 73.7011 112.984 73.38 112.633 73.0441C112.298 72.7177 111.915 72.4444 111.497 72.234C111.433 72.2093 111.398 72.2932 111.443 72.3377C112.09 72.9749 112.732 73.632 113.364 74.284C113.912 74.9277 114.389 75.6282 114.787 76.3737C114.791 76.3822 114.798 76.3888 114.807 76.392C114.816 76.3953 114.826 76.3949 114.834 76.391C114.843 76.387 114.849 76.3799 114.852 76.3711C114.856 76.3623 114.855 76.3525 114.851 76.344C114.695 75.4725 114.282 74.6675 113.666 74.0321Z" fill="#263238"/>
<path d="M116.334 73.7606C115.726 73.0654 114.992 72.4921 114.17 72.0711C114.111 72.0415 114.057 72.1354 114.111 72.1699C114.843 72.6722 115.496 73.2817 116.047 73.978C116.607 74.6701 117.091 75.4204 117.49 76.2158C117.49 76.2553 117.579 76.2454 117.569 76.2158C117.353 75.3129 116.93 74.4725 116.334 73.7606Z" fill="#263238"/>
<path d="M119.579 75.6665C119.51 75.4757 119.429 75.2893 119.337 75.1083C119.148 74.7442 118.923 74.3999 118.665 74.0808C118.119 73.4493 117.514 72.872 116.857 72.3567C116.798 72.3073 116.729 72.4012 116.783 72.4506C117.411 72.9654 117.975 73.5542 118.462 74.2043C118.701 74.5182 118.917 74.8483 119.11 75.1923C119.203 75.3602 119.282 75.5381 119.362 75.7159C119.426 75.8873 119.505 76.0526 119.599 76.2099C119.604 76.2192 119.611 76.2269 119.62 76.2323C119.63 76.2377 119.64 76.2405 119.651 76.2405C119.661 76.2405 119.672 76.2377 119.681 76.2323C119.69 76.2269 119.697 76.2192 119.702 76.2099C119.691 76.0233 119.649 75.8397 119.579 75.6665Z" fill="#263238"/>
<path d="M121.644 76.0768C121.476 75.7845 121.291 75.5025 121.091 75.232C120.893 74.9608 120.676 74.7033 120.443 74.4614C120.206 74.2094 119.949 73.9674 119.727 73.7105C119.673 73.6512 119.589 73.7105 119.648 73.7945C119.89 74.0436 120.11 74.313 120.305 74.5997C120.493 74.8665 120.685 75.1283 120.878 75.395L121.446 76.1904C121.623 76.475 121.814 76.7503 122.019 77.0154C122.027 77.0217 122.037 77.0255 122.047 77.0261C122.057 77.0267 122.068 77.0241 122.076 77.0187C122.085 77.0132 122.092 77.0052 122.096 76.9958C122.1 76.9864 122.101 76.9759 122.098 76.966C121.981 76.6534 121.828 76.3551 121.644 76.0768Z" fill="#263238"/>
<path d="M84.6234 136.755C87.2762 152.069 95.8817 181.966 104.097 189.494C110.203 195.091 142.871 197.052 147.258 197.591C150.528 197.996 151.037 170.421 147.564 169.843C144.002 169.255 119.154 165.891 116.694 164.947C114.234 164.004 103.44 144.318 96.4399 133.657C87.5677 120.196 82.4449 124.217 84.6234 136.755Z" fill="#D3766A"/>
<path d="M148.058 197.897C155.098 199.423 170.288 200.367 178.38 199.379C189.04 198.134 202.843 188.901 201.336 186.327C199.676 183.487 193.432 185.211 187.618 186.485C178.424 188.501 175.52 185.68 172.511 182.958C160.161 171.789 146.611 169.798 146.611 169.798C146.611 169.798 140.786 196.321 148.058 197.897Z" fill="#D3766A"/>
<path d="M171.933 184.836C168.826 182.02 180.761 184.836 184.169 181.487C187.578 178.137 183.181 176.053 178.641 175.529C162.967 173.667 160.087 167.067 149.273 169.186C138.459 171.305 171.933 184.836 171.933 184.836Z" fill="#D3766A"/>
<path d="M163.881 184.011C163.817 184.036 163.777 183.927 163.842 183.897C165.241 183.299 166.724 182.916 168.238 182.761C169.752 182.67 171.269 182.67 172.783 182.761C174.334 182.825 175.88 182.919 177.432 182.919C178.222 182.919 179.003 182.86 179.793 182.796C180.583 182.731 181.324 182.568 182.085 182.559C182.179 182.559 182.184 182.682 182.12 182.727C181.463 183.097 180.745 183.346 180 183.463C179.293 183.588 178.579 183.664 177.861 183.69C176.286 183.748 174.709 183.71 173.139 183.576C171.602 183.468 170.061 183.364 168.52 183.393" fill="#263238"/>
<path d="M118.453 165.377L125.754 166.365C128.184 166.691 130.62 167.027 133.045 167.378L140.337 168.41L143.983 168.904L145.8 169.166L146.709 169.294L147.164 169.359L147.584 169.408L147.386 169.443C148.498 169.002 149.659 168.697 150.844 168.534C152.013 168.36 153.196 168.302 154.376 168.361C156.727 168.518 159.038 169.047 161.223 169.927C163.392 170.776 165.462 171.779 167.596 172.565C168.653 172.966 169.735 173.296 170.836 173.553C171.943 173.81 173.074 174.002 174.205 174.195C176.492 174.523 178.761 174.966 181.003 175.524C182.158 175.812 183.264 176.271 184.283 176.887C184.832 177.229 185.269 177.724 185.543 178.31C185.77 178.927 185.77 179.605 185.543 180.222C185.31 180.808 184.922 181.32 184.421 181.704C183.944 182.072 183.417 182.369 182.855 182.588C181.757 183 180.606 183.258 179.437 183.354C177.126 183.541 174.801 183.425 172.521 183.008L172.555 182.934L173.682 184.001L172.496 183.013L172.353 182.934H172.496C174.771 183.235 177.074 183.25 179.353 182.978C180.474 182.836 181.572 182.547 182.618 182.119C183.606 181.689 184.594 181.007 184.935 180.024C185.11 179.546 185.11 179.02 184.935 178.542C184.7 178.087 184.34 177.709 183.898 177.45C182.928 176.9 181.88 176.498 180.79 176.26C178.592 175.721 176.315 175.39 174.042 175.025C172.906 174.842 171.765 174.659 170.619 174.402C169.477 174.148 168.353 173.818 167.255 173.414C165.061 172.629 162.972 171.636 160.833 170.826C158.75 169.959 156.542 169.434 154.292 169.27C153.173 169.203 152.049 169.248 150.938 169.403C149.836 169.545 148.754 169.818 147.717 170.218L147.599 170.263H147.52L147.026 170.203L146.566 170.139L145.652 170.001L143.834 169.724C142.619 169.541 141.409 169.334 140.198 169.136L132.932 167.921C130.511 167.519 128.092 167.103 125.675 166.671C123.284 166.256 120.863 165.831 118.453 165.377Z" fill="#263238"/>
<path d="M110.969 155.656L89.6383 175.347C89.6383 175.347 83.3645 146.285 82.994 133.747C82.6136 120.681 86.6397 117.914 96.3765 132.226C106.158 146.626 110.969 155.656 110.969 155.656Z" fill="#FFC727"/>
<path d="M100.343 138.168C100.218 138.239 100.083 138.293 99.9428 138.326C99.7408 138.371 99.5305 138.362 99.3329 138.3C99.1353 138.239 98.9573 138.127 98.8165 137.975C98.5853 137.758 98.2953 137.613 97.9825 137.559C97.6698 137.506 97.3482 137.546 97.0578 137.674C96.7889 137.798 96.561 137.997 96.4008 138.247C96.2576 138.469 96.0847 138.676 95.9562 138.914C96.1933 138.77 96.4008 138.612 96.6231 138.469C96.7918 138.311 97 138.202 97.2258 138.153C97.4252 138.096 97.636 138.093 97.8371 138.143C98.0382 138.193 98.2226 138.296 98.3719 138.439C98.5907 138.667 98.8735 138.824 99.183 138.888C99.4925 138.953 99.8142 138.922 100.106 138.8C100.277 138.732 100.433 138.631 100.565 138.504L100.343 138.168ZM102.319 152.79C102.255 152.533 102.225 152.296 102.161 152.009C102.093 152.266 102.04 152.527 102.003 152.79C101.984 153.025 101.913 153.253 101.795 153.457C101.692 153.636 101.544 153.785 101.365 153.889C101.187 153.993 100.984 154.048 100.778 154.05C100.46 154.044 100.147 154.136 99.8825 154.312C99.6178 154.489 99.4131 154.742 99.2957 155.038C99.1755 155.306 99.1477 155.607 99.2166 155.892C99.266 156.164 99.2957 156.416 99.3599 156.673C99.4282 156.416 99.481 156.155 99.518 155.892C99.5473 155.672 99.6212 155.46 99.7353 155.27C99.8464 155.094 100.002 154.951 100.185 154.854C100.369 154.757 100.575 154.709 100.783 154.717C101.105 154.713 101.418 154.613 101.683 154.429C101.947 154.244 102.15 153.985 102.265 153.684C102.353 153.398 102.369 153.094 102.314 152.8L102.319 152.79ZM85.2611 126.326C85.2117 126.055 85.1771 125.798 85.1179 125.546C85.0497 125.803 84.9953 126.064 84.9548 126.326C84.9355 126.556 84.8664 126.778 84.7523 126.978C84.6484 127.156 84.4999 127.304 84.3214 127.407C84.143 127.51 83.9407 127.565 83.7347 127.566C83.5666 127.568 83.3999 127.597 83.2407 127.65C83.211 127.883 83.1814 128.12 83.1567 128.367C83.3411 128.261 83.5518 128.209 83.7643 128.218C84.0826 128.212 84.3917 128.11 84.6515 127.926C84.9113 127.742 85.1099 127.484 85.2216 127.186C85.315 126.909 85.3287 126.611 85.2611 126.326ZM93.3874 166.834C93.1623 166.813 92.9448 166.742 92.7502 166.627C92.5756 166.515 92.4329 166.359 92.336 166.176C92.2391 165.992 92.1912 165.787 92.1969 165.58C92.1926 165.258 92.092 164.944 91.908 164.68C91.7239 164.416 91.4649 164.213 91.1644 164.098C90.8911 163.989 90.5913 163.967 90.3049 164.033C90.0332 164.098 89.7812 164.127 89.5095 164.192C89.7705 164.263 90.0363 164.316 90.3049 164.35C90.5335 164.367 90.7558 164.432 90.9569 164.542C91.1327 164.649 91.2787 164.798 91.3815 164.976C91.4842 165.154 91.5404 165.354 91.5448 165.56C91.5467 165.876 91.6413 166.185 91.8169 166.449C91.9925 166.712 92.2414 166.918 92.5328 167.042C92.8046 167.155 93.1045 167.183 93.3924 167.121C93.66 167.084 93.9255 167.033 94.1877 166.968C93.9111 166.909 93.6591 166.879 93.3874 166.815V166.834ZM86.1948 145.834C85.9676 145.813 85.749 145.736 85.5575 145.612C85.3801 145.502 85.2353 145.346 85.1381 145.161C85.0408 144.976 84.9946 144.769 85.0042 144.56C84.9955 144.239 84.893 143.928 84.7096 143.665C84.5261 143.401 84.2697 143.197 83.9718 143.078L83.8483 143.038C83.8483 143.246 83.9026 143.453 83.9323 143.666C84.0603 143.777 84.1634 143.915 84.2349 144.069C84.3064 144.223 84.3447 144.39 84.3472 144.56C84.3479 144.877 84.4419 145.186 84.6177 145.45C84.7934 145.714 85.043 145.92 85.3352 146.042C85.6068 146.155 85.9052 146.187 86.1948 146.136C86.4665 146.072 86.7184 146.042 86.9704 145.973C86.7154 145.904 86.4563 145.851 86.1948 145.815V145.834Z" fill="white"/>
<path d="M106.157 153.294C105.599 153.704 105.09 154.193 104.571 154.652L102.961 156.065C101.874 157.019 100.802 157.992 99.7401 158.965C97.611 160.941 95.472 162.863 93.3774 164.854C92.7994 165.397 92.2264 165.945 91.6632 166.508C91.1001 167.072 90.5221 167.734 89.9342 168.321C89.8947 168.356 89.9342 168.405 89.9935 168.371C90.532 167.906 91.1149 167.482 91.6583 167.017C92.2017 166.553 92.7698 166.054 93.3132 165.565C94.3901 164.597 95.4571 163.62 96.5143 162.635C98.594 160.699 100.689 158.767 102.729 156.787C103.297 156.233 103.86 155.675 104.433 155.122C105.006 154.568 105.668 153.986 106.207 153.353C106.221 153.333 106.182 153.294 106.157 153.294Z" fill="#263238"/>
<path d="M104.122 141.932C104.122 141.877 104.008 141.932 104.023 141.971C104.333 143.056 104.725 144.116 105.194 145.143C104.912 144.708 104.64 144.268 104.359 143.838C103.44 142.445 102.501 141.067 101.588 139.669C101.58 139.66 101.57 139.654 101.558 139.652C101.547 139.65 101.535 139.652 101.525 139.658C101.515 139.664 101.507 139.673 101.503 139.684C101.499 139.695 101.499 139.707 101.504 139.718C102.931 142.258 104.25 144.861 105.757 147.361C107.264 149.86 110 154.114 110.855 155.472C110.321 156.129 109.501 156.831 108.914 157.527C108.859 157.591 108.968 157.665 109.027 157.611C109.729 156.969 110.692 156.327 111.374 155.576C111.458 155.482 108.444 150.246 105.791 146.076C105.273 144.658 104.724 143.27 104.122 141.932Z" fill="#263238"/>
<path d="M94.1235 171.206C92.7353 172.688 91.3027 174.17 89.8602 175.588L89.47 175.978L89.3119 175.425C88.7438 173.399 88.2251 171.369 87.741 169.329L87.0395 166.256L86.3973 163.174C85.9922 161.114 85.6267 159.049 85.3154 156.969C85.0042 154.889 84.7572 152.8 84.6387 150.7L87.326 162.981L88.6598 169.117L89.9541 175.267L89.4058 175.099C90.9619 173.78 92.518 172.466 94.1235 171.206Z" fill="#263238"/>
<path d="M83.6999 153.294C83.9321 153.734 84.1149 154.178 84.3026 154.623L84.8608 155.942C85.0386 156.386 85.2313 156.821 85.419 157.266C85.6067 157.71 85.8043 158.14 85.9723 158.604C85.302 157.885 84.771 157.048 84.4063 156.134C84.0189 155.232 83.7804 154.273 83.6999 153.294Z" fill="#263238"/>
<path d="M113.764 124.642C113.56 125.819 113.295 126.985 112.969 128.135C112.707 129.18 112.348 130.199 111.897 131.178C111.028 132.936 109.521 134.502 107.362 134.818C106.364 134.926 105.354 134.831 104.392 134.541C103.431 134.251 102.538 133.771 101.765 133.129C100.105 131.83 98.8703 130.076 97.7489 128.382C97.0573 127.334 96.4052 126.257 95.8075 125.156C95.5061 124.597 95.1998 124.044 94.9232 123.471C94.6466 122.898 94.4292 122.32 94.0982 121.767C94.0735 121.722 93.9797 121.767 93.9994 121.797C94.5774 123.091 96.3064 127.176 96.914 128.219C98.0156 130.086 99.2309 132.003 100.94 133.46C102.567 134.927 104.704 135.7 106.893 135.614C107.945 135.537 108.96 135.192 109.842 134.613C110.724 134.034 111.443 133.239 111.932 132.304C112.506 131.186 112.911 129.989 113.132 128.752C113.419 127.398 113.626 126.03 113.794 124.662C113.799 124.612 113.769 124.612 113.764 124.642Z" fill="#263238"/>
<path d="M235.026 30.0404C234.932 33.4984 231.647 37.8259 227.27 37.7419C222.893 37.6579 220.048 33.7899 219.03 33.123C218.714 32.9254 217.444 32.7426 215.829 32.5845C214.214 32.4265 212.247 32.3573 210.593 32.3326H210.415C208.76 32.3326 206.813 32.4215 205.183 32.5845C203.553 32.7476 202.293 32.9254 201.977 33.123C200.96 33.7751 198.114 37.653 193.737 37.7419C189.36 37.8308 186.075 33.4984 185.981 30.0404C185.888 26.5824 188.451 22.2303 192.137 21.8351C195.822 21.4399 199.097 24.5669 200.969 25.6389C201.572 25.9847 202.921 26.1724 204.566 26.2564C205.865 26.3256 208.473 26.3601 210.647 26.375C212.82 26.3898 215.202 26.3206 216.441 26.2564C218.086 26.1724 219.435 25.9847 220.038 25.6389C221.91 24.5669 225.17 21.4399 228.871 21.8351C232.571 22.2303 235.115 26.5775 235.026 30.0404Z" fill="#455A64"/>
<path d="M216.965 26.2266V32.7078C216.614 32.6634 216.234 32.6239 215.829 32.5843C214.193 32.4213 212.247 32.3571 210.592 32.3324H210.414C208.759 32.3324 206.813 32.4213 205.183 32.5843C204.778 32.6239 204.397 32.6634 204.042 32.7078V26.2266L204.565 26.2562C205.865 26.3254 208.473 26.3599 210.647 26.3748C212.82 26.3896 215.201 26.3204 216.441 26.2562L216.965 26.2266Z" fill="#37474F"/>
<path d="M215.245 24.5625H205.755V41.0275H215.245V24.5625Z" fill="#455A64"/>
<path d="M247 46.6787V67.8861C247 67.8861 195.17 68.059 194.34 68.6123L194.103 68.7852C191.806 69.8029 191.391 78.0477 191.435 80.4535H172.708C172.796 76.2051 173.202 61.4246 174.451 58.841C175.4 56.865 179.609 52.7549 183.595 50.0033C184.005 49.7168 184.415 49.4451 184.825 49.1932C185.155 48.9824 185.484 48.7848 185.813 48.6004C186.906 47.9212 188.127 47.4739 189.4 47.2863C190.408 47.2122 239.556 46.7034 247 46.6787Z" fill="#455A64"/>
<path opacity="0.3" d="M174.283 71.6846C174.233 69.013 174.398 66.3417 174.777 63.6966C174.959 62.3551 175.26 61.0326 175.676 59.7446L175.854 59.2506C175.889 59.1716 175.908 59.0925 175.948 59.0036C175.987 58.9147 176.042 58.8159 176.091 58.7368C176.278 58.433 176.488 58.144 176.719 57.8723C177.163 57.3388 177.628 56.8498 178.107 56.3903C180.027 54.5145 182.085 52.7841 184.262 51.2132C184.805 50.8229 185.359 50.4426 185.927 50.0819C186.492 49.7043 187.093 49.3817 187.72 49.1187C187.809 49.089 187.913 49.0643 187.997 49.0445L188.249 49.0001C188.412 48.9705 188.58 48.9507 188.743 48.926C189.074 48.8815 189.409 48.847 189.731 48.8223C190.398 48.7754 191.068 48.7754 191.736 48.8223C191.074 48.9112 190.422 49.0347 189.76 49.1779C189.439 49.2471 189.118 49.3212 188.802 49.4052L188.308 49.5336L188.071 49.5978L187.873 49.6719C187.301 49.9652 186.756 50.3073 186.243 50.6945C185.709 51.0749 185.191 51.48 184.672 51.89C183.635 52.7051 182.627 53.5597 181.629 54.4242C180.631 55.2887 179.653 56.1779 178.719 57.0968C178.255 57.5562 177.796 58.0255 177.381 58.5096C177.181 58.7416 176.997 58.9876 176.832 59.2456C176.695 59.5151 176.573 59.7922 176.467 60.0756C176.033 61.3066 175.691 62.5681 175.444 63.8497C174.995 66.4136 174.629 69.0417 174.283 71.6846Z" fill="#0D0D0D"/>
<path opacity="0.3" d="M182.859 55.1551C183.81 54.1075 184.858 53.153 185.991 52.3048C186.556 51.8775 187.143 51.4801 187.749 51.1142C188.352 50.7185 189.022 50.434 189.725 50.2744C189.409 50.4246 189.11 50.6067 188.831 50.8178C188.545 51.0154 188.263 51.2278 187.981 51.4353L186.307 52.7C185.166 53.5348 184.054 54.3845 182.859 55.1551Z" fill="#0D0D0D"/>
<path d="M220.818 45.0537H200.188V70.5145H220.818V45.0537Z" fill="#37474F"/>
<path d="M193.376 77.0596H170.415V85.8034H193.376V77.0596Z" fill="#37474F"/>
<path d="M217.414 41.0273H203.597V45.0534H217.414V41.0273Z" fill="#37474F"/>
<path d="M217.409 45.0537H203.597V43.6162L217.409 44.0954V45.0537Z" fill="#C7D3D9"/>
<path d="M200.836 126.139C200.836 134.438 194.31 145.074 181.896 145.074C169.481 145.074 162.956 134.438 162.956 126.139C162.956 120.794 165.347 115.434 168.429 110.43C168.592 118.497 175.938 122.197 182.162 119.717C186.431 118.018 187.191 114.283 189.903 112.46C192.615 110.637 196.064 111.605 197.684 114.574C199.576 118.344 200.836 122.241 200.836 126.139Z" fill="#263238"/>
<path d="M200.836 126.139C200.836 134.438 194.31 145.074 181.896 145.074C169.481 145.074 162.956 134.438 162.956 126.139C162.956 111.101 181.896 95.9601 181.896 88.7773V88.9799C181.994 92.7046 182.538 97.0815 180.414 103.143C179.697 105.786 178.971 108.72 178.932 110.721C178.932 113.082 180.028 113.838 180.241 114.915C180.666 117.093 178.645 118.2 177.188 116.817C176.511 116.18 176.2 114.777 176.412 112.865C174.436 119.529 175.424 125.175 181.08 128.208C190.531 133.282 199.966 123.644 197.674 114.594C199.576 118.343 200.836 122.246 200.836 126.139Z" fill="#455A64"/>
<path d="M180.246 118.066C180.572 118.067 180.89 118.165 181.161 118.347C181.432 118.529 181.643 118.787 181.767 119.088C181.891 119.39 181.923 119.722 181.859 120.041C181.794 120.361 181.637 120.655 181.406 120.885C181.175 121.115 180.881 121.272 180.561 121.335C180.241 121.398 179.91 121.365 179.608 121.24C179.307 121.115 179.05 120.904 178.869 120.633C178.688 120.361 178.591 120.042 178.591 119.716C178.591 119.499 178.634 119.284 178.717 119.084C178.8 118.883 178.922 118.701 179.076 118.548C179.23 118.395 179.412 118.273 179.613 118.191C179.814 118.108 180.029 118.066 180.246 118.066Z" fill="#455A64"/>
<path d="M186.13 110.345C186.522 110.345 186.841 110.026 186.841 109.633C186.841 109.24 186.522 108.922 186.13 108.922C185.737 108.922 185.418 109.24 185.418 109.633C185.418 110.026 185.737 110.345 186.13 110.345Z" fill="#455A64"/>
<path d="M187.996 103.246C190.333 102.974 192.684 105.869 195.347 110.518C194.444 109.553 193.283 108.867 192.003 108.542C190.298 108.161 189.394 108.542 187.374 107.781C186.875 107.594 186.455 107.243 186.183 106.786C185.91 106.329 185.801 105.792 185.873 105.265C185.946 104.737 186.195 104.25 186.581 103.883C186.967 103.517 187.466 103.292 187.996 103.246Z" fill="#455A64"/>
<path d="M199.003 134.196C199.003 134.196 193.954 143.459 184.079 142.678C177.944 142.184 175.538 139.186 174.342 136.523C173.31 134.226 170.79 134.745 170.79 136.829C170.79 138.914 173.789 141.176 173.789 141.176C172.427 140.665 171.216 139.819 170.266 138.716C169.317 137.614 168.659 136.291 168.355 134.868C167.367 130.714 163.578 131.119 164.067 134.745C164.709 139.507 170.089 146.062 181.481 145.82C194.305 145.538 199.003 134.196 199.003 134.196Z" fill="#37474F"/>
<path d="M172.164 131.539C172.164 131.865 172.067 132.184 171.886 132.455C171.705 132.727 171.447 132.938 171.146 133.063C170.844 133.188 170.512 133.221 170.192 133.157C169.872 133.093 169.578 132.936 169.348 132.705C169.117 132.475 168.96 132.181 168.896 131.861C168.832 131.54 168.865 131.209 168.99 130.907C169.115 130.606 169.326 130.348 169.598 130.167C169.869 129.985 170.188 129.889 170.514 129.889C170.731 129.888 170.946 129.93 171.146 130.013C171.347 130.096 171.529 130.217 171.682 130.37C171.836 130.524 171.957 130.706 172.04 130.906C172.123 131.107 172.165 131.322 172.164 131.539Z" fill="#37474F"/>
<path d="M176.481 123.501C176.457 123.463 176.439 123.421 176.427 123.377C176.442 123.407 176.462 123.446 176.481 123.501Z" fill="#FFC727"/>
<path opacity="0.6" d="M164.556 122.661C165.263 113.863 177.894 98.3809 177.894 98.3809C177.894 98.3809 170.534 108.755 169.704 115.577C169.279 119.119 169.734 121.579 169.156 124.336C168.454 127.705 164.097 128.357 164.556 122.661Z" fill="white"/>
<path opacity="0.6" d="M175.4 143.166C176.11 143.365 176.833 143.517 177.564 143.621C178.29 143.729 179.046 143.803 179.757 143.843C181.226 143.922 182.7 143.848 184.154 143.621C184.877 143.512 185.593 143.359 186.298 143.161C187.001 142.97 187.691 142.731 188.362 142.445C189.706 141.88 190.968 141.135 192.112 140.232C193.251 139.325 194.277 138.285 195.17 137.134C196.061 135.987 196.84 134.756 197.497 133.459C198.156 132.158 198.698 130.801 199.117 129.403C199.329 128.702 199.517 127.991 199.665 127.274C199.827 126.556 199.947 125.828 200.026 125.096H200.095C200.117 126.593 199.951 128.086 199.601 129.542C199.434 130.27 199.228 130.989 198.983 131.696C198.732 132.402 198.445 133.099 198.129 133.78C197.806 134.46 197.443 135.119 197.042 135.756C196.636 136.39 196.194 137 195.718 137.584C195.6 137.727 195.471 137.871 195.348 138.009L195.165 138.226L194.972 138.429L194.582 138.839L194.177 139.229C193.915 139.496 193.624 139.723 193.342 139.985C193.204 140.108 193.051 140.222 192.907 140.341C192.764 140.459 192.621 140.583 192.463 140.686C191.263 141.593 189.945 142.331 188.545 142.88C187.851 143.158 187.138 143.388 186.411 143.566C185.688 143.753 184.954 143.894 184.213 143.986C182.738 144.167 181.248 144.195 179.767 144.07C179.026 144.008 178.29 143.909 177.559 143.774C176.819 143.649 176.088 143.477 175.37 143.26L175.4 143.166Z" fill="white"/>
</g>
<defs>
<clipPath id="clip0_304_2738">
<rect width="247" height="247" fill="white"/>
</clipPath>
</defs>
</svg>
